<?xml version="1.0" encoding="UTF-8" standalone="no"?>
<!-- Created with Inkscape (http://www.inkscape.org/) -->

<svg
   width="165.78174mm"
   height="205.31665mm"
   viewBox="0 0 165.78174 205.31665"
   version="1.1"
   id="svg4050"
   xml:space="preserve"
   inkscape:export-filename="long-icon.svg"
   inkscape:export-xdpi="96"
   inkscape:export-ydpi="96"
   xmlns:inkscape="http://www.inkscape.org/namespaces/inkscape"
   xmlns:sodipodi="http://sodipodi.sourceforge.net/DTD/sodipodi-0.dtd"
   xmlns="http://www.w3.org/2000/svg"
   xmlns:svg="http://www.w3.org/2000/svg"><sodipodi:namedview
     id="namedview4052"
     pagecolor="#505050"
     bordercolor="#ffffff"
     borderopacity="1"
     inkscape:showpageshadow="0"
     inkscape:pageopacity="0"
     inkscape:pagecheckerboard="1"
     inkscape:deskcolor="#505050"
     inkscape:document-units="mm"
     showgrid="false"
     showguides="true"><inkscape:grid
       type="xygrid"
       id="grid4092"
       originx="-2.300146"
       originy="-49.352673" /></sodipodi:namedview><defs
     id="defs4047" /><g transform="translate(276.91768,-55.069775)">
                    <path
                        fill="#ed1c24" fill-opacity="1" stroke-width="0.264583"
                        d="m -205.2156,183.78449 v -37.69807 h 28.35117 28.35117 l -0.1714,3.37344 c -1.3606,26.77901 -13.69799,51.13264 -32.20899,63.57941 -7.10275,4.77587 -14.11364,7.29953 -23.06518,8.30247 l -1.25677,0.14081 z m -65.83947,-36.11063 c 0,-0.3638 0.06,-0.51263 0.13345,-0.33073 0.0734,0.1819 0.0734,0.47956 0,0.66146 -0.0734,0.1819 -0.13345,0.0331 -0.13345,-0.33073 z m 15.89937,-1.78583 c 5.20237,-0.0401 13.71534,-0.0401 18.91771,0 5.20237,0.0401 0.94588,0.0729 -9.45886,0.0729 -10.40474,0 -14.66122,-0.0328 -9.45885,-0.0729 z m -11.44215,-5.02719 c 0.004,-1.70611 0.63622,-8.48149 1.08018,-11.57552 4.481,-31.228207 23.23732,-55.949956 46.94062,-61.869994 3.0064,-0.750869 5.9494,-1.233131 7.52516,-1.233131 h 1.07379 v 37.570835 37.57083 h -28.31041 c -26.78632,0 -28.31036,-0.0249 -28.30934,-0.46302 z"
                    />
                    <path
                        fill="currentColor" fill-opacity="1" stroke-width="0.264583"
                        d="m -211.79718,252.92491 c -2.34646,-4.10382 -4.26633,-7.50734 -4.26633,-7.56338 0,-0.056 1.42875,-0.10186 3.175,-0.10186 h 3.175 v -10.67781 -8.77779 l -2.23993,-0.17217 c -19.13122,-1.4705 -37.20752,-14.9814 -48.19351,-36.02152 -6.17638,-11.82888 -9.94469,-25.98554 -10.63462,-39.95208 l -0.18298,-3.70417 -2.97657,-0.0748 -2.97656,-0.0748 v -2.108 -2.108 h 2.8758 2.8758 l 0.16399,-0.99219 c 0.0902,-0.5457 0.16646,-1.76609 0.16946,-2.71198 0.02,-6.2981 2.1791,-18.0879 4.77216,-26.05831 4.94081,-15.186841 14.04876,-29.093323 24.6828,-37.68696 8.71354,-7.041634 19.54524,-11.601264 29.34987,-12.354907 l 2.31429,-0.17789 v -3.26826 -3.268258 h 2.11666 2.11667 v 3.259762 3.259759 l 3.10885,0.322091 c 19.45366,2.015488 36.96798,15.441118 47.80962,36.648588 6.00044,11.737545 9.49808,25.230045 10.34836,39.919695 l 0.17995,3.10886 h 7.2679 10.76813 v -3.04271 c 0,-1.67349 0.0504,-3.04271 0.11201,-3.04271 0.17256,0 14.54878,7.94834 14.74737,8.15355 0.0963,0.0994 -3.20772,2.10684 -7.34218,4.46085 l -7.5172,4.28002 v -3.28784 -3.28783 h -10.7603 -7.26004 l -0.18337,3.47348 c -1.64779,31.21321 -16.64227,58.20368 -39.14466,70.4616 -5.94523,3.2386 -14.30985,5.65073 -20.94381,6.03936 l -1.05834,0.062 -0.067,8.75067 -0.067,10.6507 h 3.04356 c 1.67395,0 3.04224,0.0893 3.04064,0.19844 -0.002,0.10914 -1.83221,3.51266 -4.06804,7.56338 l -4.06513,7.36494 z m 2.08367,-69.13536 v -37.96771 h -28.59097 -28.59096 l 0.16551,2.57969 c 0.66615,10.38273 2.18062,18.4543 5.07605,27.05364 5.55085,16.48587 15.75466,30.33969 28.34502,38.48435 2.56986,1.66244 8.35162,4.42233 11.29889,5.39347 3.01342,0.99293 7.03232,1.85812 9.92455,2.13655 1.23179,0.11859 2.26938,0.23183 2.30576,0.25166 0.0364,0.0198 0.0661,-17.04941 0.0661,-37.93165 z m 11.10444,36.86962 c 3.72264,-0.71351 7.68084,-2.06029 11.51743,-3.91883 19.45682,-9.42535 33.84075,-31.80229 37.67805,-58.61538 0.57997,-4.05258 1.17176,-11.68153 0.93577,-12.06337 -0.1791,-0.28979 -56.66277,-0.33087 -56.80187,-0.0413 -0.0524,0.10914 -0.0474,17.14927 0.0112,37.86696 l 0.10651,37.66853 1.89143,-0.18284 c 1.04029,-0.10056 3.13797,-0.42175 4.66151,-0.71376 z m -11.10444,-116.90608 c 0,-35.859311 -0.0242,-37.835148 -0.46302,-37.830253 -1.53591,0.01714 -6.61002,0.881552 -9.13996,1.557073 -22.03508,5.883579 -39.76654,27.951945 -45.40765,56.5138 -0.99068,5.01597 -1.57381,9.6085 -1.78855,14.08596 l -0.16828,3.50884 h 28.48373 28.48373 z m 61.27909,34.32969 c -1.42536,-27.24908 -13.96561,-51.809622 -32.75399,-64.149704 -6.71606,-4.41107 -14.9876,-7.378301 -22.08979,-7.924213 l -2.20198,-0.169256 v 37.874443 37.87446 h 28.61457 28.61457 z"
                    />
                </g></svg>
