<?xml version="1.0" encoding="UTF-8" standalone="no"?>
<!-- Created with Inkscape (http://www.inkscape.org/) -->

<svg
   width="757.28223mm"
   height="311.3251mm"
   viewBox="0 0 757.28223 311.3251"
   version="1.1"
   id="svg6815"
   xml:space="preserve"
   inkscape:export-filename="logo-full.svg"
   inkscape:export-xdpi="96"
   inkscape:export-ydpi="96"
   xmlns:inkscape="http://www.inkscape.org/namespaces/inkscape"
   xmlns:sodipodi="http://sodipodi.sourceforge.net/DTD/sodipodi-0.dtd"
   xmlns="http://www.w3.org/2000/svg"
   xmlns:svg="http://www.w3.org/2000/svg"><sodipodi:namedview
     id="namedview6817"
     pagecolor="#505050"
     bordercolor="#ffffff"
     borderopacity="1"
     inkscape:showpageshadow="0"
     inkscape:pageopacity="0"
     inkscape:pagecheckerboard="1"
     inkscape:deskcolor="#505050"
     inkscape:document-units="mm"
     showgrid="false" /><defs
     id="defs6812" /><g
     inkscape:label="Layer 1"
     inkscape:groupmode="layer"
     id="layer1"
     transform="translate(275.03583,-9.1487932)"><g
       id="g6831"
       transform="translate(-3.8069392,6.0199343)"><path
         style="fill:#ed1c24;fill-opacity:1;stroke-width:0.264583"
         d="m -199.52681,176.95229 v -37.69806 h 28.35117 28.35117 l -0.1714,3.37344 c -1.36057,26.779 -13.69799,51.13264 -32.20899,63.57941 -7.10275,4.77587 -14.11364,7.29949 -23.06518,8.30246 l -1.25677,0.14082 z m 87.99155,35.44858 c -7.76714,-1.95926 -12.40821,-8.88303 -10.60218,-15.81683 0.59191,-2.27251 1.35094,-3.56141 3.26475,-5.54384 1.70546,-1.76661 4.40714,-3.68495 7.11769,-5.05394 l 1.38535,-0.69968 -0.96296,-1.2542 c -0.52963,-0.68981 -1.2721,-1.90904 -1.64993,-2.7094 -0.59677,-1.26412 -0.68697,-1.80265 -0.68697,-4.10104 0,-3.04419 0.42786,-4.17174 2.34277,-6.17384 4.2862,-4.48138 14.058439,-4.53678 18.617837,-0.10555 1.671624,1.62463 2.310513,3.17509 2.317247,5.62349 0.0047,1.71892 -0.112276,2.22912 -0.859105,3.74615 -0.966925,1.96411 -3.104499,4.13682 -5.339289,5.42707 l -1.354285,0.78189 3.117617,3.99935 c 1.71469,2.19964 3.180823,4.00661 3.258074,4.01549 0.19867,0.0228 3.265919,-4.93278 4.416827,-7.13609 l 0.963006,-1.84359 h 5.111211 5.11121 v 3.43958 3.43959 h -2.617526 c -2.248831,0 -2.642544,0.0652 -2.795137,0.46302 -0.299911,0.78184 -2.818577,4.8803 -3.9121,6.3659 l -1.034169,1.40496 1.509866,2.03462 c 0.830426,1.11904 1.695661,2.18345 1.922743,2.36535 0.280024,0.22431 1.460814,0.33073 3.669601,0.33073 h 3.256722 v 3.30729 3.30729 h -6.458858 -6.458857 l -1.892901,-2.37366 -1.8929,-2.37366 -1.330754,1.0519 c -1.87946,1.48563 -4.242287,2.74932 -6.70427,3.58559 -1.80558,0.61332 -2.64162,0.7317 -5.68854,0.80552 -2.54721,0.0617 -4.02224,-0.0271 -5.14179,-0.30946 z m 10.16887,-8.44596 c 1.453872,-0.73336 3.704577,-2.39828 3.703706,-2.73975 -2.54e-4,-0.0994 -1.858523,-2.50244 -4.129486,-5.3401 -2.80823,-3.50898 -4.26804,-5.1315 -4.5636,-5.07222 -0.77129,0.15467 -2.75111,1.41945 -3.94591,2.52078 -2.65039,2.44303 -3.09679,5.5359 -1.21044,8.38636 1.97674,2.98705 6.63228,4.01718 10.14573,2.24493 z m 0.54351,-23.64388 c 2.800464,-1.77929 3.646956,-3.87591 2.239973,-5.54802 -0.898194,-1.06744 -1.996073,-1.46967 -3.592663,-1.31626 -2.14986,0.20658 -3.51555,1.8784 -2.88634,3.53335 0.29955,0.78788 2.64011,4.07829 2.901,4.07829 0.089,0 0.69108,-0.33631 1.33803,-0.74736 z m 117.703756,32.02938 c -2.251472,-0.60981 -4.528635,-1.9865 -5.899706,-3.56678 -0.599651,-0.69115 -1.1795652,-1.2567 -1.2887058,-1.25677 -0.1091407,-7e-5 -0.1984375,1.0119 -0.1984375,2.24883 v 2.24895 H 4.8638183 0.23361 v -9.3927 -9.39271 h 4.5914204 4.5914469 l 0.3139017,1.90082 c 0.774885,4.69208 3.831299,7.79297 7.975679,8.09172 3.871939,0.27911 6.87877,-2.38515 6.863398,-6.08144 -0.0077,-1.84023 -0.681699,-3.24134 -2.270522,-4.71963 -1.579563,-1.46966 -3.12121,-2.37598 -9.100741,-5.35016 -10.1342293,-5.04073 -13.50160779,-9.19285 -13.48983383,-16.63367 0.0100542,-6.35288 2.64723563,-10.93249 7.75170953,-13.46111 3.6840853,-1.82499 7.7064663,-2.2243 11.3963183,-1.13131 1.933866,0.57284 3.337534,1.46731 4.90736,3.12718 0.75385,0.7971 1.423458,1.44926 1.487963,1.44926 0.06453,0 0.117317,-1.01203 0.117317,-2.24895 v -2.24896 h 4.630208 4.630208 v 8.46666 8.46667 h -4.620022 -4.619995 l -0.279294,-1.12448 c -0.74168,-2.98619 -2.428293,-5.35703 -4.612085,-6.48313 -1.828773,-0.94305 -4.77475,-1.00474 -6.414955,-0.13435 -2.920814,1.54997 -3.503374,4.65905 -1.335987,7.12993 1.252855,1.42826 3.078904,2.49507 8.30961,4.85465 7.244265,3.26788 10.669006,5.51181 12.975881,8.50194 2.366407,3.06731 3.362061,6.30068 3.326686,10.80336 -0.04022,5.11851 -1.216687,8.42423 -4.092258,11.49875 -1.763315,1.88531 -3.684058,3.10268 -6.35418,4.02731 -2.637446,0.91332 -7.447994,1.10999 -10.031968,0.41012 z m 42.090234,-0.012 c -2.233877,-0.5839 -4.039341,-1.65838 -5.720556,-3.40444 -0.745199,-0.77396 -1.429809,-1.4072 -1.521354,-1.4072 -0.09152,0 -0.166423,1.01203 -0.166423,2.24896 v 2.24895 H 46.932568 42.30236 v -9.3927 -9.39271 h 4.613989 4.614016 l 0.169916,1.25677 c 0.677068,5.00775 3.681756,8.35351 7.840609,8.73062 2.010225,0.18228 3.637968,-0.29555 5.011341,-1.4711 1.405996,-1.20349 2.08018,-2.67732 2.08018,-4.54754 0,-3.67873 -2.195644,-5.65734 -11.100884,-10.00355 -10.027021,-4.89371 -13.396595,-8.84567 -13.691473,-16.05791 -0.200237,-4.89763 1.132337,-8.68231 4.102999,-11.65297 3.001698,-3.00168 8.239654,-4.72982 12.521301,-4.13108 3.29475,0.46073 4.862935,1.19332 6.97222,3.25711 1.01817,0.99622 1.884971,1.81131 1.92622,1.81131 0.04125,0 0.07498,-1.01203 0.07498,-2.24895 v -2.24896 h 4.630208 4.630208 v 8.46666 8.46667 h -4.625154 -4.625182 l -0.155681,-0.7276 c -0.704347,-3.29185 -2.305949,-5.61485 -4.749191,-6.88837 -1.778979,-0.92728 -4.735089,-0.9812 -6.391143,-0.11658 -2.925101,1.5272 -3.471016,4.74532 -1.226449,7.22979 1.211342,1.3408 3.075887,2.42915 7.66183,4.47231 10.770129,4.79832 14.673792,8.26974 16.386969,14.57244 0.627063,2.30696 0.636614,7.41071 0.01826,9.76843 -1.517306,5.78526 -5.936482,10.02159 -11.736017,11.25044 -2.404824,0.50955 -6.14971,0.46941 -8.285322,-0.0888 z m 46.43438,0.0633 c -11.413442,-1.75173 -19.834124,-8.59563 -23.251853,-18.89786 -1.246796,-3.75836 -1.588294,-6.40094 -1.414727,-10.9476 0.529193,-13.86115 9.206812,-23.90606 23.26367,-26.92922 3.9142,-0.84181 11.80227,-0.84115 15.75224,0.001 9.60059,2.04768 16.39562,7.05645 20.33447,14.98904 2.05603,4.14068 2.78694,7.15835 2.94786,12.17083 0.25352,7.89651 -1.80732,14.27439 -6.37792,19.73822 -4.37515,5.23021 -10.99285,8.76635 -18.48868,9.87938 -3.3835,0.5024 -9.47767,0.50044 -12.76506,-0.004 z m 11.27643,-10.49372 c 3.49644,-1.27864 5.62308,-2.92393 7.60018,-5.87995 1.40039,-2.09375 2.47209,-4.94564 2.97424,-7.91479 0.45921,-2.71522 0.17163,-8.54263 -0.54327,-11.00924 -1.54342,-5.32496 -5.22581,-9.5786 -9.63335,-11.12773 -7.43418,-2.6129 -15.06611,0.48907 -18.57941,7.55153 -1.750801,3.51951 -2.31566,6.55793 -2.139633,11.50937 0.154729,4.35205 0.61132,6.30756 2.223982,9.525 1.173771,2.34179 3.965871,5.29311 6.077501,6.42411 3.50232,1.87584 8.3865,2.25037 12.01976,0.9217 z m 52.24989,10.50958 c -4.73083,-0.76868 -9.34892,-2.48455 -12.4742,-4.63479 -3.5795,-2.46277 -7.12402,-6.86392 -8.83187,-10.96643 -3.42332,-8.22314 -3.26753,-18.73233 0.39007,-26.31648 1.56924,-3.25387 3.01752,-5.25048 5.57673,-7.68815 3.55536,-3.38655 7.50173,-5.57697 12.19076,-6.76644 9.14505,-2.31984 18.15991,-1.11078 24.68573,3.31082 l 1.19062,0.80671 0.0768,-2.1149 0.0769,-2.11489 h 4.61949 4.61952 v 9.78958 9.78958 h -4.61775 -4.61774 l -1.22135,-2.36474 c -1.4959,-2.89631 -2.78307,-4.39397 -5.09852,-5.93222 -2.62136,-1.74147 -4.64492,-2.34506 -7.86027,-2.34454 -4.86036,8e-4 -8.32537,1.37165 -11.51331,4.55501 -3.54264,3.53757 -4.99716,7.30898 -5.21536,13.52297 -0.15568,4.43374 0.24159,7.05935 1.53701,10.15832 2.939,7.03073 10.10923,10.83756 17.4729,9.27672 5.6623,-1.2002 10.14026,-5.83123 12.03465,-12.44602 0.27181,-0.94902 0.57918,-1.7255 0.68311,-1.7255 0.23857,0 10.3257,4.78153 10.61487,5.03169 0.51038,0.44151 -1.856,5.8881 -3.79146,8.72665 -3.43439,5.03694 -9.07338,8.57214 -16.26615,10.1976 -2.66367,0.60195 -11.17548,0.75083 -14.26118,0.24945 z m 249.43552,0.0252 c -2.23933,-0.54318 -4.20744,-1.67091 -5.90323,-3.38257 l -1.59716,-1.61208 v 2.28828 2.28828 h -4.7625 -4.7625 v -9.39271 -9.39271 h 4.72628 4.72628 l 0.13917,1.734 c 0.53676,6.68686 8.05204,10.72494 12.64441,6.79405 3.21792,-2.75441 2.87489,-7.08537 -0.79221,-10.00214 -0.80733,-0.64215 -3.9682,-2.43657 -7.02414,-3.98761 -6.35378,-3.22485 -8.67518,-4.72633 -10.91744,-7.06142 -3.47904,-3.62304 -4.77383,-8.63605 -3.63347,-14.06751 1.11895,-5.32951 5.10809,-9.4983 10.33875,-10.80433 5.52257,-1.37892 10.03797,-0.34335 13.36225,3.06451 l 1.56554,1.60489 v -2.29034 -2.29035 h 4.63021 4.63021 v 8.46667 8.46666 h -4.57722 -4.57718 l -0.57499,-1.95439 c -1.56689,-5.32582 -6.81776,-8.00251 -11.04593,-5.63078 -2.09021,1.17247 -2.86256,3.68697 -1.81227,5.90028 0.89477,1.88555 2.17316,2.66134 12.11784,7.3537 7.40465,3.49385 10.9565,6.95957 12.62904,12.32286 0.80068,2.56753 0.85992,7.872 0.11819,10.58333 -1.94755,7.11902 -7.95965,11.40973 -15.90353,11.34999 -1.30968,-0.01 -2.99468,-0.1667 -3.7444,-0.34856 z m -479.781637,-5.04063 v -4.62253 l 3.502004,-0.0738 3.502007,-0.0738 5.488474,-18.52084 c 3.018663,-10.18646 5.490885,-18.61013 5.493829,-18.71927 0.0029,-0.10914 -1.661522,-0.19844 -3.698814,-0.19844 h -3.704166 v -4.6302 -4.63021 h 18.25625 18.25625 v 4.63021 4.6302 h -3.735017 c -3.427334,0 -3.724963,0.0382 -3.612886,0.46303 0.06718,0.25466 2.724494,8.70809 5.905156,18.78541 l 5.7829717,18.3224 h 3.2538458 3.2538458 v 4.63021 4.6302 H -17.096598 -30.72264 v -4.6302 -4.63021 h 3.571875 c 1.964531,0 3.571875,-0.0601 3.571875,-0.13358 0,-0.11714 -1.09601,-4.11097 -2.26867,-8.26694 l -0.391954,-1.38907 h -7.391209 -7.391217 l -1.464935,4.58813 c -0.805712,2.52346 -1.464932,4.72612 -1.464932,4.89479 0,0.2179 1.072203,0.30667 3.704167,0.30667 h 3.704167 v 4.63021 4.6302 H -48.97889 -61.414307 Z m 32.808334,-22.80026 c 0,-0.14906 -4.02208,-15.29596 -4.405495,-16.59083 -0.07974,-0.26931 -0.240798,-0.38837 -0.357897,-0.26458 -0.223007,0.23574 -5.026192,16.22779 -5.026192,16.73454 0,0.20187 1.505892,0.29157 4.894792,0.29157 2.692135,0 4.894792,-0.0768 4.894792,-0.1707 z m 233.891663,22.79258 v -4.63021 h 4.23334 4.23333 v -18.78542 -18.78542 h -4.23333 -4.23334 v -4.6302 -4.63021 h 15.875 15.875 v 4.63021 4.6302 h -4.36562 -4.36563 v 18.78542 18.78542 h 4.36563 4.36562 v 4.63021 4.6302 h -15.875 -15.875 z m 34.66042,0 v -4.63021 h 3.56169 3.56166 l 0.27644,-0.99219 c 0.15203,-0.5457 2.64057,-8.96937 5.53011,-18.71927 l 5.25372,-17.72708 -3.80016,-0.0732 -3.80013,-0.0732 v -4.62314 -4.62313 h 18.38854 18.38855 v 4.62313 4.62314 l -3.80323,0.0732 -3.80323,0.0732 4.68686,14.81666 c 2.57778,8.14917 5.2452,16.57284 5.92759,18.71927 l 1.24071,3.90261 h 3.29962 3.29959 v 4.63021 4.6302 H 284.5284 270.90236 v -4.6302 -4.63021 h 3.43958 c 2.57358,0 3.44038,-0.0833 3.44276,-0.33073 0.003,-0.1819 -0.55692,-2.38456 -1.2415,-4.89479 l -1.24468,-4.56407 -7.4236,5.3e-4 -7.4236,5.3e-4 -1.42748,4.56345 c -0.7851,2.50989 -1.48244,4.71227 -1.54964,4.89417 -0.0942,0.25507 0.76197,0.33073 3.74256,0.33073 h 3.86477 v 4.63021 4.63021 h -12.56771 -12.56771 v -4.63021 z m 32.15738,-25.86302 c -0.47622,-1.78263 -1.49815,-5.6224 -2.27097,-8.53282 -1.45497,-5.47949 -1.49191,-5.59623 -1.7036,-5.38455 -0.0702,0.0702 -1.20322,3.7512 -2.51788,8.18004 -1.31464,4.42884 -2.45587,8.26079 -2.53606,8.51545 -0.13533,0.42983 0.21413,0.46302 4.87431,0.46302 h 5.02007 z m 32.40095,25.86302 v -4.63021 h 4.23334 4.23333 v -18.78542 -18.78542 h -4.36562 -4.36563 v 6.61459 6.61458 h -4.7625 -4.7625 V 167.16779 155.923 h 25.53229 25.53229 v 11.24479 11.24479 h -4.7625 -4.7625 v -6.61458 -6.61459 h -4.36562 -4.36563 v 18.78542 18.78542 h 4.23334 4.23333 v 4.63021 4.6302 h -15.74271 -15.74271 z m 44.18542,0 v -4.63021 h 3.30729 3.30729 v -18.78542 -18.78542 h -3.30729 -3.30729 v -4.6302 -4.63021 h 24.73854 24.73854 v 8.73125 8.73125 h -5.29166 -5.29167 v -4.10104 -4.10105 h -8.86354 -8.86354 v 6.61459 6.61458 h 7.01145 7.01146 v 4.63021 4.63021 h -7.01146 -7.01145 v 7.54062 7.54063 h 8.86354 8.86354 v -4.23334 -4.23333 h 5.29167 5.29166 v 8.86354 8.86354 H 373.4284 348.68986 Z m -614.05614,-66.54271 c 0,-0.3638 0.06,-0.51263 0.13345,-0.33073 0.0734,0.1819 0.0734,0.47956 0,0.66146 -0.0734,0.1819 -0.13345,0.0331 -0.13345,-0.33073 z m 15.89937,-1.78583 c 5.20237,-0.0401 13.71534,-0.0401 18.91771,0 5.20237,0.0401 0.94588,0.0729 -9.45886,0.0729 -10.40474,0 -14.66122,-0.0328 -9.45885,-0.0729 z m -11.44215,-5.02719 c 0.004,-1.70611 0.63622,-8.4815 1.08018,-11.57552 4.481,-31.228211 23.23732,-55.949959 46.94062,-61.869998 3.0064,-0.750869 5.9494,-1.23313 7.52516,-1.23313 h 1.07379 v 37.570833 37.570835 h -28.31041 c -26.78632,0 -28.31036,-0.0249 -28.30934,-0.46302 z"
         id="path6839"
         sodipodi:nodetypes="ccccssscccssscsssssssscssscccccssscssscccccccssscssssssssssssssssscccccccsscsssssssscccccccsssssssssssssscccccccssssssssssscccccccsssscsssscscscssssccssscsssssssscsssscccccccccssssssssssssssscccccccccsssssssscccccccccsssssscsccccscscccccccssccccccccccssscccsssccccccsssssscccccccccccccccccccccccccccccsscccccccccccsscccccccccscscccssscccccccsssssscsccccccccccccccccccccccccccccccccccccccccccccccccccccccccccccccccccccccccccssssssssscsscccss" /><path
         style="fill:#231f20;fill-opacity:1;stroke-width:0.264583"
         d="m -206.10839,306.99239 c -2.34648,-4.10382 -4.26633,-7.50734 -4.26633,-7.56338 0,-0.056 1.42875,-0.10187 3.175,-0.10187 h 3.175 v -40.17763 -40.17763 l -2.23993,-0.17218 c -19.13123,-1.47054 -37.20752,-14.98139 -48.19351,-36.02151 -6.17638,-11.82888 -9.94467,-25.98554 -10.63462,-39.95209 l -0.18298,-3.70416 -2.97657,-0.0748 -2.97656,-0.0748 v -2.108 -2.108 h 2.8758 2.8758 l 0.16399,-0.99219 c 0.0902,-0.5457 0.16646,-1.76609 0.16946,-2.71198 0.02,-6.29809 2.1791,-18.0879 4.77216,-26.05831 4.94081,-15.186835 14.04876,-29.093316 24.6828,-37.686954 8.71354,-7.041634 19.54523,-11.601262 29.34987,-12.354906 l 2.31429,-0.17789 v -3.268261 -3.268257 h 2.11666 2.11667 v 3.259762 3.259759 l 3.10885,0.32209 c 19.45366,2.015466 36.96798,15.441118 47.80962,36.648589 6.00044,11.737548 9.4981,25.230038 10.34836,39.919698 l 0.17995,3.10885 h 304.76828 304.76827 v -3.04271 c 0,-1.67349 0.0504,-3.04271 0.112,-3.04271 0.17256,0 14.54878,7.94834 14.74737,8.15355 0.0963,0.0995 -3.20773,2.10684 -7.34218,4.46085 l -7.51719,4.28002 v -3.28783 -3.28784 H 166.4315 -138.32892 l -0.18337,3.47349 c -1.64782,31.2132 -16.64227,58.20368 -39.14466,70.4616 -5.94523,3.23859 -14.30986,5.65062 -20.94381,6.03936 l -1.05834,0.062 -0.067,40.15052 -0.067,40.15052 h 3.04356 c 1.67395,0 3.04224,0.0893 3.04064,0.19844 -0.002,0.10914 -1.83222,3.51266 -4.06804,7.56338 l -4.06513,7.36494 z m 2.08367,-130.03504 v -37.96771 h -28.59097 -28.59096 l 0.16551,2.57969 c 0.66616,10.38273 2.18062,18.4543 5.07605,27.05365 5.55085,16.48587 15.75466,30.33968 28.34502,38.48435 2.56986,1.66243 8.35162,4.42232 11.29889,5.39346 3.01342,0.99293 7.03232,1.85812 9.92455,2.13656 1.23179,0.11858 2.26938,0.23183 2.30576,0.25166 0.0364,0.0198 0.0661,-17.04942 0.0661,-37.93166 z m 11.10444,36.86962 c 3.72264,-0.7135 7.68084,-2.06028 11.51743,-3.91882 19.45682,-9.42535 33.84075,-31.8023 37.67805,-58.61538 0.57997,-4.05259 1.17176,-11.68153 0.93577,-12.06338 -0.1791,-0.28979 -56.66277,-0.33086 -56.80187,-0.0413 -0.0524,0.10914 -0.0474,17.14928 0.0112,37.86697 l 0.10651,37.66852 1.89143,-0.18283 c 1.04029,-0.10056 3.13797,-0.42176 4.66151,-0.71377 z M -204.02472,96.920895 c 0,-35.85931 -0.0242,-37.835147 -0.46302,-37.830252 -1.53591,0.01714 -6.61002,0.881552 -9.13996,1.557073 -22.03508,5.883579 -39.76654,27.951946 -45.40765,56.513804 -0.99068,5.01597 -1.57381,9.60849 -1.78855,14.08596 l -0.16828,3.50883 h 28.48373 28.48373 z m 61.27909,34.329685 c -1.42533,-27.24908 -13.96561,-51.809616 -32.75399,-64.149698 -6.71606,-4.41107 -14.9876,-7.378295 -22.08979,-7.924212 l -2.20198,-0.169257 v 37.874448 37.874449 h 28.61457 28.61457 z M 60.690902,117.00933 C 51.275148,115.88568 42.990065,111.52893 36.669354,104.3775 26.049112,92.361444 20.979377,71.402708 23.409602,49.560478 25.681314,29.142939 35.073811,13.228202 48.784652,6.5647066 56.601264,2.7658241 66.270594,2.0688985 74.449235,4.714909 c 4.646454,1.5032527 9.105397,4.2741461 12.123023,7.533537 0.811292,0.876305 1.540907,1.593282 1.62134,1.593282 0.08046,0 0.146262,-2.024062 0.146262,-4.4979164 V 4.8458949 h 6.482292 6.482288 V 24.425062 44.004228 h -6.61458 c -5.926614,0 -6.614583,-0.04467 -6.614583,-0.429511 0,-0.791149 -1.810676,-5.851411 -2.796355,-7.81494 C 82.032087,29.29199 76.636757,24.468504 71.252195,23.21974 c -2.326216,-0.539486 -6.625749,-0.530421 -8.70921,0.01836 -7.874026,2.074024 -13.713037,9.305035 -16.516429,20.453913 -1.221291,4.857006 -1.475555,7.499257 -1.46857,15.261172 0.0069,7.785428 0.269266,10.566961 1.496721,15.875 3.110416,13.450662 10.753725,21.776242 20.457028,22.283118 8.838539,0.461703 15.388352,-5.249299 18.273342,-15.933118 0.353669,-1.309688 0.643334,-2.470547 0.643705,-2.579688 0,-0.109141 -3.094964,-0.198437 -6.878505,-0.198437 H 71.67111 v -9.260417 -9.260417 h 18.09914 18.09911 l 0.18553,1.348912 c 0.3388,2.463387 -0.25334,11.475866 -1.09344,16.642755 -3.39175,20.85984 -15.483394,34.881877 -33.305965,38.623207 -3.088852,0.64841 -9.660202,0.90957 -12.964583,0.51523 z M 192.2384,116.30162 c -0.0627,-0.10914 -5.32762,-21.004605 -11.6999,-46.434371 l -11.586,-46.235937 h -4.58756 -4.58758 V 14.238603 4.8458949 h 19.18229 19.18229 v 9.3927081 9.392709 h -4.51575 c -4.17438,0 -4.5058,0.035 -4.38435,0.46302 0.0723,0.254662 2.94367,12.607396 6.38093,27.450521 6.91549,29.863397 6.46998,28.019021 6.71052,27.780885 0.0959,-0.0949 3.09877,-12.635195 6.67319,-27.867335 l 6.49888,-27.6948 -4.31607,-0.07254 -4.3161,-0.07254 V 14.232206 4.8458949 h 16.27188 16.27187 v 9.3864601 9.386461 l -4.55527,0.07239 -4.55526,0.07239 -11.23492,46.368229 -11.23492,46.368225 h -7.74211 c -4.25818,0 -7.79338,-0.0893 -7.85606,-0.19844 z m -314.77146,-9.85573 v -9.260412 h 5.02709 5.02708 V 60.408395 23.631312 h -5.02708 -5.02709 V 14.238603 4.8458949 h 19.43668 19.436677 l 0.258651,0.9921875 c 6.082744,23.3335726 16.75969,63.9835336 16.822007,64.0458536 0.143053,0.14305 0.389432,-0.744617 8.872273,-31.965124 4.527222,-16.662136 8.411022,-30.9198702 8.630663,-31.6838546 l 0.399352,-1.3890625 h 19.560392 19.5603917 v 9.3927081 9.392709 h -5.0270837 -5.027083 v 36.777083 36.777083 h 5.159375 5.159375 v 9.260412 9.26042 h -19.976042 -19.976041 v -9.26042 -9.260412 h 5.027083 5.027083 V 60.392422 23.599368 l -0.975219,0.08212 -0.97522,0.08212 -12.070689,45.905209 -12.070686,45.905203 -4.218156,0.07 -4.218155,0.07 -11.762126,-44.784568 c -6.469168,-24.631515 -11.925234,-45.350121 -12.124589,-46.041345 -0.353087,-1.224261 -0.389327,-1.25677 -1.400895,-1.25677 h -1.038428 V 60.40842 97.185503 h 5.159372 5.159375 v 9.260407 9.26042 h -16.404167 -16.40417 z m 125.6770867,1.05834 v -8.202085 h 8.4666663 8.466667 v 8.202085 8.20208 H 11.610693 3.1440267 Z m 103.4520833,0 v -8.202085 h 8.59896 8.59896 v 8.202085 8.20208 h -8.59896 -8.59896 z m 134.67292,0.66872 v -7.53336 l 3.77031,-0.0734 3.77031,-0.0734 0.0673,-30.228646 0.0673,-30.228646 h -3.83759 -3.83757 v -7.672916 -7.672917 h 28.04583 28.04583 v 14.2875 14.2875 h -5.95312 -5.95313 v -6.614583 -6.614584 h -10.05416 -10.05417 v 10.583334 10.583333 h 7.9375 7.9375 v 7.540625 7.540625 h -7.9375 -7.9375 v 12.174016 12.174009 l 9.98802,-0.0693 9.98802,-0.0693 0.0706,-6.813021 0.0706,-6.813021 h 5.94865 5.94865 v 14.419792 14.41979 h -28.04583 -28.04583 z m 59.53125,-7.9e-4 v -7.53423 l 4.43177,-0.0725 4.43177,-0.0725 0.0673,-30.222239 0.0673,-30.222243 -4.43291,-0.07255 -4.43288,-0.07255 -0.0702,-7.615553 -0.0702,-7.615551 21.76605,0.07493 21.76606,0.07485 1.97839,0.722017 c 4.80155,1.752319 8.6319,5.623117 10.85959,10.974198 3.80838,9.148186 3.33697,21.4683 -1.1025,28.813588 -1.51143,2.50072 -3.29737,4.417478 -6.50634,6.982905 l -0.82738,0.661458 5.11683,13.545558 c 2.81424,7.450056 5.19441,13.671072 5.28921,13.824482 0.10879,0.17602 1.67957,0.27892 4.25781,0.27892 h 4.08543 v 7.54063 7.54062 h -9.73207 -9.73209 l -7.14711,-19.909897 -7.14711,-19.909896 -3.7583,-0.07341 -3.75832,-0.07341 v 12.442679 12.442684 h 3.96875 3.96875 v 7.54063 7.54062 h -16.66875 -16.66875 v -7.53423 z m 36.5552,-47.84477 c 1.77168,-0.862139 3.21749,-2.373572 4.0867,-4.27215 2.1172,-4.624549 1.23071,-11.177564 -1.92373,-14.220831 -1.7235,-1.662826 -2.34016,-1.798931 -8.15031,-1.798931 h -5.16786 v 10.608567 10.608569 l 4.82864,-0.0982 c 4.63159,-0.09418 4.88977,-0.127939 6.32656,-0.827103 z m 32.23646,47.8383 v -7.54063 h 3.96875 c 2.18282,0 3.96875,-0.10514 3.96875,-0.23365 0,-0.1285 2.79797,-13.730731 6.21771,-30.227174 3.41974,-16.496443 6.21771,-30.023956 6.21771,-30.061143 0,-0.03719 -1.905,-0.06762 -4.23333,-0.06762 h -4.23334 V 32.362557 24.68964 h 20.76979 20.7698 v 7.666519 7.666519 l -4.31835,0.07254 -4.31837,0.07254 6.5558,29.633333 c 3.60568,16.298334 6.62278,29.901224 6.70464,30.228649 0.1455,0.58188 0.23236,0.59531 3.848,0.59531 h 3.69911 v 7.54063 7.54062 h -15.34583 -15.34584 v -7.54062 -7.54063 h 3.96214 3.96213 l -0.14401,-0.727605 c -0.0792,-0.400182 -0.76441,-3.942291 -1.52268,-7.871354 l -1.37866,-7.14375 -8.39258,-0.06986 c -4.61592,-0.03842 -8.39259,-0.02479 -8.39259,0.03027 0,0.05508 -0.7729,3.539326 -1.71754,7.74278 -0.94464,4.203453 -1.71855,7.731939 -1.71979,7.841079 0,0.10914 1.90275,0.19844 4.23108,0.19844 h 4.23334 v 7.54063 7.54062 h -14.02292 -14.02292 z m 37.04167,-37.053468 c 0,-0.633526 -5.01362,-27.18272 -5.16109,-27.330209 -0.0718,-0.07181 -0.17325,-0.08095 -0.22543,-0.02032 -0.10245,0.11907 -5.74098,27.232168 -5.73162,27.560764 0.003,0.109141 2.50595,0.198438 5.56189,0.198438 4.83378,0 5.55625,-0.05314 5.55625,-0.408673 z"
         id="path6833" /></g></g></svg>
