<svg xmlns="http://www.w3.org/2000/svg" width="221" height="106" viewBox="0 0 278 106" role="img" aria-label="M.G. VERA ASSOCIATES logo">
  <defs>
    <!-- Arrowheads -->
    <marker id="arrowBlack" viewBox="0 0 10 10" refX="8" refY="5" markerWidth="4" markerHeight="5" orient="auto">
      <path d="M 0 0 L 10 5 L 0 10 Z" fill="#111"/>
    </marker>
  </defs>

  <!-- Background (transparent) -->
  <rect x="0" y="0" width="221" height="106" fill="none"/>

  <!-- Quadrants (red: upper-left and lower-right) -->
  <path d="M34 46 L34 21 A25 25 0 0 0 9 46 Z" fill="#e31b23"/>
  <path d="M34 46 L59 46 A25 25 0 0 1 34 71 Z" fill="#e31b23"/>

  <!-- <path d="M34 46 L59 46 A25 25 0 0 1 34 71 Z" fill="#e31b23"/> -->

  <!-- Target circle outline -->
  <circle cx="34" cy="46" r="25" fill="none" stroke="#111" stroke-width="2"/>

  <!-- Crosshair lines -->
  <line x1="34" y1="15" x2="34" y2="105" stroke="#111" stroke-width="2" marker-end="url(#arrowBlack)"/>
  <line x1="5" y1="46" x2="260" y2="46" stroke="#111" stroke-width="2" marker-end="url(#arrowBlack)"/>

  <!-- Text -->
  <text x="64" y="40"
        font-family="Georgia, 'Times New Roman', serif"
        font-size="35"
        font-weight="700"
        fill="#111"
        letter-spacing="-1">
    M.G. V
  </text>
  <text x="165" y="40"
        font-family="Georgia, 'Times New Roman', serif"
        font-size="28"
        font-weight="700"
        fill="#111"
        letter-spacing="-1">
    ERA
  </text>
  <text x="64" y="68"
        font-family="Georgia, 'Times New Roman', serif"
        font-size="20"
        font-weight="700"
        fill="#e31b23"
        letter-spacing="0">
    &amp;
  </text>
  <text x="83" y="68"
        font-family="Georgia, 'Times New Roman', serif"
        font-size="24"
        font-weight="700"
        fill="#e31b23"
        letter-spacing="-1">
    ASSOCIATES
  </text>
</svg>
