<?xml version="1.0" encoding="UTF-8" standalone="no"?>
<!-- Created with Inkscape (http://www.inkscape.org/) -->

<svg
   width="1318.1654mm"
   height="205.31665mm"
   viewBox="0 0 1318.1654 205.31665"
   version="1.1"
   id="svg4050"
   xml:space="preserve"
   xmlns="http://www.w3.org/2000/svg"
   xmlns:svg="http://www.w3.org/2000/svg"><defs
     id="defs4047" /><g
     id="layer1"
     transform="translate(276.91768,-55.069775)"><path
       style="fill:#ed1c24;fill-opacity:1;stroke-width:0.264583"
       d="m -205.2156,183.78449 v -37.69807 h 28.35117 28.35117 l -0.1714,3.37344 c -1.3606,26.77901 -13.69799,51.13264 -32.20899,63.57941 -7.10275,4.77587 -14.11364,7.29953 -23.06518,8.30247 l -1.25677,0.14081 z m 696.39161,32.54865 c -7.76714,-1.95925 -12.40821,-8.88302 -10.60218,-15.81683 0.59191,-2.27251 1.35094,-3.5614 3.26475,-5.54384 1.70546,-1.76661 4.40714,-3.68493 7.11769,-5.05393 l 1.38535,-0.69969 -0.96296,-1.25419 c -0.52963,-0.68981 -1.2721,-1.90904 -1.64993,-2.70941 -0.59677,-1.26411 -0.68697,-1.80265 -0.68697,-4.10104 0,-3.04418 0.42786,-4.17173 2.34277,-6.17384 4.2862,-4.48137 14.05844,-4.53677 18.61784,-0.10555 1.67163,1.62463 2.31051,3.17509 2.31725,5.6235 0.005,1.71892 -0.11228,2.22912 -0.85911,3.74615 -0.96692,1.9641 -3.1045,4.13681 -5.33929,5.42706 l -1.35428,0.78189 3.11762,3.99935 c 1.71469,2.19964 3.18082,4.00662 3.25807,4.0155 0.19867,0.0228 3.26592,-4.93279 4.41683,-7.1361 l 0.963,-1.84358 h 5.11121 5.11121 v 3.43958 3.43958 h -2.61752 c -2.24883,0 -2.64255,0.0652 -2.79514,0.46302 -0.29991,0.78185 -2.81857,4.8803 -3.9121,6.3659 l -1.03417,1.40496 1.50987,2.03463 c 0.83042,1.11904 1.69566,2.18345 1.92274,2.36535 0.28003,0.22431 1.46082,0.33073 3.6696,0.33073 h 3.25672 v 3.30729 3.30729 h -6.45885 -6.45886 l -1.8929,-2.37366 -1.8929,-2.37366 -1.33076,1.05189 c -1.87947,1.48561 -4.24228,2.74932 -6.70427,3.5856 -1.80558,0.61331 -2.64162,0.7317 -5.68854,0.80552 -2.5472,0.0617 -4.02224,-0.0271 -5.14179,-0.30947 z m 10.16887,-8.44596 c 1.45388,-0.73336 3.70458,-2.39827 3.70371,-2.73975 -2.5e-4,-0.0994 -1.85852,-2.50244 -4.12949,-5.34009 -2.80822,-3.50899 -4.26804,-5.1315 -4.5636,-5.07223 -0.77129,0.15468 -2.75111,1.41945 -3.94591,2.52078 -2.65039,2.44304 -3.09679,5.5359 -1.21044,8.38637 1.97674,2.98705 6.63228,4.01717 10.14573,2.24492 z m 0.54352,-23.64387 c 2.80046,-1.7793 3.64695,-3.87592 2.23997,-5.54802 -0.8982,-1.06744 -1.99607,-1.46968 -3.59267,-1.31626 -2.14986,0.20657 -3.51554,1.8784 -2.88633,3.53335 0.29955,0.78788 2.64011,4.07829 2.90099,4.07829 0.089,0 0.69108,-0.33631 1.33804,-0.74736 z m 117.70375,32.02938 c -2.25147,-0.60981 -4.52863,-1.98651 -5.89971,-3.56679 -0.59965,-0.69115 -1.17956,-1.2567 -1.2887,-1.25677 -0.10914,-7e-5 -0.19844,1.0119 -0.19844,2.24883 v 2.24896 h -4.63021 -4.63021 v -9.39271 -9.39271 h 4.59142 4.59145 l 0.3139,1.90082 c 0.77485,4.6921 3.8313,7.79297 7.97568,8.09172 3.87194,0.27911 6.87877,-2.38514 6.8634,-6.08143 -0.008,-1.84024 -0.6817,-3.24134 -2.27052,-4.71963 -1.57956,-1.46966 -3.12121,-2.37598 -9.10074,-5.35017 -10.13423,-5.04073 -13.50161,-9.19285 -13.48984,-16.63366 0.0101,-6.35288 2.64724,-10.9325 7.75171,-13.46111 3.68409,-1.825 7.70647,-2.2243 11.39632,-1.13131 1.93387,0.57283 3.33754,1.4673 4.90736,3.12717 0.75385,0.7971 1.42346,1.44927 1.48796,1.44927 0.0645,0 0.11732,-1.01203 0.11732,-2.24896 v -2.24896 h 4.63021 4.63021 v 8.46667 8.46667 h -4.62002 -4.62 l -0.27929,-1.12448 c -0.74169,-2.98621 -2.4283,-5.35703 -4.61209,-6.48314 -1.82877,-0.94304 -4.77475,-1.00474 -6.41495,-0.13434 -2.92082,1.54996 -3.50338,4.65904 -1.33599,7.12992 1.25285,1.42826 3.0789,2.49508 8.30961,4.85466 7.24426,3.26788 10.66901,5.5118 12.97588,8.50193 2.36641,3.06732 3.36206,6.30068 3.32669,10.80336 -0.0402,5.11852 -1.21669,8.42423 -4.09226,11.49875 -1.76332,1.88531 -3.68406,3.10269 -6.35418,4.02732 -2.63745,0.91332 -7.448,1.10998 -10.03197,0.41012 z m 42.09023,-0.0121 c -2.28572,-0.32653 -4.03934,-1.65837 -5.72055,-3.40444 -0.7452,-0.77396 -1.42981,-1.4072 -1.52136,-1.4072 -0.0915,0 -0.16642,1.01203 -0.16642,2.24896 v 2.24896 h -4.63021 -4.63021 v -9.39271 -9.39271 h 4.61399 4.61402 l 0.16992,1.25677 c 0.67707,5.00775 3.68175,8.35352 7.8406,8.73063 2.01023,0.18228 3.63797,-0.29555 5.01135,-1.4711 1.40599,-1.20349 2.08018,-2.67733 2.08018,-4.54755 0,-3.67873 -2.19565,-5.65733 -11.10089,-10.00355 -10.02702,-4.89371 -13.39659,-8.84566 -13.69147,-16.05791 -0.20024,-4.89763 1.13234,-8.68231 4.103,-11.65297 3.0017,-3.00168 8.23965,-4.72982 12.5213,-4.13108 3.29475,0.46073 4.86293,1.19333 6.97222,3.25711 1.01817,0.99623 1.88497,1.81132 1.92622,1.81132 0.0412,0 0.075,-1.01203 0.075,-2.24896 v -2.24896 h 4.63021 4.6302 v 8.46667 8.46667 h -4.62515 -4.62518 l -0.15568,-0.72761 c -0.70432,-3.29184 -2.30595,-5.61485 -4.74919,-6.88837 -1.77898,-0.92728 -4.73509,-0.9812 -6.39115,-0.11657 -2.9251,1.5272 -3.47101,4.74532 -1.22645,7.22979 1.21135,1.3408 3.07589,2.42915 7.66183,4.4723 10.77013,4.79833 14.6738,8.26974 16.38697,14.57245 0.62707,2.30695 0.63662,7.41071 0.0183,9.76842 -1.5173,5.78526 -5.93648,10.0216 -11.73601,11.25045 -2.40483,0.50954 -6.10015,0.22337 -8.28532,-0.0888 z m 46.43438,0.0633 c -11.41344,-1.75173 -19.83412,-8.59562 -23.25185,-18.89785 -1.24679,-3.75836 -1.58829,-6.40095 -1.41473,-10.94761 0.5292,-13.86114 9.20681,-23.90606 23.26367,-26.92922 3.9142,-0.84181 11.80227,-0.84115 15.75224,0.001 9.60059,2.04768 16.39562,7.05645 20.33447,14.98904 2.05603,4.14067 2.78694,7.15834 2.94786,12.17083 0.25352,7.89651 -1.80732,14.27438 -6.37792,19.73822 -4.37515,5.2302 -10.99285,8.76635 -18.48868,9.87937 -3.3835,0.5024 -9.47767,0.50044 -12.76506,-0.004 z m 11.27643,-10.49371 c 3.49644,-1.27864 5.62308,-2.92394 7.60018,-5.87995 1.40039,-2.09376 2.47209,-4.94565 2.97424,-7.91479 0.45921,-2.71523 0.17163,-8.54264 -0.54327,-11.00925 -1.54342,-5.32496 -5.22581,-9.5786 -9.63335,-11.12772 -7.43418,-2.61291 -15.06611,0.48907 -18.57941,7.55152 -1.7508,3.51952 -2.31566,6.55794 -2.13963,11.50938 0.15473,4.35205 0.61132,6.30755 2.22398,9.525 1.17377,2.34178 3.96587,5.29311 6.0775,6.4241 3.50232,1.87584 8.3865,2.25038 12.01976,0.92171 z m 52.24989,10.50958 c -4.73083,-0.76869 -9.34892,-2.48455 -12.4742,-4.6348 -3.5795,-2.46276 -7.12402,-6.86391 -8.83187,-10.96643 -3.42332,-8.22313 -3.26753,-18.73232 0.39007,-26.31648 1.56924,-3.25387 3.01752,-5.25047 5.57673,-7.68815 3.55536,-3.38655 7.50173,-5.57697 12.19076,-6.76644 9.14505,-2.31983 18.15994,-1.11082 24.68573,3.31082 l 1.19062,0.80672 0.0768,-2.1149 0.0769,-2.1149 h 4.61949 4.61952 v 9.78959 9.78958 h -4.61775 -4.61774 l -1.22135,-2.36475 c -1.49589,-2.89631 -2.78307,-4.39397 -5.09852,-5.93221 -2.62136,-1.74148 -4.64492,-2.34506 -7.86027,-2.34454 -4.86036,7.9e-4 -8.32537,1.37165 -11.51331,4.55501 -3.54264,3.53756 -4.99716,7.30898 -5.21536,13.52297 -0.15568,4.43373 0.24159,7.05934 1.53701,10.15831 2.939,7.03073 10.10923,10.83756 17.4729,9.27673 5.6623,-1.20021 10.14026,-5.83123 12.03465,-12.44602 0.27181,-0.94903 0.57918,-1.7255 0.68311,-1.7255 0.23857,0 10.3257,4.78152 10.61487,5.03168 0.51038,0.44152 -1.856,5.88811 -3.79146,8.72665 -3.43439,5.03695 -9.07338,8.57215 -16.26615,10.1976 -2.66367,0.60195 -11.17548,0.75084 -14.26118,0.24946 z m 249.43552,0.0252 c -2.2393,-0.54317 -4.2074,-1.67096 -5.9032,-3.38257 l -1.5972,-1.61208 v 2.28828 2.28828 h -4.7625 -4.7625 v -9.39271 -9.39271 h 4.7263 4.7263 l 0.1391,1.734 c 0.5364,6.6869 8.0521,10.72495 12.6444,6.79405 3.218,-2.75441 2.8749,-7.08537 -0.7922,-10.00214 -0.8073,-0.64214 -3.9682,-2.43656 -7.0241,-3.9876 -6.3538,-3.22485 -8.6752,-4.72633 -10.9175,-7.06143 -3.479,-3.62304 -4.7738,-8.63604 -3.6334,-14.0675 1.1189,-5.32951 5.1081,-9.49831 10.3387,-10.80434 5.5226,-1.37891 10.038,-0.3434 13.3623,3.06452 l 1.5655,1.60489 v -2.29035 -2.29035 h 4.6302 4.6302 v 8.46667 8.46667 h -4.5772 -4.5772 l -0.575,-1.9544 c -1.5669,-5.3258 -6.8177,-8.0025 -11.0459,-5.63078 -2.0902,1.17248 -2.8625,3.68698 -1.8123,5.90028 0.8948,1.88556 2.1732,2.66135 12.1179,7.3537 7.4046,3.49386 10.9565,6.95958 12.629,12.32286 0.8007,2.56754 0.8599,7.87201 0.1182,10.58334 -1.9475,7.11902 -7.9596,11.40972 -15.9035,11.34998 -1.3097,-0.01 -2.9947,-0.1667 -3.7444,-0.34856 z m -479.78163,-5.04063 v -4.62253 l 3.502,-0.0738 3.50201,-0.0738 5.48847,-18.52083 c 3.01866,-10.18646 5.49089,-18.61013 5.49383,-18.71927 0.003,-0.10914 -1.66152,-0.19844 -3.69881,-0.19844 h -3.70417 v -4.63021 -4.63021 h 18.25625 18.25625 v 4.63021 4.63021 h -3.73502 c -3.42733,0 -3.72496,0.0381 -3.61288,0.46302 0.0672,0.25466 2.72451,8.70809 5.90515,18.78542 l 5.78298,18.32239 h 3.25384 3.25385 v 4.63021 4.63021 h -13.62604 -13.62605 v -4.63021 -4.63021 h 3.57188 c 1.96453,0 3.57187,-0.0601 3.57187,-0.13358 0,-0.11713 -1.09599,-4.11098 -2.26867,-8.26694 l -0.39195,-1.38906 h -7.39121 -7.39122 l -1.46493,4.58812 c -0.80571,2.52347 -1.46493,4.72612 -1.46493,4.89479 0,0.21791 1.0722,0.30667 3.70416,0.30667 h 3.70417 v 4.63021 4.63021 h -12.43542 -12.43541 z m 32.80833,-22.80026 c 0,-0.14905 -4.02208,-15.29595 -4.40549,-16.59082 -0.0797,-0.26931 -0.2408,-0.38838 -0.3579,-0.26459 -0.22301,0.23575 -5.02619,16.22779 -5.02619,16.73454 0,0.20187 1.50589,0.29158 4.89479,0.29158 2.69213,0 4.89479,-0.0768 4.89479,-0.17071 z m 233.89166,22.79258 v -4.63021 h 4.23334 4.23333 v -18.78541 -18.78542 h -4.23333 -4.23334 v -4.63021 -4.63021 h 15.875 15.875 v 4.63021 4.63021 h -4.36562 -4.36563 v 18.78542 18.78541 h 4.36563 4.36562 v 4.63021 4.63021 h -15.875 -15.875 z m 34.66042,0 v -4.63021 h 3.56169 3.56166 l 0.27644,-0.99218 c 0.15204,-0.54571 2.64056,-8.96938 5.53011,-18.71928 l 5.25372,-17.72708 -3.80016,-0.0732 -3.80013,-0.0732 v -4.62313 -4.62314 h 18.38854 18.38855 v 4.62314 4.62313 l -3.80323,0.0732 -3.80323,0.0732 4.68686,14.81667 c 2.57777,8.14916 5.2452,16.57284 5.92759,18.71927 l 1.24071,3.9026 h 3.29962 3.29959 v 4.63021 4.63021 h -13.62604 -13.62604 v -4.63021 -4.63021 h 3.43958 c 2.57358,0 3.44038,-0.0833 3.44276,-0.33073 0.003,-0.1819 -0.55692,-2.38455 -1.2415,-4.89479 l -1.24468,-4.56406 -7.4236,5.3e-4 -7.4236,5.3e-4 -1.42748,4.56344 c -0.78511,2.50989 -1.48244,4.71227 -1.54964,4.89417 -0.0942,0.25507 0.76197,0.33073 3.74256,0.33073 h 3.86477 v 4.63021 4.63021 h -12.56771 -12.56771 v -4.63021 z m 32.15738,-25.86302 c -0.47623,-1.78263 -1.49815,-5.6224 -2.27097,-8.53281 -1.45497,-5.4795 -1.49191,-5.59624 -1.7036,-5.38455 -0.0702,0.0702 -1.20322,3.7512 -2.51788,8.18003 -1.31464,4.42884 -2.45587,8.26079 -2.53606,8.51546 -0.13533,0.42982 0.21413,0.46302 4.87431,0.46302 h 5.02007 z m 32.40095,25.86302 v -4.63021 h 4.23334 4.23333 v -18.78541 -18.78542 h -4.36562 -4.36563 v 6.61458 6.61459 h -4.7625 -4.7625 v -11.2448 -11.24479 h 25.53229 25.53229 v 11.24479 11.2448 h -4.7625 -4.7625 v -6.61459 -6.61458 h -4.36562 -4.36563 v 18.78542 18.78541 h 4.23334 4.23333 v 4.63021 4.63021 h -15.74271 -15.74271 z m 44.18542,0 v -4.63021 h 3.30729 3.30729 v -18.78541 -18.78542 h -3.30729 -3.30729 v -4.63021 -4.63021 h 24.73854 24.73853 v 8.73125 8.73125 h -5.29169 -5.29163 v -4.10104 -4.10104 h -8.86354 -8.86354 v 6.61458 6.61459 h 7.01145 7.01146 v 4.6302 4.63021 h -7.01146 -7.01145 v 7.54063 7.54062 h 8.86354 8.86354 v -4.23333 -4.23333 h 5.29163 5.29169 v 8.86354 8.86354 h -24.73853 -24.73854 z m -1222.4562,-63.64279 c 0,-0.3638 0.06,-0.51263 0.13345,-0.33073 0.0734,0.1819 0.0734,0.47956 0,0.66146 -0.0734,0.1819 -0.13345,0.0331 -0.13345,-0.33073 z m 15.89937,-1.78583 c 5.20237,-0.0401 13.71534,-0.0401 18.91771,0 5.20237,0.0401 0.94588,0.0729 -9.45886,0.0729 -10.40474,0 -14.66122,-0.0328 -9.45885,-0.0729 z m -11.44215,-5.02719 c 0.004,-1.70611 0.63622,-8.48149 1.08018,-11.57552 4.481,-31.228207 23.23732,-55.949956 46.94062,-61.869994 3.0064,-0.750869 5.9494,-1.233131 7.52516,-1.233131 h 1.07379 v 37.570835 37.57083 h -28.31041 c -26.78632,0 -28.31036,-0.0249 -28.30934,-0.46302 z"
       id="path4074" /><path
       style="fill:#606060;fill-opacity:1;stroke-width:0.264583"
       d="m -176.5595,200.31577 c 0,-0.0455 0.38696,-0.43249 0.8599,-0.85989 l 0.8599,-0.77711 -0.77711,0.8599 c -0.72437,0.80154 -0.94269,0.98151 -0.94269,0.7771 z m 3.175,-3.175 c 0,-0.0455 0.38696,-0.43249 0.8599,-0.85989 l 0.8599,-0.77711 -0.77711,0.8599 c -0.72437,0.80154 -0.94269,0.98151 -0.94269,0.7771 z"
       id="path4072" /><path
       style="fill:#231f26;fill-opacity:1;stroke-width:0.264583"
       d="m -211.79718,252.92491 c -2.34646,-4.10382 -4.26633,-7.50734 -4.26633,-7.56338 0,-0.056 1.42875,-0.10186 3.175,-0.10186 h 3.175 v -10.67781 -8.77779 l -2.23993,-0.17217 c -19.13122,-1.4705 -37.20752,-14.9814 -48.19351,-36.02152 -6.17638,-11.82888 -9.94469,-25.98554 -10.63462,-39.95208 l -0.18298,-3.70417 -2.97657,-0.0748 -2.97656,-0.0748 v -2.108 -2.108 h 2.8758 2.8758 l 0.16399,-0.99219 c 0.0902,-0.5457 0.16646,-1.76609 0.16946,-2.71198 0.02,-6.2981 2.1791,-18.0879 4.77216,-26.05831 4.94081,-15.186841 14.04876,-29.093323 24.6828,-37.68696 8.71354,-7.041634 19.54524,-11.601264 29.34987,-12.354907 l 2.31429,-0.17789 v -3.26826 -3.268258 h 2.11666 2.11667 v 3.259762 3.259759 l 3.10885,0.322091 c 19.45366,2.015488 36.96798,15.441118 47.80962,36.648588 6.00044,11.737545 9.49808,25.230045 10.34836,39.919695 l 0.17995,3.10886 h 7.2679 10.76813 v -3.04271 c 0,-1.67349 0.0504,-3.04271 0.11201,-3.04271 0.17256,0 14.54878,7.94834 14.74737,8.15355 0.0963,0.0994 -3.20772,2.10684 -7.34218,4.46085 l -7.5172,4.28002 v -3.28784 -3.28783 h -10.7603 -7.26004 l -0.18337,3.47348 c -1.64779,31.21321 -16.64227,58.20368 -39.14466,70.4616 -5.94523,3.2386 -14.30985,5.65073 -20.94381,6.03936 l -1.05834,0.062 -0.067,8.75067 -0.067,10.6507 h 3.04356 c 1.67395,0 3.04224,0.0893 3.04064,0.19844 -0.002,0.10914 -1.83221,3.51266 -4.06804,7.56338 l -4.06513,7.36494 z m 2.08367,-69.13536 v -37.96771 h -28.59097 -28.59096 l 0.16551,2.57969 c 0.66615,10.38273 2.18062,18.4543 5.07605,27.05364 5.55085,16.48587 15.75466,30.33969 28.34502,38.48435 2.56986,1.66244 8.35162,4.42233 11.29889,5.39347 3.01342,0.99293 7.03232,1.85812 9.92455,2.13655 1.23179,0.11859 2.26938,0.23183 2.30576,0.25166 0.0364,0.0198 0.0661,-17.04941 0.0661,-37.93165 z m 11.10444,36.86962 c 3.72264,-0.71351 7.68084,-2.06029 11.51743,-3.91883 19.45682,-9.42535 33.84075,-31.80229 37.67805,-58.61538 0.57997,-4.05258 1.17176,-11.68153 0.93577,-12.06337 -0.1791,-0.28979 -56.66277,-0.33087 -56.80187,-0.0413 -0.0524,0.10914 -0.0474,17.14927 0.0112,37.86696 l 0.10651,37.66853 1.89143,-0.18284 c 1.04029,-0.10056 3.13797,-0.42175 4.66151,-0.71376 z m -11.10444,-116.90608 c 0,-35.859311 -0.0242,-37.835148 -0.46302,-37.830253 -1.53591,0.01714 -6.61002,0.881552 -9.13996,1.557073 -22.03508,5.883579 -39.76654,27.951945 -45.40765,56.5138 -0.99068,5.01597 -1.57381,9.6085 -1.78855,14.08596 l -0.16828,3.50884 h 28.48373 28.48373 z m 61.27909,34.32969 c -1.42536,-27.24908 -13.96561,-51.809622 -32.75399,-64.149704 -6.71606,-4.41107 -14.9876,-7.378301 -22.08979,-7.924213 l -2.20198,-0.169256 v 37.874443 37.87446 h 28.61457 28.61457 z m 239.600141,78.89084 c -7.993443,2.76063 -21.564259,-5.01273 -27.88497,-12.16415 -10.620242,-12.01607 -15.689976,-32.9748 -13.259752,-54.81703 2.271712,-20.41754 11.664209,-36.33228 25.37505,-42.99577 7.816612,-3.79889 17.485942,-4.49581 25.664581,-1.8498 4.64646,1.50325 9.1054,4.27415 12.12303,7.53354 0.81129,0.8763 1.5409,1.59328 1.62134,1.59328 0.0805,0 0.14626,-2.02406 0.14626,-4.49792 v -4.49791 h 6.48229 6.48229 v 19.57916 19.57917 h -6.61458 c -5.92661,0 -6.61458,-0.0447 -6.61458,-0.42951 0,-0.79115 -1.81068,-5.85141 -2.79636,-7.81494 -3.24683,-6.46779 -8.64216,-11.29128 -14.026728,-12.54004 -2.326216,-0.53949 -6.625749,-0.53042 -8.70921,0.0184 -7.874026,2.07402 -13.713037,9.30504 -16.516429,20.45391 -1.221291,4.85701 -1.475555,7.49926 -1.46857,15.26117 0.0069,7.78543 0.269266,10.56697 1.496721,15.875 3.110416,13.45067 10.753725,21.77625 20.457028,22.28312 8.838538,0.46171 15.388358,-5.2493 18.273348,-15.93312 0.35367,-1.30968 0.64333,-2.47054 0.6437,-2.57968 0,-0.10914 -3.09496,-0.19844 -6.8785,-0.19844 h -6.879173 v -9.26041 -9.26042 h 18.099143 18.09911 l 0.18553,1.34891 c 0.33881,2.46338 -0.25334,11.47587 -1.09344,16.64276 -3.39175,20.85984 -15.48339,34.88188 -33.30597,38.6232 -3.08885,0.64841 -20.20992,0.14434 -16.882226,0.11534 z M 218.8498,216.73359 c 0,0.12581 -5.32761,-21.00462 -11.6999,-46.43438 l -11.586,-46.23594 h -4.58756 -4.58758 v -9.39271 -9.3927 h 19.18229 19.18229 v 9.3927 9.39271 h -4.51575 c -4.17438,0 -4.5058,0.035 -4.38435,0.46302 0.0723,0.25466 2.94367,12.6074 6.38093,27.45052 6.91549,29.8634 6.46998,28.01902 6.71052,27.78089 0.0959,-0.0949 3.0988,-12.63519 6.67319,-27.86734 l 6.49888,-27.6948 -4.31607,-0.0725 -4.3161,-0.0725 v -9.38631 -9.38631 h 16.27188 16.27187 v 9.38646 9.38646 l -4.55527,0.0724 -4.55526,0.0724 -11.23492,46.36823 -11.23492,46.36823 h -7.74211 c -4.25818,0 -7.85606,-0.0726 -7.85606,-0.19844 z m -314.771467,-9.85573 v -9.26042 h 5.02709 5.02708 v -36.77708 -36.77709 h -5.02708 -5.02709 v -9.39271 -9.3927 h 19.43669 19.436671 l 0.258651,0.99218 c 6.082816,23.33356 16.75969,63.98354 16.822007,64.04586 0.143053,0.14305 0.389433,-0.74462 8.872273,-31.96513 4.527222,-16.66213 8.411021,-30.91987 8.630664,-31.68385 l 0.399351,-1.38906 H -2.5049685 17.055424 v 9.3927 9.39271 H 12.02834 7.0012565 v 36.77709 36.77708 h 5.1593755 5.159375 v 9.26042 9.26042 H -2.6560355 -22.632076 v -9.26042 -9.26042 h 5.027083 5.027083 v -36.79306 -36.79305 l -0.975219,0.0821 -0.97522,0.0821 -12.070689,45.90521 -12.070686,45.9052 -4.218156,0.07 -4.218155,0.07 -11.762126,-44.78458 c -6.469167,-24.63151 -11.925236,-45.35012 -12.124586,-46.04134 -0.35309,-1.22426 -0.38933,-1.25677 -1.4009,-1.25677 h -1.03843 v 36.77707 36.77708 h 5.15938 5.159371 v 9.26042 9.26042 h -16.404171 -16.40417 z m 125.677091,1.05833 v -8.20208 h 8.466666 8.466667 v 8.20208 8.20209 H 38.22209 29.755424 Z m 103.452086,0 v -8.20208 h 8.59896 8.59896 v 8.20208 8.20209 h -8.59896 -8.59896 z m 134.67292,0.66873 v -7.53337 l 3.7703,-0.0734 3.77031,-0.0734 0.0673,-30.22865 0.0673,-30.22864 h -3.83759 -3.83757 v -7.67294 -7.67291 h 28.04582 28.04583 v 14.2875 14.2875 h -5.95312 -5.95313 v -6.61459 -6.61458 H 302.01167 291.9575 v 10.58333 10.58334 h 7.9375 7.9375 v 7.54062 7.54063 h -7.9375 -7.9375 v 12.17401 12.17402 l 9.98801,-0.0693 9.98802,-0.0693 0.0706,-6.81302 0.0706,-6.81302 h 5.94864 5.94866 v 14.41979 14.4198 H 295.9262 267.88037 Z m 59.53124,-8e-4 v -7.53422 l 4.43177,-0.0726 4.43177,-0.0725 0.0673,-30.22225 0.0673,-30.22224 -4.43292,-0.0725 -4.43288,-0.0726 -0.0702,-7.61555 -0.0702,-7.61555 21.76606,0.0749 21.76606,0.0748 1.97838,0.72201 c 4.80155,1.75233 8.6319,5.62312 10.85959,10.9742 3.80839,9.14819 3.33697,21.4683 -1.1025,28.81359 -1.51143,2.50072 -3.29737,4.41747 -6.50634,6.9829 l -0.82738,0.66146 5.11683,13.54556 c 2.81425,7.45005 5.19441,13.67108 5.28922,13.82449 0.10878,0.17602 1.67956,0.27892 4.2578,0.27892 h 4.08543 v 7.54062 7.54063 h -9.73207 -9.73209 l -7.14711,-19.90991 -7.14711,-19.90989 -3.7583,-0.0734 -3.75832,-0.0734 v 12.44269 12.44269 h 3.96875 3.96875 v 7.54062 7.54063 h -16.66875 -16.66875 v -7.53423 z m 36.5552,-47.84477 c 0,1.97031 3.21749,-2.37357 4.08671,-4.27215 2.11719,-4.62455 1.2307,-11.17756 -1.92374,-14.22083 -1.72349,-1.66283 -2.34016,-1.79893 -8.15031,-1.79893 h -5.16785 v 10.60857 10.60856 l 4.82863,-0.0982 c 4.63159,-0.0942 6.32656,-2.42497 6.32656,-0.8271 z m 32.23647,47.8383 v -7.54062 h 3.96875 c 2.18281,0 3.96875,-0.10514 3.96875,-0.23365 0,-0.12851 2.79797,-13.73074 6.2177,-30.22718 3.41974,-16.49645 6.21772,-30.02396 6.21772,-30.06115 0,-0.0372 -1.905,-0.0676 -4.23333,-0.0676 h -4.23334 v -7.67292 -7.67291 h 20.76978 20.76981 v 7.66651 7.66652 l -4.31835,0.0725 -4.31838,0.0725 6.5558,29.63334 c 3.60569,16.29833 6.62278,29.90122 6.70464,30.22864 0.14551,0.58188 0.23236,0.59532 3.848,0.59532 h 3.69912 v 7.54062 7.54063 h -15.34583 -15.34585 v -7.54063 -7.54062 h 3.96214 3.96213 l -0.14401,-0.72761 c -0.0792,-0.40018 -0.76441,-3.94229 -1.52267,-7.87135 l -1.37867,-7.14375 -8.39258,-0.0699 c -4.61591,-0.0384 -8.39259,-0.0248 -8.39259,0.0303 0,0.0551 -0.7729,3.53932 -1.71754,7.74278 -0.94464,4.20345 -1.71855,7.73194 -1.71978,7.84108 0,0.10914 1.90274,0.19844 4.23108,0.19844 h 4.23334 v 7.54062 7.54063 H 410.22626 396.20334 Z M 433.245,171.54418 c 0,-0.63352 -5.01362,-27.18272 -5.16108,-27.33021 -0.0718,-0.0718 -0.17326,-0.081 -0.22544,-0.0203 -0.10245,0.11907 -5.74097,27.23217 -5.73162,27.56077 0.003,0.10914 2.50595,0.19844 5.5619,0.19844 4.83378,0 5.55624,-0.0531 5.55624,-0.40868 z"
       id="path4068" /></g></svg>
