<?xml version="1.0" encoding="UTF-8" standalone="no"?>
<!-- Created with Inkscape (http://www.inkscape.org/) -->

<svg
   width="342.63489mm"
   height="75.968063mm"
   viewBox="0 0 342.63489 75.968064"
   version="1.1"
   id="svg3814"
   xml:space="preserve"
   xmlns="http://www.w3.org/2000/svg"
   xmlns:svg="http://www.w3.org/2000/svg"><defs
     id="defs3811" /><g
     id="layer1"
     transform="translate(218.69056,-141.61849)"><path
       id="path4460"
       style="fill:#000000;stroke-width:0.264583"
       d="m 7.7726195,141.62727 c -2.4382517,0.0539 -4.8769832,0.35642 -7.25588783,0.9183 -15.64266767,3.69463 -27.57108067,17.4494 -30.06638167,34.66971 -0.470162,3.24463 -0.391324,9.90322 0.155029,13.09688 0.561181,3.28033 1.881524,7.32296 3.339848,10.22625 4.753301,9.46303 13.483714,15.21736 25.38087967,16.72818 0.50932248,0.0647 2.47385643,0.0786 4.36562503,0.031 7.1527093,-0.18009 13.1831463,-2.1336 19.5791663,-6.34225 3.196375,-2.10324 8.221191,-7.13949 10.42262,-10.44587 12.09859,-18.17116 9.550709,-42.25449 -5.601725,-52.95026 -5.692569,-4.01825 -13.004418,-6.09357 -20.3191735,-5.93194 z m -54.7485965,0.0331 c -7.351374,-0.0176 -11.270147,0.85816 -17.594791,3.93206 -11.758307,5.71475 -19.987924,16.90687 -22.27771,30.29686 -0.601656,3.51827 -0.584294,10.41744 0.03514,13.89372 2.741189,15.38357 13.602444,25.68578 29.150675,27.65103 2.576455,0.32566 10.59137,0.0987 13.717509,-0.38861 3.367433,-0.52494 6.640301,-1.40733 7.269324,-1.96009 0.397868,-0.34963 0.731854,-2.02215 1.762683,-8.82323 0.699562,-4.6155 1.218321,-8.44496 1.152901,-8.50956 -0.06542,-0.0646 -0.952294,0.16177 -1.970939,0.50281 -3.814978,1.27722 -11.277893,2.0563 -16.139583,1.68465 -8.28368,-0.63324 -14.449416,-5.6299 -16.451709,-13.332 -0.712531,-2.74086 -0.641604,-8.51049 0.140043,-11.37708 1.666066,-6.11007 5.613607,-10.87566 11.284582,-13.62294 4.019787,-1.94737 5.5069,-2.25228 10.980209,-2.25154 4.016731,5.4e-4 4.903133,0.0798 6.688997,0.59686 2.49468,0.72236 6.156887,2.52635 8.112166,3.99614 0.791761,0.59517 1.464793,1.05496 1.496033,1.02216 0.129069,-0.13577 3.592509,-17.43201 3.50728,-17.51521 -0.398888,-0.38926 -6.37984,-3.15398 -8.245492,-3.81166 -4.331625,-1.52697 -7.156257,-1.97127 -12.617318,-1.98437 z m 119.897591,1.14411 c -4.69063,-0.0277 -14.083123,0.096 -14.172261,0.2403 -0.07665,0.12401 -2.69385,8.30956 -5.815666,18.1901 -8.619658,27.28111 -13.781439,43.59826 -15.640389,49.4404 -0.924387,2.90507 -1.622593,5.37562 -1.551843,5.4901 0.07209,0.1144 4.220943,0.20826 9.221659,0.20826 h 9.093502 l 0.44235,-1.52136 c 0.243047,-0.83675 2.575615,-8.78417 5.183663,-17.66093 2.608048,-8.87677 5.239283,-17.83263 5.847189,-19.90163 0.607879,-2.069 1.130693,-3.73587 1.162203,-3.70417 0.07096,0.0714 3.454747,18.28601 7.334436,39.4808 l 0.581359,3.175 h 4.70514 4.705139 l 1.523938,-2.91042 c 1.414884,-2.70283 4.735918,-9.21449 15.856397,-31.08854 2.4044,-4.72943 4.42506,-8.65845 4.49016,-8.73125 0.0651,-0.0728 0.0307,9.54154 -0.0765,21.3651 l -0.19482,21.4974 h 9.16327 9.16378 l -0.004,-1.25677 c -0.002,-0.69122 -0.1168,-6.79319 -0.25425,-13.5599 -0.13742,-6.7667 -0.43891,-22.60205 -0.66973,-35.18958 -0.23082,-12.58754 -0.46942,-23.03529 -0.53072,-23.21719 -0.0859,-0.25523 -2.00968,-0.33073 -8.42325,-0.33073 h -8.31164 l -0.6811,1.38906 c -0.37444,0.76398 -1.64704,3.23454 -2.82825,5.49011 -1.18118,2.25557 -5.664414,10.85784 -9.962698,19.11614 -4.298257,8.2583 -7.892943,15.01511 -7.988142,15.01511 -0.09522,0 -1.053049,-4.19696 -2.128553,-9.32657 -1.075504,-5.1296 -3.008771,-14.32625 -4.295861,-20.43699 -1.287091,-6.11074 -2.339909,-11.14115 -2.339909,-11.17865 0,-0.0478 -1.040949,-0.074 -2.604493,-0.0832 z m -155.880924,0.015 -25.86302,0.004 c -14.22465,0.002 -25.99444,0.0915 -26.15499,0.19844 -0.23386,0.15572 -2.75829,15.43804 -2.75229,16.66462 0.001,0.26233 5.41044,0.33073 26.15964,0.33073 h 26.158097 l 0.723986,-4.69636 c 0.39818,-2.58299 0.949988,-6.1251 1.226282,-7.87135 0.276294,-1.74625 0.502269,-3.50243 0.502295,-3.90261 z m -90.92158,0.006 -9.93428,0.0176 -2.05569,4.2876 c -2.53868,5.29469 -5.24705,10.95249 -16.36282,34.18551 -4.80406,10.04093 -10.47195,21.88097 -12.59562,26.31157 -2.12365,4.43058 -3.86126,8.21083 -3.86126,8.40052 0,0.27689 1.81971,0.3452 9.22683,0.3452 h 9.22682 l 2.85048,-6.68073 c 1.56792,-3.6744 2.90671,-6.88909 2.97501,-7.14375 0.11617,-0.43332 0.99287,-0.46302 13.66686,-0.46302 h 13.54233 l 1.39888,6.54843 c 0.76931,3.60164 1.46074,6.81558 1.53634,7.1422 l 0.13746,0.59377 35.08365,-0.0646 35.084161,-0.0646 1.257287,-8.20209 c 0.69156,-4.51114 1.26214,-8.35091 1.26814,-8.53281 0.0083,-0.26243 -5.393431,-0.33073 -26.154988,-0.33073 h -26.16585 l -0.26768,1.52135 c -0.14725,0.83674 -0.72214,4.58461 -1.27744,8.3287 -0.55532,3.74407 -1.08069,6.72065 -1.16789,6.61458 -0.0872,-0.10607 -0.66861,-2.39542 -1.29191,-5.08755 -0.62331,-2.69213 -1.76792,-7.5737 -2.54352,-10.84791 -0.7756,-3.27422 -2.73487,-11.6086 -4.35425,-18.52084 -7.2678,-31.02201 -8.8047,-37.46828 -9.03769,-37.90724 -0.23144,-0.43601 -0.93746,-0.46734 -10.18336,-0.45114 z M 9.3880248,157.9684 c 3.9273402,0.12424 7.1344142,1.48962 9.7823482,4.15426 5.430126,5.46439 6.435418,15.0087 2.632915,24.99228 -2.044301,5.36737 -6.080829,10.17213 -10.306348,12.26747 -1.236926,0.61337 -2.9588039,1.29398 -3.826123,1.51257 -1.9321337,0.48693 -5.8318115,0.48157 -7.86205246,-0.0109 -5.30264974,-1.28614 -8.96315084,-4.99236 -10.84274854,-10.97814 -0.870325,-2.7716 -0.880669,-9.21434 -0.02067,-12.9036 1.3572574,-5.82245 4.0005166,-10.63812 7.8150268,-14.23841 3.39861962,-3.20776 6.4042404,-4.52375 10.9001099,-4.77284 0.5909373,-0.0327 1.1664945,-0.0405 1.7275431,-0.0227 z m -185.6971948,2.55333 c 0.0208,0.006 0.0388,0.0249 0.0599,0.0465 0.15409,0.15718 5.45753,24.92821 5.35833,25.02741 -0.14094,0.1409 -16.09641,0.22607 -16.17421,0.0863 -0.0405,-0.0728 1.2228,-3.16839 2.80758,-6.87917 1.58478,-3.71077 3.9704,-9.30672 5.30097,-12.43541 2.23303,-5.25072 2.50172,-5.88489 2.64738,-5.84564 z m 59.82891,10.60814 c -12.70485,0 -23.09988,0.0938 -23.09988,0.20825 0,0.11449 -0.53578,3.69829 -1.19063,7.96437 -0.65484,4.26608 -1.19062,7.98233 -1.19062,8.25842 0,0.48907 0.59194,0.50229 23.01875,0.50229 12.66029,0 23.021431,-0.0893 23.024431,-0.19844 0.0033,-0.10914 0.575628,-3.91914 1.271757,-8.46666 l 1.265556,-8.26823 z" /></g></svg>
