<?xml version="1.0" encoding="UTF-8" standalone="no"?>
<!-- Created with Inkscape (http://www.inkscape.org/) -->

<svg
   width="112.19057mm"
   height="73.170502mm"
   viewBox="0 0 112.19057 73.170503"
   version="1.1"
   id="svg5"
   xml:space="preserve"
   xmlns="http://www.w3.org/2000/svg"
   xmlns:svg="http://www.w3.org/2000/svg"><defs
     id="defs2" /><g
     id="layer1"
     transform="translate(-141.86092,-424.63571)"><path
       id="path52126"
       style="fill:#000000;stroke-width:0.264583"
       d="m 190.67965,424.63598 c -0.75029,-0.007 -1.51143,0.13061 -2.24276,0.42323 -1.06402,0.42574 -8.76317,8.3774 -23.41356,24.18199 -3.0351,3.27421 -5.88029,6.34007 -6.32261,6.81302 -0.44233,0.47294 -0.67277,0.8599 -0.51211,0.8599 0.31149,0 8.81534,-7.87637 20.71398,-19.18591 4.00181,-3.80369 7.95862,-7.52897 8.79326,-8.27857 3.00248,-2.69653 3.58505,-2.41563 7.65276,3.68815 3.20239,4.80533 6.0255,8.69845 8.89455,12.26695 3.0106,3.74455 2.92767,3.26794 -0.67231,-3.87418 -3.23154,-6.41113 -7.16285,-13.26519 -8.51421,-14.84405 -1.12654,-1.3162 -2.72637,-2.0345 -4.37699,-2.05053 z m 46.83745,6.40271 c -0.0714,-0.0714 -1.71027,1.35557 -3.64164,3.17139 -1.93136,1.81583 -5.78082,5.43467 -8.55452,8.04188 -2.77371,2.60722 -7.9862,7.53825 -11.58327,10.95799 -3.61564,3.43739 -6.93287,6.37495 -7.41815,6.56911 -0.74077,0.29642 -1.02057,0.29121 -1.79421,-0.032 -0.74072,-0.30949 -1.47277,-1.21454 -3.81113,-4.71444 -1.59175,-2.38241 -4.46698,-6.41601 -6.38928,-8.96379 -3.87653,-5.1379 -4.53561,-5.95005 -4.69945,-5.78621 -0.33156,0.33156 5.56267,11.76933 8.97981,17.42529 2.10891,3.49059 2.599,4.08543 3.89899,4.72891 1.4912,0.73814 3.81663,0.75843 5.21312,0.046 1.26455,-0.64513 30.13509,-31.10871 29.79973,-31.44408 z m 7.6972,45.79721 c -0.0631,-0.0631 -2.29647,4.94602 -7.07295,15.86311 l -2.05466,4.69636 h 1.27176 1.27176 l 1.82004,-4.38578 1.82004,-4.38578 1.75545,0.16537 c 0.96543,0.0911 2.32776,0.30894 3.02773,0.48369 l 1.27279,0.31729 1.59215,3.9026 1.59215,3.90261 h 1.2702 1.27073 l -0.36174,-0.8599 c -0.19871,-0.47295 -0.81145,-1.90559 -1.36167,-3.18378 -0.55021,-1.27819 -0.93591,-2.38844 -0.85731,-2.46704 0.0786,-0.0786 0.54085,0.0582 1.02732,0.30386 1.12764,0.56939 0.56667,-0.0402 -0.71623,-0.77825 -0.89861,-0.51695 -1.15759,-1.00411 -3.73311,-7.03109 -1.52204,-3.56173 -2.79755,-6.50637 -2.83445,-6.54327 z m -94.32086,0.19275 c -0.093,0.003 -1.43373,2.89051 -2.97966,6.41615 l -2.8112,6.40994 -1.33997,0.79375 c -1.8489,1.0952 -2.05581,1.39818 -0.38034,0.55656 0.76398,-0.38376 1.38907,-0.6569 1.38907,-0.6072 0,0.0497 -0.65485,1.56067 -1.45521,3.35793 -0.80036,1.79727 -1.45521,3.31307 -1.45521,3.36827 0,0.0553 0.56303,0.064 1.2516,0.0196 l 1.25212,-0.0806 1.62316,-3.83646 1.62316,-3.83646 1.25625,-0.31729 c 0.69118,-0.17475 2.04679,-0.394 3.01222,-0.4868 l 1.75545,-0.16846 1.7663,4.32273 1.76682,4.32274 1.24488,0.0822 c 1.09379,0.0721 1.22887,0.0239 1.11259,-0.39687 -0.28427,-1.02866 -8.47294,-19.92572 -8.63203,-19.91972 z m 24.56956,0.73898 v 9.83815 9.83816 l 3.90261,-0.0951 c 3.31771,-0.0807 4.09078,-0.18112 5.15937,-0.67076 1.75036,-0.80204 4.02123,-3.03442 4.89324,-4.81004 0.65496,-1.33374 0.72883,-1.76575 0.72864,-4.26228 -1.8e-4,-2.45728 -0.0817,-2.95187 -0.70642,-4.28501 -0.90114,-1.92305 -2.74305,-3.76482 -4.66534,-4.66483 -1.37894,-0.64562 -1.83899,-0.71335 -5.40949,-0.79685 z m -13.49375,0.0486 v 9.78958 9.78959 h 1.05834 1.05833 v -4.23334 c 0,-3.21129 0.0799,-4.23226 0.33073,-4.23126 0.1819,0.001 1.64042,1.90258 3.24114,4.22558 l 2.91042,4.22352 1.41128,0.008 1.4118,0.008 -0.91312,-1.25677 c -0.50216,-0.69122 -1.87703,-2.62116 -3.05563,-4.28862 l -2.14302,-3.03134 1.21802,-0.46251 c 2.30415,-0.87465 3.52588,-2.64739 3.52588,-5.11596 0,-2.47671 -1.46237,-4.54106 -3.64629,-5.14749 -0.54119,-0.1503 -2.20432,-0.27412 -3.6959,-0.27492 z m 30.37283,0 0.10645,7.47448 c 0.091,6.37797 0.17447,7.62921 0.56896,8.5292 0.80476,1.836 2.39051,3.19445 4.38939,3.75946 h 5.2e-4 c 1.38991,0.39287 3.83862,0.25993 5.12734,-0.27854 1.34051,-0.5601 2.85227,-2.01944 3.46593,-3.34502 0.50992,-1.10149 0.55742,-1.75015 0.63562,-8.6651 l 0.0847,-7.47448 h -1.20923 -1.20871 v 7.1267 c 0,4.39194 -0.10831,7.41233 -0.28163,7.87135 -0.46463,1.22974 -1.59582,2.19238 -3.08457,2.62517 -1.26052,0.36647 -1.53585,0.36552 -2.82877,-0.0103 -1.62534,-0.4725 -2.62403,-1.45394 -3.05407,-3.0024 -0.15523,-0.55892 -0.27362,-3.9275 -0.27441,-7.79746 l -0.002,-6.81302 h -1.21802 z m 16.32613,0 0.0724,9.78958 0.0724,9.78959 h 1.05213 1.05213 v -4.23334 c 0,-3.21511 0.0796,-4.23103 0.33073,-4.22403 0.1819,0.005 1.63678,1.91 3.23339,4.23334 l 2.90319,4.22403 h 1.39578 1.39578 l -1.37201,-1.91823 c -0.75457,-1.05502 -2.12384,-2.98259 -3.04323,-4.28398 l -1.67173,-2.36626 1.22886,-0.46664 c 0.67588,-0.25656 1.52545,-0.7395 1.88826,-1.07332 1.57298,-1.4473 2.09595,-4.37465 1.14825,-6.42803 -1.06712,-2.31213 -2.71793,-3.04255 -6.87555,-3.04271 z m 13.62604,0 v 9.78958 9.78959 h 1.19063 1.19062 v -4.23334 c 0,-2.5322 0.10211,-4.23333 0.25425,-4.23333 0.13989,0 1.57714,1.905 3.1936,4.23333 l 2.93884,4.23334 h 1.30432 c 0.71749,0 1.30483,-0.0551 1.30483,-0.12248 0,-0.0674 -1.32967,-1.98322 -2.95435,-4.2571 -2.9802,-4.17104 -3.14715,-4.59852 -1.8035,-4.61212 0.22088,-0.002 0.84536,-0.30562 1.38803,-0.67438 2.60992,-1.77349 2.99602,-6.05303 0.74879,-8.30027 -1.26715,-1.26715 -2.54018,-1.61282 -5.94279,-1.61282 z m -44.45,2.05207 2.31511,0.11627 c 3.55114,0.17841 5.80245,1.47187 7.09414,4.07521 0.71976,1.45072 0.73222,5.64577 0.0207,6.98562 -0.83499,1.57227 -2.55718,3.13936 -4.07365,3.70675 -0.94348,0.353 -2.05826,0.52658 -3.38171,0.52658 h -1.97456 v -7.70495 z m -13.75833,0.0646 1.65365,10e-4 c 2.01991,0.001 3.22753,0.64372 3.8039,2.02313 0.76906,1.84063 -0.14795,3.83572 -2.10168,4.57388 -0.40966,0.15478 -1.33238,0.28112 -2.05052,0.28112 h -1.30535 v -3.43958 z m 46.83125,0 h 1.60042 c 2.75457,0 3.95583,1.0161 3.95583,3.34605 0,1.67353 -0.83783,2.84471 -2.33216,3.25975 v -5.2e-4 c -0.53634,0.14896 -1.48114,0.27154 -2.09961,0.27233 l -1.12448,0.002 v -3.43958 z m 13.75833,0 h 1.48105 c 2.63502,0 4.0752,1.16863 4.0752,3.30729 0,1.42394 -0.67069,2.48332 -1.9358,3.05769 -0.60881,0.27641 -1.67246,0.5055 -2.36368,0.5085 l -1.25677,0.006 v -3.43958 z m 20.4525,2.47272 c 0.0692,0.008 0.13795,0.10398 0.23151,0.26975 0.27243,0.48269 2.33474,5.46092 2.33474,5.63583 0,0.19648 -4.40698,-0.79067 -4.66018,-1.04387 -0.06,-0.06 0.18658,-0.77837 0.54829,-1.59628 0.36172,-0.81791 0.84678,-1.93769 1.07797,-2.48822 0.23532,-0.56037 0.35232,-0.79083 0.46767,-0.77721 z m -94.25058,0.0537 c 0.25518,0.15771 2.13463,4.66703 2.00092,4.80074 -0.0579,0.0579 -1.07959,0.3377 -2.27067,0.62218 -2.56179,0.61187 -2.4879,0.60598 -2.3244,0.18656 1.01988,-2.61639 2.44622,-5.70088 2.59415,-5.60948 z" /></g></svg>
