<?xml version="1.0" encoding="UTF-8" standalone="no"?>
<!-- Created with Inkscape (http://www.inkscape.org/) -->

<svg
   width="83.785149mm"
   height="18.022799mm"
   viewBox="0 0 83.785153 18.022799"
   version="1.1"
   id="svg5"
   xml:space="preserve"
   xmlns="http://www.w3.org/2000/svg"
   xmlns:svg="http://www.w3.org/2000/svg"><defs
     id="defs2" /><g
     id="layer1"
     transform="translate(-21.124621,-567.37991)"><path
       id="path52234"
       style="fill:#000000;stroke-width:0.264583"
       d="m 99.7684,567.37997 c -3.495857,-0.0126 -6.027182,1.84125 -6.343282,4.64571 -0.29075,2.57949 1.037631,4.19778 4.662248,5.67976 3.089744,1.26329 3.855334,2.43593 2.566764,3.93258 -0.60067,0.69766 -0.763967,0.7418 -2.711975,0.7338 -1.607159,-0.007 -2.319133,-0.13807 -3.168282,-0.58549 l -1.095024,-0.57723 -0.179834,1.44126 c -0.099,0.79257 -0.106636,1.5601 -0.01654,1.70584 0.09007,0.14574 0.723596,0.43704 1.407666,0.6475 1.860688,0.57247 4.784685,0.52296 6.476609,-0.11007 2.73906,-1.02482 4.06999,-3.46728 3.34967,-6.14691 -0.43891,-1.6328 -1.82413,-2.81342 -4.69997,-4.00544 -1.33968,-0.55529 -2.552677,-1.22881 -2.695967,-1.49655 -1.183929,-2.2122 1.607863,-3.81055 4.886527,-2.79776 0.72081,0.22266 1.36807,0.34707 1.43867,0.27647 0.0706,-0.0706 0.1357,-0.68902 0.1447,-1.37408 0.016,-1.22165 -0.004,-1.25228 -1.0418,-1.60404 -0.58208,-0.19725 -1.9233,-0.36135 -2.980184,-0.36535 z m -67.928154,0.30903 -2.210717,0.0698 -2.210718,0.0698 -3.147095,8.30647 c -1.730903,4.56858 -3.147095,8.41358 -3.147095,8.5447 0,0.13117 0.796877,0.2032 1.770952,0.1602 l 1.770951,-0.078 2.45308,-6.74688 c 1.349253,-3.71078 2.463812,-6.68738 2.476852,-6.61458 0.01304,0.0728 1.12095,3.10886 2.461865,6.74687 l 2.438094,6.61459 1.934766,0.078 c 1.557395,0.0629 1.917645,0.006 1.846915,-0.29456 -0.04832,-0.20522 -1.516601,-4.08219 -3.26285,-8.61498 z m 11.377084,0.007 c -3.856298,0 -7.011459,0.0854 -7.011459,0.18965 0,0.10428 0.19448,0.69959 0.432532,1.32292 l 0.433049,1.13326 h 2.345076 2.345593 v 7.27605 7.27604 h 1.785938 1.785937 v -7.2099 -7.20989 l 2.447396,-0.076 2.447396,-0.076 v -1.3131 -1.3131 z m 9.128125,0 v 8.59896 8.59896 l 1.785937,5.1e-4 1.785938,5.2e-4 -0.0801,-3.83697 c -0.04386,-2.11028 0.01789,-3.83698 0.136943,-3.83698 0.119049,0 1.573218,1.72641 3.231844,3.83646 l 3.015836,3.83646 h 2.246375 c 2.114873,0 2.223137,-0.0271 1.847949,-0.46302 -0.219188,-0.25466 -1.891263,-2.313 -3.716052,-4.57388 l -3.318144,-4.11035 3.558956,-4.02559 3.558956,-4.02508 h -2.11615 -2.11615 l -2.993099,3.55172 c -1.646106,1.95342 -3.081879,3.56078 -3.191019,3.57188 -0.109137,0.0111 -0.198438,-1.5872 -0.198438,-3.55172 V 567.696 h -1.719792 z m 16.139583,0 v 8.59896 8.59896 h 1.852083 1.852084 v -8.59896 -8.59896 h -1.852084 z m 7.408333,0 v 8.59896 8.59896 h 1.714624 1.715141 l 0.0708,-6.05958 0.07131,-6.0601 3.280937,6.0601 3.281454,6.05958 h 2.076359 2.076875 v -8.59896 -8.59896 h -1.582849 -1.582849 l -0.0708,6.10402 -0.0708,6.1035 -3.307292,-6.10298 -3.307292,-6.10351 -2.182812,-5.1e-4 z" /></g></svg>
