<?xml version="1.0" encoding="UTF-8" standalone="no"?>
<!-- Created with Inkscape (http://www.inkscape.org/) -->

<svg
   width="32.814407mm"
   height="38.868053mm"
   viewBox="0 0 32.814408 38.868053"
   version="1.1"
   id="svg3814"
   xml:space="preserve"
   xmlns="http://www.w3.org/2000/svg"
   xmlns:svg="http://www.w3.org/2000/svg"><defs
     id="defs3811" /><g
     id="layer1"
     transform="translate(33.994459,-137.68596)"><path
       id="path4259"
       style="fill:#000000;stroke-width:0.264583"
       d="m -33.994459,137.68596 0.07286,12.61163 0.07286,12.61215 1.058333,5.2e-4 h 1.058333 l 0.07441,-2.9347 0.07493,-2.93523 0.964282,-0.84646 c 1.303065,-1.1441 2.431758,-1.57458 4.129981,-1.57458 1.405578,0 3.090767,0.41328 3.090767,0.7581 0,0.0975 -0.278452,0.59192 -0.618567,1.09864 -0.931354,1.38759 -1.233516,2.52272 -1.233516,4.63176 0,2.03623 0.437442,3.64532 1.333769,4.90409 0.303305,0.42596 0.487487,0.87804 0.409277,1.00459 -0.07821,0.12655 -0.682398,0.38139 -1.343071,0.56637 -2.215694,0.62035 -5.062726,-0.22427 -6.216674,-1.84485 -0.468379,-0.65776 -0.754072,-0.79995 -1.609721,-0.79995 -1.184809,0 -1.231564,0.10194 -0.531234,1.16427 0.767825,1.16471 2.122937,2.22319 3.592029,2.80655 v 5.2e-4 c 1.824041,0.72431 5.074805,0.63378 6.71897,-0.18707 l 1.162719,-0.58033 1.043864,0.53227 c 1.669459,0.85169 4.353429,0.9594 6.291606,0.2527 1.580108,-0.57614 1.623281,-0.57793 2.850989,-0.10646 1.491049,0.57259 3.9141966,0.61537 5.7179969,0.10077 0.9513428,-0.2714 1.708638,-0.7729 2.8442708,-1.88412 0.8512432,-0.83294 1.5477092,-1.64594 1.5477092,-1.80661 0,-0.16198 -0.4420083,-0.29084 -0.9921875,-0.28784 -0.7135594,0.003 -1.1705351,0.19248 -1.6267741,0.67335 -0.3489164,0.36775 -1.1550087,0.97411 -1.7916219,1.3472 -1.0207298,0.59822 -1.3891639,0.6666 -3.1181559,0.5793 -1.0783485,-0.0545 -2.0414915,-0.17962 -2.1399215,-0.27802 -0.09843,-0.0984 0.07239,-0.53171 0.379305,-0.96274 0.306917,-0.43102 0.558106,-0.90866 0.558106,-1.06143 0,-0.42174 -1.934065,-0.0976 -2.293917,0.38447 -0.275513,0.36909 -0.372014,0.35197 -0.88315,-0.15916 -2.065949,-2.06595 -2.110067,-6.99308 -0.07855,-8.79791 0.501101,-0.44523 0.544413,-0.44235 1.004589,0.0661 0.322659,0.35653 0.815426,0.53175 1.4981,0.53175 0.559528,0 1.0175092,-0.0725 1.0175092,-0.16071 0,-0.0882 -0.3553052,-0.60868 -0.7896162,-1.15704 l -0.789616,-0.99735 1.163237,-0.32556 c 1.6435502,-0.46017 3.5671863,-0.13658 5.0591226,0.85163 0.6728137,0.44565 1.3605655,1.03061 1.5285889,1.29966 0.2091635,0.33493 0.6191422,0.48937 1.3001791,0.48937 0.5470783,0 0.9947713,-0.0754 0.9947713,-0.16743 0,-0.092 -0.2400026,-0.55535 -0.5333008,-1.02991 -0.6363356,-1.02962 -1.9562052,-2.07737 -3.5000448,-2.77812 -1.5567909,-0.70688 -4.6732003,-0.7025 -6.2394123,0.008 -1.143047,0.51869 -1.146698,0.51863 -2.778125,-0.0346 -1.947623,-0.66048 -4.12773,-0.56173 -6.080766,0.27544 l -1.254704,0.53795 -1.382344,-0.55914 c -2.113506,-0.85481 -5.02212,-0.80066 -6.809404,0.12661 -0.75288,0.39061 -1.417065,0.71003 -1.476395,0.71003 -0.05933,0 -0.108004,-3.75047 -0.108004,-8.33438 v -8.33437 h -1.197343 z m 16.998962,16.80156 c 0.207204,-1.4e-4 0.405188,0.0127 0.591696,0.0382 1.849891,0.25355 1.930802,0.40521 0.981335,1.83865 -1.101263,1.66259 -1.433769,2.99394 -1.314648,5.25859 0.102361,1.94611 0.775096,3.73513 1.831412,4.86895 0.658913,0.70726 0.5974,0.80039 -0.732255,1.10898 -1.466869,0.34044 -2.452598,0.27788 -3.713985,-0.23461 l -1.113627,-0.45217 0.604614,-0.78962 c 2.009225,-2.62312 1.987772,-7.6001 -0.04341,-10.04796 l -0.656807,-0.79168 1.504817,-0.45837 c 0.73378,-0.22341 1.439245,-0.33858 2.060856,-0.339 z m -4.858101,2.31304 c 0.195935,0.02 0.624074,0.57677 0.989087,1.29707 0.890385,1.75709 0.964913,4.0501 0.188619,5.8012 -0.285584,0.64419 -0.705674,1.32534 -0.933793,1.5136 -0.35992,0.29702 -0.514697,0.13961 -1.167888,-1.19062 -1.00129,-2.03912 -1.029528,-4.43966 -0.07235,-6.15983 0.353363,-0.63503 0.785603,-1.20111 0.960148,-1.25781 0.01091,-0.004 0.02311,-0.005 0.03617,-0.004 z m -0.457336,13.95832 c -0.129952,0 -0.304847,0.17859 -0.388607,0.39687 -0.09277,0.24175 -5.33e-4,0.39688 0.236161,0.39688 0.213714,0 0.388607,-0.1786 0.388607,-0.39688 0,-0.21828 -0.106211,-0.39687 -0.236161,-0.39687 z m 13.4653275,0 c -0.1455206,0 -0.2645833,0.17859 -0.2645833,0.39687 0,0.21828 0.1190627,0.39688 0.2645833,0.39688 0.1455207,0 0.2645834,-0.1786 0.2645834,-0.39688 0,-0.21828 -0.1190627,-0.39687 -0.2645834,-0.39687 z m -21.0343745,0.92604 -0.07855,1.78594 c -0.04889,1.11607 0.02553,1.78593 0.198438,1.78593 0.15217,0 0.290685,-0.38695 0.307475,-0.85989 0.05168,-1.45623 0.08823,-1.58575 0.52865,-1.86449 0.834867,-0.52839 1.292944,-0.0349 1.292944,1.3932 0,0.73217 0.119062,1.33118 0.264583,1.33118 0.387176,0 0.327918,-2.79369 -0.06615,-3.11815 -0.1819,-0.14977 -0.806979,-0.31287 -1.389062,-0.36277 z m 17.034619,0.002 c -0.506838,0.003 -1.018624,0.23986 -1.391647,0.73949 l -0.520898,0.69763 -0.290938,-0.58705 c -0.30815,-0.62189 -1.660174,-0.92873 -2.487187,-0.5643 -0.240807,0.10608 -0.497231,0.18391 -0.569991,0.17311 -0.07276,-0.0108 -0.164989,0.44427 -0.204639,1.01079 -0.0524,0.74857 0.07412,1.17588 0.463021,1.56477 v 5.1e-4 c 0.685177,0.68485 1.903243,0.68708 2.521293,0.004 0.619585,-0.68463 0.296864,-1.02471 -0.386023,-0.4067 -0.60359,0.54624 -1.864485,0.37155 -1.864485,-0.25838 0,-0.29704 0.340926,-0.39171 1.410249,-0.39171 1.23776,0 1.454368,0.082 1.768368,0.6687 0.578621,1.08117 2.628228,1.23178 3.015836,0.22169 0.25214,-0.65707 -0.04079,-0.76974 -0.625801,-0.2403 -0.603592,0.54624 -1.864486,0.37155 -1.864486,-0.25838 0,-0.29914 0.348224,-0.39171 1.472779,-0.39171 1.404097,0 1.464658,-0.0279 1.294494,-0.59531 -0.269467,-0.89861 -0.999183,-1.39192 -1.739945,-1.38699 z m -19.340939,0.0537 c -0.06051,0.002 -0.120481,0.007 -0.179834,0.016 -1.409034,0.2068 -1.961501,1.66492 -1.063501,2.80655 0.577752,0.73448 1.487344,0.89525 2.376083,0.41961 0.281474,-0.15064 0.512113,-0.45506 0.512113,-0.67645 0,-0.34485 -0.115003,-0.33463 -0.800468,0.0703 -0.59666,0.35246 -0.91193,0.40172 -1.240751,0.19431 -0.913665,-0.57633 -0.711337,-0.94737 0.490409,-0.89917 1.717767,0.069 1.815394,0.0415 1.815394,-0.51263 0,-0.72839 -1.001777,-1.44647 -1.909445,-1.41852 z m 9.872266,0.0765 c -0.243695,0 -0.492172,2.21597 -0.33693,3.00498 0.04705,0.23913 0.195879,0.4346 0.330729,0.4346 0.134851,0 0.245463,-0.7739 0.245463,-1.71979 0,-0.94588 -0.107786,-1.71979 -0.239262,-1.71979 z m 0.768429,0 v 1.71979 c 0,0.97014 0.115331,1.71979 0.264583,1.71979 0.145521,0 0.264583,-0.46645 0.264583,-1.03663 0,-1.42947 0.219557,-1.87378 0.926042,-1.87378 0.706484,0 0.926042,0.44431 0.926042,1.87378 0,0.57018 0.119063,1.03663 0.264583,1.03663 0.375815,0 0.329072,-2.73999 -0.05323,-3.12229 -0.174625,-0.17463 -0.829469,-0.31729 -1.455208,-0.31729 z m 11.509375,0 c -0.637728,0 -0.661459,0.0617 -0.661459,1.71979 0,0.97014 0.115332,1.71979 0.264584,1.71979 0.14552,0 0.264583,-0.52104 0.264583,-1.15807 0,-0.70674 0.154699,-1.28677 0.3968749,-1.48776 0.5860648,-0.48639 0.4836125,-0.79375 -0.2645829,-0.79375 z m 1.1906245,0 c -0.1492513,0 -0.2645833,0.74965 -0.2645833,1.71979 0,0.97014 0.115332,1.71979 0.2645833,1.71979 0.1492514,0 0.2645834,-0.74965 0.2645834,-1.71979 0,-0.97014 -0.115332,-1.71979 -0.2645834,-1.71979 z m 5.8161825,0.032 c -0.8696624,0.005 -1.1350953,0.12712 -1.4366048,0.55759 -0.9414448,1.3441 0.017217,2.97538 1.6396932,2.79001 0.9772534,-0.11166 1.1218723,0.16532 0.3126424,0.59841 -0.4274472,0.22876 -0.6923139,0.19723 -1.2133626,-0.14418 -0.8882345,-0.58198 -1.1918059,-0.22497 -0.3731039,0.43874 v -5.2e-4 c 0.4457352,0.36169 0.8540517,0.47183 1.3229167,0.35708 1.1206786,-0.27427 1.3822068,-0.74851 1.4929321,-2.70991 l 0.1043864,-1.85001 -1.4376383,-0.0331 c -0.1507525,-0.003 -0.2876237,-0.005 -0.4118612,-0.004 z m -3.696932,0.009 c -0.076074,-0.001 -0.1524194,-3.8e-4 -0.227893,0.003 l -1.0976075,0.0429 v 1.67638 c 0,0.94123 0.1160332,1.67638 0.2645834,1.67638 0.1455207,0 0.2645833,-0.51217 0.2645833,-1.13791 0,-1.2048 0.3466094,-1.7725 1.0826213,-1.7725 0.5529494,0 0.769462,0.52673 0.769462,1.87378 0,0.57018 0.1190627,1.03663 0.2645834,1.03663 0.4075847,0 0.3248094,-2.79568 -0.093018,-3.14244 -0.1720028,-0.14272 -0.6947951,-0.24759 -1.2273153,-0.2558 z m -17.924487,0.007 c -0.610573,0.0144 -1.213164,0.13302 -1.414901,0.28887 -1.321047,1.02052 -0.40944,3.24122 1.251086,3.04736 1.003515,-0.11716 1.157811,0.15623 0.336414,0.59583 -0.440467,0.23573 -0.654251,0.20128 -1.064534,-0.17002 -0.361841,-0.32746 -0.595969,-0.38175 -0.79375,-0.18397 -0.197782,0.19778 -0.100457,0.4072 0.329695,0.70849 0.811226,0.56821 1.337767,0.53891 2.176611,-0.12093 0.63046,-0.49592 0.697116,-0.71977 0.697116,-2.33939 v -1.7911 l -1.256771,-0.0351 c -0.0864,-0.002 -0.173742,-0.002 -0.260966,0 z m 21.6730954,0.51986 c 0.217767,-0.001 0.4335681,0.0753 0.6268351,0.23565 0.465814,0.38658 0.5018489,1.35384 0.066663,1.78903 -0.8756558,0.87565 -2.3817878,-0.35771 -1.6975708,-1.39009 0.273655,-0.41291 0.6411282,-0.63241 1.0040727,-0.63459 z m -9.7410074,0.007 c 0.367863,0.0116 0.705324,0.12079 0.788066,0.33641 0.126663,0.33012 -0.05339,0.41083 -0.914157,0.41083 -0.739176,0 -1.038108,-0.1027 -0.963248,-0.33073 0.09382,-0.2858 0.616373,-0.43149 1.089339,-0.41651 z m -12.187887,0.0119 c 0.09168,0.004 0.186548,0.0171 0.283187,0.0413 0.784295,0.19684 1.027838,1.01007 0.519865,1.7353 -0.676993,0.96655 -1.939933,0.53346 -1.939933,-0.66508 0,-0.67958 0.495106,-1.1376 1.136881,-1.11156 z m -7.173205,0.003 c 0.425813,-0.0152 0.853321,0.12393 0.944645,0.40205 0.07532,0.22937 -0.232321,0.33073 -1.004073,0.33073 -0.975263,0 -1.070964,-0.0507 -0.772563,-0.41031 0.170552,-0.20552 0.500802,-0.31065 0.831991,-0.32247 z m 15.511714,0 c 0.331189,0.0118 0.661439,0.11696 0.831991,0.32247 0.298403,0.35956 0.203218,0.41031 -0.772046,0.41031 -0.771751,0 -1.079393,-0.10136 -1.004073,-0.33073 0.09132,-0.27811 0.518315,-0.41724 0.944128,-0.40205 z" /></g></svg>
