<?xml version="1.0" encoding="UTF-8" standalone="no"?>
<!-- Created with Inkscape (http://www.inkscape.org/) -->

<svg
   width="359.83331mm"
   height="88.169342mm"
   viewBox="0 0 359.83332 88.169343"
   version="1.1"
   id="svg3814"
   xml:space="preserve"
   inkscape:export-filename="aecom.svg"
   inkscape:export-xdpi="96"
   inkscape:export-ydpi="96"
   xmlns:inkscape="http://www.inkscape.org/namespaces/inkscape"
   xmlns:sodipodi="http://sodipodi.sourceforge.net/DTD/sodipodi-0.dtd"
   xmlns="http://www.w3.org/2000/svg"
   xmlns:svg="http://www.w3.org/2000/svg"><sodipodi:namedview
     id="namedview3816"
     pagecolor="#505050"
     bordercolor="#ffffff"
     borderopacity="1"
     inkscape:showpageshadow="0"
     inkscape:pageopacity="0"
     inkscape:pagecheckerboard="1"
     inkscape:deskcolor="#505050"
     inkscape:document-units="mm"
     showgrid="false" /><defs
     id="defs3811" /><g
     inkscape:label="Layer 1"
     inkscape:groupmode="layer"
     id="layer1"
     transform="translate(204.26241,-140.69352)"><path
       id="path4500"
       style="fill:#000000;stroke-width:0.264583"
       d="m -203.46866,140.69352 -0.0248,10.28413 c -0.0196,8.08116 -0.007,46.66393 0.0196,57.57839 l 0.005,2.05053 h 8.87388 c 9.6939,0 12.74221,-0.22221 16.46876,-1.19993 8.81042,-2.31158 13.91544,-7.57367 15.14171,-15.60783 1.30391,-8.54286 -3.91385,-17.59875 -11.57449,-20.08818 l -1.38493,-0.45011 1.96784,-1.91151 c 2.16626,-2.10391 3.46212,-4.40227 4.26331,-7.56129 0.65838,-2.59594 0.41626,-7.92571 -0.48524,-10.67067 -1.69081,-5.14838 -5.40053,-8.62551 -11.31042,-10.60194 -3.75046,-1.25424 -6.19905,-1.54215 -14.35365,-1.68671 z m 48.68333,0.0631 v 34.925 34.925 h 18.78542 18.78542 v -4.23334 -4.23333 h -14.2875 -14.2875 v -12.83229 -12.83229 h 13.8591 13.85962 l 0.18655,-2.24225 c 0.10283,-1.23326 0.10302,-3.13698 5.2e-4,-4.23074 l -0.18604,-1.98903 -13.79399,-0.0682 -13.79347,-0.0687 v -9.26042 -9.26042 l 14.22135,-0.0682 14.22136,-0.0687 v -4.23075 -4.23126 h -18.78542 z m 102.658337,0 -0.0057,25.33385 -0.0057,25.33385 -2.706295,-2.78329 c -2.944108,-3.02788 -12.295433,-12.78884 -13.682886,-14.28233 -0.473156,-0.50933 -3.019071,-3.18574 -5.657535,-5.94744 -2.638463,-2.76169 -5.868687,-6.14778 -7.178374,-7.52512 -1.309685,-1.37735 -3.697111,-3.88067 -5.305619,-5.56246 -1.608509,-1.68178 -4.108824,-4.30332 -5.55625,-5.826 -1.447426,-1.52268 -3.87175,-4.05275 -5.387268,-5.62239 l -2.75539,-2.85409 h -1.80867 -1.80868 v 34.79271 34.79271 h 4.496369 4.496883 l 0.06718,-25.56485 0.0677,-25.56485 5.007447,5.25808 c 2.753981,2.89201 6.325861,6.63111 7.9375,8.30905 1.611639,1.67794 4.173597,4.35686 5.693709,5.95313 1.520109,1.59627 3.988322,4.18501 5.48442,5.75262 1.496101,1.56761 3.942977,4.13194 5.437911,5.69887 1.494931,1.56693 3.968339,4.15461 5.496305,5.75004 8.233979,8.59751 12.386732,12.96045 13.096875,13.7604 0.703569,0.79254 0.947674,0.8953 2.148706,0.9033 l 1.354956,0.009 0.163298,-1.25677 c 0.213547,-1.64376 0.214138,-65.35334 5.16e-4,-67.33646 l -0.163814,-1.52135 h -4.46381 z m 18.25625,0 v 4.22971 4.2292 l 8.135937,0.0703 8.135938,0.0698 0.06718,30.62552 0.06718,30.62553 h 4.496884 4.4968827 V 179.9149 149.22323 h 8.33437497 8.33437503 v -4.23333 -4.23333 H -12.836368 Z m 51.858333,0 v 34.925 34.925 h 15.08125 15.08125 v -4.23334 -4.23333 H 37.699048 27.248007 v -30.69167 -30.69166 h -4.630209 z m 38.89375,0 0.0021,33.53593 c 0.0013,18.44474 0.07773,34.16101 0.169499,34.925 l 0.166915,1.38907 H 75.96803 94.716757 v -4.23334 -4.23333 h -14.2875 -14.2875 v -12.83229 -12.83229 h 13.890625 13.890625 v -4.23334 -4.23333 H 80.032382 66.141757 v -9.39271 -9.39271 h 14.2875 14.2875 v -4.23333 -4.23333 H 75.799048 Z m 49.68069,0 c -2.87698,0 -5.23069,0.0525 -5.23069,0.11678 0,0.12683 9.78367,17.10293 17.69711,30.70717 l 4.92476,8.46667 0.0724,15.27969 0.0724,15.27917 h 4.48551 4.48552 l 0.0723,-15.27969 0.0724,-15.27969 10.94404,-18.9177 c 6.01923,-10.40473 11.04963,-19.03062 11.17864,-19.16886 0.12904,-0.13825 0.23461,-0.46567 0.23461,-0.7276 0,-0.44233 -0.36296,-0.47578 -5.09323,-0.47078 l -5.09323,0.006 -8.0517,14.02705 c -4.42844,7.71489 -8.22286,14.27153 -8.43204,14.57017 -0.37007,0.52834 -0.39634,0.51554 -0.9648,-0.47283 -7.94101,-13.80688 -10.5296,-18.31513 -13.08034,-22.77794 l -3.06235,-5.35781 z m -301.03486,8.12043 3.50573,0.16278 c 9.08952,0.42159 12.57466,3.11558 13.07259,10.10533 0.44698,6.27456 -2.15006,10.16036 -7.79074,11.65768 -0.83148,0.22072 -3.14865,0.47481 -5.14956,0.56431 l -3.63802,0.16226 v -11.32592 z m 0,29.97957 3.50573,0.002 c 6.13173,0.004 9.73395,0.62335 13.05915,2.24638 3.92243,1.91452 5.92471,5.03383 5.92471,9.22889 0,3.21796 -1.10613,6.07364 -3.10472,8.01605 -2.23342,2.17063 -5.5094,3.36472 -10.38903,3.78685 -3.47619,0.30076 -8.55763,0.35347 -8.81962,0.0915 -0.097,-0.097 -0.17622,-5.3953 -0.17622,-11.77396 z m -9.78958,45.77291 v 2.11667 2.11667 H -24.345743 155.57092 v -2.11667 -2.11667 H -24.345743 Z" /></g></svg>
