<?xml version="1.0" encoding="UTF-8" standalone="no"?>
<!-- Created with Inkscape (http://www.inkscape.org/) -->

<svg
   width="46.573902mm"
   height="19.641714mm"
   viewBox="0 0 46.573903 19.641714"
   version="1.1"
   id="svg5"
   xml:space="preserve"
   xmlns="http://www.w3.org/2000/svg"
   xmlns:svg="http://www.w3.org/2000/svg"><defs
     id="defs2" /><g
     id="layer1"
     transform="translate(-7.5979885,-180.3186)"><path
       id="path1128"
       style="fill:#000000;stroke-width:0.264583"
       d="m 7.5979885,180.3186 0.069763,8.82013 0.069763,8.82014 5.5562505,-0.0114 c 4.372668,-0.009 5.751898,-0.0974 6.475574,-0.41393 0.908807,-0.3975 0.925821,-0.39293 1.455208,0.38861 0.294608,0.43493 1.060354,1.06785 1.701705,1.40611 2.135899,1.12651 5.33838,0.63125 7.623824,-1.17874 l 0.999939,-0.79168 1.012341,0.8754 c 2.478028,2.14222 5.18925,2.30467 6.900354,0.41393 0.418174,-0.46206 0.810133,-0.55604 2.314588,-0.55604 h 1.811259 v -4.8178 -4.81727 l 1.627807,2.63446 c 0.895421,1.44905 2.234875,3.61645 2.976563,4.81676 l 1.348755,2.18281 2.315104,5.2e-4 2.315104,5.2e-4 v -8.86354 -8.86355 h -2.375566 -2.375049 l -0.07235,4.60334 -0.07183,4.60334 -2.871142,-4.60334 -2.871143,-4.60334 h -2.354378 -2.354378 v 3.58997 3.58996 l -2.381767,-0.0842 c -2.513619,-0.0889 -2.837658,0.0817 -1.851567,0.9741 0.31573,0.28574 0.529167,0.81499 0.529167,1.31206 0,0.95405 -1.085367,3.28578 -1.8526,3.98012 -0.498255,0.45091 -0.537484,0.44474 -1.035079,-0.16278 -0.702831,-0.8581 -3.037583,-4.72484 -2.906283,-4.81314 0.05796,-0.039 0.788341,-0.51358 1.623157,-1.0542 2.019169,-1.3076 2.96659,-2.73074 2.773991,-4.16667 -0.189182,-1.41045 -0.823691,-2.33126 -1.92288,-2.79053 -2.262417,-0.9453 -5.034215,-0.002 -6.110221,2.07843 -0.519311,1.00423 -0.499123,3.22878 0.04392,4.81469 0.449273,1.31206 0.448895,1.31534 -0.165881,1.71979 -0.338774,0.22287 -1.200284,0.84242 -1.914612,1.37718 l -1.298628,0.97255 -0.569475,-1.07694 c -0.313155,-0.59219 -0.954614,-1.28291 -1.425236,-1.53531 l -0.855761,-0.45888 0.624768,-0.40928 c 2.127678,-1.39411 1.872453,-5.81757 -0.415479,-7.20111 -0.775822,-0.46915 -1.448627,-0.53267 -6.491593,-0.61237 z m 22.6353105,1.1498 c 0.285817,0.0103 0.507521,0.13449 0.862997,0.39894 1.001664,0.74516 1.126543,2.51008 0.267167,3.77238 -0.334113,0.49076 -1.058329,1.17594 -1.609204,1.52239 l -1.001489,0.62994 -0.425814,-1.00201 c -0.598423,-1.40691 -0.759836,-3.40941 -0.337964,-4.19768 0.206365,-0.3856 0.759511,-0.77116 1.367875,-0.95343 0.393096,-0.11777 0.65413,-0.17854 0.876432,-0.17053 z m -16.807242,2.59984 h 1.339969 c 1.822983,0 2.364197,0.33054 2.364197,1.44539 0,0.4938 -0.187319,1.08495 -0.415995,1.31362 -0.275856,0.27586 -0.899126,0.41599 -1.852083,0.41599 h -1.436088 v -1.5875 z m 25.179341,4.24884 c 0.04493,0.005 0.08376,0.0238 0.115755,0.0558 0.04618,0.0462 0.102407,2.0872 0.125057,4.53564 0.03247,3.50941 -0.03545,4.50033 -0.320394,4.68085 -0.88366,0.55982 -3.017804,-0.20149 -4.25142,-1.5167 l -0.715201,-0.76223 1.37666,-2.12649 c 0.757054,-1.16961 1.724753,-2.68236 2.150256,-3.36155 0.595147,-0.94998 1.20475,-1.54338 1.519287,-1.50533 z m -11.945524,1.83658 c 0.138006,0 0.539269,0.56959 0.891935,1.26555 0.352667,0.69595 1.188304,2.08053 1.856735,3.07734 0.668429,0.9968 1.215429,1.88912 1.215429,1.98282 0,0.0937 -0.500348,0.49458 -1.11156,0.8909 -1.154036,0.74829 -2.883301,0.9441 -4.077787,0.46147 -1.586886,-0.64117 -2.306907,-2.96913 -1.489832,-4.81624 0.477197,-1.07877 2.168952,-2.86184 2.71508,-2.86184 z m -11.339876,0.56689 c 1.675912,-0.0305 2.339392,0.49562 2.339392,1.81126 0,0.76032 -0.139018,1.11704 -0.512114,1.31671 -0.281474,0.15064 -1.239433,0.27389 -2.129069,0.27389 h -1.617472 l 0.07855,-1.65365 0.07906,-1.65364 1.412834,-0.0811 c 0.120833,-0.007 0.237088,-0.0114 0.348816,-0.0134 z" /></g></svg>
