<?xml version="1.0" encoding="UTF-8" standalone="no"?>
<!-- Created with Inkscape (http://www.inkscape.org/) -->

<svg
   width="158.75mm"
   height="121.44374mm"
   viewBox="0 0 158.75 121.44374"
   version="1.1"
   id="svg3814"
   xml:space="preserve"
   inkscape:export-filename="miamibeach.svg"
   inkscape:export-xdpi="96"
   inkscape:export-ydpi="96"
   xmlns:inkscape="http://www.inkscape.org/namespaces/inkscape"
   xmlns:sodipodi="http://sodipodi.sourceforge.net/DTD/sodipodi-0.dtd"
   xmlns="http://www.w3.org/2000/svg"
   xmlns:svg="http://www.w3.org/2000/svg"><sodipodi:namedview
     id="namedview3816"
     pagecolor="#505050"
     bordercolor="#ffffff"
     borderopacity="1"
     inkscape:showpageshadow="0"
     inkscape:pageopacity="0"
     inkscape:pagecheckerboard="1"
     inkscape:deskcolor="#505050"
     inkscape:document-units="mm"
     showgrid="false" /><defs
     id="defs3811" /><g
     inkscape:label="Layer 1"
     inkscape:groupmode="layer"
     id="layer1"
     transform="translate(87.895735,-99.165135)"><path
       id="path3925"
       style="fill:#000000;stroke-width:0.264583"
       d="m -87.895735,99.165135 v 4.101045 4.10104 h 79.375 79.375 v -4.10104 -4.101045 h -79.375 z m 120.68359,19.587955 c -0.126047,-0.0109 -0.36585,0.0209 -0.6165,0.0863 -0.50874,0.13281 -1.034022,1.204 -3.22616,6.58047 -3.581876,8.78502 -3.504299,8.63074 -4.470528,8.88111 -0.44702,0.11583 -0.860407,0.35396 -0.918807,0.52917 -0.07811,0.23438 0.599183,0.31833 2.561601,0.31833 2.195058,0 2.668054,-0.0703 2.668054,-0.39688 0,-0.21828 -0.223381,-0.39687 -0.496611,-0.39687 -0.982959,0 -1.068555,-0.57138 -0.367936,-2.4567 l 0.667143,-1.79524 2.391069,0.0755 2.391068,0.0754 0.595313,1.71979 c 0.628929,1.81658 0.522007,2.38125 -0.450102,2.38125 -0.27323,0 -0.496611,0.17859 -0.496611,0.39687 0,0.33318 0.573268,0.39688 3.571875,0.39688 1.991148,0 3.571875,-0.10753 3.571875,-0.24288 0,-0.13353 -0.442463,-0.46097 -0.983402,-0.72761 -0.980129,-0.48313 -0.99283,-0.51034 -3.598747,-7.89305 -1.438228,-4.07458 -2.657062,-7.45211 -2.708362,-7.50601 -0.01284,-0.0135 -0.04222,-0.0222 -0.08423,-0.0258 z m -100.125672,0.1235 c -2.929987,0 -3.363997,0.0638 -4.705656,0.69298 -1.725688,0.80928 -3.178338,2.17326 -3.989937,3.74603 -0.722959,1.401 -0.97579,4.92134 -0.480591,6.69003 0.62986,2.24966 2.471097,4.12565 4.943884,5.03794 1.609999,0.59396 5.467713,0.38428 7.023861,-0.38189 1.299889,-0.64001 1.805517,-1.59321 0.661458,-1.24696 -0.327419,0.0991 -1.399534,0.24825 -2.382283,0.33125 -4.332586,0.36587 -6.734989,-2.31044 -6.642489,-7.39955 0.0792,-4.35555 2.430847,-6.86639 5.975863,-6.38049 1.188559,0.16291 1.194623,0.16936 1.529622,1.5658 0.63705,2.65554 1.074964,2.61275 1.569414,-0.154 0.255559,-1.43005 0.262865,-1.96282 0.03101,-2.1947 -0.198419,-0.19845 -1.442333,-0.30644 -3.534151,-0.30644 z m 75.8713382,0.12351 c -2.4142388,0.0104 -4.6243889,0.12494 -4.554244,0.33538 0.05991,0.17972 0.486713,0.43504 0.9482625,0.56741 l 0.8392253,0.24081 v 6.93498 6.93497 l -0.8392253,0.24082 c -0.4615495,0.13237 -0.8883626,0.38767 -0.9482625,0.5674 -0.08273,0.24817 0.7234196,0.3266 3.3527669,0.3266 3.4972859,0 4.1099589,-0.1901 2.7341999,-0.84853 -0.7256489,-0.34727 -0.7277181,-0.35678 -0.8020181,-3.45405 -0.07082,-2.95098 -0.048484,-3.10575 0.4526856,-3.10575 0.3927795,0 0.9963115,0.79379 2.3636795,3.10885 1.763059,2.98498 2.620338,4.06428 3.475757,4.37699 0.927679,0.33911 4.234817,0.0978 4.232817,-0.30902 -3.9e-4,-0.0909 -0.443457,-0.40349 -0.984436,-0.69453 -1.001939,-0.53904 -1.354542,-0.99371 -3.734139,-4.81315 l -1.350305,-2.16731 1.105875,-0.61081 c 0.60849,-0.33593 1.389882,-1.02753 1.735812,-1.53686 0.530579,-0.78121 0.611548,-1.17008 0.519348,-2.48667 -0.09414,-1.34424 -0.223844,-1.66335 -0.935344,-2.29908 -0.454329,-0.40595 -1.278986,-0.86382 -1.832446,-1.01751 -0.747359,-0.20753 -3.36577,-0.30131 -5.7800088,-0.29094 z m -59.3875892,0.009 c -4.583986,0 -5.820834,0.0726 -5.820834,0.34209 0,0.18819 0.386957,0.45609 0.859896,0.59532 l 0.859896,0.25321 v 6.87917 6.87916 l -0.859896,0.25322 c -0.472939,0.13923 -0.859896,0.40712 -0.859896,0.59531 0,0.26936 1.231576,0.3421 5.792412,0.3421 6.628383,0 6.113838,0.22375 6.113838,-2.65927 0,-2.21347 -0.356176,-2.24139 -1.401465,-0.11007 l -0.709517,1.44642 h -2.251542 -2.252059 v -3.18843 -3.18792 l 1.505851,0.0791 c 1.452979,0.0766 1.513057,0.10966 1.727027,0.93948 0.123789,0.48008 0.393982,0.85989 0.611332,0.85989 0.315409,0 0.389123,-0.47737 0.389123,-2.51354 0,-2.02306 -0.07521,-2.51354 -0.384989,-2.51354 -0.23039,0 -0.454632,0.37172 -0.558622,0.92604 -0.14878,0.79305 -0.278645,0.92605 -0.904855,0.92605 -0.402179,0 -1.103295,0.0744 -1.558044,0.16536 l -0.826823,0.16536 v -3.07578 -3.07578 h 2.198832 2.198832 l 0.339515,1.32292 c 0.470009,1.83387 0.96305,1.70221 1.320849,-0.35243 0.16046,-0.92143 0.291972,-1.8144 0.291972,-1.98438 0,-0.22635 -1.558268,-0.30902 -5.820833,-0.30902 z m 26.590625,0 c -1.956308,0 -2.513542,0.0807 -2.513542,0.3638 0,0.20009 0.353836,0.43481 0.786515,0.52141 1.041429,0.20829 1.099424,0.52776 1.008724,5.5702 l -0.07545,4.20698 -4.233334,-5.33042 -4.233333,-5.33042 -2.315104,-0.001 c -2.489438,-8.1e-4 -2.90715,0.2743 -1.384412,0.91054 l 0.930176,0.38861 -0.07028,6.82439 -0.0708,6.8249 -0.859896,0.25322 c -0.472949,0.13923 -0.859895,0.40712 -0.859895,0.59531 h -5.17e-4 c 0,0.25716 0.662606,0.3421 2.668054,0.3421 1.962428,0 2.639701,-0.0845 2.561601,-0.31885 -0.0584,-0.17521 -0.485213,-0.41641 -0.948263,-0.5364 l -0.841809,-0.21807 v -5.59294 c 0,-3.07603 0.04322,-5.54295 0.09612,-5.48235 0.0529,0.0606 2.255741,2.81874 4.895309,6.12934 3.956066,4.96176 4.915382,6.01927 5.460132,6.01927 h 0.660941 l 0.0041,-6.94531 c 0.002,-3.81993 0.07356,-7.20653 0.159164,-7.52564 0.09793,-0.36517 0.439785,-0.64228 0.922424,-0.74828 0.42177,-0.0926 0.766878,-0.33795 0.766878,-0.54467 0,-0.29835 -0.518153,-0.37568 -2.513541,-0.37568 z m 8.10028,0 0.13901,1.91822 c 0.0764,1.05502 0.192465,2.08716 0.257865,2.2934 0.1861,0.58667 0.695701,-0.0649 1.18184,-1.51101 l 0.41858,-1.24541 1.636592,-0.0791 1.636076,-0.0786 -0.07028,6.80217 -0.0708,6.80217 -0.910022,0.30644 c -0.500539,0.16846 -0.957108,0.44669 -1.014408,0.61857 -0.07704,0.2311 0.940958,0.31264 3.9088053,0.31264 3.0916369,0 3.9880712,-0.0759 3.9046713,-0.33073 -0.05956,-0.1819 -0.5458948,-0.44087 -1.0805542,-0.57568 l -0.9720337,-0.24494 v -6.83266 -6.83266 h 1.5694132 c 1.7075783,0 1.6718418,-0.0342 2.0184815,1.92133 0.1726798,0.97419 0.5262349,1.46124 0.8361246,1.15135 0.1516699,-0.15167 0.8384288,-3.40614 0.8578288,-4.06487 0.00755,-0.25663 -1.5869541,-0.33072 -7.1184285,-0.33072 z m 65.453886,0 c -3.713666,0 -4.321541,0.20882 -2.645833,0.90898 l 0.926042,0.38706 v 6.77375 6.77374 l -0.926042,0.38706 c -0.509329,0.21281 -0.926042,0.50445 -0.926042,0.64802 0,0.16393 2.214759,0.26097 5.953125,0.26097 h 5.953125 v -1.42214 c 0,-0.78217 0.07437,-1.79421 0.165365,-2.24896 0.29282,-1.46408 -0.594042,-1.01079 -1.488281,0.76068 l -0.801502,1.5875 h -2.244824 -2.245341 v -6.76031 -6.76031 l 0.926042,-0.38706 c 1.675708,-0.70016 1.067833,-0.90898 -2.645834,-0.90898 z m -40.0843747,1.05833 h 0.8867677 c 1.535598,0 2.574873,0.51751 2.978113,1.4826 0.792999,1.89792 0.298054,4.06046 -1.079004,4.71392 -0.4848,0.23006 -1.309771,0.41806 -1.83348,0.41806 H 9.2063483 v -3.30729 z m 21.8756677,3.31607 0.836124,2.50993 c 0.45988,1.38039 0.836125,2.59905 0.836125,2.70784 0,0.10878 -0.831947,0.19741 -1.848466,0.19741 H 29.05785 l 0.556038,-1.38906 c 0.30572,-0.76399 0.760905,-1.98214 1.011825,-2.70733 z m -60.93995,19.43809 c -3.912076,0 -6.691632,1.59737 -8.22172,4.72478 -0.6433,1.3148 -0.728987,1.79122 -0.723987,4.00596 0.0052,2.13348 0.108473,2.73424 0.683162,3.96927 1.190979,2.55947 3.206876,4.06521 5.996534,4.47931 0.830839,0.12334 2.046287,0.16877 2.701127,0.10077 5.387874,-0.55928 8.202083,-3.62646 8.202083,-8.93951 0,-2.87528 -0.576797,-4.45356 -2.231905,-6.10867 -1.698918,-1.69892 -3.228047,-2.23191 -6.405294,-2.23191 z m 82.666789,0.0196 c -0.128234,0.006 -0.300675,0.0568 -0.50953,0.15193 -0.535719,0.24409 -1.148107,1.50899 -3.393074,7.00836 -3.508167,8.59373 -3.515829,8.60876 -4.504118,8.82582 -0.43987,0.0966 -0.799951,0.34518 -0.799951,0.5519 0,0.29965 0.536145,0.37569 2.645833,0.37569 2.109688,0 2.645833,-0.076 2.645833,-0.37569 0,-0.20672 -0.35719,-0.45445 -0.79375,-0.55035 -0.436569,-0.0959 -0.79375,-0.31128 -0.79375,-0.47853 0,-0.16726 0.309801,-1.11468 0.68833,-2.10529 l 0.68833,-1.80093 2.394686,0.0755 2.395203,0.076 0.607198,1.5875 c 0.823609,2.15311 0.803486,2.4931 -0.159163,2.68563 -0.43656,0.0873 -0.79375,0.32236 -0.79375,0.52245 0,0.2913 0.737629,0.3638 3.704166,0.3638 2.071418,0 3.704167,-0.10711 3.704167,-0.24288 0,-0.13354 -0.446489,-0.46096 -0.992188,-0.72761 -0.990749,-0.4841 -0.9961,-0.49569 -3.691247,-8.02535 -1.484489,-4.14734 -2.744312,-7.65829 -2.799312,-7.8021 -0.03197,-0.0835 -0.11568,-0.12195 -0.243913,-0.11576 z m -63.646244,0.21549 c -2.396749,-0.009 -4.562513,0.11749 -4.562513,0.38809 0,0.19723 0.386957,0.46956 0.859896,0.60513 l 0.859896,0.2465 0.07028,7.18716 0.07028,7.18767 -0.930176,0.17415 c -0.533609,0.10011 -0.930176,0.33133 -0.930176,0.54209 0,0.29463 0.681076,0.36742 3.439584,0.36742 2.7619271,0 3.439583,-0.0728 3.439583,-0.36845 0,-0.20251 -0.2976487,-0.44252 -0.6614583,-0.53382 -0.6613494,-0.16599 -0.6614584,-0.16679 -0.6614584,-3.46852 0,-2.771 0.064186,-3.30213 0.3999756,-3.30213 0.4032496,0 1.538771,1.62592 2.8907796,4.1398 0.9210091,1.71249 2.1735819,3.24443 2.8985311,3.54449 0.8255392,0.34169 4.19740077,0.18698 4.32480065,-0.19844 0.0580999,-0.17574 -0.30192844,-0.49037 -0.80046794,-0.69867 -0.92125901,-0.38493 -1.25510891,-0.82231 -3.86074621,-5.06119 l -1.2975953,-2.11046 1.2283488,-0.7059 c 1.7684783,-1.01628 2.2774789,-2.07161 2.181779,-4.52272 -0.04386,-1.12395 -1.4533073,-2.52064 -3.0111857,-2.98328 -0.9233941,-0.27421 -3.5512085,-0.41954 -5.9479569,-0.42892 z m -59.05066,0.0295 c -4.957825,0 -6.101436,0.0673 -6.101436,0.35863 0,0.19723 0.386956,0.46956 0.859896,0.60513 l 0.859896,0.2465 0.07028,7.1608 0.07028,7.16029 -0.84336,0.24185 c -0.463839,0.13302 -0.892497,0.38922 -0.952396,0.56895 h 5.16e-4 c -0.08314,0.24937 0.809559,0.3266 3.771346,0.3266 2.866127,0 3.853414,-0.0818 3.776514,-0.31264 -0.0573,-0.17188 -0.513869,-0.45028 -1.014408,-0.61857 l -0.910022,-0.30593 -0.07441,-3.23132 -0.07441,-3.23133 1.529622,0.0796 c 1.490318,0.0776 1.537209,0.10336 1.828829,1.00562 0.16462,0.50932 0.462268,0.92605 0.661458,0.92605 0.27677,0 0.380116,-0.61313 0.438216,-2.60088 0.06734,-2.30484 0.02601,-2.59104 -0.362768,-2.51354 -0.24131,0.0481 -0.573133,0.50405 -0.737423,1.01338 -0.29079,0.90151 -0.338965,0.9279 -1.820044,1.0051 l -1.521354,0.0796 v -3.32021 -3.32073 h 2.238623 2.23914 l 0.287838,1.12448 c 0.437639,1.70972 0.500917,1.83824 0.850077,1.72186 0.321,-0.107 0.535543,-0.86392 0.861963,-3.04064 l 0.169498,-1.12861 z m 15.991272,0 c -3.743676,0 -4.369281,0.22299 -2.645833,0.94309 l 0.926042,0.38706 v 7.10189 7.10189 l -0.839226,0.24082 c -0.461539,0.13236 -0.888362,0.38767 -0.948262,0.5674 -0.08433,0.25297 1.269675,0.3266 5.9986,0.3266 h 6.107638 v -0.75499 c 0,-0.41522 0.07652,-1.48679 0.170015,-2.38125 0.23133,-2.21324 -0.313525,-2.17767 -1.433504,0.0935 l -0.84801,1.71979 h -2.251543 -2.251542 v -7.02541 -7.02489 l 0.79375,-0.27699 c 0.43656,-0.15219 0.79375,-0.44346 0.79375,-0.6475 0,-0.29999 -0.684018,-0.37104 -3.571875,-0.37104 z m 78.802425,0.0145 c -2.251089,-0.006 -2.734716,0.0791 -2.734716,0.32143 0,0.20972 0.386946,0.49222 0.859895,0.62786 l 0.859896,0.2465 v 7.13393 7.13393 l -0.859896,0.25322 c -0.472949,0.13923 -0.859895,0.41773 -0.859895,0.61908 0,0.30241 0.910073,0.35035 5.232238,0.27595 l 5.231722,-0.0899 1.7632,-0.86868 c 2.013588,-0.99183 3.448426,-2.66561 4.081405,-4.76147 0.458419,-1.51804 0.508382,-4.61153 0.0987,-6.13296 -0.39822,-1.47889 -2.055976,-3.23767 -3.779614,-4.01061 -1.283009,-0.57535 -1.789313,-0.62697 -7.005258,-0.71417 -1.190738,-0.0199 -2.137316,-0.0321 -2.887679,-0.0341 z m -16.5545446,0.0227 c -1.4127749,0.004 -1.7905884,0.0907 -1.7905884,0.31367 0,0.20134 0.3869563,0.47725 0.8598958,0.61288 l 0.8598959,0.2465 v 7.13393 7.13393 l -0.8598959,0.25322 c -0.4729395,0.13923 -0.8598958,0.40712 -0.8598958,0.59531 0,0.26366 0.8554206,0.3421 3.726388,0.3421 2.787557,0 3.699334,-0.0805 3.619934,-0.31885 -0.05841,-0.17521 -0.471258,-0.41308 -0.917257,-0.52865 -0.51602,-0.13371 -0.868884,-0.42652 -0.970483,-0.80563 -0.20026,-0.74734 -0.211729,-12.57214 -0.01292,-13.31237 0.08649,-0.32204 0.491571,-0.64729 0.988571,-0.79375 1.669248,-0.49188 0.708885,-0.77699 -2.861841,-0.85059 -0.725282,-0.0149 -1.3108787,-0.0231 -1.7818036,-0.0217 z m -38.6674074,0.77101 c 1.195377,-0.0476 2.41224,0.38342 3.305225,1.27641 1.347378,1.34737 1.689302,2.69343 1.689302,6.64662 0,3.00228 -0.061,3.42783 -0.661458,4.61625 -0.3638,0.72004 -0.987226,1.54585 -1.385445,1.83503 -0.800119,0.58101 -3.400438,0.85399 -4.303097,0.45166 -2.339607,-1.04283 -3.662565,-5.1789 -3.046325,-9.52397 0.340659,-2.40197 0.778497,-3.44372 1.813326,-4.31447 0.741806,-0.62419 1.658735,-0.95051 2.588472,-0.98753 z m 57.778902,0.46043 2.229838,0.093 c 2.593648,0.10853 3.337189,0.51041 4.378028,2.36575 0.547979,0.97679 0.671543,1.60434 0.756543,3.84524 0.17079,4.50345 -0.986875,7.0353 -3.540353,7.74423 -1.046809,0.29063 -2.491046,0.33847 -3.361035,0.11111 -0.426319,-0.1114 -0.463021,-0.67766 -0.463021,-7.14014 z m -37.3062497,0.0543 h 1.2640056 c 1.5724784,1e-5 2.3346598,0.51234 2.7310994,1.83555 0.4703195,1.56977 0.1116109,3.2931 -0.8547282,4.10621 -0.5926994,0.49873 -1.1023264,0.67283 -1.9699056,0.67283 h -1.1704712 v -3.30729 z m 61.0355507,3.32022 0.835091,2.50785 c 0.45951,1.3793 0.835608,2.59648 0.835608,2.70526 0,0.10879 -0.828078,0.19792 -1.840197,0.19792 h -1.840198 l 0.679545,-1.78593 c 0.37365,-0.98227 0.82562,-2.19997 1.00459,-2.70578 z m -39.534537,20.94342 c -3.0823472,0 -4.5676803,1.12791 -4.5676803,3.46852 0,1.3375 0.7252025,2.25475 2.4737508,3.12953 1.9293375,0.96523 2.5533325,1.60951 2.5533325,2.63498 0,0.61471 -0.199226,1.01758 -0.697115,1.40921 -1.311249,1.03143 -3.2657691,0.51818 -3.2757691,-0.85989 -0.00465,-0.66176 -0.4213333,-1.42972 -0.6511231,-1.19993 -0.08519,0.0852 -0.2265928,0.76046 -0.3141927,1.50017 -0.1493098,1.26073 -0.1197603,1.35316 0.4712891,1.48053 0.3467896,0.0747 0.8685794,0.19216 1.1596191,0.26096 0.2910397,0.0689 1.032969,0.076 1.6484787,0.016 2.695277,-0.2627 4.16716,-1.6685 3.95273,-3.77496 -0.14377,-1.41225 -0.866811,-2.22994 -2.870109,-3.24528 -2.3563477,-1.19429 -2.8962978,-2.35196 -1.669149,-3.57911 0.518269,-0.51829 0.883487,-0.64723 1.653646,-0.58343 0.907079,0.0752 1.018091,0.17476 1.344621,1.20665 0.195709,0.61846 0.449643,1.12448 0.564823,1.12448 0.33923,0 0.609931,-2.41159 0.304891,-2.71663 -0.14937,-0.14937 -1.086404,-0.27182 -2.082043,-0.27182 z m -12.6777796,0.016 c -2.6061174,0.0349 -4.038598,1.05781 -4.2390178,3.02772 -0.1667398,1.63878 0.5220599,2.57821 2.6866578,3.66593 2.58965735,1.3013 3.13330632,2.69288 1.5415079,3.94498 -0.6756593,0.53148 -2.0597695,0.70725 -2.6225789,0.33331 -0.1609098,-0.10692 -0.4013944,-0.66159 -0.5343343,-1.23248 -0.3531197,-1.51637 -0.7919898,-1.45814 -1.0030396,0.13281 -0.0996,0.75021 -0.1166404,1.42796 -0.03824,1.50636 0.07842,0.0784 0.5900888,0.22976 1.1373982,0.3359 3.33338669,0.64644 5.8075155,-0.55552 6.0776652,-2.95227 0.2030798,-1.80172 -0.3433014,-2.61787 -2.51870926,-3.76101 -2.15721784,-1.13359 -2.45737054,-1.44489 -2.48977054,-2.58279 -0.03177,-1.11717 0.8229139,-1.82728 2.20038252,-1.82728 0.994259,0 1.03423401,0.0359 1.32498372,1.19062 0.16488984,0.65485 0.3892009,1.19063 0.49816076,1.19063 0.1089599,0 0.3151001,-0.59312 0.45837,-1.31775 0.2416698,-1.22222 0.2203503,-1.33038 -0.2955892,-1.49707 -0.3058997,-0.0988 -1.28856693,-0.16961 -2.1838465,-0.15761 z m -71.8323084,0.062 c -2.411387,0 -4.195092,0.10448 -4.195092,0.24598 0,0.1354 0.267892,0.28423 0.595312,0.33073 0.59085,0.0839 0.595843,0.12231 0.667143,5.17126 l 0.07183,5.08703 -0.667143,0.16743 c -0.366929,0.0921 -0.667142,0.27333 -0.667142,0.40308 0,0.12974 1.849172,0.23616 4.10931,0.23616 4.611185,0 4.441023,0.0799 4.306713,-2.01797 l -0.08268,-1.28932 -0.647506,1.25677 -0.647505,1.25677 h -1.667082 -1.667082 v -2.38125 -2.38125 h 1.162203 c 1.018749,0 1.182018,0.0815 1.327568,0.66146 0.31173,1.24203 0.685229,0.66526 0.685229,-1.05834 0,-1.8113 -0.244521,-2.15827 -0.745691,-1.05833 -0.248739,0.54594 -0.487112,0.66146 -1.365291,0.66146 h -1.064018 v -2.26188 -2.26136 l 1.644861,0.0791 c 1.604639,0.0769 1.650704,0.0995 1.890324,0.93844 0.343,1.20093 0.585829,1.07465 0.889868,-0.46302 l 0.261483,-1.32292 z m 57.993877,0 c -2.334928,0 -4.245219,0.0626 -4.245219,0.13901 0,0.0764 0.300193,0.25271 0.667142,0.39223 l 0.667143,0.25373 -0.07183,5.09788 c -0.07149,5.07024 -0.07526,5.09803 -0.671277,5.18263 -0.32958,0.0468 -0.530501,0.19561 -0.447001,0.33073 0.0835,0.13512 1.989963,0.24546 4.236951,0.24546 h 4.085538 v -0.76068 c 0,-0.41837 0.07447,-1.13275 0.165365,-1.5875 0.2415,-1.20752 -0.235419,-1.01019 -0.908989,0.37621 l -0.58446,1.20354 -1.651062,-0.0791 -1.651062,-0.0785 -0.07648,-2.33009 -0.077,-2.33009 1.267623,0.0811 c 1.083259,0.0693 1.279555,0.16758 1.351855,0.67644 0.18131,1.27661 0.576709,0.50552 0.576709,-1.12448 0,-1.73344 -0.330537,-2.28212 -0.637687,-1.05833 -0.14619,0.58246 -0.307896,0.66146 -1.351855,0.66146 h -1.185458 v -2.24896 -2.24896 h 1.719792 c 0.945889,0 1.719792,0.11148 1.719792,0.24753 0,0.13605 0.127437,0.58253 0.283187,0.99219 0.331919,0.873 0.598104,0.56015 0.885734,-1.04128 l 0.177766,-0.99219 z m 35.795231,0 c -2.551698,0 -2.747881,0.0778 -1.614372,0.64182 0.481779,0.23971 0.919898,1.27359 2.223637,5.24774 0.892999,2.72213 1.692969,5.12987 1.777669,5.35058 0.39698,1.0345 0.927422,0.22801 2.171961,-3.30212 0.718139,-2.03704 1.375259,-3.70392 1.459859,-3.70417 0.08464,-2.6e-4 0.671474,1.67109 1.304313,3.71399 0.884409,2.85505 1.246112,3.69602 1.563212,3.63492 0.27038,-0.0521 0.936676,-1.5372 1.933215,-4.30982 2.407948,-6.69956 2.301286,-6.4638 3.004985,-6.64042 1.240559,-0.31136 0.617079,-0.63252 -1.228349,-0.63252 -1.177759,0 -1.807409,0.0977 -1.704289,0.26458 0.08994,0.14553 0.328057,0.26459 0.529167,0.26459 0.2011,0 0.43183,0.1069 0.51263,0.23771 0.12911,0.2089 -1.730867,6.00123 -2.190047,6.82026 -0.09613,0.17146 -0.705323,-1.46534 -1.353923,-3.63751 -0.858509,-2.87515 -1.29031,-3.94912 -1.5875,-3.94859 -0.288179,5.6e-4 -0.796951,1.12877 -1.72961,3.83645 -0.726649,2.10962 -1.381508,3.83436 -1.455208,3.83336 -0.23931,-0.004 -2.142791,-6.6234 -1.980241,-6.8864 0.0867,-0.14029 0.329285,-0.25528 0.538985,-0.25528 0.20969,0 0.381372,-0.11906 0.381372,-0.26459 0,-0.15813 -1.028768,-0.26458 -2.557466,-0.26458 z m 22.151102,0 c -0.332809,0 -0.980062,1.30507 -2.52491,5.09323 -2.092488,5.13103 -2.567206,6.01927 -3.218925,6.01927 -0.19572,0 -0.356051,0.11907 -0.356051,0.26458 0,0.14926 0.749653,0.26459 1.719792,0.26459 1.687378,0 2.255244,-0.3237 1.171505,-0.66766 -0.30537,-0.0969 -0.489795,-0.32697 -0.415996,-0.51935 0.0729,-0.18999 0.278914,-0.83421 0.457854,-1.43144 l 0.325561,-1.08572 h 1.816944 c 1.738298,0 1.828619,0.0314 2.093929,0.72761 0.610039,1.60056 0.612614,2.20359 0.01033,2.36109 -1.288309,0.3369 -0.406876,0.61547 1.948201,0.61547 1.499309,0 2.513542,-0.10676 2.513542,-0.26459 0,-0.14551 -0.160331,-0.26458 -0.356051,-0.26458 -0.693799,0 -1.175212,-0.98394 -2.94659,-6.01927 -1.372198,-3.90063 -1.89644,-5.09323 -2.23914,-5.09323 z m 9.995773,0 c -2.668798,0 -2.874488,0.0732 -1.77767,0.63459 0.31304,0.16022 1.272167,1.53413 2.131136,3.05304 l 1.561662,2.76159 -0.07545,2.2655 c -0.07105,2.12577 -0.113112,2.27096 -0.675411,2.35076 -0.329169,0.0467 -0.529689,0.19522 -0.447001,0.33021 0.194499,0.31495 4.882906,0.32415 4.882906,0.01 0,-0.12975 -0.297659,-0.31023 -0.661459,-0.40153 -0.641259,-0.16095 -0.661458,-0.23557 -0.661458,-2.43706 0,-2.25106 0.01285,-2.29438 1.475879,-5.02192 1.109794,-2.06897 1.634784,-2.79154 2.116667,-2.91248 1.241857,-0.31169 0.619511,-0.63252 -1.226799,-0.63252 -1.177759,0 -1.807409,0.0977 -1.704289,0.26458 0.08994,0.14553 0.328057,0.26459 0.529167,0.26459 0.2011,0 0.429129,0.10224 0.506429,0.22737 0.15487,0.2506 -1.907596,4.67754 -2.092895,4.49224 -0.32934,-0.32933 -2.249992,-4.05072 -2.249992,-4.35943 0,-0.19813 0.238127,-0.36018 0.529166,-0.36018 0.29105,0 0.529167,-0.11906 0.529167,-0.26459 0,-0.15902 -1.07286,-0.26458 -2.689758,-0.26458 z m -108.170659,5.2e-4 c -1.768788,0 -2.448785,0.31123 -1.322916,0.60565 0.720089,0.18831 0.681378,0.35341 -0.498161,2.12751 l -1.025261,1.54255 -0.998388,-1.64331 -0.998389,-1.64331 0.63562,-0.48886 c 0.62991,-0.48429 0.610457,-0.48855 -2.208651,-0.49455 -1.564348,-0.003 -2.84427,0.0603 -2.84427,0.14056 0,0.0803 0.346626,0.2667 0.770495,0.41445 0.5596,0.19508 1.187971,0.92638 2.2934,2.67012 0.837309,1.3208 1.522388,2.53414 1.522388,2.69648 0,0.16234 -0.697684,1.34345 -1.550293,2.62464 -1.193159,1.79291 -1.72029,2.36367 -2.288749,2.47737 -0.40621,0.0812 -0.673796,0.25202 -0.594796,0.37982 0.18807,0.30466 3.816305,0.30334 3.816305,-0.001 0,-0.12854 -0.253334,-0.30027 -0.563273,-0.38137 -0.41381,-0.10821 -0.515182,-0.27472 -0.381373,-0.62632 0.2451,-0.64399 2.101002,-3.51842 2.267562,-3.51142 0.1573,0.006 1.89785,2.80879 2.18333,3.51555 0.148339,0.36724 0.06412,0.52771 -0.33073,0.63097 -1.276418,0.33379 -0.325877,0.60617 2.11615,0.60617 2.505258,0 3.404606,-0.28153 2.014348,-0.63046 -0.43922,-0.11024 -1.201988,-1.04386 -2.503207,-3.06544 l -1.871203,-2.90732 1.461409,-2.12183 c 0.948259,-1.37658 1.688052,-2.17809 2.106332,-2.28307 1.241568,-0.31162 0.627729,-0.63355 -1.207679,-0.63355 z m 24.689449,0.0269 c -0.389938,0.003 -0.813329,0.011 -1.273824,0.0238 -2.565917,0.0714 -2.823657,0.11954 -2.177128,0.40773 l 0.733289,0.32659 -0.07183,5.09737 c -0.07135,5.06017 -0.0762,5.09821 -0.667143,5.18211 -0.32742,0.0465 -0.595313,0.19533 -0.595313,0.33073 0,0.1354 1.071562,0.24598 2.38125,0.24598 2.216088,0 3.083622,-0.2836 1.852084,-0.60565 -0.48027,-0.12558 -0.529167,-0.36105 -0.529167,-2.54455 0,-1.91903 0.07714,-2.40605 0.381372,-2.40605 0.2098,0 1.045335,1.12813 1.856734,2.50682 0.811409,1.37869 1.714306,2.63463 2.006596,2.79105 0.29228,0.15647 1.212921,0.24865 2.04587,0.20515 l 1.514636,-0.0791 -0.827856,-0.45321 c -0.53236,-0.29146 -1.35487,-1.3102 -2.304769,-2.8546 -1.442099,-2.34465 -1.463155,-2.40703 -0.891935,-2.62775 1.925618,-0.74405 2.609556,-3.42901 1.185457,-4.65398 -0.792688,-0.68185 -1.888754,-0.9137 -4.618323,-0.89245 z m -13.370243,0.0269 c -0.521891,-0.0131 -1.094125,-0.0109 -1.721342,0.004 -2.726457,0.0653 -3.024083,0.11487 -2.382283,0.40049 l 0.733288,0.32659 -0.07183,5.09737 c -0.07135,5.06017 -0.07619,5.09821 -0.667143,5.18211 -0.32742,0.0465 -0.595312,0.19533 -0.595312,0.33073 v 5.2e-4 c 0,0.13544 1.190184,0.24598 2.645833,0.24598 1.587498,0 2.645833,-0.10584 2.645833,-0.26459 0,-0.14552 -0.22338,-0.26458 -0.49661,-0.26458 -0.859429,0 -1.120546,-0.63962 -1.037146,-2.5399 l 0.07855,-1.7942 1.156519,-0.0584 c 2.169607,-0.10989 2.88245,-0.36183 3.718119,-1.31361 0.677259,-0.77135 0.813904,-1.14951 0.813904,-2.25258 0,-2.18301 -1.167143,-3.00838 -4.820378,-3.10007 z m 13.022461,0.73949 h 1.058333 c 1.464929,0 2.116667,0.69603 2.116667,2.26085 0,0.9241 -0.150553,1.35306 -0.649573,1.85208 -0.445289,0.44529 -0.9443,0.64957 -1.5875,0.64957 h -0.937927 v -2.38125 z m -14.022917,5.2e-4 h 1.184424 c 1.516799,0 2.132614,0.80246 2.102714,2.74092 -0.0167,1.08287 -0.144781,1.41537 -0.74259,1.92959 -0.682319,0.58691 -1.982111,0.83116 -2.368331,0.44494 -0.09699,-0.097 -0.176217,-1.28764 -0.176217,-2.64583 z m 87.104761,2.59416 c 0.01979,0.004 0.03576,0.0209 0.04754,0.0512 0.24955,0.64072 1.218531,3.51402 1.218531,3.61322 0,0.05 -0.654839,0.0909 -1.455209,0.0909 -0.800359,0 -1.455208,-0.0315 -1.455208,-0.0703 0,-0.0387 0.345699,-0.96148 0.768429,-2.05052 0.410182,-1.0567 0.737407,-1.66196 0.875915,-1.63452 z m -86.840177,15.92615 v 1.7198 c 0,2.08922 0.545224,2.36184 1.058333,0.52916 l 0.333313,-1.19062 h 1.293978 1.293978 l -0.07131,5.34593 -0.07183,5.34644 -0.641821,0.15089 c -0.35302,0.0832 -0.690525,0.29702 -0.749825,0.47491 -0.08081,0.24243 0.659597,0.32349 2.956925,0.32349 1.827098,0 3.064929,-0.10468 3.064929,-0.25941 0,-0.14275 -0.301053,-0.33506 -0.668693,-0.42736 -0.367639,-0.0923 -0.784362,-0.38433 -0.926041,-0.64906 -0.14169,-0.26474 -0.257349,-2.69176 -0.257349,-5.39347 v -4.91236 h 1.319299 1.318783 l 0.299723,1.19062 c 0.28092,1.11562 0.573816,1.45449 0.856795,0.99219 0.0668,-0.10914 0.206506,-0.88305 0.310576,-1.71979 l 0.189136,-1.52136 h -5.454448 z m -27.468091,0.0243 c -0.168542,-0.0192 -0.346464,0.0936 -0.544153,0.33177 -0.16263,0.19595 -1.286146,2.78557 -2.497005,5.75468 -2.006618,4.92041 -2.277225,5.43458 -3.054594,5.80688 -0.46909,0.22466 -0.768869,0.49256 -0.666109,0.59532 0.265689,0.26566 4.067452,0.23285 4.067452,-0.0351 0,-0.12216 -0.298183,-0.35801 -0.662492,-0.524 l -0.662492,-0.30179 0.5302,-1.39423 c 0.29147,-0.76687 0.53013,-1.42398 0.5302,-1.46038 8e-5,-0.0363 0.82231,-0.0661 1.827279,-0.0661 h 1.827279 l 0.421679,1.23766 c 0.54498,1.59943 0.531723,1.84667 -0.107487,2.01383 -0.291049,0.0761 -0.529166,0.26874 -0.529166,0.42788 0,0.19105 0.943887,0.28938 2.778125,0.28938 2.775427,0 3.445568,-0.24486 2.025199,-0.74 -0.778989,-0.27156 -0.864464,-0.47589 -4.46536,-10.70322 -0.282075,-0.80117 -0.537653,-1.20054 -0.818555,-1.23249 z m 67.3462767,0.005 c -2.0304763,-0.007 -3.2862966,0.43033 -4.4803467,1.50689 -1.496659,1.34937 -2.048071,2.67824 -2.052071,4.94647 -0.0054,3.12719 1.4741042,5.43856 3.9604817,6.18722 1.5029785,0.45256 4.5041882,0.20287 5.9448567,-0.49455 4.028316,-1.95008 4.416724,-8.80077 0.6407878,-11.29957 -0.8500291,-0.56252 -1.4582764,-0.7231 -3.0943848,-0.817 -0.3237721,-0.0186 -0.6292556,-0.0284 -0.9193237,-0.0295 z m 14.1495239,0.22738 c -1.941958,-0.0237 -3.7568766,0.0585 -3.7568766,0.26768 0,0.14275 0.2976587,0.33452 0.6614583,0.42582 l 0.6614584,0.16588 v 5.26944 5.26945 l -0.6614584,0.25166 c -0.3637996,0.13832 -0.6614583,0.37333 -0.6614583,0.52245 0,0.16705 1.015725,0.2713 2.6458333,0.2713 2.6728967,0 3.1923937,-0.19527 1.9843747,-0.74569 -0.6349588,-0.28931 -0.661458,-0.39785 -0.661458,-2.70784 0,-2.13684 0.05117,-2.39631 0.45682,-2.31821 0.251239,0.0484 1.059466,1.1208 1.795756,2.38332 1.959298,3.35959 1.993801,3.38842 4.138248,3.38842 1.929588,0 2.288907,-0.26695 1.049549,-0.78031 -0.52191,-0.21618 -1.22991,-1.06605 -2.248959,-2.69958 -0.817989,-1.31122 -1.486487,-2.46388 -1.485697,-2.56108 9.2e-4,-0.0972 0.347863,-0.3737 0.771012,-0.61443 1.077539,-0.613 1.681035,-1.64774 1.681035,-2.88355 0,-1.21162 -0.571748,-1.99524 -1.850017,-2.53628 -0.508889,-0.21538 -2.577662,-0.3448 -4.5196204,-0.36845 z m -68.9766686,0.008 c -1.527968,0 -2.778125,0.0931 -2.778125,0.2067 0,0.11362 0.357181,0.34113 0.79375,0.50592 l 0.79375,0.29972 v 3.95221 c 0,5.23063 0.352404,6.24541 2.513542,7.2378 1.791448,0.82264 4.771389,0.56064 6.056478,-0.53226 1.181179,-1.00453 1.471946,-2.30264 1.477946,-6.5996 l 0.0062,-4.05815 0.79375,-0.29972 c 1.312819,-0.49554 0.909631,-0.71262 -1.322917,-0.71262 -2.071138,0 -2.772197,0.30715 -1.455208,0.63769 l 0.661458,0.16588 v 4.2416 c 0,4.69983 -0.199236,5.48156 -1.578715,6.19497 -1.594128,0.82436 -3.282084,0.32788 -4.043164,-1.18959 -0.381619,-0.76097 -0.462761,-1.65057 -0.463021,-5.08445 l -5.16e-4,-4.16253 0.661458,-0.16588 c 1.440529,-0.36155 0.523701,-0.63769 -2.116666,-0.63769 z m 33.336984,0 c -2.617948,0 -3.558718,0.27591 -2.14819,0.62993 0.35093,0.0881 0.700833,0.42272 0.790133,0.75603 0.20523,0.76444 0.211034,8.87844 0.0072,9.63817 -0.08452,0.3151 -0.440083,0.64436 -0.790133,0.73226 -0.35006,0.0879 -0.636654,0.27686 -0.636654,0.41961 h -5.16e-4 c 0,0.15319 1.138396,0.25941 2.778125,0.25941 2.660367,0 3.615105,-0.30913 2.116666,-0.68522 -0.649759,-0.16308 -0.661458,-0.21234 -0.661458,-2.7833 v -2.61689 h 2.513542 2.513541 v 2.61483 c 0,2.39245 -0.04503,2.62671 -0.529166,2.75332 -0.29104,0.0761 -0.529167,0.26874 -0.529167,0.42788 0,0.19025 0.913596,0.28938 2.668054,0.28938 2.015998,0 2.641317,-0.0808 2.559017,-0.33072 -0.05991,-0.1819 -0.367649,-0.36898 -0.683679,-0.41548 -0.56859,-0.0836 -0.574642,-0.14496 -0.574642,-5.46117 v -5.37693 l 0.661458,-0.16588 c 1.471959,-0.36944 0.557653,-0.68523 -1.984375,-0.68523 -2.474397,0 -3.344265,0.27183 -2.116666,0.66146 0.474069,0.15045 0.529166,0.40006 0.529166,2.39882 v 2.23138 h -2.513541 -2.513542 v -2.24379 c 0,-2.17284 0.02095,-2.24942 0.661458,-2.41018 1.440529,-0.36155 0.523701,-0.63769 -2.116666,-0.63769 z m 51.594266,0 c -1.527968,0 -2.778125,0.0931 -2.778125,0.2067 0,0.11362 0.357181,0.34113 0.79375,0.50592 l 0.79375,0.29972 v 5.19606 5.19607 l -0.79375,0.27699 c -0.436569,0.15219 -0.79375,0.38393 -0.79375,0.51521 0,0.13129 1.260248,0.23874 2.800346,0.23874 2.121838,0 2.773809,-0.0801 2.691309,-0.33072 -0.05991,-0.1819 -0.36766,-0.36898 -0.683679,-0.41548 -0.56859,-0.0836 -0.574642,-0.14446 -0.574642,-5.48494 v -5.4007 l 0.661458,-0.16588 c 1.440529,-0.36155 0.523701,-0.63769 -2.116667,-0.63769 z m 8.333859,0 0.0041,1.12448 c 0.004,1.26244 0.232238,2.3151 0.501778,2.3151 0.09848,0 0.362831,-0.50601 0.587561,-1.12448 0.393259,-1.08226 0.455008,-1.12749 1.642277,-1.20509 l 1.233516,-0.0806 v 5.1878 5.18728 l -0.79375,0.27699 c -0.436569,0.15219 -0.79375,0.38393 -0.79375,0.51521 0.0018,0.13117 1.369793,0.23874 3.042192,0.23874 1.901548,0 3.042708,-0.10182 3.042708,-0.2713 0,-0.14916 -0.344445,-0.33996 -0.765844,-0.42426 -1.006599,-0.20131 -1.086239,-0.65548 -1.086239,-6.21667 v -4.46485 h 1.319299 1.318783 l 0.30024,1.19063 c 0.467969,1.85846 0.816826,1.5644 1.177706,-0.99219 l 0.177767,-1.25677 h -5.454448 z m 17.7276,0 c -2.938777,0 -3.513472,0.18224 -2.182813,0.69195 0.54297,0.20799 1.147221,1.02741 2.38125,3.22874 l 1.653646,2.94969 v 2.25878 c 0,2.15287 -0.03108,2.27334 -0.661458,2.56056 -0.3638,0.16576 -0.661459,0.40133 -0.661459,0.52349 0,0.12211 1.190625,0.2222 2.645834,0.2222 2.649067,0 3.342533,-0.27738 1.984375,-0.79375 -0.63365,-0.24092 -0.661459,-0.34553 -0.661459,-2.49235 0,-2.21423 0.01791,-2.27432 1.497583,-5.06997 1.016369,-1.92033 1.738489,-2.96669 2.247408,-3.25614 0.412401,-0.23455 0.750582,-0.51562 0.751376,-0.62476 9.18e-4,-0.10914 -0.891426,-0.19844 -1.982825,-0.19844 -1.146529,0 -1.984375,0.11171 -1.984375,0.26458 0,0.14552 0.148829,0.26672 0.330729,0.26872 1.060309,0.013 1.037969,0.44519 -0.14366,2.79673 l -1.17874,2.34559 -1.021126,-1.97766 c -1.520519,-2.94472 -1.503515,-2.87474 -0.756026,-3.06234 1.452468,-0.36455 0.489907,-0.63562 -2.25826,-0.63562 z m -56.1867516,0.54105 c 0.7255061,0.032 1.478648,0.33772 2.1864298,0.93328 1.025379,0.86281 1.3852931,2.18821 1.3745931,5.06429 -0.00988,2.66252 -0.6493589,4.3437 -1.8226278,4.79299 -2.6755973,1.02459 -4.4718703,-0.0545 -5.0963297,-3.0608 -0.3512997,-1.6913 -0.1935239,-4.73191 0.2945557,-5.67769 0.7212867,-1.39769 1.8542019,-2.10539 3.0633789,-2.05207 z m 15.4781246,0.28164 c 0.826856,0.0344 1.791698,0.53998 1.964738,1.0852 0.21402,0.67339 0.215557,2.11967 0.0036,2.78743 -0.09011,0.28391 -0.464658,0.65302 -0.832508,0.82062 h -5.16e-4 c -0.36785,0.16761 -1.02468,0.30489 -1.45986,0.30489 H 9.7153612 l 0.075964,-2.44739 c 0.07275,-2.34036 0.1032991,-2.45125 0.6965988,-2.53525 0.109795,-0.0155 0.225009,-0.0204 0.343131,-0.0155 z m -83.928727,3.0763 c 0.135216,-0.0696 0.312961,0.28092 0.695048,1.26038 0.34061,0.87313 0.626036,1.73633 0.633036,1.91823 0.0092,0.22231 -0.420261,0.33073 -1.30948,0.33073 -0.7276,0 -1.322917,-0.0551 -1.322917,-0.12247 0,-0.0674 0.219279,-0.69245 0.487309,-1.38906 0.268019,-0.69661 0.57841,-1.50472 0.68988,-1.79576 0.04168,-0.10883 0.08205,-0.17884 0.127124,-0.20205 z m -14.798063,20.17809 v 4.10104 4.10104 h 79.375 79.375 v -4.10104 -4.10104 h -79.375 z" /></g></svg>
