<?xml version="1.0" encoding="UTF-8" standalone="no"?>
<!-- Created with Inkscape (http://www.inkscape.org/) -->

<svg
   width="233.48325mm"
   height="94.949455mm"
   viewBox="0 0 233.48326 94.949458"
   version="1.1"
   id="svg5"
   xml:space="preserve"
   xmlns="http://www.w3.org/2000/svg"
   xmlns:svg="http://www.w3.org/2000/svg"><defs
     id="defs2" /><g
     id="layer1"
     transform="translate(80.954936,-541.81741)"><path
       id="path52537"
       style="fill:#000000;stroke-width:0.264583"
       d="m 39.059961,541.82644 c -1.983053,-0.0313 -3.886423,0.0183 -5.624463,0.15658 -3.682655,0.293 -8.896879,1.13515 -11.086145,1.79058 -8.204592,2.45632 -13.7296311,5.54905 -18.9585329,10.61279 -3.17325677,3.07303 -5.445811,6.20927 -7.2352172,9.98389 -2.5438975,5.36615 -3.5136494,9.66911 -3.7558431,16.66875 -0.3137377,9.06727 1.833039,17.04809 6.3686035,23.67762 1.8870231,2.75823 6.7211781,7.5701 9.2934896,9.2506 5.8584691,3.82736 12.6122231,6.09915 21.5635421,7.25331 0.509322,0.0657 3.54542,0.0765 6.746875,0.0238 8.086727,-0.13305 14.631206,-1.13155 22.489583,-3.43028 3.315983,-0.96999 6.185987,-2.04505 6.294189,-2.358 0.05434,-0.15718 -0.0093,-1.59547 -0.141593,-3.19619 -0.13232,-1.60073 -0.189187,-6.03014 -0.126607,-9.84281 0.131042,-7.98415 0.06113,-7.7379 2.575036,-9.1183 1.628772,-0.89439 1.980137,-1.40847 1.805575,-2.6417 l -0.08785,-0.62219 -8.069792,0.0687 c -4.43838,0.0378 -10.272451,-0.0273 -12.964583,-0.14417 -2.692133,-0.117 -5.032137,-0.16876 -5.2002,-0.11576 -0.383812,0.12098 -0.582662,2.3722 -0.239778,2.71508 0.139753,0.13976 1.187745,0.25425 2.32854,0.25425 2.657147,0 6.805004,0.46137 8.06359,0.8971 0.537676,0.18615 1.220778,0.66446 1.518254,1.06298 0.519226,0.69558 0.541052,1.07448 0.541052,9.45989 v 8.73539 l -0.60048,0.48576 c -0.898276,0.72725 -5.069627,1.98609 -8.797396,2.65461 -6.743775,1.20939 -14.057476,0.72812 -19.945552,-1.31206 -11.259944,-3.90151 -19.3313815,-14.27945 -21.6245202,-27.80451 -0.4429096,-2.61221 -0.4391114,-11.17528 0.0062,-13.87873 0.5566634,-3.37948 1.8012484,-7.18569 3.4649047,-10.59522 4.6393215,-9.50794 13.2911685,-14.89593 25.7503665,-16.03572 5.412103,-0.49512 12.558056,0.42475 17.700212,2.27842 2.919605,1.05248 7.141571,3.16727 7.858951,3.93671 0.667107,0.71552 0.635942,0.52669 1.280542,7.83621 l 0.198438,2.24896 0.980819,0.0811 c 1.793632,0.14892 1.914395,-0.0522 2.29805,-3.83181 0.189431,-1.86616 0.667872,-5.28017 1.062985,-7.58661 l 0.718302,-4.19355 -0.545703,-0.35605 c -0.82038,-0.53502 -4.937276,-1.94383 -8.21862,-2.81223 -5.069836,-1.34172 -11.736066,-2.16343 -17.685225,-2.25722 z m -68.636638,0.0129 c -7.154935,0.0352 -13.983914,1.30284 -20.16311,3.78891 -2.64083,1.06249 -6.151468,2.93827 -7.741646,4.13618 -0.62253,0.46897 -1.429363,1.04709 -1.793172,1.28468 -1.036899,0.67716 -4.871683,4.56008 -6.164482,6.242 -3.254907,4.23458 -5.323921,8.34421 -6.628019,13.16457 -0.828219,3.06136 -0.908218,3.55446 -1.239718,7.65018 -0.945979,11.68771 2.468474,22.35111 9.578227,29.91341 7.232433,7.6928 16.501468,11.96283 28.663367,13.20437 0.582083,0.0594 3.320523,0.0724 6.085416,0.0289 5.626185,-0.0884 9.686036,-0.65026 14.494206,-2.00608 3.367624,-0.9496 9.1136711,-3.25009 9.8025024,-3.92431 0.2662637,-0.26062 0.887388,-1.47262 1.3802775,-2.69389 0.8491341,-2.104 0.8722612,-2.24505 0.4392496,-2.67943 -0.4333925,-0.43476 -0.5183429,-0.41645 -1.6448608,0.34572 -8.8974757,6.01975 -24.4009077,7.32236 -35.8505247,3.01273 -9.020306,-3.39522 -16.369392,-11.0268 -19.553329,-20.30573 -1.578218,-4.59939 -1.863251,-6.65436 -1.857251,-13.41779 0.0048,-5.83061 0.05025,-6.40714 0.723987,-9.26042 2.035608,-8.62083 5.926885,-14.47206 12.618868,-18.973 2.89012,-1.94385 6.547001,-3.36998 11.1125,-4.3341 4.180392,-0.88279 10.326138,-0.82951 14.7283,0.12764 5.034399,1.09462 9.243892,2.8331 12.391492,5.11803 l 1.0583332,0.76843 0.396875,4.7439 0.396875,4.7439 1.2138794,0.0785 c 0.7648542,0.0497 1.3127295,-0.0481 1.4815633,-0.26458 0.1473649,-0.18891 0.4694368,-2.30767 0.7157186,-4.70876 0.2462847,-2.40109 0.7397332,-5.73484 1.0965739,-7.40833 0.3568376,-1.67349 0.6492955,-3.07135 0.6500895,-3.10575 0.00731,-0.33473 -5.1724336,-2.07396 -9.2588659,-3.10886 -5.80625,-1.47044 -11.568372,-2.18851 -17.133322,-2.1611 z m 133.732927,0.83509 -1.11725,2.64583 c -4.247064,10.05997 -5.564801,13.18586 -6.246129,14.81667 -0.425577,1.01864 -0.943855,2.20927 -1.151868,2.64583 -0.20801,0.43656 -1.107184,2.46062 -1.998327,4.49792 -0.891142,2.03728 -1.781632,4.06135 -1.978691,4.49791 -0.197059,0.43656 -1.030588,2.34156 -1.8526,4.23334 -4.474761,10.29814 -13.266432,29.79943 -15.32723,33.99844 -2.743872,5.59081 -2.907659,5.736 -6.967016,6.18412 l -2.834453,0.31316 -0.08217,1.28209 c -0.04508,0.70516 -0.01311,1.46081 0.0708,1.67948 0.120525,0.31408 0.44354,0.36307 1.537374,0.23461 3.262584,-0.38317 13.989422,-0.49373 18.279505,-0.18862 2.452891,0.17472 4.520601,0.25642 4.594551,0.18242 0.174052,-0.17406 0.278482,-2.57448 0.130742,-3.00602 -0.07317,-0.21373 -0.658385,-0.33073 -1.653646,-0.33073 -2.235941,0 -5.585805,-0.50687 -6.270935,-0.94877 -0.325395,-0.20987 -0.784854,-0.67656 -1.021127,-1.03715 -0.396955,-0.60583 -0.395811,-0.79152 0.01499,-2.44378 0.244508,-0.98345 1.960333,-5.35989 3.813204,-9.7255 l 3.368786,-7.9375 15.65227,-0.0682 c 15.40469,-0.0672 15.65635,-0.0602 15.93443,0.45941 0.53994,1.00888 6.84107,16.86138 7.1329,17.94515 0.16148,0.59969 0.21624,1.39955 0.12144,1.77716 -0.30073,1.19819 -1.11034,1.4724 -5.32164,1.8035 l -3.91397,0.308 v 1.5875 1.5875 l 2.77812,-0.005 c 1.52797,-0.003 6.40954,-0.10818 10.84792,-0.2341 5.86707,-0.16649 8.96512,-0.14176 11.34969,0.0904 2.69604,0.26255 3.31924,0.25713 3.5016,-0.0305 0.27352,-0.43134 0.29263,-2.36058 0.0274,-2.75694 -0.10691,-0.15977 -1.11728,-0.36682 -2.24534,-0.45992 -2.5283,-0.20858 -3.63172,-0.65066 -4.51497,-1.80867 -0.99434,-1.30364 -4.17697,-8.06525 -7.57474,-16.09411 -1.63196,-3.8563 -3.12575,-7.36865 -3.31969,-7.80521 -0.19394,-0.43656 -1.03209,-2.40109 -1.86294,-4.36563 -0.83083,-1.96452 -2.37562,-5.59593 -3.43234,-8.06979 -1.05673,-2.47384 -2.54501,-5.9862 -3.30781,-7.80521 -0.7628,-1.819 -1.95484,-4.61699 -2.64894,-6.2177 -0.69411,-1.60073 -1.88404,-4.3987 -2.64428,-6.21771 -0.76024,-1.81901 -1.89703,-4.49792 -2.52594,-5.95313 -0.6289,-1.45521 -1.77865,-4.13411 -2.55489,-5.95312 l -1.41128,-3.30729 H 105.844 Z m -0.94568,14.81666 c 0.17509,0 0.77999,1.1311 1.34462,2.51354 0.56464,1.38244 1.30521,3.16839 1.64538,3.96875 0.34016,0.80036 2.85631,6.84603 5.59139,13.43484 2.80451,6.7561 4.86604,12.06304 4.72839,12.17084 -0.22608,0.17705 -27.099122,0.15144 -27.099122,-0.0258 0,-0.11704 1.103658,-2.84532 2.374015,-5.86838 1.39045,-3.30885 6.81252,-16.1282 7.273975,-17.19791 0.980082,-2.27197 1.808902,-4.21616 2.763652,-6.4823 0.58244,-1.38244 1.20261,-2.51354 1.3777,-2.51354 z m -179.61953,70.66494 c -0.712235,-0.0854 -0.953255,0.41256 -1.688269,2.22777 -0.32408,0.80037 -1.09953,2.56393 -1.723409,3.91914 l -1.134298,2.46393 2.439644,-0.15244 c 6.392324,-0.39926 62.308952,-0.66269 141.821835,-0.66869 l 87.523857,-0.006 0.95033,-2.00039 c 0.55189,-1.16212 0.85144,-2.09743 0.71468,-2.23191 -0.13239,-0.13019 -25.99557,-0.27925 -59.105432,-0.34055 -45.009308,-0.0833 -62.514008,-0.20876 -74.347917,-0.53226 -8.51296,-0.23271 -22.7409461,-0.55121 -31.617708,-0.70797 -14.364578,-0.25367 -44.368431,-0.86718 -57.017708,-1.16582 -3.413317,-0.0806 -4.966455,-0.22569 -5.910234,-0.55242 -0.377802,-0.1308 -0.66796,-0.22424 -0.905371,-0.2527 z" /></g></svg>
