<?xml version="1.0" encoding="UTF-8" standalone="no"?>
<!-- Created with Inkscape (http://www.inkscape.org/) -->

<svg
   width="396.46466mm"
   height="158.41449mm"
   viewBox="0 0 396.46468 158.4145"
   version="1.1"
   id="svg5"
   xml:space="preserve"
   xmlns="http://www.w3.org/2000/svg"
   xmlns:svg="http://www.w3.org/2000/svg"><defs
     id="defs2" /><g
     id="layer1"
     transform="translate(111.21302,-476.12185)"><path
       id="path52438"
       style="fill:#000000;stroke-width:0.264583"
       d="m -36.110645,476.12605 c -4.839399,-0.0442 -9.802564,0.26045 -14.393954,0.91829 -21.525327,3.08408 -37.352378,12.41392 -47.757808,28.1528 -2.097973,3.17332 -4.854773,8.32768 -5.976893,11.17451 -0.29283,0.74291 -0.75241,1.83654 -1.02165,2.43035 -1.22313,2.69756 -4.42725,14.66047 -4.18992,15.64349 0.0423,0.1751 1.62429,-0.92689 3.51606,-2.44843 15.306308,-12.31075 28.051786,-19.95543 40.613545,-24.36079 4.761445,-1.66982 6.746753,-2.21119 11.773958,-3.21014 5.638778,-1.12047 9.673816,-1.4451 15.610417,-1.25625 6.004237,0.191 9.298819,0.67036 15.853296,2.30838 8.978581,2.24381 23.4283798,8.61306 35.872745,15.81196 1.382446,0.79973 3.168386,1.82987 3.96875,2.28875 1.773405,1.01675 5.956438,3.5423 8.995834,5.43171 1.236926,0.76893 3.380053,2.09764 4.7625,2.95279 1.382446,0.85515 4.418544,2.75725 6.746875,4.22661 10.994614,6.93848 18.997982,11.72777 25.664583,15.35824 5.694367,3.10102 7.587108,4.088 13.758333,7.17424 5.690359,2.84575 7.329702,3.63792 12.67778,6.12572 17.895164,8.32436 42.371154,17.29698 56.246174,20.6189 6.64226,1.59028 12.34653,2.5001 19.1823,3.06028 3.03503,0.24875 13.32294,0.27478 15.45693,0.0393 l 1.43351,-0.15813 1.89291,-5.55625 c 1.04105,-3.05594 3.0463,-8.94953 4.45605,-13.09687 1.40972,-4.14734 3.3409,-9.80282 4.29173,-12.56771 5.32599,-15.48715 8.69349,-26.57839 11.74502,-38.68498 0.87255,-3.46171 1.66492,-6.80021 1.76062,-7.41867 0.14708,-0.95092 0.26848,-1.12448 0.7891,-1.12448 0.50445,0 0.64714,0.17919 0.78806,0.99219 1.88042,10.85034 7.91393,32.1963 13.03177,46.10365 0.72291,1.96452 1.87118,5.11969 2.55126,7.01145 0.68009,1.89177 1.45203,3.97536 1.71566,4.63021 0.26363,0.65484 0.7445,2.00211 1.06867,2.99413 0.45699,1.39865 0.68176,1.76859 1.00149,1.6459 0.99002,-0.3799 7.50411,-4.47489 10.76058,-6.76445 7.36964,-5.18147 17.87643,-13.6461 17.87643,-14.4017 0,-0.17187 -0.46078,-1.554 -1.02423,-3.07165 -2.61872,-7.0535 -5.92774,-16.10961 -9.17722,-25.11681 -0.76124,-2.11005 -1.99894,-5.50334 -2.75073,-7.54063 -0.75179,-2.03728 -1.88573,-5.13291 -2.51975,-6.87916 -0.63402,-1.74625 -1.82771,-5.02048 -2.65255,-7.27604 -0.82486,-2.25557 -1.95575,-5.3512 -2.51302,-6.87917 -1.01663,-2.78746 -3.05262,-8.3633 -4.9041,-13.42916 l -0.99218,-2.71352 -21.68447,0.0677 -21.68498,0.0677 -0.52245,1.32291 c -0.28752,0.7276 -0.9792,2.63261 -1.53685,4.23334 -0.98917,2.83936 -7.5796,21.04856 -8.85786,24.47396 -0.35298,0.94588 -1.66644,4.57729 -2.91869,8.06979 -1.25225,3.49249 -2.5653,7.12391 -2.91816,8.06979 -1.03021,2.76146 -5.65497,15.51262 -6.62131,18.25625 -1.43853,4.08435 -3.14481,8.81355 -5.01209,13.89062 -0.9634,2.61938 -2.15092,5.8936 -2.6386,7.27605 -0.48767,1.38244 -1.62138,4.53761 -2.51974,7.01145 -0.89837,2.47385 -2.00007,5.5351 -2.44792,6.80269 -0.44784,1.26759 -0.91426,2.24291 -1.03663,2.16731 -0.12238,-0.0756 -0.22272,-22.99058 -0.22272,-50.92196 v -50.78449 h -17.4625 -17.4625 v 29.89791 29.89792 H 85.09436 55.857901 V 509.16589 479.26798 H 38.265694 20.673486 l -0.06873,13.29531 -0.06873,13.29531 -1.21853,-1.85208 c -3.326177,-5.05454 -8.487652,-10.76409 -12.9366779,-14.31076 -8.1960188,-6.5337 -16.7885231,-10.22657 -28.8395831,-12.39511 -4.096822,-0.73721 -8.812482,-1.13039 -13.65188,-1.1746 z m -34.307984,52.24694 c -0.400243,0.028 -1.212236,0.233 -2.597257,0.6258 -8.746847,2.48065 -18.351326,6.66782 -28.518154,12.43283 -3.45833,1.96102 -8.82,5.26616 -9.29556,5.7304 -0.33585,0.32786 -0.39439,1.59632 -0.38189,8.24963 0.0147,7.8584 0.19913,10.53922 1.18856,17.25424 2.26777,15.3908 7.54957,28.3192 15.718421,38.47414 3.832526,4.76432 9.711559,9.99078 15.155664,13.47411 4.40794,2.82036 11.868068,6.00967 17.399455,7.43831 3.003708,0.7758 9.360572,1.92605 12.303125,2.22622 3.203995,0.3268 13.335165,0.34747 17.358113,0.0351 5.222775,-0.40549 11.988267,-1.49135 16.552478,-2.65669 5.38234,-1.37424 12.4349542,-4.40695 16.8894088,-7.2626 6.5477404,-4.19764 12.8214922,-10.32514 17.8748782,-17.45888 l 1.307413,-1.8464 0.06873,13.15733 0.06873,13.15682 H 38.265694 55.857901 V 605.0954 578.78693 l -3.108854,-1.6459 c -1.709867,-0.90522 -3.882762,-2.08949 -4.828646,-2.63188 -0.945885,-0.54239 -4.279638,-2.44361 -7.408333,-4.22506 -7.185052,-4.09113 -13.662856,-7.9462 -17.065625,-10.15597 l -2.645833,-1.71825 -0.0677,19.56315 c -0.04432,12.78024 -0.159453,19.56367 -0.331763,19.56367 -0.145071,0 -4.043239,-2.2775 -8.663037,-5.06119 -4.6197996,-2.78369 -10.4483737,-6.28607 -12.9521812,-7.78299 l -4.5526936,-2.7218 -1.361674,2.55747 c -5.4925432,10.31473 -12.7227952,16.09007 -23.0032472,18.37459 -3.710637,0.82459 -11.87168,0.81792 -16.021244,-0.0134 -7.003009,-1.40304 -12.405129,-4.17333 -16.874939,-8.65322 -4.074897,-4.08407 -6.795018,-8.73622 -8.934339,-15.27969 -1.661668,-5.08249 -2.258728,-8.30729 -3.049943,-16.47703 -0.573658,-5.92334 0.04406,-16.12348 1.384412,-22.8601 0.638325,-3.20824 2.776843,-10.13647 3.337264,-10.81174 0.260684,-0.31411 0.272086,-0.46262 -0.128158,-0.4346 z m 330.727619,34.925 c -0.52515,0.18314 -1.97688,1.60917 -6.60838,6.27352 -3.67453,3.7006 -7.82283,7.75469 -9.21856,9.00875 -2.44422,2.19615 -9.57077,8.08634 -11.10785,9.18083 l -0.74569,0.53072 0.40979,1.11673 c 0.60399,1.64582 3.00015,8.44872 5.51853,15.66881 1.21817,3.4925 3.5963,10.27907 5.28495,15.08125 1.68867,4.80219 3.24783,9.29679 3.4649,9.98802 l 0.39481,1.25677 h 18.77508 c 10.32633,0 18.77508,-0.0965 18.77508,-0.21445 0,-0.11799 -0.77929,-2.35043 -1.73168,-4.96094 -0.95236,-2.61051 -2.74611,-7.54445 -3.98632,-10.96419 -3.85264,-10.62335 -5.13561,-14.12187 -5.52989,-15.08125 -0.20931,-0.50933 -1.41065,-3.78355 -2.67012,-7.27604 -2.73579,-7.58617 -4.94402,-13.66909 -6.53139,-17.99167 -0.64127,-1.74625 -1.79623,-4.90141 -2.56625,-7.01146 -0.77002,-2.11005 -1.50227,-4.1118 -1.62729,-4.44831 -0.0525,-0.14138 -0.12467,-0.21814 -0.29972,-0.15709 z m -145.97817,40.52724 v 13.79037 13.79038 l 26.90482,-0.0672 26.90481,-0.0677 0.72709,-2.11667 c 3.84498,-11.18841 5.76506,-16.91272 5.69526,-16.98242 -0.0459,-0.0459 -1.97872,0.0506 -4.29483,0.21446 -8.93876,0.63248 -21.41382,-0.30422 -32.38924,-2.4319 -4.2836,-0.83042 -12.87767,-2.98945 -17.85937,-4.48706 -2.47386,-0.7437 -4.76581,-1.41789 -5.09323,-1.49759 z" /></g></svg>
