<?xml version="1.0" encoding="UTF-8" standalone="no"?>
<!-- Created with Inkscape (http://www.inkscape.org/) -->

<svg
   width="149.75417mm"
   height="28.90728mm"
   viewBox="0 0 149.75417 28.90728"
   version="1.1"
   id="svg5"
   xml:space="preserve"
   xmlns="http://www.w3.org/2000/svg"
   xmlns:svg="http://www.w3.org/2000/svg"><defs
     id="defs2" /><g
     id="layer1"
     transform="translate(-80.337218,-208.48587)"><path
       id="path1164"
       style="fill:#000000;stroke-width:0.264583"
       d="m 112.74868,208.48587 v 14.44718 14.44718 h 6.10092 c 7.41498,0 9.21085,-0.23809 12.05404,-1.59887 4.65183,-2.22641 7.24504,-6.86111 7.24504,-12.94804 0,-6.93458 -3.43539,-11.9467 -9.39271,-13.70408 -0.96972,-0.28606 -3.28312,-0.42406 -8.66511,-0.51676 z m 29.10416,0.007 v 14.44408 14.44356 h 4.36563 4.36562 v -5.42396 -5.42395 h 1.54513 1.54461 l 2.09238,5.42395 2.09186,5.42396 h 4.72581 c 3.67417,0 4.69615,-0.0736 4.59403,-0.33073 -0.0722,-0.1819 -1.14124,-2.77152 -2.37608,-5.75468 -1.23484,-2.98318 -2.31594,-5.66209 -2.40244,-5.95313 -0.12618,-0.42467 0.10591,-0.68551 1.17616,-1.3224 1.46263,-0.8704 2.71086,-2.51681 3.19774,-4.21783 0.16908,-0.5907 0.30103,-2.00521 0.29403,-3.14296 -0.0185,-2.81824 -0.92373,-4.64843 -2.99723,-6.06061 -2.51862,-1.71532 -3.50844,-1.86224 -13.41985,-1.99109 z m 48.43167,0.0382 -0.14004,0.60048 c -0.077,0.33019 -0.78115,3.21934 -1.56425,6.4208 -0.7831,3.20146 -1.56979,6.45252 -1.74821,7.22436 -0.17842,0.77183 -0.37422,1.35333 -0.43512,1.29243 -0.0609,-0.0609 -1.00373,-3.371 -2.09548,-7.35614 -1.09173,-3.98514 -2.04878,-7.45443 -2.12648,-7.70909 -0.12876,-0.42222 -0.64105,-0.46302 -5.81153,-0.46302 h -5.67097 v 14.24357 c 0,7.83388 0.0792,14.3228 0.17621,14.4198 0.097,0.097 1.61506,0.17665 3.37344,0.17673 h 3.19722 l -0.0656,-5.22552 c -0.036,-2.87412 -0.0955,-7.5118 -0.13229,-10.30583 -0.0367,-2.79402 0.002,-4.99668 0.0858,-4.89479 0.0837,0.10189 1.24274,4.29266 2.57607,9.31312 1.33333,5.02047 2.55061,9.57461 2.70475,10.12032 l 0.28008,0.99218 h 2.75539 2.75591 l 0.2899,-1.12448 c 0.15966,-0.61846 0.5739,-2.19605 0.92036,-3.50573 0.34646,-1.30968 1.35881,-5.21772 2.24947,-8.68474 0.89065,-3.467 1.73189,-6.56263 1.86966,-6.87916 0.16171,-0.37062 0.22048,3.12404 0.16588,9.81594 l -0.0848,10.39109 4.11758,-0.0723 4.11809,-0.0729 v -14.2875 -14.2875 l -5.88078,-0.0708 z m -95.569875,0.01 c -2.727157,0 -5.589703,0.13404 -6.360852,0.29766 -3.123697,0.66278 -5.826563,2.77599 -7.240902,5.66115 l -0.775663,1.58181 v 6.87917 6.87917 l 0.720369,1.46503 c 1.386279,2.82006 3.359497,4.54143 6.419763,5.59965 1.092079,0.37765 2.308009,0.45957 6.882784,0.46457 6.019526,0.006 7.434536,-0.20465 9.493476,-1.41128 1.67093,-0.97922 3.73082,-3.35667 4.44107,-5.1263 0.57769,-1.43924 0.60992,-1.8601 0.61392,-7.87084 0.004,-6.03383 -0.0269,-6.42555 -0.6103,-7.87032 -0.71483,-1.7702 -2.72909,-4.09324 -4.39663,-5.07049 -2.05269,-1.20296 -3.76601,-1.47898 -9.187035,-1.47898 z m 121.313525,0.0455 c -1.02933,-0.007 -2.15819,-0.002 -3.39928,0.0124 l -6.61458,0.0744 -0.0682,14.36037 -0.0687,14.35933 4.43435,-0.0724 4.43384,-0.0729 0.0718,-5.22552 0.0718,-5.22552 3.50005,-0.006 c 1.92507,-0.004 4.01087,-0.12467 4.63537,-0.26872 2.82876,-0.6525 5.23523,-2.48554 6.4177,-4.88859 0.55761,-1.13327 0.64905,-1.69089 0.64905,-3.96462 0,-3.15049 -0.5481,-4.56059 -2.51922,-6.48229 -1.99875,-1.94862 -4.33872,-2.55431 -11.544,-2.60035 z m -127.753442,1.93889 h 6.35 6.350002 l 1.4149,0.78394 c 1.84165,1.02009 3.5788,2.9752 4.25969,4.79505 0.48299,1.2909 0.54312,2.05302 0.54312,6.85643 0,6.30988 -0.25584,7.38505 -2.30064,9.65936 -1.49842,1.6666 -3.21823,2.56437 -5.561416,2.90318 -2.072048,0.29932 -8.114124,0.30273 -9.868132,0.005 -2.978137,-0.50522 -5.822288,-2.77066 -6.936527,-5.52524 -0.56045,-1.38545 -0.600997,-1.87163 -0.600997,-7.17476 0,-5.68524 6.53e-4,-5.68926 0.735872,-7.18612 0.917569,-1.86812 2.293203,-3.29582 4.166671,-4.32326 z m 2.57607,2.23656 c -4.26166,-0.16194 -7.825777,4.66348 -5.481319,8.97103 l 0.719853,1.32188 -0.526583,0.74673 c -0.72441,1.02822 -0.916803,1.76038 -0.897103,3.41219 0.02784,2.33105 1.410755,4.4437 3.541902,5.41104 1.571499,0.71333 3.515256,0.67379 5.049305,-0.10283 l 1.235583,-0.62529 1.235584,0.62529 c 2.140568,1.08368 5.1259,0.63366 6.92619,-1.04439 1.86033,-1.734 2.34939,-5.08778 1.07229,-7.35304 l -0.68678,-1.21801 0.68729,-1.16324 c 1.28433,-2.17407 0.78582,-5.56636 -1.0728,-7.29877 -1.80029,-1.67804 -4.785622,-2.12808 -6.92619,-1.04439 l -1.235584,0.62529 -1.235583,-0.62529 c -0.803954,-0.40701 -1.616859,-0.60821 -2.406055,-0.6382 z m -0.24908,1.07074 c 1.009139,0 3.186268,0.73708 3.028239,1.02526 -1.193239,2.17577 -1.528891,3.77414 -1.149801,5.4746 l 0.180867,0.81184 -1.560111,-0.11318 c -1.192829,-0.0863 -1.857171,0.0186 -2.82205,0.44545 -0.694089,0.30703 -1.308375,0.55811 -1.364775,0.55811 -0.0564,0 -0.338475,-0.38695 -0.626835,-0.8599 -0.822029,-1.34821 -0.719977,-3.49318 0.237712,-5.00331 0.874449,-1.37885 2.547705,-2.33887 4.076754,-2.33887 z m 7.785054,0.006 c 3.763228,0.0219 6.160248,4.076 4.410588,7.45949 -0.42945,0.83048 -0.69106,0.86553 -1.82263,0.24546 -0.52591,-0.28818 -1.427442,-0.43511 -2.67219,-0.43511 h -1.878956 l 0.253215,-0.91674 c 0.32592,-1.18021 0.08466,-2.90704 -0.591695,-4.23282 -0.29376,-0.57582 -0.534335,-1.11703 -0.534335,-1.20303 0,-0.31869 1.868154,-0.92325 2.836003,-0.91725 z m 52.197328,0.78755 h 2.52233 c 2.76732,0 4.02324,0.36045 4.71909,1.35392 0.81187,1.15911 0.44404,2.84904 -0.82475,3.78788 -0.55255,0.40886 -1.26487,0.53512 -3.55379,0.62942 l -2.86288,0.11782 v -2.94452 z m -29.10416,0.52916 h 1.59783 c 3.63367,0 5.54439,2.24434 5.75676,6.76238 0.1964,4.17827 -0.79737,6.81161 -3.07113,8.13956 -0.49731,0.29045 -1.59734,0.56538 -2.57556,0.64388 l -1.7079,0.13746 v -7.84189 z m 93.26562,0 h 2.33526 c 2.22846,8e-5 2.37088,0.0356 3.10885,0.7736 1.3478,1.34779 0.95213,3.47247 -0.817,4.38733 -0.97196,0.50259 -4.48977,0.55304 -4.50567,0.0646 -0.006,-0.1819 -0.0356,-1.43201 -0.0661,-2.77812 z M 94.613866,215.7676 c 0.08746,0.0222 0.176854,0.1339 0.310575,0.31678 0.963809,1.31808 1.050077,3.56975 0.199988,5.21363 -0.49789,0.96283 -0.706539,0.92941 -1.244369,-0.19844 -0.631699,-1.32468 -0.578751,-3.4742 0.113689,-4.61005 0.333437,-0.54697 0.474342,-0.75892 0.620117,-0.72192 z m -3.957898,6.2668 c 0.929949,0 2.778125,0.61606 2.778125,0.92604 0,0.0876 -0.412617,0.33174 -0.917257,0.5426 -0.504649,0.21085 -1.36786,0.37911 -1.918229,0.37311 -0.974339,-0.0101 -2.720764,-0.5981 -2.720764,-0.91623 0,-0.30937 1.849256,-0.92552 2.778125,-0.92552 z m 7.672916,0 c 0.92995,0 2.778126,0.61606 2.778126,0.92604 0,0.0876 -0.41261,0.33174 -0.91726,0.5426 -0.504643,0.21085 -1.367847,0.37911 -1.918226,0.37311 -0.974339,-0.0101 -2.720765,-0.5981 -2.720765,-0.91623 0,-0.30937 1.849256,-0.92552 2.778125,-0.92552 z m -11.41429,1.85208 c 0.05641,0 0.670169,0.2516 1.364258,0.55863 0.944939,0.41795 1.635444,0.53111 2.748153,0.45061 l 1.486214,-0.10748 -0.09715,1.92029 c -0.08491,1.68146 -0.01137,2.07348 0.592729,3.15433 0.379419,0.67886 0.68988,1.26572 0.68988,1.30432 0,0.0386 -0.478481,0.26201 -1.063501,0.49609 -3.383356,1.35375 -6.874965,-0.97704 -6.872965,-4.58732 6.7e-4,-0.99792 0.169519,-1.74565 0.525549,-2.32957 0.28836,-0.47294 0.570435,-0.8599 0.626835,-0.8599 z m 15.299326,0.0476 c 0.2254,0.036 0.35936,0.25605 0.58343,0.68936 1.36134,2.63256 0.30918,5.76426 -2.34095,6.96805 -0.588092,0.26714 -1.545436,0.48311 -2.127516,0.48111 -1.012618,-0.004 -2.778125,-0.58096 -2.778125,-0.90744 0,-0.0856 0.240575,-0.62669 0.534335,-1.20251 0.676369,-1.32575 0.917575,-3.05258 0.591695,-4.23282 l -0.253215,-0.91726 h 1.878956 c 1.269718,0 2.1705,-0.15007 2.77916,-0.46302 0.59012,-0.30341 0.90682,-0.45143 1.13223,-0.41547 z m -7.622792,0.0646 c 0.6874,-0.0226 1.38599,2.80245 0.986503,4.28604 -0.15439,0.57337 -0.44817,1.27146 -0.65319,1.55185 -0.35659,0.48767 -0.397193,0.47052 -0.930692,-0.40463 -0.87938,-1.4425 -0.598052,-4.73514 0.460437,-5.38933 0.0454,-0.0281 0.09112,-0.0424 0.136942,-0.0439 z" /></g></svg>
