<?xml version="1.0" encoding="UTF-8" standalone="no"?>
<!-- Created with Inkscape (http://www.inkscape.org/) -->

<svg
   width="595.16864mm"
   height="262.13925mm"
   viewBox="0 0 595.16864 262.13925"
   version="1.1"
   id="svg5"
   xml:space="preserve"
   xmlns="http://www.w3.org/2000/svg"
   xmlns:svg="http://www.w3.org/2000/svg"><defs
     id="defs2" /><g
     id="layer1"
     transform="translate(180.24068,-14.747216)"><path
       id="path247"
       style="fill:#000000;"
       d="m 216.347,14.752071 c -13.01527,0.03703 -27.64761,0.281064 -36.27324,0.636654 l -4.24315,0.174666 0.13694,1.022677 c 0.49815,3.714106 11.83196,20.489401 18.30948,27.100154 l 2.38125,2.430343 5.82083,0.15658 c 13.08208,0.352129 18.76326,0.907789 24.60367,2.405537 5.61712,1.440489 10.00143,3.400517 14.95154,6.684864 3.13288,2.078628 4.80028,3.387001 8.68319,6.813537 4.39706,3.880226 7.34097,5.394103 10.93939,5.624463 1.41837,0.09081 2.37238,0.0096 3.175,-0.269751 0.63105,-0.21962 3.46893,-1.790958 6.30659,-3.491776 5.88736,-3.528737 13.04583,-7.144146 16.53646,-8.351945 1.30968,-0.45316 3.18818,-0.892685 4.17442,-0.976685 2.24523,-0.19121 4.06246,0.464268 8.23671,2.971395 4.78262,2.872507 8.69788,6.002435 13.55162,10.832931 4.9666,4.942775 7.68863,8.22495 11.05411,13.329935 5.73623,8.701082 9.13583,16.793503 9.14983,21.78162 0.009,3.05252 -1.15896,6.86125 -4.32584,14.11231 -0.95335,2.18281 -2.06092,5.04031 -2.46134,6.35 -0.69164,2.26226 -0.72747,2.64569 -0.72347,7.67292 0.004,4.95177 0.0583,5.53425 0.8387,9.06715 0.9576,4.33528 1.9576,7.38859 3.83233,11.70264 4.79151,11.02621 12.599,24.18971 21.12481,35.61592 3.82563,5.12707 6.46772,8.19257 11.34246,13.16147 8.44509,8.60823 17.31015,15.82356 22.71127,18.48517 l 1.66812,0.82217 -1.40353,1.42886 c -1.72516,1.75616 -4.23552,3.69959 -8.60981,6.66626 -1.84012,1.24796 -3.58553,2.59807 -3.87832,2.99981 -0.36319,0.4984 -0.56025,1.25492 -0.62115,2.38125 -0.10991,2.03299 0.59681,3.44513 2.18643,4.36821 0.85997,0.49942 1.35443,0.59505 2.69854,0.52245 1.49254,-0.0806 1.8373,-0.22131 3.70417,-1.51102 6.52406,-4.5071 14.36841,-11.80089 18.38286,-17.09249 7.11624,-9.38027 11.64916,-20.19374 13.42295,-32.01975 2.02964,-13.53182 1.49704,-23.4668 -1.73943,-32.44454 -1.03092,-2.85964 -3.92816,-9.15883 -10.86704,-23.62439 -8.65848,-18.05042 -10.12961,-21.38622 -10.12961,-22.97379 0,-1.01399 0.8959,-1.97152 3.19774,-3.41892 1.75722,-1.10495 2.62309,-2.12618 2.62309,-3.09283 0,-0.38878 -0.47996,-1.93919 -1.06712,-3.445787 -2.12946,-5.464264 -7.7394,-21.115515 -13.04313,-36.38951 -8.9084,-25.655054 -13.5591,-38.53679 -14.35158,-39.751578 -0.80018,-1.226609 -3.82803,-2.292419 -8.57983,-3.020488 -3.12827,-0.479319 -13.86047,-0.479329 -14.99599,0 -0.95909,0.40485 -1.06219,0.598553 -1.56321,2.930571 -0.39693,1.847608 -1.01279,2.702027 -2.4908,3.456636 -2.06682,1.055279 -3.53115,1.143321 -15.875,0.958081 -32.77687,-0.491889 -50.10407,-1.456917 -51.50332,-2.869075 -0.18151,-0.18319 -0.57709,-1.762065 -0.87953,-3.508313 -0.68987,-3.983576 -1.18161,-5.385258 -1.94459,-5.543848 -0.92454,-0.19217 -24.37203,-0.658591 -41.9809,-0.835091 -3.69665,-0.03705 -7.85515,-0.048 -12.19357,-0.03566 z m -15.88895,9.020121 c 7.2404,0.07074 18.30184,0.344578 34.16794,0.830957 6.76671,0.20743 15.87501,0.449219 20.24062,0.536919 4.36563,0.08771 8.20339,0.213369 8.52817,0.279569 1.00842,0.20559 1.44681,1.523215 1.64072,4.929932 0.0977,1.717008 0.29052,3.227908 0.4284,3.357417 0.13787,0.12952 14.47862,1.028492 31.86834,1.997811 46.26591,2.578878 44.61175,2.448795 45.63701,3.581694 0.41661,0.460369 0.45444,0.8274 0.29817,2.897497 -0.17052,2.258888 -0.15143,2.385604 0.40049,2.680974 0.68479,0.366489 3.01362,0.153518 4.32842,-0.395842 0.84957,-0.354959 0.88893,-0.43784 1.05162,-2.178678 0.75239,-8.050432 1.41108,-12.205258 2.03243,-12.826607 0.40518,-0.40512 0.89968,-0.491343 2.80655,-0.488343 2.5379,0.0038 6.90267,0.792656 7.86102,1.420585 0.99675,0.65311 3.22199,7.101664 18.66656,54.095407 l 5.07255,15.435233 -0.6196,0.664563 c -0.34076,0.3655 -1.51257,1.15375 -2.60397,1.75131 -2.3672,1.29611 -3.43958,2.28717 -3.43958,3.17913 0,0.36028 0.83911,2.18546 1.86448,4.05557 5.43644,9.91495 16.60062,33.54877 21.29069,45.07167 3.82283,9.39212 4.45264,12.09755 4.43384,19.05 -0.0135,5.01662 -0.5188,9.23009 -1.79317,14.95257 -1.04169,4.67778 -3.61586,12.22579 -5.40846,15.8595 -1.74228,3.53172 -4.87255,8.44707 -7.37939,11.58741 -0.9003,1.12778 -1.72508,2.04725 -1.83245,2.04225 -0.38817,-0.0172 -7.17555,-6.22408 -11.66182,-10.66447 -14.29847,-14.15222 -26.03143,-29.93527 -34.14985,-45.93724 -5.25251,-10.35304 -7.85579,-17.89042 -8.14421,-23.57893 -0.2273,-4.48267 0.30513,-7.18593 3.09749,-15.72255 3.11255,-9.51547 3.45139,-11.55089 2.7776,-16.66875 -1.86985,-14.202764 -8.28731,-26.198862 -22.31543,-41.713216 -7.86999,-8.703801 -14.04022,-13.776903 -20.69744,-17.017049 -4.64704,-2.261748 -8.69287,-2.550934 -13.43949,-0.960665 -2.94782,0.987609 -5.07804,2.043326 -10.31617,5.113383 -7.38391,4.327705 -11.10763,5.699598 -14.72003,5.422408 -3.48337,-0.26728 -5.9328,-1.595556 -10.19783,-5.528862 -5.77847,-5.329034 -12.63359,-9.130108 -19.94555,-11.060306 -6.45667,-1.704409 -11.93873,-2.18531 -22.10563,-1.9389 -4.98651,0.12086 -7.02576,0.07917 -7.7432,-0.157613 -1.35955,-0.4487 -4.57206,-3.918468 -8.43979,-9.115723 -2.4253,-3.259007 -3.07037,-4.290912 -2.78174,-4.452441 0.58197,-0.325685 4.00129,-0.45831 11.24169,-0.387574 z m -380.69873,54.412183 v 57.149995 57.15 h 13.35991 13.35991 l 0.0677,-21.89427 0.0677,-21.89427 29.56719,-0.0672 29.567185,-0.0672 v -13.2271 -13.22658 l -29.567185,-0.0677 -29.56719,-0.0672 v -8.46667 -8.46667 l 38.69531,-0.0667 38.695315,-0.0672 V 91.545317 78.184375 h -52.122915 z m 116.152085,0 v 57.157235 57.15672 l 38.166146,-0.0765 38.166146,-0.076 3.307292,-0.61805 c 8.917748,-1.66625 16.568482,-4.89617 23.295219,-9.83454 2.995532,-2.19914 8.172938,-7.48209 10.366292,-10.57765 3.423875,-4.83223 6.553821,-11.69488 8.140072,-17.84697 1.628643,-6.31652 1.963776,-9.63588 1.976106,-19.58899 0.01174,-9.46814 -0.160888,-11.51348 -1.473295,-17.4625 C 53.340337,95.950906 38.120439,82.43496 15.847095,79.112484 10.558979,78.323665 4.0430438,78.192509 -29.891199,78.188509 Z m 368.816245,5.17e-4 -55.62192,10e-4 -55.62245,0.001 1.69344,1.510502 c 6.46607,5.767934 11.45941,14.08265 13.62966,22.696286 l 0.59996,2.38125 18.82779,0.0682 18.82728,0.0677 v 43.78699 h 5.1e-4 v 43.78699 h 13.22814 13.22865 l 0.0667,-43.72239 0.0667,-43.7224 23.34948,-0.0677 c 16.76694,-0.0485 23.34948,-0.14959 23.34948,-0.35863 0,-0.1601 -0.18407,-1.02255 -0.40928,-1.91668 -2.14154,-8.502636 -6.18141,-15.561202 -12.47727,-21.800216 z m -184.86055,0.06511 c -5.68515,0.02667 -9.95915,0.08455 -11.31507,0.180351 -10.191286,0.720089 -17.941225,4.212968 -24.784533,11.169861 -4.645048,4.722125 -7.678629,10.343464 -9.117273,16.894576 -0.464001,2.11294 -0.494027,3.86567 -0.494027,28.97239 0,29.24944 -0.05342,28.12884 1.571997,32.88637 4.137048,12.10908 15.083719,21.33779 28.007596,23.61251 2.48673,0.43768 5.07506,0.47723 32.77009,0.49713 28.71578,0.0207 30.20532,-0.002 33.07292,-0.49661 7.45725,-1.28707 14.02529,-4.7119 19.60914,-10.22418 1.27555,-1.25922 2.90988,-3.07836 3.63182,-4.04214 1.78955,-2.38905 4.01658,-6.78302 4.98729,-9.84126 1.63849,-5.16204 1.66004,-5.63379 1.56114,-33.71473 -0.0869,-24.67831 -0.10507,-25.46767 -0.64337,-27.78125 -1.58755,-6.823056 -4.64742,-12.355682 -9.48934,-17.157098 -5.77329,-5.724994 -12.35867,-9.063333 -20.75532,-10.521321 -1.7985,-0.312292 -31.55761,-0.514615 -48.61306,-0.434599 z m 16.81655,26.612328 c 12.16644,-0.004 24.32616,0.14065 25.43462,0.43564 4.97079,1.32284 9.26208,5.43446 10.49962,10.06036 0.27965,1.04526 0.35408,5.27373 0.35708,20.14658 0.003,18.03443 -0.0187,18.89504 -0.52193,20.52433 -1.38549,4.48562 -5.51459,8.32389 -10.33477,9.60664 -2.14442,0.57071 -48.89207,0.54511 -51.02273,-0.0279 -4.49799,-1.20967 -8.81174,-5.2174 -10.11204,-9.39529 -0.47248,-1.51816 -0.50126,-2.709 -0.50126,-20.74602 0,-18.03702 0.0287,-19.22736 0.50126,-20.74551 0.66794,-2.14613 1.83845,-3.91095 3.82561,-5.7676 1.88588,-1.76206 4.16627,-3.05929 6.40012,-3.64113 1.13503,-0.29564 13.30797,-0.44656 25.47442,-0.4501 z m -173.784745,0.55294 23.481771,0.0884 c 23.0210507,0.0866 23.5235867,0.0994 25.61084,0.65525 8.657348,2.3057 14.117704,6.30494 17.416508,12.75633 2.22163,4.34479 3.014051,7.73543 3.250964,13.90613 0.406984,10.60039 -2.140573,18.42891 -7.950935,24.43262 -3.409812,3.52327 -7.604665,5.89393 -13.106177,7.40626 l -2.5331789,0.69609 -23.0848961,0.0801 -23.084896,0.0801 V 135.46563 Z M 144.57877,208.16559 c -14.86651,-0.0778 -36.58872,0.10583 -43.17049,0.44183 -21.080784,1.07618 -38.474701,2.46971 -54.901041,4.39818 -77.948358,9.15122 -151.341979,29.63962 -215.767709,60.23405 -3.49218,1.65837 -6.58713,3.15342 -6.87865,3.3228 -0.40025,0.23482 7.34316,0.30974 32.77423,0.31574 l 33.30391,0.008 4.28862,-2.36678 c 47.781219,-26.36843 125.29759,-48.57261 197.65564,-56.61722 11.27286,-1.25329 19.47979,-1.94527 31.75,-2.67735 7.5654,-0.45138 29.58125,-0.61906 36.90938,-0.28112 7.73797,0.35685 16.80593,1.03307 17.72708,1.32188 0.37462,0.11746 -2.78056,0.28255 -7.27604,0.38085 -17.84396,0.39018 -40.99185,2.15512 -61.4531,4.68551 -67.383661,8.33315 -127.377004,25.30024 -175.481278,49.62953 -3.856306,1.95037 -7.963956,4.07768 -9.128125,4.72736 l -2.116667,1.18132 34.573084,0.008 34.5725667,0.008 7.37526038,-3.65249 C 50.565483,247.86336 116.4357,230.30015 181.57703,224.64159 c 19.16356,-1.66466 31.04409,-2.10077 52.19216,-1.91462 9.12971,0.0804 18.62358,0.27201 21.09742,0.42582 13.97933,0.86913 24.5509,1.81741 34.19585,3.06751 2.80038,0.36296 5.18163,0.64687 5.29167,0.63097 0.72443,-0.10483 -20.04634,-4.75126 -28.77189,-6.4363 -35.87165,-6.92734 -70.75792,-10.7852 -109.23674,-12.0804 -2.61736,-0.0881 -6.81122,-0.14305 -11.76673,-0.16898 z m -320.71789,68.39686 c 9e-5,-6e-5 -6.1e-4,5e-5 -5.2e-4,0 v 5.1e-4 c 3e-5,-10e-6 4.9e-4,-5e-4 5.2e-4,-5.1e-4 z m 502.60136,-45.97808 c -2.65125,0 -3.62762,3.64329 -1.3193,4.9227 0.84008,0.46561 1.68174,0.45577 2.62207,-0.0305 0.93223,-0.48208 1.31723,-1.13923 1.31723,-2.24637 0,-0.4557 -0.1225,-1.05743 -0.27234,-1.33739 -0.32046,-0.59878 -1.59355,-1.30845 -2.34766,-1.30845 z m 18.23042,2.91042 c -1.4909,0 -2.54248,0.61214 -3.17242,1.84692 -0.6218,1.21881 -0.66799,2.07738 -0.1757,3.2551 0.43627,1.0437 0.93181,1.47111 2.22157,1.91771 2.42546,0.83984 4.82916,-0.87639 4.82916,-3.44785 0,-2.0683 -1.55886,-3.57188 -3.70261,-3.57188 z m 18.24126,0.0481 c -0.76948,-0.0242 -1.57618,0.14644 -2.36058,0.54725 -1.39758,0.71413 -2.07192,1.57647 -2.41019,3.08199 -0.44347,1.97377 0.44577,3.98332 2.24896,5.08289 0.98687,0.60178 3.29511,0.67032 4.33617,0.12867 1.64224,-0.85445 2.50799,-2.35812 2.49029,-4.32583 -0.0235,-2.6172 -1.99621,-4.44245 -4.30465,-4.51497 z" /></g></svg>
