<?xml version="1.0" encoding="UTF-8" standalone="no"?>
<!-- Created with Inkscape (http://www.inkscape.org/) -->

<svg
   width="266.2623mm"
   height="73.462257mm"
   viewBox="0 0 266.2623 73.462256"
   version="1.1"
   id="svg3814"
   xml:space="preserve"
   inkscape:export-filename="hbc.svg"
   inkscape:export-xdpi="96"
   inkscape:export-ydpi="96"
   xmlns:inkscape="http://www.inkscape.org/namespaces/inkscape"
   xmlns:sodipodi="http://sodipodi.sourceforge.net/DTD/sodipodi-0.dtd"
   xmlns="http://www.w3.org/2000/svg"
   xmlns:svg="http://www.w3.org/2000/svg"><sodipodi:namedview
     id="namedview3816"
     pagecolor="#505050"
     bordercolor="#ffffff"
     borderopacity="1"
     inkscape:showpageshadow="0"
     inkscape:pageopacity="0"
     inkscape:pagecheckerboard="1"
     inkscape:deskcolor="#505050"
     inkscape:document-units="mm"
     showgrid="false" /><defs
     id="defs3811" /><g
     inkscape:label="Layer 1"
     inkscape:groupmode="layer"
     id="layer1"
     transform="translate(152.52996,-128.14117)"><path
       id="path4353"
       style="fill:#000000;stroke-width:0.264583"
       d="m -120.68849,128.14117 c -0.11442,0.002 -2.99235,4.87956 -4.75889,8.06514 l -0.58652,1.05833 2.60656,4.56097 c 1.43367,2.50861 2.66605,4.56037 2.73885,4.55837 0.11259,-0.002 5.0047,-8.41118 5.24257,-9.01133 0.0901,-0.22745 -5.02561,-9.23548 -5.24257,-9.23148 z m 64.819813,8.8868 c -2.86478,0.0497 -5.781743,0.79857 -8.045503,2.23448 -1.746553,1.10785 -3.825946,3.283 -4.723226,4.94131 -0.981772,1.81444 -1.781202,5.05298 -1.775603,7.19232 0.01092,4.14393 1.387579,7.51721 4.221965,10.34666 1.953924,1.95052 3.90949,3.03565 6.712769,3.72483 v -5.1e-4 c 5.112067,1.25677 10.785679,-0.0781 14.491105,-3.40961 l 1.292427,-1.16169 v -5.53661 -5.5361 l -6.548437,0.0708 -6.548438,0.0708 -0.07545,2.57194 -0.07545,2.57194 3.647323,0.0739 3.647322,0.0739 0.07855,1.64176 c 0.07839,1.64025 0.07755,1.6421 -0.926041,2.29598 -2.542183,1.65636 -6.232348,1.89728 -8.919869,0.5824 -4.805543,-2.35114 -6.368884,-9.1557 -3.175517,-13.82086 1.616153,-2.36103 3.955161,-3.55658 7.018176,-3.58738 2.175518,-0.0219 4.205375,0.83311 5.745903,2.42052 l 1.061951,1.09451 2.204516,-1.21698 c 1.212323,-0.66938 2.30138,-1.31311 2.420524,-1.4304 0.297114,-0.29252 -2.477186,-3.2405 -3.997172,-4.24729 -2.054649,-1.36094 -4.867047,-2.01034 -7.731828,-1.9606 z m -96.564133,0.0935 -0.0687,22.5609 c -0.0379,12.40858 -0.0377,26.8179 5.2e-4,32.02026 l 0.0693,9.45886 h 31.88022 31.879708 l -0.06718,-31.94844 -0.06718,-31.94844 h -5.541781 -5.542297 l -0.99477,1.7198 -0.99477,1.71979 4.817274,0.13229 4.816761,0.13229 0.06925,10.17612 c 0.04066,5.96671 -0.02813,10.07113 -0.166398,9.92188 -0.129701,-0.14001 -0.384454,-0.73049 -0.565857,-1.31258 -0.660489,-2.11935 -3.19599,-6.66755 -4.911328,-8.80928 -2.128648,-2.65779 -6.204272,-6.26558 -6.586682,-5.83066 -0.0423,0.0482 -0.46991,0.78992 -0.95033,1.64797 l -0.87333,1.55959 1.03921,0.80409 c 4.1499,3.21001 7.395379,8.00576 9.021677,13.32993 0.650569,2.12972 0.710685,2.70367 0.714685,6.82336 0.0035,3.79283 -0.08445,4.81689 -0.561723,6.53448 -0.553789,1.99298 -2.110622,5.66421 -2.692342,6.34949 -0.16113,0.1898 -0.869478,1.1191 -1.574067,2.06499 -3.50195,4.70125 -8.38127,8.02429 -14.05547,9.57202 -1.90059,0.51844 -2.88424,0.6134 -6.35,0.6134 -4.62292,0 -6.92904,-0.46328 -10.48412,-2.10581 -3.87288,-1.78939 -7.73426,-4.97527 -10.11152,-8.34316 -0.66811,-0.94652 -1.292,-1.78032 -1.387,-1.85312 -0.38602,-0.2956 -1.56823,-2.94721 -2.1916,-4.91546 -1.42592,-4.50222 -1.59266,-9.96055 -0.43563,-14.26683 1.24772,-4.64376 4.39326,-9.75878 7.74268,-12.59045 0.9095,-0.76891 1.81658,-1.54373 2.0159,-1.72134 0.30262,-0.26965 0.21626,-0.58875 -0.524,-1.93528 -0.48757,-0.88688 -0.97105,-1.61231 -1.07435,-1.61231 -0.10329,0 -1.06984,0.70906 -2.14768,1.57613 -3.95226,3.17944 -7.03156,7.53724 -9.0749,12.8416 l -0.61236,1.58956 -0.0129,-10.11462 -0.0129,-10.11412 4.75062,-0.0723 4.75061,-0.0718 -0.99426,-1.71979 -0.99425,-1.7198 -5.47305,-0.0718 z m 188.120302,0.25787 -0.06976,8.73796 -0.06976,8.73797 -6.370671,-8.66304 -6.370671,-8.66355 -3.088183,-0.0744 -3.088184,-0.0744 v 14.03997 14.03946 l 2.976563,-0.0749 2.976562,-0.0744 v -8.79791 c 0,-4.83865 0.08122,-8.79747 0.180351,-8.7974 0.09913,7e-5 3.075697,3.98559 6.614583,8.85683 l 6.434233,8.85682 2.979146,0.007 2.97863,0.007 -0.06821,-13.95677 -0.06873,-13.95677 -2.972945,-0.0749 z m 78.044848,0.0114 -10.64948,0.0693 -10.649478,0.0687 -0.07545,2.57297 -0.07596,2.57245 3.912423,0.0734 3.911905,0.0734 0.0692,11.31094 0.0687,11.31094 h 2.90783 2.90731 V 154.06569 142.6886 h 3.83646 3.83646 v -2.64893 z m -126.206249,0.006 v 14.02291 14.02292 h 3.0396074 3.0390909 l 0.069763,-8.94467 0.069247,-8.94468 6.48229162,8.92866 6.48229168,8.92865 2.9765625,0.016 2.9765619,0.016 V 151.41985 137.39694 H 9.618799 6.5760906 v 8.79119 8.79068 l -2.914034,-3.96203 c -1.6028923,-2.17936 -4.51735375,-6.13545 -6.4766073,-8.7912 l -3.5625732,-4.82864 h -3.0483927 z m 57.94375,0 v 14.02291 14.02292 h 9.931693 9.931177 l -0.07545,-2.57969 -0.07596,-2.57969 -6.680729,-0.0708 -6.680729,-0.0708 v -3.17035 -3.17035 h 6.085416 6.085417 v -2.64583 -2.64583 h -6.068363 -6.068364 l -0.0832,-2.80138 c -0.04574,-1.5407 -0.03325,-2.85042 0.02739,-2.91042 0.06063,-0.06 3.126495,-0.10904 6.81302,-0.10904 h 6.702434 v -2.64583 -2.64583 h -9.921875 z m 22.754166,0 v 2.64583 2.64583 h 3.836459 3.836458 v 11.37709 11.37708 h 2.907833 2.907316 l 0.06925,-11.31094 0.06873,-11.31094 3.770312,-0.0734 3.770313,-0.0734 v -2.6386 -2.63859 H 78.807341 Z m -94.848991,0.0331 c -0.490675,-8.5e-4 -1.120065,0.009 -1.930114,0.0258 l -3.580144,0.0734 -0.461987,1.32291 c -0.254092,0.7276 -2.54313,7.00816 -5.086511,13.95677 l -4.624524,12.63386 3.209623,-0.001 3.209107,-5.2e-4 0.817521,-2.31459 0.818038,-2.31407 5.708178,-0.0713 5.708696,-0.0713 0.322461,0.99736 c 0.177257,0.54851 0.553119,1.62244 0.835091,2.38642 l 0.51263,1.38906 h 3.15588 c 1.735792,0 3.15588,-0.0442 3.15588,-0.0982 0,-0.054 -2.215531,-6.15596 -4.923731,-13.55989 -2.708201,-7.40393 -4.985446,-13.67332 -5.060156,-13.93197 -0.09219,-0.31918 -0.313912,-0.42017 -1.785938,-0.42271 z m -1.979207,6.49211 c 0.107849,-0.12192 0.762333,1.48543 1.454175,3.57187 0.691839,2.08645 1.594884,4.7163 2.007112,5.84409 l 0.749309,2.05052 h -4.094324 c -2.251912,0 -4.094324,-0.0494 -4.094324,-0.10955 0,-0.29329 3.807991,-11.16468 3.978052,-11.35693 z m -92.091539,7.23315 c -0.11443,0 -6.81635,11.52381 -17.26199,29.68191 l -0.73277,1.27434 h 18.01233 c 9.90694,0 17.95963,-0.0893 17.89503,-0.19844 -0.0646,-0.10915 -3.95133,-6.85481 -8.63771,-14.9903 -9.46859,-16.43736 -9.07473,-15.76751 -9.27489,-15.76751 z m 214.560549,21.83071 c -0.551381,0.0131 -1.11171,0.0556 -1.68,0.12764 -5.466767,0.69312 -9.327399,3.40467 -11.609111,8.15454 -0.960217,1.99891 -1.068003,2.43951 -1.182873,4.82503 -0.157366,3.26799 0.228556,5.36419 1.44694,7.85378 1.723917,3.52259 5.489416,6.38589 9.655224,7.34167 2.372705,0.54438 6.470091,0.36194 8.685258,-0.38654 1.954133,-0.66028 4.108113,-1.90087 5.754683,-3.31452 l 1.12448,-0.96532 v -5.40329 -5.40328 h -6.746871 -6.746875 v 2.5063 2.50631 l 3.770312,0.0734 3.770314,0.0734 0.0837,1.16944 c 0.14105,1.97403 -0.0528,2.28905 -1.997289,3.24631 -1.602579,0.789 -2.003345,0.87452 -4.033863,0.86352 -2.848021,-0.0154 -4.502518,-0.68921 -6.232177,-2.53835 -1.633086,-1.7459 -2.301851,-3.33204 -2.44843,-5.80637 -0.239844,-4.04875 1.430917,-7.05083 4.865336,-8.74158 1.457801,-0.71768 2.019131,-0.84901 3.627169,-0.84801 2.350628,0.001 3.882217,0.62514 5.691126,2.31717 l 1.292428,1.20871 2.2841,-1.25625 c 1.25642,-0.69101 2.28523,-1.41642 2.28823,-1.61179 0.002,-0.19538 -0.7606,-1.11923 -1.69447,-2.0531 -2.68438,-2.68439 -6.107678,-4.03037 -9.967351,-3.93878 z M 3.9302573,173.36632 V 187.26366 201.161 H 6.840674 9.7510906 l 0.015503,-9.72344 c 0.01147,-7.1689 0.092504,-9.61093 0.3074744,-9.29555 0.160364,0.23526 1.911337,4.58104 3.891236,9.65729 l 3.59978,9.22941 1.350822,0.0791 c 1.343045,0.0783 1.353151,0.0729 1.743563,-0.92605 0.215986,-0.55267 1.928149,-4.93418 3.804419,-9.73635 l 3.411161,-8.73125 0.06976,9.72343 0.06925,9.72344 h 3.039607 3.039091 v -13.89734 -13.89734 l -4.167187,0.0729 -4.167188,0.0729 -1.913061,4.7625 c -1.052208,2.61938 -2.532766,6.36985 -3.290239,8.33438 -0.757475,1.96453 -1.414666,3.62186 -1.460376,3.68246 -0.177116,0.23495 -0.43948,-0.32436 -1.933732,-4.12171 -0.849714,-2.15938 -2.319981,-5.89091 -3.267501,-8.292 l -1.722892,-4.36563 -4.1201617,-0.0729 z m -47.0958333,0.0139 v 13.89062 13.89063 h 9.137943 9.137427 l -0.07545,-2.57969 -0.07597,-2.57969 -6.151562,-0.0713 -6.151563,-0.0708 v -11.24014 -11.23962 h -2.910416 z m 22.754167,0 v 13.89062 13.89063 h 9.789583 9.78958329 v -2.64583 -2.64584 H -7.5791177 -14.325993 v -3.17035 -3.17035 l 6.1515628,-0.0708 6.1515625,-0.0708 v -2.51354 -2.51354 l -6.1515625,-0.0713 -6.1515628,-0.0708 v -2.77348 -2.77295 h 6.7468753 6.74687499 v -2.64584 -2.64583 H -10.621826 Z m 59.795833,0 v 13.89062 13.89063 h 2.910417 2.910416 v -13.89063 -13.89062 h -2.910416 z m 30.169735,0 -0.06976,8.6651 -0.06976,8.66511 -2.844271,-3.83646 c -1.564508,-2.11005 -3.171854,-4.23294 -3.571875,-4.71703 -0.40002,-0.48408 -2.037293,-2.62721 -3.63802,-4.7625 l -2.910417,-3.88193 h -3.042708 -3.042709 l -0.06821,13.82448 -0.06873,13.82448 h 3.041675 3.041674 l 0.06976,-9.00565 0.06925,-9.00514 6.565491,9.00514 6.564974,9.00565 h 2.89388 2.893363 v -13.89063 -13.89062 h -2.906799 z m -137.72286,0.13229 -0.06821,13.82448 -0.06873,13.82448 h 3.045293 3.044775 v -5.82083 -5.82084 h 6.756693 6.756177 l -0.07545,-2.57969 -0.07596,-2.57968 -6.680729,-0.0708 -6.680729,-0.0708 v -2.77347 -2.77347 h 7.418152 7.417635 l -0.07545,-2.57969 -0.07596,-2.57969 h -10.31875 z m -80.790939,3.96875 0.62994,1.80092 c 1.54866,4.431 5.96234,10.27095 10.12961,13.40229 2.00004,1.50284 6.16843,3.70615 8.05274,4.25658 0.69123,0.20191 1.25677,0.45986 1.25677,0.57361 0,0.11372 -4.52438,0.20723 -10.05416,0.20723 h -10.05417 l 0.0196,-10.12032 z m 56.642542,0.13229 c 0.115516,0 0.17869,4.49462 0.14056,9.98802 l -0.06925,9.98802 -10.120312,0.0693 c -5.56616,0.0381 -10.11924,-0.0214 -10.11824,-0.13229 0.001,-0.11087 0.68566,-0.42512 1.52135,-0.69815 3.7883,-1.23768 7.38067,-3.49753 10.71408,-6.74016 3.281636,-3.19228 6.379954,-7.92033 7.351482,-11.21792 0.203647,-0.69123 0.464824,-1.25677 0.580326,-1.25677 z" /></g></svg>
