<?xml version="1.0" encoding="UTF-8" standalone="no"?>
<!-- Created with Inkscape (http://www.inkscape.org/) -->

<svg
   width="410.91544mm"
   height="151.57422mm"
   viewBox="0 0 410.91543 151.57422"
   version="1.1"
   id="svg3203"
   xml:space="preserve"
   xmlns:inkscape="http://www.inkscape.org/namespaces/inkscape"
   xmlns:sodipodi="http://sodipodi.sourceforge.net/DTD/sodipodi-0.dtd"
   xmlns="http://www.w3.org/2000/svg"
   xmlns:svg="http://www.w3.org/2000/svg"><sodipodi:namedview
     id="namedview3205"
     pagecolor="#505050"
     bordercolor="#ffffff"
     borderopacity="1"
     inkscape:showpageshadow="0"
     inkscape:pageopacity="0"
     inkscape:pagecheckerboard="1"
     inkscape:deskcolor="#505050"
     inkscape:document-units="mm"
     showgrid="false" /><defs
     id="defs3200" /><g
     inkscape:label="Layer 1"
     inkscape:groupmode="layer"
     id="layer1"
     transform="translate(222.104,-47.144121)"><path
       id="path3219"
       style="fill:#000000;stroke-width:0.264583"
       d="m -125.65666,47.156523 c -7.12142,-0.01817 -11.88733,-0.01743 -12.57856,0.0067 l -2.51354,0.08837 1.19063,0.51418 c 2.71787,1.174239 9.0344,4.410583 11.37708,5.829102 9.80998,5.940054 18.12492,13.316409 25.54573,22.662699 1.73252,2.182068 1.89509,2.481485 1.49448,2.754354 -0.24721,0.16838 -5.35512,3.717522 -11.35073,7.886857 -5.99562,4.169346 -10.99625,7.574464 -11.1125,7.566464 -0.11626,-0.0077 -0.92574,-0.917954 -1.79886,-2.023133 -2.12669,-2.691917 -6.8878,-7.471747 -9.65729,-9.695015 -11.56943,-9.287591 -24.87852,-13.703849 -38.16614,-12.66486 -13.19531,1.031769 -23.72231,5.886337 -33.09927,15.263668 -8.74369,8.744051 -13.69904,18.351741 -15.37168,29.804901 -0.47812,3.27387 -0.55055,11.15491 -0.13332,14.5252 1.21094,9.78195 5.15896,18.86197 11.50111,26.45162 2.295,2.74643 7.23364,7.49898 9.85934,9.48831 7.41931,5.62117 15.06438,8.7676 24.26725,9.98751 4.3738,0.57978 13.05042,0.38878 17.33021,-0.38137 10.68746,-1.92321 18.7742,-6.1563 26.65677,-13.9547 l 3.77032,-3.73001 v -10.36216 -10.36215 h -22.88646 -22.88646 v -13.89063 -13.89062 h 36.77708 36.77709 v 27.86547 c 0,24.05336 -0.0543,28.04884 -0.39843,29.20752 -0.23712,0.79849 -1.16201,2.39908 -2.28255,3.95066 -8.441,11.68808 -19.84435,21.00034 -32.85587,26.83092 -1.86358,0.8351 -3.45926,1.58987 -3.54862,1.67845 -0.20448,0.2106 21.99435,0.20314 47.772274,-0.016 l 20.680392,-0.1757 0.06718,-47.33819 0.06666,-47.33872 17.197916,47.37437 17.197917,47.37437 12.98112,0.008 12.980603,0.008 17.1818967,-47.07517 17.1813803,-47.07515 0.06718,47.07619 0.06666,47.0762 29.421977,-0.0672 29.421976,-0.0672 17.871778,-25.3168 c 9.82937,-13.92401 17.99033,-25.30281 18.13585,-25.28631 0.14553,0.0165 8.1634,11.28971 17.817,25.05171 9.65361,13.762 17.69543,25.17154 17.87074,25.35452 0.25088,0.26159 3.96484,0.31818 17.44958,0.26459 l 17.13126,-0.0677 -23.19032,-32.94062 C 152.86663,147.27074 140.91006,130.28896 139.0507,127.65135 l -3.38067,-4.79557 26.56013,-37.624578 c 14.60801,-20.693669 26.55962,-37.674998 26.55962,-37.736198 0,-0.06113 -7.73037,-0.111104 -17.17879,-0.111104 h -17.1788 l -17.59841,25.06927 c -9.67911,13.788087 -17.76514,25.293933 -17.96841,25.568982 -0.33939,0.45918 -1.84613,-1.592017 -18.42058,-25.070304 L 82.393176,47.381833 48.512557,47.449012 14.631937,47.515675 -4.5854941,100.09541 C -22.205475,148.30485 -23.828464,152.61507 -24.114018,151.95374 -24.28531,151.55703 -32.917351,127.88175 -43.29631,99.341968 L -62.167509,47.451596 -98.944592,47.263494 c -10.113688,-0.05154 -19.590648,-0.0888 -26.712068,-0.106971 z m -14.09319,151.408327 c 2e-5,-3e-5 -0.001,3e-5 -0.001,0 v 5.2e-4 c 4e-5,-4e-5 9.9e-4,-4.8e-4 0.001,-5.2e-4 z M 51.70461,52.556194 c 0.37163,0.399859 49.24367,69.966946 49.31327,70.195196 0.0345,0.11311 -10.912882,15.85445 -24.327198,34.98081 -13.414307,19.12635 -24.572273,35.01378 -24.795903,35.30482 -0.366129,0.47641 -0.406961,-6.51365 -0.414961,-70.10166 -0.0049,-40.857989 0.08964,-70.524566 0.224792,-70.379166 z m 11.76724,39.287007 c -0.302229,-0.326299 -0.359151,4.598809 -0.359151,31.211529 0,26.55106 0.05729,31.53655 0.357601,31.21102 0.19656,-0.21309 5.200541,-7.32882 11.119735,-15.81299 C 81.005568,129.25719 85.27664,122.89897 85.1651,122.71005 84.74541,121.99914 63.80334,92.201111 63.47185,91.843201 Z" /></g></svg>
