<?xml version="1.0" encoding="UTF-8" standalone="no"?>
<!-- Created with Inkscape (http://www.inkscape.org/) -->

<svg
   width="58.737499mm"
   height="36.835312mm"
   viewBox="0 0 58.7375 36.835311"
   version="1.1"
   id="svg3814"
   xml:space="preserve"
   xmlns="http://www.w3.org/2000/svg"
   xmlns:svg="http://www.w3.org/2000/svg"><defs
     id="defs3811" /><g
     id="layer1"
     transform="translate(38.672325,-143.25555)"><path
       id="path4313"
       style="fill:#000000;stroke-width:0.264583"
       d="m 20.065175,143.25555 -5.754688,0.12454 c -5.0328568,0.10891 -5.955569,0.19624 -7.3561396,0.69712 -3.4007446,1.21619 -4.9193836,3.4783 -5.0994304,7.59488 -0.077676,1.77598 0.00932,2.78463 0.322461,3.72742 0.8333781,2.50907 3.0769662,4.39306 5.9743123,5.01727 0.8272402,0.17823 3.7323297,0.32494 6.6879637,0.33744 l 5.225521,0.0222 v -1.418 -1.41852 l -5.003312,-0.13125 c -4.317446,-0.1132 -5.1427419,-0.20308 -6.019271,-0.65784 -1.6288924,-0.84511 -2.0746417,-1.8857 -2.0727417,-4.84105 0.00131,-2.18925 0.086649,-2.66423 0.6614583,-3.68195 1.1306849,-2.00193 1.9466349,-2.25555 7.6052204,-2.36264 l 4.828646,-0.0915 v -1.45883 z m -38.89375,0.0114 v 8.7545 8.75502 h 6.975285 c 3.8364357,0 7.5958016,-0.11769 8.3540119,-0.26148 2.91416202,-0.55266 4.23976165,-1.73382 4.45450844,-3.96875 0.16624486,-1.73014 -0.48331389,-3.0094 -1.97042234,-3.8809 l -1.1678874,-0.68419 0.738973,-0.38241 c 3.4181006,-1.76848 3.1758361,-5.93002 -0.4423503,-7.59437 -1.1133789,-0.51215 -1.7637217,-0.5581 -9.0707643,-0.6444 z m -19.84375,0.047 v 8.73125 8.73125 h 2.38125 2.38125 v -3.70416 -3.70417 h 4.233333 4.233334 v 3.70417 3.70416 h 2.38125 2.38125 v -8.73125 -8.73125 h -2.38125 -2.38125 v 3.57188 3.57187 h -4.233334 -4.233333 v -3.57187 -3.57188 h -2.38125 z m 24.60625,3.175 h 4.1144775 c 3.0894019,0 4.2997818,0.096 4.8606853,0.38603 1.3250806,0.68524 1.3265675,2.51049 0.00258,3.19515 -0.5642622,0.29158 -1.7680086,0.38757 -4.8632691,0.38757 h -4.1144777 v -1.98437 z m 0,7.10861 4.5216878,0.0837 c 4.3849666,0.081 4.5371548,0.10225 5.0270834,0.70797 0.6871803,0.84958 0.6346499,1.7838 -0.1441773,2.56263 -0.6371824,0.63723 -0.7319876,0.64957 -5.0270833,0.64957 h -4.3775106 v -2.00194 z m -20.201351,8.23723 c -3.126857,0 -4.092021,0.7647 -4.334102,3.43441 -0.180198,1.98725 0.276155,3.34089 1.345654,3.99304 0.618194,0.37695 1.326509,0.50821 2.750736,0.50901 l 1.91823,0.001 v -0.92604 -0.92605 h -1.799374 c -1.771185,0 -2.43396,-0.26693 -2.43396,-0.97926 0,-0.25356 0.556306,-0.34365 2.116667,-0.34365 h 2.116667 v -0.79375 -0.79375 h -2.116667 c -2.147392,0 -2.447591,-0.16052 -1.700671,-0.90744 0.291741,-0.29174 0.923178,-0.41548 2.116666,-0.41548 h 1.700672 v -0.92604 -0.92604 z m 16.232601,0 c -0.730749,0 -0.79375,0.0735 -0.79375,0.92604 0,0.85254 0.063,0.92604 0.79375,0.92604 0.730749,0 0.79375,-0.0735 0.79375,-0.92604 0,-0.85255 -0.063,-0.92604 -0.79375,-0.92604 z m 24.7385417,0 c -0.5795675,0 -0.6614584,0.11465 -0.6614584,0.92604 0,0.81139 0.081895,0.92604 0.6614584,0.92604 0.5795684,0 0.6614583,-0.11465 0.6614583,-0.92604 0,-0.81139 -0.081894,-0.92604 -0.6614583,-0.92604 z m -37.9677087,2.11666 v 2.91042 2.91042 h 0.661459 c 0.650847,0 0.661458,-0.0343 0.661458,-2.13269 v -2.13269 l 0.992187,0.0822 0.992188,0.0822 0.07752,2.05052 0.077,2.05052 h 0.782897 0.782382 v -1.78801 c 0,-1.97251 -0.339354,-3.48472 -0.855245,-3.81217 -0.18456,-0.11714 -1.198585,-0.21504 -2.25361,-0.21704 z m 9.253699,0 c -0.991174,0 -1.99479,0.0739 -2.230355,0.16434 -0.661103,0.2537 -1.20251,1.53702 -1.20251,2.85047 0,1.73202 0.82385,2.60005 2.679939,2.82411 l 1.421102,0.17157 -1.785937,0.0377 -1.785938,0.0372 v 0.92604 0.92604 h 1.289844 c 2.279627,0 2.963635,-0.24826 3.370337,-1.22163 0.372017,-0.89036 0.522034,-5.47473 0.206189,-6.2978 -0.124694,-0.32492 -0.563435,-0.41807 -1.962671,-0.41807 z m 3.181718,0 v 2.91042 2.91042 h 0.79375 0.79375 v -2.91042 -2.91042 h -0.79375 z m 11.7620728,0 c -1.4859426,0 -1.8240226,0.0918 -2.38125,0.64906 -0.5162845,0.51629 -0.6495728,0.92062 -0.6495728,1.97197 0,1.56694 0.3782393,2.51442 1.1544515,2.89027 0.3108217,0.1505 1.2499512,0.28145 2.0866943,0.29145 1.5179525,0.0179 1.5213542,0.0163 1.5213542,-0.77566 0,-0.77 -0.037649,-0.79389 -1.2567708,-0.79789 -0.6912233,-0.002 -1.4353651,-0.11939 -1.6536459,-0.26045 -0.2796747,-0.18073 0.091462,-0.25796 1.2567709,-0.26096 l 1.6536458,-0.004 v -0.79375 -0.79375 h -1.6030029 c -1.001368,0 -1.5418473,-0.0993 -1.4397054,-0.26458 0.089937,-0.14552 0.8112277,-0.26459 1.6030029,-0.26459 1.4231606,0 1.4397054,-0.009 1.4397054,-0.79375 v -0.79375 z m 5.4818359,0 c -1.5342775,0 -1.8883262,0.0896 -2.3533447,0.59532 -1.1575769,1.25899 -0.8825263,4.20897 0.4552693,4.88394 0.3638017,0.18355 1.3460684,0.33544 2.1828125,0.33744 1.51485248,0.004 1.5213542,7.6e-4 1.5213542,-0.78961 0,-0.78475 -0.0165479,-0.79375 -1.4397054,-0.79375 -0.7917752,0 -1.513063,-0.11907 -1.6030029,-0.26459 -0.1021419,-0.16528 0.4383374,-0.26458 1.4397054,-0.26458 H 0.221425 v -0.79375 -0.79375 h -1.6030029 c -1.001368,0 -1.5418473,-0.0993 -1.4397054,-0.26458 0.089937,-0.14552 0.8112277,-0.26459 1.6030029,-0.26459 1.42316053,0 1.4397054,-0.009 1.4397054,-0.79375 v -0.79375 z m 2.5998413,0 v 2.91042 2.91042 h 0.79375 0.79375 v -2.2686 c 0,-2.01758 0.051191,-2.25873 0.4630208,-2.18023 0.2546608,0.0485 0.5012703,0.35516 0.5477702,0.6811 0.061066,0.42801 0.2631556,0.59273 0.7276042,0.59273 0.5555964,0 0.6428548,-0.12345 0.6428548,-0.90486 0,-1.63061 -0.1366017,-1.74098 -2.1450887,-1.74098 z m 5.0270833,0 v 2.91042 2.91042 H 6.7037167 7.365175 v -2.91042 -2.91042 H 6.7037167 Z m 2.6458334,0 v 2.91042 2.91042 H 9.34955 c 0.650848,0 0.661458,-0.0343 0.661458,-2.13269 v -2.13269 l 0.992188,0.0822 0.992187,0.0822 0.06873,1.4552 c 0.107093,2.27215 0.247578,2.64584 0.994771,2.64584 0.649018,0 0.656291,-0.0263 0.656291,-2.32234 0,-3.26001 -0.199377,-3.4985 -2.925403,-3.4985 z m 9.3064083,0 c -1.852377,0 -2.134234,0.0679 -2.676322,0.64493 -0.803607,0.85541 -1.015366,2.68723 -0.43925,3.80131 0.541161,1.04649 1.154205,1.3746 2.567285,1.3746 1.678984,0 1.034183,0.31463 -0.734838,0.35863 -1.595786,0.0397 -1.958385,0.36852 -1.558045,1.4118 0.131982,0.34399 0.49064,0.39273 2.057756,0.28061 2.721012,-0.19469 2.854089,-0.4086 2.854089,-4.59404 v -3.27784 z m -31.176908,0.0326 c -0.268976,-0.001 -0.57317,0.007 -0.917773,0.0212 -2.289583,0.092 -2.249418,0.0179 -1.952853,3.57807 0.173777,2.08617 0.212303,2.18902 0.820105,2.18902 0.621147,0 0.637687,-0.0554 0.637687,-2.13269 v -2.13269 l 0.992188,0.0822 0.992187,0.0822 0.07752,2.05052 c 0.07464,1.98051 0.09948,2.05052 0.727604,2.05052 0.64433,0 0.65009,-0.023 0.65009,-2.47272 0,-2.79561 -0.143917,-3.30588 -2.02675,-3.31556 z m -9.165332,1.55494 c 0.871324,0 0.873332,0.003 0.873332,1.32292 0,1.26877 -0.0298,1.32265 -0.727605,1.31465 -1.082825,-0.012 -1.653645,-0.45188 -1.653645,-1.27486 0,-0.96135 0.443974,-1.36271 1.507918,-1.36271 z m 39.952083,0 c 0.871324,0 0.873332,0.003 0.873332,1.32292 0,1.26877 -0.0298,1.32265 -0.727604,1.31465 -1.082827,-0.012 -1.653646,-0.45188 -1.653646,-1.27486 0,-0.96135 0.443973,-1.36271 1.507918,-1.36271 z m -44.105835,4.41989 -2.050521,0.17157 c -1.357679,0.1136 -2.274017,0.3367 -2.711979,0.65939 -1.749947,1.28932 -1.730492,5.51927 0.03101,6.75307 0.441301,0.3091 1.199509,0.4315 2.673739,0.4315 h 2.057755 v -0.76326 c 0,-0.75009 -0.02826,-0.76482 -1.691886,-0.87075 -2.159153,-0.13749 -2.541447,-0.45341 -2.541447,-2.10271 0,-1.8362 0.577482,-2.3487 2.645833,-2.3487 h 1.5875 v -0.96479 z m 3.644222,2.15336 c -0.711857,-0.0159 -1.441173,0.22506 -2.036568,0.72605 -0.726539,0.61135 -0.813904,0.84093 -0.813904,2.13424 0,1.76365 0.313073,2.4034 1.409733,2.88044 1.07837,0.46906 1.57757,0.47132 2.67839,0.0114 1.139239,-0.47601 1.468127,-1.10382 1.468127,-2.80345 0,-1.15111 -0.119308,-1.47994 -0.773596,-2.13423 -0.525973,-0.52597 -1.220324,-0.79857 -1.932182,-0.81442 z m 3.764112,0.0413 v 2.91041 2.91042 h 0.661458 c 0.650427,0 0.661458,-0.0353 0.661458,-2.11667 v -2.11666 h 0.926042 0.926042 v 2.11666 c 0,2.08137 0.01103,2.11667 0.661458,2.11667 0.650427,0 0.661458,-0.0353 0.661458,-2.11667 0,-2.03226 0.02446,-2.11666 0.608749,-2.11666 0.986486,0 1.243335,0.50297 1.243335,2.43396 0,1.74277 0.02075,1.79937 0.661458,1.79937 0.656557,0 0.661458,-0.0176 0.661458,-2.38125 0,-3.37989 -0.0758,-3.43958 -4.365625,-3.43958 z m 8.995833,0 v 3.96875 3.96875 h 0.6330363 c 0.6701013,0 0.9544637,-0.43569 0.9544637,-1.46296 0,-0.56685 0.128607,-0.63402 1.3621908,-0.70642 1.1080018,-0.0651 1.4579846,-0.20837 1.8743042,-0.76791 0.5204134,-0.69944 0.6915322,-2.55459 0.3384806,-3.66696 -0.2704487,-0.85212 -1.5082697,-1.33325 -3.4297648,-1.33325 z m 6.35,0 v 0.79375 0.79375 h 1.7042887 c 0.9372961,0 1.77764639,0.11906 1.8675863,0.26458 0.1012109,0.16376 -0.37457752,0.26458 -1.2485026,0.26458 -1.8375902,0 -2.5879557,0.50772 -2.5879557,1.75184 0,0.51063 0.1232452,1.15875 0.2738851,1.44022 0.2411727,0.45068 0.5730562,0.51211 2.77812496,0.51211 H 1.5443417 V 175.713 c 0,-2.04777 -0.061381,-2.32223 -0.64957279,-2.91042 -0.57475942,-0.57474 -0.87897714,-0.64905 -2.64583331,-0.64905 z m 6.6145833,0 v 2.91041 2.91042 h 0.6614584 c 0.6504283,0 0.6614583,-0.0353 0.6614583,-2.11667 0,-2.06226 0.01637,-2.11666 0.6397542,-2.11666 1.3543137,0 1.4769125,0.18854 1.4769125,2.27686 0,1.88677 0.02232,1.95647 0.6330363,1.95647 0.8454281,0 0.9355986,-0.34107 0.7611938,-2.88561 -0.1834888,-2.67704 -0.4511959,-2.93522 -3.0406413,-2.93522 z m 6.746875,0 c -0.6553573,0 -0.6614583,0.0215 -0.6614583,2.32234 0,3.01035 0.2994553,3.49849 2.147156,3.49849 0.814976,0 1.260826,0.10166 1.160136,0.26458 -0.08994,0.14552 -0.870759,0.26459 -1.735295,0.26459 -1.5699827,0 -1.571997,8.8e-4 -1.571997,0.79375 v 0.79375 h 1.822628 c 1.399448,0 1.967833,-0.11754 2.447396,-0.5054 0.589511,-0.47679 0.629831,-0.69988 0.712101,-3.96875 l 0.08682,-3.46335 H 13.2072 12.392262 v 2.11666 2.11667 h -0.897619 c -1.087534,0 -1.219047,-0.27336 -1.219047,-2.53524 0,-1.63496 -0.02461,-1.69809 -0.6614587,-1.69809 z m -18.3885416,1.5875 h 0.9069214 c 1.5053714,0 2.2677777,1.28498 1.3229166,2.22984 -0.2286738,0.22868 -0.8239871,0.41599 -1.3229166,0.41599 h -0.9069214 v -1.32292 z m -14.1273027,0.0253 c 0.382929,0.012 0.77383,0.20726 1.06195,0.64699 0.352756,0.53837 0.381567,0.8019 0.144178,1.32291 -0.233767,0.51306 -0.49518,0.65061 -1.235067,0.65061 -0.770178,0 -0.985448,-0.12484 -1.203028,-0.69711 -0.41426,-1.08959 0.389522,-1.94969 1.231967,-1.9234 z m 21.6679277,2.09134 c 0.65484227,0 1.19062497,0.11907 1.19062497,0.26459 0,0.14553 -0.5357827,0.26458 -1.19062497,0.26458 -0.6548434,0 -1.190625,-0.11905 -1.190625,-0.26458 0,-0.14552 0.5357816,-0.26459 1.190625,-0.26459 z" /></g></svg>
