<?xml version="1.0" encoding="UTF-8" standalone="no"?>
<!-- Created with Inkscape (http://www.inkscape.org/) -->

<svg
   width="793.87097mm"
   height="437.92676mm"
   viewBox="0 0 793.87101 437.92677"
   version="1.1"
   id="svg5"
   xml:space="preserve"
   xmlns="http://www.w3.org/2000/svg"
   xmlns:svg="http://www.w3.org/2000/svg"><defs
     id="defs2" /><g
     id="layer1"
     transform="translate(212.704,-197.50384)"><path
       id="path52198"
       style="fill:#000000;stroke-width:0.264583"
       d="m 50.819449,197.50384 0.06666,40.0389 0.06718,40.0389 30.823958,0.17208 c 16.95316,0.0948 31.419273,0.23631 32.146873,0.31471 5.41279,0.58306 7.40212,0.8325 11.2448,1.4087 18.50528,2.77481 35.55982,8.98521 50.93229,18.54719 1.74625,1.0862 3.65125,2.32369 4.23333,2.75022 0.58209,0.42653 2.12991,1.55321 3.43958,2.50372 9.86377,7.15867 20.57102,18.26688 27.61486,28.64838 11.39588,16.79573 18.73144,36.36622 21.58007,57.57375 1.67524,12.47196 1.74074,28.49198 0.16589,40.48125 -0.76295,5.80833 -0.79828,6.02215 -1.89084,11.50938 -0.46013,2.31082 -1.82252,7.87588 -2.49391,10.18645 -7.28717,25.07867 -20.50223,45.75291 -39.55211,61.87685 -9.86767,8.35207 -22.10497,15.54271 -35.141,20.64887 -2.91944,1.14352 -9.89362,3.4733 -11.95483,3.99355 -0.80036,0.20198 -2.37419,0.61349 -3.49694,0.91467 -1.8506,0.49638 -7.50156,1.77909 -8.80619,1.99885 -3.32837,0.56066 -9.88779,1.46452 -12.30312,1.6955 -7.86177,0.75186 -10.89356,0.81907 -37.688658,0.81907 -15.490837,6.8e-4 -28.350209,0.072 -28.576034,0.15865 -0.36856,0.14142 -0.410311,4.24718 -0.410311,40.10246 v 39.94485 l 32.345313,-0.11162 c 21.66576,-0.0745 33.39362,-0.21239 35.52031,-0.41755 9.71575,-0.93726 12.33594,-1.22677 16.27188,-1.79885 4.33882,-0.63063 5.83531,-0.86074 7.47448,-1.1498 0.83674,-0.14753 2.14643,-0.37749 2.91042,-0.51108 13.25499,-2.31786 30.81762,-7.54224 43.85468,-13.0452 7.23694,-3.05472 14.174,-6.35043 18.52084,-8.79946 1.09139,-0.61489 2.57968,-1.44655 3.30729,-1.84795 6.31057,-3.48126 15.65579,-9.58499 21.73976,-14.19914 2.7053,-2.05174 9.32648,-7.3027 9.61336,-7.62382 0.0728,-0.0814 0.60854,-0.55211 1.19063,-1.04593 6.191,-5.25221 15.64457,-14.78214 21.15478,-21.32583 0.98028,-1.16417 2.03889,-2.41432 2.35231,-2.77813 0.31343,-0.3638 0.98375,-1.19723 1.48931,-1.85208 0.50554,-0.65484 0.98939,-1.25012 1.07539,-1.32292 0.16454,-0.13922 3.65627,-4.83594 6.09782,-8.20208 2.27854,-3.14137 7.10052,-10.56458 8.76639,-13.49582 0.37153,-0.65371 1.35774,-2.37918 2.1916,-3.83439 2.25449,-3.93454 6.28765,-11.78838 7.67705,-14.94896 0.6717,-1.52797 1.44159,-3.25438 1.71049,-3.83646 4.31307,-9.33632 10.13616,-27.05166 12.6106,-38.36458 1.89357,-8.65733 3.21738,-16.24657 4.0504,-23.21719 0.66262,-5.54467 0.79886,-6.89067 1.0635,-10.51718 1.31567,-18.0293 1.01583,-31.72313 -1.07229,-48.94792 -2.60014,-21.44845 -8.78308,-44.042 -17.05167,-62.30938 -3.9729,-8.77712 -7.28816,-15.17383 -11.44685,-22.08754 -1.98791,-3.30485 -7.01158,-11.00554 -8.97878,-13.7635 -2.09986,-2.94394 -8.20844,-10.84282 -8.79843,-11.37708 -0.0804,-0.0728 -0.48664,-0.549 -0.90278,-1.05833 -4.28355,-5.24289 -13.51904,-14.70348 -20.1533,-20.64422 -3.31647,-2.96977 -10.30716,-8.58063 -14.33142,-11.50266 -5.67573,-4.12122 -14.71094,-9.96745 -19.01951,-12.30622 -0.85675,-0.46505 -2.09331,-1.14366 -2.74815,-1.50844 -4.40391,-2.45326 -9.46967,-4.95438 -16.49512,-8.14421 -1.979,-0.89852 -9.53457,-3.93953 -11.94759,-4.80849 -12.75632,-4.59367 -24.30586,-7.63246 -39.55521,-10.40763 -3.35354,-0.6103 -11.60574,-1.6745 -16.40417,-2.11563 -1.81901,-0.16722 -4.43838,-0.43246 -5.82083,-0.58912 -1.60401,-0.18177 -14.40968,-0.32529 -35.389057,-0.39739 z m 263.526551,0.007 v 38.38163 38.38164 l 50.33698,0.0362 c 27.68531,0.0199 51.64667,0.0713 53.24739,0.11421 3.41034,0.0915 8.59939,0.52631 12.7,1.06453 1.60072,0.2101 3.26761,0.42736 3.70417,0.48266 3.92115,0.49645 11.81926,2.51147 16.40417,4.18527 14.38458,5.25136 25.8771,14.89363 33.4579,28.07064 5.92085,10.29164 8.74314,21.32362 8.74314,34.17673 0,6.96449 -0.57675,11.75225 -2.14044,17.77462 -1.88428,7.25719 -6.74204,17.13007 -10.79469,21.93923 -0.38018,0.45116 -1.10763,1.34292 -1.61695,1.98179 -3.24935,4.07585 -8.58262,8.86244 -14.15521,12.70414 -10.65333,7.34429 -23.46763,11.94021 -38.75371,13.89889 -2.59442,0.33243 -6.77713,0.45244 -19.23552,0.55294 l -15.92047,0.12867 -1.32654,2.94814 c -0.72948,1.62162 -2.24038,4.9132 -3.35793,7.31429 -1.11755,2.40108 -2.7174,5.8539 -3.55534,7.67291 -1.3752,2.98523 -5.35347,11.57256 -9.98957,21.56354 -1.82975,3.94316 -4.22352,9.12782 -5.6193,12.17084 -0.46723,1.01865 -1.62378,3.50129 -2.57038,5.51749 l -1.72134,3.66593 1.01854,1.06143 c 0.5603,0.58377 1.91203,1.97523 3.00343,3.09232 1.09141,1.1171 4.31687,4.46784 7.16804,7.44554 2.85121,2.97773 6.07157,6.30638 7.15615,7.39696 1.08458,1.09056 4.40615,4.54267 7.38146,7.67137 2.97529,3.1287 6.18482,6.47038 7.13187,7.4259 0.94705,0.95554 3.08754,3.15821 4.75681,4.89479 1.66926,1.73662 4.88903,5.06244 7.15512,7.39077 2.2661,2.32833 6.71419,6.94647 9.88467,10.26294 3.17045,3.31647 6.50184,6.76928 7.40317,7.67291 0.90133,0.90363 2.93816,3.01254 4.52582,4.68602 1.58766,1.67349 4.85869,5.06773 7.26932,7.54269 2.41067,2.47496 5.68641,5.86825 7.27966,7.54063 1.59324,1.67238 4.81387,5.00517 7.15667,7.40627 2.34281,2.40108 5.55431,5.73484 7.13652,7.40833 1.58217,1.67349 4.67667,4.88818 6.87658,7.14375 2.19988,2.25557 5.4774,5.64885 7.28379,7.54062 1.80642,1.89177 5.3145,5.52972 7.79539,8.08427 2.48092,2.55451 5.75546,5.9478 7.27708,7.54062 1.52162,1.59279 4.68436,4.86048 7.02799,7.26157 2.34362,2.4011 5.61817,5.79438 7.27708,7.54063 1.65891,1.74625 6.01255,6.27062 9.67434,10.05416 3.66184,3.78354 7.10311,7.38519 7.6476,8.00365 0.54448,0.61846 1.10009,1.12448 1.23455,1.12448 0.13443,0 1.68913,-1.22039 3.45508,-2.71198 4.67648,-3.94988 6.58471,-5.54602 7.51686,-6.28747 0.45487,-0.36184 2.30034,-1.90439 4.10104,-3.4277 3.43109,-2.90258 7.58109,-6.38457 8.68112,-7.28431 0.35584,-0.29104 1.13007,-0.9529 1.72083,-1.47071 0.59076,-0.51782 1.39486,-1.18443 1.78697,-1.48156 0.39209,-0.29715 1.34459,-1.08225 2.11667,-1.74408 0.77204,-0.66182 2.35654,-2.00083 3.52071,-2.97553 1.16417,-0.97472 2.66068,-2.22915 3.3259,-2.78795 0.66524,-0.5588 2.10467,-1.76789 3.19877,-2.68665 1.09411,-0.9188 5.19353,-4.34302 9.10952,-7.60936 3.916,-3.26636 7.59755,-6.36199 8.18141,-6.87916 0.98819,-0.87535 2.53757,-2.16393 4.09226,-3.40393 l 0.65577,-0.52297 -13.75265,-13.96865 c -7.56398,-7.68278 -24.05157,-24.33516 -36.6391,-37.00498 -12.58755,-12.66983 -31.48583,-31.73899 -41.99589,-42.37571 l -19.10891,-19.33939 2.30787,-0.46715 c 10.03188,-2.03028 19.4802,-5.29727 29.16359,-10.08414 9.83244,-4.86053 17.17577,-9.66833 25.73228,-16.84703 3.02778,-2.54025 9.76189,-9.04356 12.12226,-11.7073 2.39384,-2.70149 4.39651,-5.06106 5.27771,-6.21771 0.4989,-0.65485 0.97374,-1.25011 1.05524,-1.32291 0.41351,-0.36908 4.09396,-5.53077 5.84822,-8.20209 15.69041,-23.89278 23.0068,-50.25187 21.92372,-78.98329 -0.81527,-21.62775 -4.12498,-38.42769 -10.76316,-54.63129 -2.08642,-5.09293 -6.85593,-14.35319 -9.53896,-18.52083 -2.79195,-4.3369 -7.27974,-10.72591 -7.99176,-11.37709 -0.0796,-0.0728 -0.46944,-0.56863 -0.86661,-1.10174 -0.39713,-0.5331 -0.87525,-1.12843 -1.06247,-1.32292 -0.18719,-0.1945 -0.61516,-0.71064 -0.95084,-1.14721 -3.53854,-4.60222 -12.23868,-13.27292 -20.14813,-20.0794 -2.21377,-1.90504 -9.12784,-6.95556 -12.42766,-9.078 -19.59335,-12.60241 -42.85018,-19.57532 -72.63588,-21.77799 -2.18281,-0.16142 -5.3975,-0.42545 -7.14375,-0.58705 -2.16408,-0.20026 -21.01335,-0.32691 -59.20052,-0.39791 z m -527.05,0.0341 v 213.12188 213.12187 h 43.25937 43.25938 v -85.32812 -85.32813 h 89.693749 89.69375 v -42.59791 -42.59792 h -89.69375 -89.693749 v -85.19583 -85.19584 h -43.25938 z" /></g></svg>
