<?xml version="1.0" encoding="UTF-8" standalone="no"?>
<!-- Created with Inkscape (http://www.inkscape.org/) -->

<svg
   width="899.28723mm"
   height="249.81059mm"
   viewBox="0 0 899.28724 249.81059"
   version="1.1"
   id="svg5"
   xml:space="preserve"
   inkscape:export-filename="southfloridamotorsportsllcf1.svg"
   inkscape:export-xdpi="96"
   inkscape:export-ydpi="96"
   xmlns:inkscape="http://www.inkscape.org/namespaces/inkscape"
   xmlns:sodipodi="http://sodipodi.sourceforge.net/DTD/sodipodi-0.dtd"
   xmlns="http://www.w3.org/2000/svg"
   xmlns:svg="http://www.w3.org/2000/svg"><sodipodi:namedview
     id="namedview7"
     pagecolor="#505050"
     bordercolor="#ffffff"
     borderopacity="1"
     inkscape:showpageshadow="0"
     inkscape:pageopacity="0"
     inkscape:pagecheckerboard="1"
     inkscape:deskcolor="#505050"
     inkscape:document-units="mm"
     showgrid="false" /><defs
     id="defs2" /><g
     inkscape:label="Layer 1"
     inkscape:groupmode="layer"
     id="layer1"
     transform="translate(422.23624,-79.027108)"><path
       id="path1054"
       style="fill:#000000;stroke-width:0.264583"
       d="m -275.39198,79.027108 v 41.671872 41.67188 h -36.64427 -36.64376 l -0.0672,-41.60573 -0.0672,-41.60573 h -36.64479 -36.64479 l -0.0661,124.81719 -0.0661,124.81718 h 36.77708 36.7776 v -45.9052 -45.90521 h 36.64479 36.64479 v 45.90521 45.9052 h 36.64479 36.6448 V 203.91044 79.027108 h -36.6448 z m 108.74375,0 V 203.91044 328.79377 h 36.64376 36.644276 l 0.06666,-54.89794 0.06718,-54.89845 37.974426,54.83231 37.974943,54.83179 28.898494,0.0672 28.899012,0.0677 V 203.91147 79.027108 H 4.6694809 -31.181561 l -0.0088,53.644272 c -0.0083,50.73111 -0.03399,53.61443 -0.463537,53.09547 -0.24982,-0.30181 -17.114819,-24.44177 -37.477816,-53.64427 L -106.15528,79.027108 h -30.24673 z m 228.600003,0 v 35.983332 35.98333 h 28.178125 28.178122 v 88.9 88.9 h 36.64479 36.6448 v -88.9 -88.9 h 28.17812 28.17813 V 115.01044 79.027108 h -93.00105 z m 261.407817,0.06305 -54.10729,0.06925 -0.0661,124.839412 -0.0667,124.83889 63.16979,-0.12247 c 68.788,-0.13319 64.65287,-0.0419 74.15878,-1.63711 12.88577,-2.16236 25.03917,-6.52329 34.65111,-12.43439 6.53904,-4.02134 13.9958,-10.48264 18.72031,-16.22123 7.89833,-9.59369 12.98992,-20.71998 15.7949,-34.5152 1.3107,-6.44632 1.54122,-9.695 1.40043,-19.74867 l -0.12092,-8.63048 -0.84336,-3.30729 c -1.33054,-5.21649 -2.85428,-9.4953 -4.79868,-13.4767 -3.34903,-6.85761 -6.2981,-11.04637 -11.61582,-16.49977 -3.18969,-3.27105 -4.3765,-4.33364 -8.41861,-7.53494 l -1.12707,-0.89245 2.62362,-2.82463 c 1.44309,-1.55349 3.18502,-3.49603 3.87108,-4.31654 4.99382,-5.97248 9.17685,-14.11001 11.4055,-22.18831 1.31551,-4.76829 1.68001,-7.61573 1.68001,-13.09687 -0.002,-13.19098 -2.103,-22.75371 -7.2931,-33.19332 -4.66958,-9.39264 -10.90816,-16.93786 -19.02933,-23.016171 -10.99774,-8.231292 -21.9998,-12.614535 -38.23229,-15.231112 -4.4256,-0.713379 -25.21795,-0.932096 -81.75625,-0.859896 z m 15.08177,54.903622 21.76198,0.14779 c 12.94411,0.0881 22.99485,0.26881 24.80468,0.44597 10.55173,1.03286 17.16414,7.48437 17.65629,17.22582 0.18138,3.59007 -0.33636,6.02724 -1.97714,9.30486 -2.32426,4.64294 -6.92332,8.30243 -11.57811,9.21236 -1.11619,0.21819 -8.87322,0.34451 -26.1276,0.42581 l -24.5401,0.11576 v -18.43919 z m -760.4125,28.37708 h 36.5125 36.5125 v 37.30626 37.30625 h -36.5125 -36.5125 v -37.30625 z m 760.4125,64.80277 25.20156,0.0822 c 24.98146,0.0812 25.21919,0.0868 27.24743,0.65939 4.53826,1.28127 7.52386,2.9392 10.3172,5.72936 4.21672,4.21193 5.82439,8.59164 5.83789,15.90653 0.0131,7.06275 -1.75746,12.08064 -5.72575,16.23001 -2.38723,2.49617 -6.79942,5.02907 -10.49083,6.02186 -1.56781,0.42166 -3.95838,0.47095 -27.05365,0.55965 l -25.33385,0.0972 v -22.64307 z" /></g></svg>
