<?xml version="1.0" encoding="UTF-8" standalone="no"?>
<!-- Created with Inkscape (http://www.inkscape.org/) -->

<svg
   width="126.25642mm"
   height="91.445488mm"
   viewBox="0 0 126.25642 91.445486"
   version="1.1"
   id="svg3814"
   xml:space="preserve"
   inkscape:export-filename="cfea.svg"
   inkscape:export-xdpi="96"
   inkscape:export-ydpi="96"
   xmlns:inkscape="http://www.inkscape.org/namespaces/inkscape"
   xmlns:sodipodi="http://sodipodi.sourceforge.net/DTD/sodipodi-0.dtd"
   xmlns="http://www.w3.org/2000/svg"
   xmlns:svg="http://www.w3.org/2000/svg"><sodipodi:namedview
     id="namedview3816"
     pagecolor="#505050"
     bordercolor="#ffffff"
     borderopacity="1"
     inkscape:showpageshadow="0"
     inkscape:pageopacity="0"
     inkscape:pagecheckerboard="1"
     inkscape:deskcolor="#505050"
     inkscape:document-units="mm"
     showgrid="false" /><defs
     id="defs3811" /><g
     inkscape:label="Layer 1"
     inkscape:groupmode="layer"
     id="layer1"
     transform="translate(76.590382,-112.96183)"><path
       id="path3961"
       style="fill:#000000;stroke-width:0.264583"
       d="m -5.4805106,112.96493 c -2.303742,-0.0254 -4.5907704,0.11137 -6.2047894,0.41755 -8.708839,1.65203 -16.449921,6.75941 -21.222994,14.00276 l -1.574064,2.38848 3.976502,0.0729 3.977018,0.0734 0.997355,-1.13172 c 6.303256,-7.14758 15.198135,-10.38067 24.2269449,-8.80618 9.810764,1.71086 17.9273241,9.18266 20.4752361,18.84898 0.576415,2.18682 0.681095,3.15429 0.681095,6.28851 0,3.1342 -0.10468,4.10168 -0.681095,6.2885 -1.237228,4.69383 -3.593537,8.63844 -7.242452,12.12329 -5.1788322,4.946 -11.66944034,7.36846 -18.8670655,7.04195 -6.2332595,-0.28277 -11.7292585,-2.55756 -16.2858275,-6.74067 l -1.519804,-1.39527 -4.224548,0.0724 -4.224549,0.0724 1.28726,1.71824 c 3.05409,4.07651 7.384619,7.64894 11.860775,9.78493 3.094966,1.4769 4.594923,1.99072 7.758183,2.65772 3.3789401,0.7125 9.5524998,0.70142 13.11237769,-0.0238 C 13.075241,174.22366 22.813577,164.83215 25.922741,152.51549 c 0.516718,-2.04692 0.597896,-3.05138 0.597896,-7.39593 0,-4.34456 -0.08118,-5.3485 -0.597896,-7.39542 -3.109164,-12.31666 -12.8475,-21.70818 -25.09769331,-24.20369 -1.68123095,-0.34249 -4.00181629,-0.53013 -6.30555829,-0.55552 z M -5.6665457,124.434 c -7.0388443,-0.0355 -13.8660503,4.25027 -17.3033363,11.07581 -2.727842,5.41676 -2.939498,12.37172 -0.54622,17.94567 2.573237,5.9931 7.256992,10.09047 13.433805,11.75174 2.1426152,0.57626 6.6061755,0.52527 9.0640463,-0.10335 4.1981581,-1.07371 8.3109115,-3.92061 10.8577352,-7.51531 1.0413005,-1.46974 2.2716955,-3.6317 2.2716955,-3.992 0,-0.0786 -1.994299,-0.13616 -4.4317703,-0.12816 l -4.4317709,0.0145 -0.79375,1.2423 c -0.9504009,1.4876 -2.83662465,2.81084 -4.8358805,3.39204 -1.966884,0.57179 -5.5543805,0.40119 -7.216097,-0.34313 -2.9214133,-1.30855 -5.0238483,-4.35935 -5.6668373,-8.22275 l -0.187069,-1.12448 H -0.90249544 13.646487 l 0.185002,-1.59164 c 0.410768,-3.53919 -0.510909,-7.983 -2.428792,-11.70987 -1.015375,-1.9731 -1.7147395,-2.89771 -3.647323,-4.82245 -3.5387747,-3.52443 -6.6300301,-5.09789 -11.2339396,-5.71748 -0.7291677,-0.0981 -1.4598238,-0.14774 -2.1879801,-0.15141 z m 0.3152262,7.47086 c 3.5205,0.0167 4.75286925,0.42468 6.6977824,2.21744 1.4099182,1.2996 2.7358015,4.03902 2.9858642,6.16861 l 0.1788005,1.52136 h -9.9585653 c -7.9545373,0 -9.9580483,-0.0685 -9.9580483,-0.34107 0,-0.62687 0.806639,-3.44845 1.313615,-4.59455 0.719242,-1.62597 2.706971,-3.63378 4.3185992,-4.36253 1.2009452,-0.54301 1.7730233,-0.62186 4.4219523,-0.60926 z m -71.2390625,0.11782 0.160714,0.80254 c 0.721507,3.60752 1.889837,5.50192 4.107759,6.66057 l 1.414384,0.73898 h 20.03857 20.039087 l 0.473873,-1.74977 c 0.260544,-0.96252 0.988647,-2.80799 1.617989,-4.10104 l 1.144117,-2.35128 h -24.498247 z m 28.076322,10.58334 c -13.554431,0 -17.161792,0.0695 -17.160192,0.33072 0.0052,0.8579 1.090547,3.76517 1.707389,4.57389 0.856309,1.12267 2.631837,2.18555 4.150134,2.48408 0.633486,0.12455 7.446455,0.23928 15.139645,0.25528 l 13.987259,0.0289 -0.181384,-0.59531 c -0.09999,-0.32742 -0.249106,-2.05383 -0.331246,-3.83646 l -0.149345,-3.24114 z m -6.261633,9.78958 0.475423,1.84846 c 0.848245,3.29769 2.273891,5.01781 4.949569,5.97225 0.783465,0.2795 3.497414,0.361 12.324312,0.37 l 11.319206,0.0114 -1.046448,-1.38906 c -1.000502,-1.32822 -2.968238,-5.09043 -3.273702,-6.25853 -0.144611,-0.55256 -0.180033,-0.55449 -12.446785,-0.55449 z m 88.450415,39.55521 c -3.069555,0 -4.746296,1.38251 -4.740796,3.90932 0.0049,2.26703 0.669352,2.89585 4.321184,4.08916 1.578528,0.51581 2.277293,1.23719 1.610237,1.66243 -0.655282,0.41773 -2.438891,0.28355 -3.673161,-0.27647 -1.285508,-0.58328 -1.246348,-0.60254 -2.267561,1.11983 -0.398732,0.67249 -0.393058,0.73055 0.0987,0.99373 0.28734,0.15378 1.153826,0.45716 1.925464,0.67386 1.743235,0.48956 4.453054,0.32829 5.599659,-0.33331 1.647871,-0.95085 2.267038,-3.5898 1.238167,-5.2772 -0.593666,-0.97365 -1.384566,-1.43603 -3.519682,-2.05672 -1.79567,-0.52202 -2.481378,-1.07121 -2.024166,-1.62212 0.431768,-0.52024 2.026211,-0.44789 3.3476,0.15193 l 1.121378,0.50901 0.664559,-1.13326 c 0.36536,-0.62344 0.664042,-1.20245 0.664042,-1.28675 0,-0.43414 -2.678117,-1.12344 -4.365625,-1.12344 z m 11.377083,0 c -3.069555,0 -4.746195,1.38251 -4.740795,3.90932 0.0049,2.26703 0.669352,2.89585 4.321183,4.08916 1.578519,0.51581 2.277294,1.23719 1.610237,1.66243 -0.655282,0.41773 -2.438892,0.28355 -3.67316,-0.27647 -1.285509,-0.58328 -1.246348,-0.60254 -2.267562,1.11983 -0.398732,0.67249 -0.393058,0.73055 0.0987,0.99373 0.28734,0.15378 1.153826,0.45716 1.925464,0.67386 1.743235,0.48956 4.453052,0.32829 5.599658,-0.33331 1.64787,-0.95085 2.267038,-3.5898 1.238167,-5.2772 -0.593666,-0.97365 -1.384565,-1.43603 -3.519682,-2.05672 -1.79567,-0.52202 -2.481378,-1.07121 -2.024165,-1.62212 0.431767,-0.52024 2.02621,-0.44789 3.347599,0.15193 l 1.121378,0.50901 0.664559,-1.13326 c 0.365361,-0.62344 0.664042,-1.20245 0.664042,-1.28675 0,-0.43414 -2.678116,-1.12344 -4.365625,-1.12344 z m -106.230208,0.13229 v 6.08542 6.08541 h 1.5875 1.5875 v -6.08541 -6.08542 h -1.5875 z m 23.01875,0 -1.653646,0.0176 -1.653646,0.017 -3.108854,3.73828 c -3.018771,3.63005 -3.108854,3.77549 -3.108854,5.01003 v 1.27124 h 3.307292 3.307291 v 1.05833 1.05833 h 1.455209 1.455208 v -1.05833 c 0,-0.99953 0.0441,-1.05833 0.79375,-1.05833 0.776099,0 0.79375,-0.0294 0.79375,-1.32292 0,-1.29352 -0.01764,-1.32292 -0.79375,-1.32292 h -0.79375 v -3.70416 z m 9.260417,0 v 6.08542 6.08541 h 4.497916 4.497917 v -1.32291 -1.32292 h -2.910417 -2.910416 v -1.19063 -1.19062 h 1.719791 1.719792 v -1.32292 -1.32291 h -1.719792 -1.719791 v -0.92605 -0.92604 h 2.910416 2.910417 v -1.32291 -1.32292 h -4.497917 z m 12.40131,0 c -0.99982,0 -1.817977,0.0548 -1.817977,0.12144 0,0.0666 0.820048,1.41932 1.822111,3.00602 l 1.821594,2.88457 -1.30638,2.04846 c -0.718597,1.12644 -1.59945,2.51221 -1.957503,3.0794 l -0.651123,1.03094 h 1.832963 1.832446 l 0.964799,-1.72496 c 0.530709,-0.94899 1.050458,-1.67277 1.154968,-1.60817 0.10451,0.0646 0.535893,0.84108 0.958598,1.72548 l 0.768429,1.60765 h 1.9290811 1.9285644 l -1.8851562,-2.97656 c -1.0368903,-1.63711 -1.8864403,-3.09563 -1.8877403,-3.24115 -0.0014,-0.14552 0.528241,-1.09802 1.1771893,-2.11666 0.6489482,-1.01865 1.4515938,-2.29857 1.7838705,-2.84427 l 0.6046142,-0.99219 -1.8076416,5.2e-4 -1.8076414,5.1e-4 -0.919841,1.70532 -0.919323,1.70584 -0.900721,-1.70635 -0.900203,-1.70584 z m 11.1466065,0 v 6.08542 6.08541 h 1.5875 1.5875 v -1.94613 -1.94614 l 1.83244629,-0.15348 c 3.37192601,-0.2827 4.61416331,-1.49994 4.45295821,-4.36304 -0.080719,-1.4336 -0.2039544,-1.77181 -0.8976197,-2.46548 -1.0216954,-1.02169 -2.1779692,-1.28236 -5.718514,-1.29036 z m 11.3770833,0 v 6.08542 6.08541 h 1.5875 1.5875 v -2.26653 -2.26652 l 0.6816122,0.0837 c 0.577416,0.0709 0.825089,0.41767 1.619539,2.26653 l 0.937928,2.18281 h 1.78232 1.78232 l -1.153418,-2.22208 -1.153418,-2.22209 0.905888,-0.90537 c 2.156847,-2.15685 1.290132,-5.80957 -1.547709,-6.52415 -0.648555,-0.16331 -2.49561,-0.29714 -4.1046593,-0.29714 z m 12.1708332,0 v 6.08542 6.08541 h 4.497917 4.497916 v -1.32291 -1.32292 h -2.910416 -2.910417 v -1.19063 -1.19062 h 1.719792 1.719791 v -1.32292 -1.32291 h -1.719791 -1.719792 v -0.92605 -0.92604 h 2.910417 2.910416 v -1.32291 -1.32292 h -4.497916 z m -20.3729165,2.64583 h 1.27020671 c 1.48055922,0 1.90479329,0.32423 1.90479329,1.45521 0,0.45112 -0.14266847,0.9633 -0.31729329,1.13792 -0.17462483,0.17463 -0.8890007,0.31729 -1.5875,0.31729 H -2.1763195 v -1.45521 z m 11.3770833,0 H 10.50456 c 1.891724,0 2.787837,1.16231 1.719792,2.23036 -0.265496,0.2655 -0.887099,0.41548 -1.719792,0.41548 H 9.2007638 v -1.32292 z m -50.2884028,0.92604 0.0088,1.91823 0.0088,1.91823 h -1.601969 -1.602486 l 1.062467,-1.25677 c 0.584303,-0.69122 1.301133,-1.55442 1.593185,-1.91823 z m -14.269931,0.66146 v 1.5875 1.5875 h 2.778125 2.778125 v -1.5875 -1.5875 h -2.778125 z" /></g></svg>
