<?xml version="1.0" encoding="UTF-8" standalone="no"?>
<!-- Created with Inkscape (http://www.inkscape.org/) -->

<svg
   width="850.77686mm"
   height="198.39862mm"
   viewBox="0 0 850.7769 198.39863"
   version="1.1"
   id="svg5"
   xml:space="preserve"
   xmlns="http://www.w3.org/2000/svg"
   xmlns:svg="http://www.w3.org/2000/svg"><defs
     id="defs2" /><g
     id="layer1"
     transform="translate(364.20018,-457.57835)"><path
       id="path52270"
       style="fill:#000000;stroke-width:0.264583"
       d="m -290.9106,457.57834 v 18.52084 18.52083 h 18.65313 18.65312 v 18.78542 18.78541 h 19.71146 19.71146 v -37.30625 -37.30625 h -38.36458 z m 513.55625,0 -5.1e-4,83.67448 c -3.7e-4,51.50371 -0.10212,86.06503 -0.2651,89.89219 -0.29266,6.87143 -0.96835,17.95179 -1.21388,19.9099 l -0.15762,1.25677 h 17.58343 17.5829 l 0.15762,-1.38907 c 0.0867,-0.76397 0.34548,-3.82984 0.57516,-6.81302 0.22968,-2.98317 0.4822,-6.16724 0.5612,-7.07605 l 0.14366,-1.65261 1.02268,1.36115 c 7.76914,10.33976 20.47605,17.40636 34.12505,18.97714 3.36009,0.38669 10.57514,0.32907 13.933,-0.1111 18.59434,-2.43751 33.9978,-12.73265 43.77769,-29.25972 7.42959,-12.55528 10.91792,-27.53778 10.46551,-44.94506 -0.3742,-14.39682 -3.36245,-26.76378 -9.07697,-37.5636 -10.87199,-20.54686 -30.70928,-32.27134 -53.14818,-31.41151 -15.70909,0.60195 -28.18157,6.65736 -36.87061,17.90019 l -1.88878,2.44378 v -37.59667 -37.59719 h -18.65312 z m 209.49523,54.80286 c -12.89973,0.0874 -25.28077,2.71022 -34.34106,7.72563 -15.71451,8.69891 -23.73301,23.36485 -22.47563,41.10756 0.52864,7.45981 2.20525,12.73713 5.72833,18.03198 5.40821,8.12804 15.17101,14.15631 28.78584,17.77411 1.60073,0.42535 7.43126,1.73316 12.95683,2.90628 5.52556,1.17312 10.99916,2.37604 12.16309,2.67322 8.96492,2.28894 12.38653,5.33897 12.43283,11.08253 0.0153,1.89873 -0.0892,2.47558 -0.67179,3.70417 -1.74387,3.67738 -6.28257,6.11787 -13.33304,7.16958 -3.46001,0.51612 -11.28981,0.45105 -14.41979,-0.11988 -10.40614,-1.89815 -22.29938,-6.62333 -32.67604,-12.98267 -1.60073,-0.98101 -3.01232,-1.8035 -3.13728,-1.8278 -0.12499,-0.0243 -2.88619,6.20635 -6.13606,13.84618 l -5.9092,13.89063 1.50585,1.41645 c 0.82823,0.77891 3.05367,2.45149 4.94544,3.71709 10.2332,6.84609 24.20513,11.53795 38.62916,12.9713 1.60073,0.15907 3.32714,0.33595 3.83646,0.39325 2.29788,0.25857 15.38012,-0.0936 18.25625,-0.49144 9.07562,-1.25543 15.67848,-3.14792 22.62188,-6.48332 12.85715,-6.17622 21.47199,-16.00832 24.49101,-27.9523 2.286,-9.04403 1.1863,-20.73422 -2.67736,-28.46287 -3.98589,-7.97319 -11.22515,-14.3204 -21.1522,-18.54615 -6.24545,-2.65857 -10.46123,-3.81079 -25.8594,-7.06624 -5.56439,-1.1764 -10.92221,-2.38755 -11.90625,-2.6913 -4.51927,-1.39496 -8.14094,-3.98532 -9.52448,-6.81199 -0.6075,-1.24124 -0.72404,-1.81619 -0.71004,-3.51296 0.0142,-1.72905 0.14219,-2.28335 0.86558,-3.75275 2.60533,-5.29215 10.00729,-7.81723 20.67626,-7.0528 10.67778,0.76506 21.19644,4.09288 31.76034,10.04797 1.3332,0.75155 2.47081,1.31965 2.52801,1.26245 0.18489,-0.18488 11.76446,-26.76834 11.8985,-27.31564 0.10602,-0.43285 -0.36529,-0.84709 -2.58951,-2.27583 -5.37966,-3.45567 -10.2808,-5.7581 -16.83928,-7.91063 -9.34314,-3.06647 -19.69013,-4.53182 -29.72325,-4.46381 z m -419.563024,10e-4 c -4.0500043,0.0661 -8.1681069,0.40942 -12.31449395,1.03818 -26.96035305,4.08831 -47.72227205,21.25847 -55.96919305,46.2871 -3.930198,11.92774 -4.90555,25.01555 -2.888713,38.76146 3.716493,25.32997 17.586652,43.71621 39.507149,52.36993 6.525228,2.57601 13.7896472,4.16291 22.922632,5.00693 2.2822138,0.2109 11.783724,0.14411 14.419792,-0.10129 15.89086,-1.4793 31.639255,-7.55092 40.977343,-15.79852 l 0.96945,-0.85628 -6.386173,-13.43122 c -3.512552,-7.38711 -6.556217,-13.76231 -6.763412,-14.16709 l -0.376721,-0.73587 -1.11311,0.68316 c -1.807658,1.10941 -8.2439,4.30771 -10.449492,5.19245 -9.21503,3.69647 -18.533157,5.43528 -25.4831986,4.75526 -9.10673784,-0.89104 -15.9715323,-4.00443 -21.3780234,-9.69605 -6.593065,-6.94078 -9.954091,-17.40955 -9.469189,-29.49329 0.429894,-10.7124 3.632947,-18.9441 9.839192,-25.28579 4.7104521,-4.81325 9.8639384,-7.54381 17.197917,-9.11159 3.8492332,-0.82284 10.911183,-1.0147 14.816667,-0.40256 6.973352,1.09299 15.672585,4.4446 22.45496,8.65115 1.892113,1.17353 2.163117,1.27226 2.441194,0.89194 0.172058,-0.23528 3.545018,-6.84762 7.495667,-14.6942 l 7.183024,-14.26683 -1.972489,-1.56734 C 46.406545,517.00933 30.127874,512.09563 12.577856,512.38223 Z m -146.697506,0.10336 c -4.07026,-0.003 -8.1536,0.15323 -10.50427,0.4687 -11.08175,1.48726 -19.74621,4.61928 -27.5916,9.97355 -11.42237,7.79549 -19.12634,19.79464 -21.44778,33.40623 l -0.16898,0.99219 h 17.56482 17.56481 l 0.3328,-1.12448 c 1.0257,-3.46825 3.85044,-7.20595 7.05073,-9.33018 5.7578,-3.82182 16.44565,-5.10388 24.08794,-2.88923 5.41149,1.56819 9.11916,4.46196 11.30008,8.81858 1.73095,3.45773 2.13621,5.55823 2.14871,11.13989 l 0.0103,4.62969 -17.72709,0.83561 c -9.74989,0.4594 -19.13234,0.97329 -20.84989,1.14205 -16.85692,1.65621 -29.70453,7.57433 -37.06234,17.07286 -1.97129,2.54483 -2.7542,3.74723 -3.83852,5.89525 -2.92484,5.79407 -4.21927,11.36114 -4.44314,19.10788 -0.21547,7.45589 0.68793,13.06849 3.02514,18.79006 5.48128,13.41837 18.02485,22.01212 35.32342,24.20059 3.97655,0.50308 14.3993,0.36274 17.92346,-0.24132 7.02445,-1.20403 13.62205,-3.62703 19.24275,-7.06727 3.8801,-2.37488 8.19127,-5.93468 10.77402,-8.8961 l 1.44384,-1.6552 0.14056,0.86197 c 0.0772,0.47434 0.33027,2.2317 0.56276,3.90518 0.23249,1.67349 0.71099,4.49949 1.06298,6.27972 0.35199,1.78024 0.63975,3.29824 0.63975,3.37344 0,0.0751 7.925951,0.13642 17.612882,0.13643 16.651377,0 17.604926,-0.0253 17.471285,-0.46302 -0.644841,-2.11194 -2.195726,-11.53605 -2.927987,-17.79323 -1.233062,-10.53626 -1.260232,-11.34658 -1.460892,-43.25938 -0.167614,-26.65632 -0.251461,-31.09173 -0.637171,-33.73437 -1.367047,-9.36589 -3.906173,-16.40998 -8.297168,-23.01875 -2.478587,-3.73044 -7.477137,-8.84985 -11.117667,-11.38691 -7.407342,-5.16208 -15.661512,-8.14812 -26.782862,-9.68881 -2.29819,-0.31839 -6.35546,-0.47908 -10.42572,-0.48162 z m 269.14068,0.01 c -3.87617,-0.0284 -7.71458,0.0783 -9.74204,0.3328 -16.9297,2.12551 -30.850751,8.78141 -41.68273,19.9285 -5.232818,5.38503 -8.753724,10.37021 -12.027173,17.02894 -3.299933,6.71265 -5.20359,12.51524 -6.466789,19.71145 -1.016978,5.79354 -1.290101,9.94275 -1.128096,17.15503 0.146341,6.51452 0.520038,10.24796 1.512569,15.12414 4.555168,22.37896 17.662338,39.38569 37.140889,48.19034 6.46614,2.92282 15.87048,5.27517 23.44508,5.86424 2.80716,0.21832 12.0179,0.1611 14.81666,-0.092 32.82595,-2.96838 56.12895,-23.29741 62.30214,-54.35172 1.12295,-5.64902 1.52983,-10.10872 1.54513,-16.94109 0.0146,-6.52062 -0.2522,-10.06809 -1.17306,-15.61041 -2.5401,-15.28798 -9.06456,-28.2019 -19.1828,-37.96771 -10.22005,-9.86406 -23.24601,-15.78185 -39.39036,-17.89555 -2.17931,-0.28533 -6.09325,-0.44861 -9.96942,-0.47698 z m 155.65406,33.71939 c 10.45397,-0.003 18.84749,3.98154 24.56905,11.66337 3.09596,4.1567 5.56572,10.20214 6.6461,16.26775 0.69884,3.92346 0.97056,12.20428 0.53227,16.22795 -1.88306,17.28798 -10.66213,28.35082 -24.7742,31.21928 -1.45148,0.29504 -4.06787,0.59276 -5.81411,0.66146 -9.53278,0.37516 -17.52729,-2.62092 -23.48591,-8.80205 -6.99782,-7.25915 -10.32097,-17.70341 -9.90327,-31.12316 0.28638,-9.20151 2.19759,-16.32869 6.04459,-22.54178 1.64145,-2.65101 5.65486,-6.88533 8.03,-8.47184 5.21782,-3.48532 10.95959,-5.09898 18.15548,-5.10098 z m -156.35376,0.0103 c 2.22933,0.006 4.47695,0.14546 6.05183,0.41599 13.13297,2.25593 21.9937,11.51894 24.99899,26.13381 2.25673,10.97465 1.0534,23.63805 -3.07113,32.31947 -4.70747,9.90837 -13.27757,15.90899 -24.34219,17.04444 -2.58428,0.26519 -4.79373,0.29966 -6.46213,0.10129 -3.55196,-0.42233 -5.3706,-0.77531 -7.54063,-1.46451 -12.84866,-4.08072 -20.54744,-15.63984 -21.67361,-32.54014 -0.289,-4.3371 -0.0249,-10.02433 0.64285,-13.84359 2.72511,-15.58662 11.70192,-25.38547 25.4522,-27.78332 1.50327,-0.26217 3.71449,-0.3895 5.94382,-0.38344 z m -387.89725,10.57196 -0.0894,15.01511 c -0.0852,14.3785 -0.11421,15.13591 -0.68575,17.86351 -3.14616,15.01477 -12.31905,24.51488 -26.80147,27.75748 -2.43903,0.54614 -3.42786,0.61495 -8.83201,0.61495 -6.59907,0 -9.13771,-0.35831 -13.47205,-1.90118 -8.56873,-3.05017 -15.10243,-9.32918 -18.72237,-17.9927 -1.13266,-2.71077 -2.41909,-7.38477 -2.73524,-9.9379 l -0.18861,-1.52135 h -19.54868 -19.54868 v 0.99425 c 0,2.99607 1.11689,10.08391 2.38642,15.14533 3.68407,14.68784 12.02922,28.05638 23.11848,37.03495 8.07278,6.53624 19.10273,11.80808 29.60181,14.14798 3.06249,0.68252 9.09899,1.61388 11.70058,1.80557 3.03342,0.2235 12.65458,0.17109 15.47813,-0.0842 26.86015,-2.42891 48.26136,-16.39873 59.51574,-38.84983 3.8285,-7.63735 6.18587,-15.37355 7.58869,-24.90235 0.37097,-2.51985 0.46645,-5.80474 0.55655,-19.11615 l 0.10904,-16.07344 h -19.71559 z m 138.64683,37.83542 h 1.35031 l -0.13488,6.28385 c -0.14299,6.6707 -0.35069,8.09015 -1.67483,11.44323 -3.08732,7.81799 -10.81666,12.96801 -21.40231,14.26011 -6.22461,0.75979 -12.79634,-0.0679 -16.87029,-2.12441 -3.29399,-1.6628 -5.73,-4.70359 -6.67556,-8.33386 -0.51521,-1.97789 -0.51749,-6.40939 -0.005,-8.3783 1.72428,-6.61996 7.35822,-10.41527 17.3328,-11.67681 1.40007,-0.17707 26.10478,-1.47381 28.07942,-1.47381 z" /></g></svg>
