<?xml version="1.0" encoding="UTF-8" standalone="no"?>
<!-- Created with Inkscape (http://www.inkscape.org/) -->

<svg
   width="106.64056mm"
   height="64.333145mm"
   viewBox="0 0 106.64056 64.333144"
   version="1.1"
   id="svg3814"
   xml:space="preserve"
   inkscape:export-filename="rta.svg"
   inkscape:export-xdpi="96"
   inkscape:export-ydpi="96"
   xmlns:inkscape="http://www.inkscape.org/namespaces/inkscape"
   xmlns:sodipodi="http://sodipodi.sourceforge.net/DTD/sodipodi-0.dtd"
   xmlns="http://www.w3.org/2000/svg"
   xmlns:svg="http://www.w3.org/2000/svg"><sodipodi:namedview
     id="namedview3816"
     pagecolor="#505050"
     bordercolor="#ffffff"
     borderopacity="1"
     inkscape:showpageshadow="0"
     inkscape:pageopacity="0"
     inkscape:pagecheckerboard="1"
     inkscape:deskcolor="#505050"
     inkscape:document-units="mm"
     showgrid="false" /><defs
     id="defs3811" /><g
     inkscape:label="Layer 1"
     inkscape:groupmode="layer"
     id="layer1"
     transform="translate(73.370669,-127.63506)"><path
       id="path4219"
       style="fill:#000000;stroke-width:0.264583"
       d="m 14.208481,127.63506 c -0.103843,0 -0.34803,0.38695 -0.542602,0.8599 -0.194572,0.47294 -0.844135,1.75286 -1.443323,2.84427 -0.599187,1.0914 -1.721672,3.175 -2.4944213,4.63021 -0.7727465,1.45519 -2.0843791,3.89599 -2.9145508,5.42395 -0.830169,1.52797 -2.0265735,3.7604 -2.6587524,4.96094 l -1.1492839,2.18281 H -0.64797613 -4.3009831 v 1.71979 1.7198 h 2.6458333 c 1.45520685,0 2.64583334,0.0741 2.64583334,0.16484 0,0.0907 -1.01203252,2.03393 -2.24895834,4.31809 -1.2369259,2.28415 -2.2489583,4.25039 -2.2489583,4.36924 0,0.11884 1.2203921,1.38422 2.71197914,2.81223 1.49158705,1.42801 2.81242306,2.56885 2.93522136,2.53525 0.2231494,-0.061 2.9670475,-5.32986 8.9519086,-17.18965 1.747875,-3.46365 3.295885,-6.25838 3.439583,-6.21048 0.235138,0.0784 3.605035,6.55507 9.915157,19.05621 1.230348,2.43746 2.319671,4.42908 2.421041,4.42608 0.347794,-0.0105 5.608443,-5.22796 5.608443,-5.56245 0,-0.18389 -0.401202,-1.06006 -0.891418,-1.94717 -0.490215,-0.88711 -1.217726,-2.20814 -1.616956,-2.93573 -0.399229,-0.72761 -1.009784,-1.80953 -1.357023,-2.40399 -0.347239,-0.59445 -0.552556,-1.15997 -0.455786,-1.25677 0.09677,-0.0967 1.287122,-0.1757 2.645317,-0.1757 h 2.469616 v -1.7198 -1.71979 H 29.627695 25.98554 L 20.191579,138.0861 c -3.186856,-5.74806 -5.879254,-10.45104 -5.983098,-10.45104 z m -35.707381,0.67283 c -4.735262,-0.0129 -6.266348,0.30267 -9.701733,1.99884 -6.525532,3.2219 -10.503235,9.87522 -10.503235,17.56896 0,9.64214 5.961396,17.17139 15.310177,19.3368 1.088481,0.25215 2.71029,0.33528 5.159375,0.26458 3.876277,-0.11195 5.899079,-0.57904 8.76794,-2.02571 1.617943,-0.81588 5.4771052,-3.79546 5.7133462,-4.4111 0.092085,-0.23996 -0.8094512,-1.33865 -2.4468791,-2.98225 l -2.5931231,-2.60294 -1.46296,1.19217 c -7.790706,6.34627 -17.585879,3.14136 -19.529557,-6.38979 -1.112762,-5.4566 1.539347,-11.1616 6.239929,-13.42243 1.463594,-0.70394 2.123325,-0.85425 4.160469,-0.94775 2.94514,-0.13522 5.014867,0.45621 7.525122,2.14922 3.16526,2.13478 2.771587,2.06155 3.887618,0.71934 0.540639,-0.6502 1.6687176,-1.95622 2.5068242,-2.90267 0.8381066,-0.94644 1.4841542,-1.84356 1.4355713,-1.99316 -0.1880048,-0.57894 -3.3125865,-2.8621 -5.0761755,-3.70933 -3.135796,-1.50643 -4.78741,-1.83028 -9.392709,-1.84278 z m -51.329166,0.3855 v 19.00608 c 0,10.45324 0.08228,19.08783 0.182934,19.18849 v 5.2e-4 c 0.100654,0.10024 1.97589,0.15007 4.167188,0.11007 l 3.984253,-0.0729 0.0677,-19.11614 0.06821,-19.11615 h -4.235401 z m 23.628531,0 -7.382495,8.8682 c -4.060414,4.87763 -7.382495,8.97394 -7.382495,9.10228 0,0.12833 1.071564,1.62549 2.38125,3.32745 5.405967,7.02512 12.131673,15.65894 12.727905,16.33905 l 0.637688,0.72761 h 4.892724 c 2.691011,0 4.892725,-0.10068 4.892725,-0.22376 0,-0.21706 -5.699365,-7.07486 -12.734107,-15.32258 -1.893873,-2.22043 -3.405261,-4.2037 -3.358451,-4.40697 0.04681,-0.20326 3.419021,-4.21309 7.4936,-8.91056 4.074578,-4.69749 7.563898,-8.75664 7.754048,-9.02064 0.330608,-0.45901 0.121035,-0.48008 -4.788338,-0.48008 z m 24.790219,43.87381 v 4.53771 4.53719 l 0.992187,-0.0822 0.992188,-0.0822 0.0801,-1.38906 c 0.07334,-1.27392 0.133555,-1.38907 0.72502,-1.38907 0.488225,0 0.879315,0.35358 1.610755,1.45521 0.893368,1.34551 1.043559,1.45521 1.987475,1.45521 0.56148,0 1.02061,-0.091 1.02061,-0.20205 0,-0.11108 -0.416929,-0.82093 -0.926559,-1.57769 -0.894544,-1.32832 -0.908215,-1.38601 -0.399458,-1.65829 1.465567,-0.78435 1.6989,-3.45253 0.414445,-4.73822 -0.642025,-0.64263 -0.874948,-0.69299 -3.591512,-0.77669 z m 30.6916662,0.0165 v 4.51342 4.5129 h 0.9260417 0.9260416 v -2.64583 c 0,-1.45521 0.089918,-2.64584 0.1994711,-2.64584 0.1095533,0 0.6453572,0.71437 1.1911417,1.5875 0.5457817,0.87312 1.0814607,1.58537 1.1901087,1.58337 0.108645,-0.002 0.614123,-0.71459 1.123445,-1.58337 0.509323,-0.86879 1.015338,-1.58136 1.124479,-1.58336 0.109137,-0.002 0.198438,1.18649 0.198438,2.6417 v 2.64583 h 0.926042 0.926041 v -4.49792 -4.49791 h -1.033528 c -0.992387,0 -1.07276,0.0682 -2.040703,1.72289 -0.554322,0.9476 -1.123268,1.68453 -1.264005,1.63763 -0.140734,-0.0469 -0.6827222,-0.79244 -1.2045779,-1.65675 -0.8949178,-1.48217 -1.0124979,-1.57591 -2.0686076,-1.65261 z m -4.3030965,0.003 -0.9544637,0.0801 c -0.90542708,0.0759 -0.9902759,0.16816 -1.65571291,1.79989 -0.38574099,0.94589 -1.19036249,2.90565 -1.78852129,4.35477 -0.5981588,1.44913 -1.0877889,2.66948 -1.0877889,2.71198 0,0.0425 0.4145069,0.077 0.920874,0.077 0.8077297,0 0.9866823,-0.12982 1.460376,-1.05833 0.53552937,-1.04928 0.55204699,-1.0582 2.05568845,-1.0542 1.78279245,0.005 2.07265265,0.14774 2.32285565,1.14463 0.2153283,0.85797 0.5433864,1.03901 1.6634643,0.92036 l 0.7999512,-0.0848 -0.7265706,-1.71979 c -0.3998803,-0.94589 -1.2408197,-2.9465 -1.8686198,-4.44573 z m -74.8073197,0.0279 v 4.49791 4.49792 h 1.058333 1.058333 v -1.41438 c 0,-1.04509 0.129136,-1.5307 0.494544,-1.86139 0.473066,-0.42812 0.549307,-0.36726 1.7663,1.41387 1.249804,1.82918 1.292616,1.8619 2.431893,1.8619 1.337618,0 1.391407,0.19882 -0.767912,-2.81947 -0.849059,-1.18681 -1.543575,-2.26209 -1.543575,-2.38951 0,-0.12743 0.714376,-0.93846 1.5875,-1.80248 0.873124,-0.86401 1.5875,-1.66398 1.5875,-1.77767 0,-0.11372 -0.462446,-0.2067 -1.027844,-0.2067 -0.923834,0 -1.191279,0.17426 -2.637048,1.71979 -0.884828,0.94589 -1.672024,1.71979 -1.749764,1.71979 -0.07774,0 -0.141594,-0.7739 -0.141594,-1.71979 v -1.71979 h -1.058333 z m 8.73125,0 v 4.49791 4.49792 h 1.058333 1.058333 v -4.49792 -4.49791 h -1.058333 z m 10.583333,0 v 4.49791 4.49792 h 0.926042 0.926041 v -4.49792 -4.49791 h -0.926041 z m 9.014437,0 -0.07545,2.71198 -0.07545,2.71197 -1.980241,-2.72438 c -1.91873,-2.63882 -2.009543,-2.72183 -2.910417,-2.64583 l -0.930176,0.0786 -0.07338,4.08967 c -0.04034,2.24947 -0.01427,4.24376 0.05788,4.43177 0.0726,0.18921 0.544237,0.34158 1.056267,0.34158 h 0.925008 l 0.07545,-2.70371 0.07545,-2.70423 1.984375,2.70061 c 1.806753,2.45857 2.061343,2.70072 2.844271,2.70372 l 0.859896,0.004 v -4.49792 -4.49791 h -0.91674 z m 12.15223,0 v 4.50566 4.50567 l 3.373437,-0.0739 3.373438,-0.0739 v -0.79375 -0.79375 l -2.315105,-0.0765 -2.315104,-0.0765 v -0.90434 -0.90486 l 2.043803,-0.077 c 1.983156,-0.075 2.043803,-0.0972 2.043803,-0.73898 0,-0.64184 -0.06064,-0.66397 -2.043803,-0.73897 l -2.043803,-0.077 v -0.91519 -0.91467 h 2.248959 2.248958 v -0.92604 -0.92604 h -3.307292 z m 48.683333,0 v 4.51393 4.51394 l 0.992187,-0.0822 c 0.982619,-0.0813 0.992933,-0.0943 1.072803,-1.33893 l 0.08062,-1.25677 h 1.269174 c 3.264269,0 4.836768,-3.50261 2.495454,-5.55832 -0.865621,-0.76007 -1.002073,-0.79168 -3.405993,-0.79168 z m 12.303125,0 c -1.269292,0 -1.843925,0.13632 -2.534212,0.60151 -1.442322,0.97198 -2.095996,2.16659 -2.095996,3.82974 0,2.34186 1.105642,3.96055 3.119706,4.56768 4.048574,1.22042 7.453764,-2.84787 5.545398,-6.62543 -0.859082,-1.70053 -2.002871,-2.3735 -4.034896,-2.3735 z m -64.709229,0.0139 c -0.292536,-0.002 -0.647209,0.009 -1.089856,0.0289 -1.835719,0.083 -2.115991,0.16959 -2.868042,0.8847 -1.169229,1.1118 -1.608576,2.07773 -1.620056,3.55999 -0.01697,2.19029 1.16528,3.88399 3.160014,4.52634 1.08737,0.35015 3.156644,0.0709 4.185274,-0.56483 l 0.918291,-0.5674 -0.07648,-2.02262 -0.077,-2.02262 h -1.719792 -1.719792 l -0.08268,0.8599 c -0.07978,0.8274 -0.04666,0.8599 0.877466,0.8599 0.891609,0 0.954152,0.0526 0.876432,0.72812 -0.06802,0.59112 -0.264831,0.77205 -1.049032,0.96583 -2.874184,0.71023 -4.54259,-3.5927 -1.995227,-5.14594 1.057914,-0.64522 1.40702,-0.64471 2.620512,0.006 l 0.975135,0.52296 0.545186,-0.76584 0.545186,-0.76585 -0.730704,-0.57516 c -0.476749,-0.37543 -0.797224,-0.5048 -1.674834,-0.51211 z m 28.5961877,0.002 c -0.9199797,0.0185 -1.8162707,0.1812 -2.3202718,0.49712 -1.0157449,0.6367 -1.8454819,1.90104 -2.0872109,3.18069 -0.389525,2.06208 1.108179,4.75216 2.9429726,5.28598 1.2878951,0.3747 2.3110243,0.3038 3.5165812,-0.2434 1.3528133,-0.61403 1.643813,-1.1865 0.953947,-1.87637 -0.4961276,-0.49611 -0.521989,-0.49561 -1.5937012,0.0346 -0.7193591,0.35625 -1.3250756,0.48011 -1.7823202,0.36535 -1.8640882,-0.46785 -2.6287714,-3.0488 -1.352889,-4.5651 0.915693,-1.08824 1.8022736,-1.25579 3.0902507,-0.58446 l 1.0495483,0.54674 0.5012614,-0.601 c 0.6344622,-0.76074 0.6333502,-0.81236 -0.03359,-1.41593 -0.4793034,-0.43377 -1.7017474,-0.64807 -2.8845784,-0.62425 z m -50.8873327,0.003 c -0.775172,0.006 -1.101694,0.13546 -1.559078,0.49609 -0.864685,0.68176 -1.193553,2.08753 -0.743108,3.175 0.32799,0.79184 1.45141,1.4808 2.881478,1.76682 0.44074,0.0881 0.991593,0.3703 1.224215,0.62735 0.387625,0.42835 0.387408,0.50297 -0.0052,0.89555 -0.573854,0.57385 -1.381527,0.53958 -2.59364,-0.11007 l -1.00459,-0.53847 -0.503845,0.60462 c -0.277257,0.3325 -0.508347,0.68016 -0.513147,0.77256 -0.0144,0.27491 1.179618,0.97092 2.139404,1.24695 1.284951,0.36952 1.983594,0.35448 2.985348,-0.0641 1.568146,-0.65522 2.151944,-2.15376 1.444356,-3.70675 -0.303834,-0.66684 -1.135945,-1.15957 -2.918685,-1.72754 -0.534061,-0.17015 -1.12505,-0.49482 -1.313098,-0.7214 -0.285479,-0.34399 -0.258747,-0.47233 0.161747,-0.7798 0.652994,-0.47743 1.046475,-0.46438 2.179712,0.0734 0.914132,0.43379 0.939963,0.43019 1.417485,-0.19844 0.473446,-0.62326 0.472436,-0.654 -0.02997,-1.16065 -0.385123,-0.38837 -0.969466,-0.54593 -2.303219,-0.62063 -0.379645,-0.0213 -0.687805,-0.0326 -0.946195,-0.0305 z m 86.903222,1.71669 c 1.304316,-0.0669 2.353914,0.93121 2.539897,2.58124 0.113625,1.00807 0.02971,1.27458 -0.626835,1.99574 -0.980688,1.07719 -2.081183,1.2808 -3.190503,0.58963 -1.873775,-1.16746 -1.671236,-4.10465 0.341064,-4.94544 0.320623,-0.13396 0.635381,-0.20575 0.936377,-0.22117 z m -50.83514,0.11627 h 1.270207 c 0.698499,0 1.412875,0.14266 1.5875,0.31729 0.439925,0.43992 0.397279,1.40362 -0.07958,1.79938 -0.21836,0.18122 -0.932735,0.38973 -1.5875,0.46353 l -1.190625,0.13436 V 175.824 Z m 40.745834,0 h 0.943611 c 1.363236,0 1.966805,0.40606 1.966805,1.32292 0,0.49556 -0.184408,0.87393 -0.511596,1.04903 -0.281475,0.15064 -0.936318,0.27388 -1.455209,0.27388 h -0.943611 v -1.32291 z m -17.4056564,0.66146 0.4811076,1.05833 c 0.2646227,0.58209 0.4899496,1.20716 0.5007446,1.38906 0.012181,0.20532 -0.3314948,0.33073 -0.9064046,0.33073 -1.06842086,0 -1.15005263,-0.29234 -0.50074462,-1.7942 z m -26.4676346,9.47125 c -0.862,-0.007 -1.642213,0.39527 -2.48202,1.23507 -0.876781,0.87678 -1.005106,1.16311 -1.005106,2.24017 0,1.5344 0.564322,2.66416 1.666565,3.33624 1.15876,0.70653 2.791167,0.67121 3.912939,-0.0848 1.125113,-0.75822 1.555629,-1.59877 1.560629,-3.04788 0.0055,-1.60504 -0.572658,-2.54634 -1.982308,-3.22874 -0.60695,-0.29382 -1.1535,-0.44576 -1.670699,-0.45011 z m -10.34924,0.0372 c -0.284735,0.0192 -0.555631,0.10207 -0.891418,0.24236 -1.110961,0.46419 -1.295011,0.73694 -1.295011,1.91565 0,1.17983 0.388753,1.62335 1.737361,1.98231 1.417163,0.3772 2.127108,0.98449 1.721859,1.47278 -0.40033,0.48239 -1.567552,0.45042 -2.300635,-0.063 -0.474868,-0.33261 -0.679539,-0.35372 -0.984953,-0.10025 -0.602296,0.49987 -0.459268,0.91613 0.47439,1.38079 2.460227,1.22442 5.029556,-0.2322 4.26744,-2.41949 -0.181869,-0.52197 -0.643315,-0.84698 -1.890324,-1.33222 -0.907234,-0.35302 -1.649512,-0.79381 -1.649512,-0.97926 0,-0.7789 1.464287,-0.95893 2.323373,-0.28578 0.241296,0.18907 0.448718,0.12086 0.719336,-0.23667 0.527179,-0.69647 0.497365,-0.79669 -0.33073,-1.11415 -0.913823,-0.35033 -1.426617,-0.49502 -1.901176,-0.46302 z m 21.625037,0.0207 c -1.180982,0.042 -2.374285,0.60829 -3.009119,1.57717 -1.131269,1.72653 -0.443466,4.55194 1.291911,5.30665 1.212364,0.52725 2.561762,0.46878 3.585828,-0.15555 0.860027,-0.52433 0.87316,-0.55871 0.419612,-1.05988 -0.428,-0.47293 -0.521141,-0.48286 -1.077453,-0.11834 -0.900675,0.59014 -1.790586,0.48679 -2.57607,-0.29869 -1.412252,-1.41226 -0.541641,-3.80028 1.385445,-3.80028 0.542416,0 1.130138,0.14415 1.30638,0.32039 0.250864,0.25086 0.438644,0.20266 0.86403,-0.22272 l 0.543119,-0.54364 -0.744657,-0.48886 c -0.57625,-0.37823 -1.280437,-0.54148 -1.989026,-0.51625 z m -56.481824,0.0222 c -1.317356,0 -2.0459,0.90904 -1.826762,2.27945 0.125514,0.78493 0.04644,1.10904 -0.372587,1.52807 -0.790529,0.79053 -0.70962,2.20562 0.165365,2.89388 0.794541,0.62499 1.650177,0.69055 2.936772,0.22531 0.722897,-0.26142 0.934272,-0.25612 1.109493,0.0274 0.168074,0.27198 0.34232,0.28294 0.77928,0.0491 0.682242,-0.36513 0.699327,-0.52136 0.104903,-0.95601 -0.431394,-0.31545 -0.431787,-0.38905 -0.01085,-1.27176 0.432813,-0.90761 0.429771,-0.94215 -0.09095,-1.10742 -0.3587,-0.11385 -0.653468,-0.0119 -0.886251,0.30644 -0.299322,0.40935 -0.41049,0.4256 -0.784448,0.11524 -0.399043,-0.33118 -0.379453,-0.42044 0.235644,-1.06247 1.287788,-1.34416 0.532049,-3.02721 -1.359607,-3.02721 z m 99.925167,0.003 c -1.217231,0.0508 -2.114599,0.74028 -2.114599,1.84691 0,1.42073 0.385378,1.88105 1.954919,2.33733 0.785076,0.22823 1.490703,0.57976 1.567863,0.78083 0.357058,0.93048 -1.342211,1.29179 -2.444295,0.51986 -0.589153,-0.41263 -0.648456,-0.40954 -0.984953,0.0506 -0.518454,0.70902 -0.464817,0.81699 0.63407,1.27279 2.613353,1.08397 4.894449,-0.26354 4.135148,-2.44275 -0.181869,-0.52197 -0.643315,-0.84698 -1.890324,-1.33222 -1.715212,-0.66743 -2.027823,-1.12138 -1.110527,-1.6123 0.410879,-0.2199 0.733944,-0.1912 1.360641,0.12144 0.756753,0.37754 0.849847,0.37337 1.172538,-0.0517 0.502172,-0.66145 0.463588,-0.75422 -0.476457,-1.1436 -0.631221,-0.26146 -1.250737,-0.37036 -1.804024,-0.34726 z m -74.011503,0.015 c -0.990702,0 -1.324808,0.1314 -1.831413,0.72037 -0.340772,0.39617 -0.6196,1.01695 -0.6196,1.37925 0,0.88489 1.049911,1.88245 2.210201,2.10013 1.072233,0.20115 1.625816,0.71892 1.399398,1.30896 -0.201666,0.52552 -1.476802,0.51432 -2.23914,-0.0196 -0.474869,-0.33261 -0.679539,-0.3532 -0.984953,-0.0997 -0.621572,0.51586 -0.447404,1.04784 0.47439,1.44849 1.936518,0.8417 4.033578,0.18465 4.322217,-1.35392 0.237206,-1.26443 -0.242424,-1.86315 -2.00918,-2.50734 -1.112995,-0.40582 -1.585433,-0.71583 -1.585433,-1.04077 0,-0.62942 1.014976,-0.84956 1.894458,-0.41083 0.637316,0.31794 0.770175,0.30427 1.154968,-0.12092 0.407321,-0.45009 0.390374,-0.50952 -0.269751,-0.94206 -0.411135,-0.26938 -1.209164,-0.46199 -1.916162,-0.46199 z m 67.66357,0.0693 -2.530595,0.0754 -2.531111,0.076 -0.04858,3.37344 c -0.02964,2.04591 0.05503,3.4174 0.215491,3.48506 0.14552,0.0612 1.306381,0.12079 2.579687,0.13229 2.287233,0.0206 2.315104,0.0127 2.315104,-0.6289 0,-0.61757 -0.08744,-0.65321 -1.785937,-0.72761 -1.729358,-0.0758 -1.788584,-0.10108 -1.869654,-0.80563 -0.04604,-0.40018 0.01349,-0.74463 0.132292,-0.76533 0.223083,-0.0389 1.96489,-0.16544 2.815332,-0.20464 0.310972,-0.0143 0.450931,-0.18677 0.394291,-0.48524 -0.06849,-0.36089 -0.437242,-0.4922 -1.672766,-0.59531 -1.494579,-0.12473 -1.590209,-0.17387 -1.669149,-0.8599 l -0.08371,-0.7276 h 1.869653 c 1.825025,0 1.869653,-0.0163 1.869653,-0.67128 z m -30.1624998,0.0191 v 3.39566 c 0,1.86752 0.079202,3.47487 0.1762166,3.57187 0.097012,0.097 0.3946686,0.17622 0.6614584,0.17622 0.446415,0 0.4852417,-0.28464 0.4852417,-3.57188 v -3.57187 h -0.6614584 z m 18.1239588,0 c -2.7685927,0 -2.7781255,0.002 -2.7781255,0.64544 0,0.55491 0.1392339,0.65686 0.9921875,0.7276 l 0.992188,0.0822 0.0708,2.51354 c 0.0388,1.38245 0.1244,2.66237 0.19017,2.84427 0.06577,0.1819 0.357337,0.33073 0.648022,0.33073 0.490869,0 0.533831,-0.20261 0.603581,-2.84427 l 0.07493,-2.84427 0.992187,-0.0822 c 0.852958,-0.0706 0.992188,-0.17269 0.992188,-0.7276 0,-0.64349 -0.0095,-0.64544 -2.778125,-0.64544 z m -65.06528,0.045 c -0.07441,-0.002 -0.155504,0.004 -0.247013,0.0129 -0.697819,0.0687 -0.857918,0.3211 -2.146639,3.3817 -0.765925,1.81901 -1.342519,3.39659 -1.281059,3.50573 0.272442,0.48379 1.154623,0.14185 1.535824,-0.59531 0.262036,-0.50672 0.623203,-0.80024 0.998905,-0.81184 0.323686,-0.0101 0.895713,-0.0593 1.271241,-0.10955 0.837379,-0.11189 1.090108,0.0542 1.500166,0.98754 0.227076,0.51685 0.512611,0.7276 0.986503,0.7276 0.366921,0 0.668427,-0.0893 0.669727,-0.19844 0.0013,-0.10914 -0.623769,-1.72027 -1.389062,-3.58014 -1.182004,-2.87261 -1.377718,-3.30518 -1.898593,-3.32021 z m 56.0560103,0.0873 c -0.7311647,0 -0.8301879,0.1524 -2.14198809,3.30006 -0.75638743,1.81494 -1.31795281,3.39252 -1.24798581,3.50573 0.3181505,0.51478 1.21394133,0.16926 1.49551593,-0.57671 0.31712662,-0.83971 0.75756038,-0.99633 2.37866617,-0.84284 0.7867906,0.0745 1.0850125,0.25793 1.3962972,0.85989 0.3553112,0.68707 1.1147315,1.00245 1.4960327,0.62115 0.079219,-0.0792 -0.4756227,-1.6568 -1.2329997,-3.50573 -1.3171288,-3.21541 -1.4103655,-3.36155 -2.1435384,-3.36155 z m -72.3346033,0.92604 c 0.641122,0 0.720225,1.1869 0.09508,1.42679 -0.582492,0.22352 -0.584141,0.22238 -0.771012,-0.36639 -0.215053,-0.67758 0.02884,-1.0604 0.675927,-1.0604 z m 45.095956,0.26459 c 1.005384,0 1.626873,0.41091 1.928048,1.27485 0.367585,1.05446 0.111157,2.08342 -0.672828,2.7001 -1.196046,0.94082 -2.505986,0.54854 -3.126424,-0.93638 -0.662031,-1.58447 0.233451,-3.03857 1.871204,-3.03857 z m -29.015283,0.79375 c 0.269707,0 0.835701,1.76518 0.631486,1.96939 -0.217672,0.21763 -1.332862,0.17868 -1.46141,-0.0512 -0.152839,-0.27327 0.558861,-1.91823 0.829924,-1.91823 z m 56.1438595,0 c 0.2522535,0 1.0317976,1.78199 0.8562785,1.9575 -0.23999,0.23995 -1.3434981,0.19102 -1.5027506,-0.0667 -0.15711742,-0.25422 0.4024339,-1.89084 0.6464721,-1.89084 z m -73.3009525,2.14509 c 0.257846,-0.051 0.610679,0.15359 1.03973,0.61029 0.57005,0.6068 0.575553,0.6512 0.112138,0.88005 -0.97063,0.47934 -1.867955,-0.18769 -1.509469,-1.12189 0.08256,-0.21515 0.202894,-0.33788 0.357601,-0.36845 z" /></g></svg>
