<?xml version="1.0" encoding="UTF-8" standalone="no"?>
<!-- Created with Inkscape (http://www.inkscape.org/) -->

<svg
   width="313.41031mm"
   height="61.609184mm"
   viewBox="0 0 313.41031 61.609183"
   version="1.1"
   id="svg3814"
   xml:space="preserve"
   inkscape:export-filename="metric.svg"
   inkscape:export-xdpi="96"
   inkscape:export-ydpi="96"
   xmlns:inkscape="http://www.inkscape.org/namespaces/inkscape"
   xmlns:sodipodi="http://sodipodi.sourceforge.net/DTD/sodipodi-0.dtd"
   xmlns="http://www.w3.org/2000/svg"
   xmlns:svg="http://www.w3.org/2000/svg"><sodipodi:namedview
     id="namedview3816"
     pagecolor="#505050"
     bordercolor="#ffffff"
     borderopacity="1"
     inkscape:showpageshadow="0"
     inkscape:pageopacity="0"
     inkscape:pagecheckerboard="1"
     inkscape:deskcolor="#505050"
     inkscape:document-units="mm"
     showgrid="false" /><defs
     id="defs3811" /><g
     inkscape:label="Layer 1"
     inkscape:groupmode="layer"
     id="layer1"
     transform="translate(142.07787,-156.77345)"><path
       id="path4620"
       style="fill:#000000;stroke-width:0.264583"
       d="m -45.739048,156.7812 c -1.278286,0.0871 -6.123665,0.90073 -6.318477,1.09554 -0.05251,0.0525 0.02365,1.70157 0.169499,3.66438 0.145849,1.96281 0.308085,12.61754 0.360184,23.67711 0.05211,11.05957 0.102755,20.12837 0.112655,20.15277 0.05203,0.12801 6.261132,-0.26785 6.403227,-0.40824 0.09223,-0.0911 0.0801,-3.0824 -0.02687,-6.64766 -0.106974,-3.56526 -0.213595,-14.32459 -0.237195,-23.90965 -0.02359,-9.58506 -0.09447,-17.51125 -0.157613,-17.6134 -0.01306,-0.0211 -0.122795,-0.0233 -0.305408,-0.0108 z m -58.034702,2.53008 c -1.23149,0.0397 -5.55062,0.59775 -5.85856,0.78807 -0.28601,0.17677 -0.32216,5.49858 -0.0393,5.78259 0.10914,0.1096 0.67469,0.12285 1.25677,0.0295 0.58209,-0.0934 1.85363,-0.26966 2.82567,-0.39222 0.97203,-0.12256 1.89477,-0.30161 2.05052,-0.39791 0.32372,-0.20006 0.40072,-5.59637 0.0827,-5.79293 -0.0292,-0.018 -0.14188,-0.0227 -0.31781,-0.017 z m 170.501223,0.95136 c -0.653591,0.002 -1.515466,0.0301 -2.427759,0.0827 l -3.31711,0.1912 0.198954,4.13876 c 0.10943,2.27622 0.233335,12.35409 0.275435,22.39502 0.0421,10.04093 0.08694,18.30324 0.09974,18.36064 0.01281,0.0574 0.826933,0.0282 1.809192,-0.0646 0.982269,-0.0928 2.526869,-0.16953 3.432348,-0.17053 l 1.646411,-0.002 -0.167431,-10.67377 -0.166915,-10.67377 1.668115,-0.17415 c 0.917679,-0.0959 4.435584,-0.17415 7.817611,-0.17415 h 6.149495 l 0.164848,6.41615 c 0.0909,3.52888 0.134118,8.4402 0.09612,10.91406 l -0.06925,4.49792 3.439583,-0.0971 c 1.891768,-0.0532 3.453689,-0.11279 3.470589,-0.13229 0.01698,-0.0196 -0.04259,-10.09594 -0.132291,-22.39244 L 90.55186,160.347 h -2.910416 c -1.600729,0 -3.181755,0.0441 -3.512964,0.0982 l -0.602031,0.0982 0.07338,8.89765 0.07286,8.89765 -7.739063,0.0698 -7.739062,0.0703 v -8.98395 c 0,-6.20195 -0.08967,-9.03962 -0.288872,-9.16274 -0.07936,-0.0491 -0.524632,-0.0721 -1.178222,-0.0698 z m -201.865203,0.0847 -3.28507,0.0548 c -3.36414,0.0565 -3.93435,0.23918 -3.55172,1.13585 0.0932,0.21828 0.21811,10.04094 0.27751,21.82812 0.0594,11.78718 0.16296,21.59583 0.22996,21.79712 0.0916,0.27504 0.42539,0.32436 1.3441,0.19844 0.67229,-0.0921 2.16345,-0.16743 3.31349,-0.16743 h 2.09083 l -0.16278,-9.72344 c -0.0897,-5.34789 -0.19725,-10.28899 -0.23875,-10.98021 -0.0415,-0.69122 0.008,-1.25677 0.11008,-1.25677 0.15373,0 11.83149,17.44703 14.10404,21.0721 l 0.6873,1.09606 3.91759,-0.13798 c 2.15469,-0.076 3.96836,-0.18408 4.03076,-0.23978 0.0624,-0.0557 -0.12677,-0.42739 -0.42064,-0.82579 -4.05597,-5.49861 -10.05323,-14.23617 -13.81415,-20.12642 l -2.42104,-3.7915 3.62562,-4.93975 c 1.99398,-2.71671 5.2399,-7.08236 7.213,-9.70173 1.9731,-2.61938 3.58737,-4.87439 3.58737,-5.01106 0,-0.14445 -1.43471,-0.23003 -3.42614,-0.20413 -2.91756,0.0379 -3.4633,0.11112 -3.6773,0.49351 -0.83933,1.4998 -13.26215,19.35021 -13.38678,19.23552 -0.0644,-0.0592 -0.12429,-4.54011 -0.13229,-9.95701 z m 169.897128,4.93924 c -0.684214,0.085 -0.577271,0.28533 3.875216,7.2316 2.518486,3.92906 4.79467,7.67953 5.058089,8.33437 0.705524,1.75388 0.847342,4.79854 0.31936,6.85695 -0.506149,1.97329 -0.738661,2.38354 -5.961393,10.5208 -2.165001,3.37318 -3.864047,6.20506 -3.775997,6.29316 0.08806,0.0877 0.522773,0.0898 0.966349,0.004 2.025023,-0.3911 2.756871,-0.98797 7.07192,-5.76761 10.499641,-11.63012 10.075353,-11.04957 10.102743,-13.80639 0.01068,-1.07492 -0.161686,-1.97193 -0.533301,-2.77812 -0.342932,-0.74396 -3.088554,-3.98476 -7.318416,-8.63824 -5.691963,-6.262 -6.954571,-7.51814 -7.934917,-7.89254 -0.641254,-0.2449 -1.482636,-0.40621 -1.869653,-0.35811 z m -8.64185,3.91138 c -0.159304,0.0165 -0.256315,0.0676 -0.256315,0.15968 0,0.0808 1.663017,2.73437 3.695382,5.8968 4.123779,6.4168 4.712886,7.84332 4.37751,10.59884 -0.254202,2.0886 -0.679102,2.92853 -4.484997,8.87181 -1.857368,2.90046 -3.437277,5.43053 -3.510897,5.62239 -0.190833,0.4973 0.645801,0.42943 1.93735,-0.15709 0.804544,-0.36536 2.494632,-2.05527 6.482291,-6.48074 2.966698,-3.29243 5.533731,-6.3712 5.704562,-6.84196 0.431197,-1.18829 0.421038,-2.95315 -0.02274,-4.01526 -0.497822,-1.19145 -10.488156,-12.29055 -11.739335,-13.0421 -0.665805,-0.39996 -1.7049,-0.66182 -2.182813,-0.61237 z m 83.727702,2.35025 c -1.28269,-0.0306 -2.63924,0.11744 -4.05711,0.45165 -4.4564,1.05044 -7.524604,4.23762 -9.033043,9.38341 -0.875589,2.9869 -1.029822,9.99409 -0.298173,13.54232 0.661589,3.2086 1.881508,5.72124 3.664376,7.54735 1.46685,1.50245 3.90826,2.8303 5.93711,3.22874 6.79615,1.33469 12.90068,-2.05693 15.01872,-8.34419 0.9393,-2.78835 1.16672,-4.92684 1.02009,-9.59322 -0.10658,-3.3913 -0.26723,-4.84254 -0.70125,-6.33759 -1.81625,-6.25629 -5.99236,-9.74578 -11.55072,-9.87847 z m 31.0038,0.0863 c -0.94353,-0.0215 -2.0098,0.0872 -2.66651,0.33796 -1.49466,0.57081 -3.10618,2.1869 -3.99717,4.00803 -0.38544,0.7878 -0.753,1.43247 -0.817,1.43247 -0.0637,0 -0.0944,-1.17762 -0.0677,-2.6169 0.0267,-1.43928 -0.0271,-2.73931 -0.11937,-2.88871 -0.11457,-0.18569 -0.48238,-0.18365 -1.15807,0.007 -0.54454,0.15342 -1.94262,0.41832 -3.10679,0.58808 l -2.11667,0.3085 0.0398,2.1022 c 0.0219,1.15637 0.0983,8.47256 0.17001,16.25792 0.0717,7.78536 0.14305,14.20058 0.15865,14.25598 l -10e-4,5.2e-4 c 0.0156,0.0554 0.4744,0.0266 1.0201,-0.0636 0.5457,-0.0902 1.96006,-0.16492 3.14296,-0.16692 l 2.15077,-0.003 -0.0341,-10.78177 c -0.03,-9.50679 0.0199,-10.95386 0.42013,-12.23698 0.51766,-1.65947 1.72285,-3.2524 2.93626,-3.87987 1.1058,-0.57186 3.26783,-0.56973 4.35632,0.004 0.47721,0.25163 0.98322,0.38599 1.12448,0.29869 0.14124,-0.0873 0.26587,-0.89588 0.27647,-1.79679 0.0106,-0.90091 0.10801,-2.26084 0.21652,-3.02255 0.10979,-0.7617 0.11068,-1.52764 0.003,-1.7017 -0.16662,-0.26961 -0.98761,-0.42133 -1.93114,-0.44287 z m 22.57795,0.0145 c -2.30219,-0.094 -4.93506,0.73267 -7.61246,2.5771 l -1.89497,1.30483 v -1.8371 c 0,-2.14464 0.3129,-2.0309 -3.69694,-1.3441 l -2.77037,0.47439 0.0625,16.11891 c 0.0346,8.86521 0.0619,16.22412 0.0589,16.35353 -0.002,0.1294 0.62094,0.16001 1.38493,0.0682 0.76398,-0.0918 2.22251,-0.16798 3.24114,-0.16898 l 1.85209,-0.002 -0.0899,-12.51551 -0.0899,-12.51552 1.07022,-0.96687 c 1.59962,-1.44515 3.09992,-2.11031 5.06274,-2.24534 1.48529,-0.10218 1.84397,-0.0337 2.63137,0.50333 0.50147,0.34203 1.13785,1.00846 1.41386,1.48105 0.80733,1.38234 1.04927,5.79095 0.90796,16.53904 -0.0703,5.34997 -0.0484,9.77693 0.0491,9.83713 0.0975,0.0602 1.56082,0.0409 3.25148,-0.0424 l 3.07372,-0.15141 -0.12299,-12.06645 c -0.0677,-6.63661 -0.227,-12.80634 -0.35347,-13.71079 -0.67407,-4.82034 -3.59202,-7.53429 -7.429,-7.691 z m -229.25371,0.0785 c -2.650192,0.01 -5.592801,1.07237 -8.174178,3.18533 -0.872067,0.71382 -1.614393,1.15077 -1.670183,0.9834 -0.252192,-0.75658 -1.744894,-2.50422 -2.651517,-3.1042 -1.354806,-0.89662 -3.489287,-1.27829 -5.288567,-0.94568 -1.973583,0.36484 -3.352243,1.03067 -5.413623,2.61431 -0.976989,0.75057 -1.844981,1.36478 -1.929081,1.36478 -0.0841,0 -0.07046,-0.91169 0.03049,-2.02572 l 0.183968,-2.02572 -0.900203,0.15452 c -0.495064,0.085 -1.793174,0.29549 -2.884578,0.46767 -2.980803,0.47024 -3.26739,0.62455 -3.063896,1.65054 0.09298,0.46881 0.232655,7.57971 0.310575,15.80162 0.07792,8.22193 0.188433,15.09393 0.245463,15.27142 0.07757,0.24142 0.856564,0.28247 3.091801,0.16278 1.643369,-0.088 3.044512,-0.21085 3.114022,-0.27285 0.06951,-0.062 0.08776,-5.67531 0.04031,-12.47417 l -0.0863,-12.36152 1.2361,-1.13998 c 1.687209,-1.55521 3.311216,-2.2434 4.925798,-2.08825 1.735738,0.16678 2.548064,0.7782 3.373954,2.5399 l 0.7028,1.49862 0.132291,12.17083 0.132292,12.17083 1.124479,-0.0119 c 0.618463,-0.007 2.079294,-0.0363 3.246314,-0.0661 l 2.121834,-0.0537 -0.134876,-4.69636 c -0.07422,-2.58298 -0.197425,-8.22913 -0.273885,-12.54703 l -0.139009,-7.85121 0.996321,-0.94929 c 1.473779,-1.40461 3.357871,-2.26653 4.954737,-2.26653 1.866093,0 3.030568,0.68772 3.846793,2.27273 l 0.661459,1.28468 0.06098,12.41526 c 0.03353,6.82847 0.102242,12.45706 0.152962,12.50776 0.05072,0.0507 1.509873,0.003 3.242696,-0.10542 l 3.150712,-0.19688 -0.08061,-11.2448 c -0.105492,-14.67351 -0.291306,-16.46045 -1.969906,-18.95698 -1.411009,-2.09854 -3.768538,-3.14219 -6.418729,-3.13262 z m 38.109818,0.01 c -3.784559,0.0168 -5.206964,0.54618 -7.721492,2.87425 -1.337201,1.23804 -2.059699,2.18108 -2.778642,3.62613 -1.686855,3.39051 -1.931115,4.72376 -1.933215,10.55233 -0.0018,4.67872 0.05595,5.34357 0.619083,7.13703 0.89238,2.842 1.75682,4.40172 3.388424,6.11229 1.620441,1.69887 3.791342,2.96573 6.079732,3.54759 2.171856,0.55223 7.29715,0.35609 9.625769,-0.36846 2.665596,-0.82939 2.742157,-0.92428 2.932638,-3.63905 0.09024,-1.28626 0.12166,-2.41551 0.07028,-2.50941 -0.05139,-0.0939 -1.038637,0.3124 -2.194182,0.90279 -1.798093,0.91867 -2.402144,1.09069 -4.190958,1.19424 -6.001138,0.3474 -9.794724,-3.24562 -10.296529,-9.75289 l -0.161748,-2.09496 h 8.737968 c 7.484449,0 8.785701,-0.0575 9.070764,-0.40101 0.248513,-0.29944 0.286544,-1.12039 0.148829,-3.24115 -0.255148,-3.92917 -0.769784,-6.21728 -1.904277,-8.46615 -1.148568,-2.27677 -2.444635,-3.52651 -4.829679,-4.65656 -1.642112,-0.77807 -1.935575,-0.82911 -4.662765,-0.81701 z m -75.592288,0.0599 -1.0976,0.18448 c -0.60388,0.10136 -2.08074,0.33335 -3.28197,0.51573 -1.20123,0.18238 -2.23104,0.3809 -2.28824,0.4408 -0.0572,0.0599 0.0149,2.72843 0.1602,5.92988 0.14529,3.20145 0.19992,10.42135 0.12092,16.04449 -0.0786,5.62316 -0.0827,10.28466 -0.008,10.35906 0.10957,0.10796 6.55342,-0.0673 6.59082,-0.17932 0.006,-0.017 -0.0359,-7.51538 -0.0925,-16.66306 z m 94.8298736,0.4563 -3.4013426,0.0941 c -1.870613,0.0517 -3.483568,0.14406 -3.584794,0.20516 -0.101227,0.0611 0.120481,0.91175 0.492993,1.89032 1.444329,3.7942 10.1420165,30.24742 10.1420165,30.84618 0,0.71706 -2.1069576,7.06846 -3.4990112,10.54768 -0.5080315,1.26975 -0.8579035,2.37445 -0.7772135,2.45515 v 5.1e-4 c 0.080693,0.0806 1.5170041,0.11315 3.1915364,0.0724 l 3.0447754,-0.0739 0.749825,-2.64583 c 2.8421622,-10.02586 7.164057,-23.94716 11.4773356,-36.9688 1.0953708,-3.30691 1.9197428,-6.12957 1.8314128,-6.27249 -0.181214,-0.29321 -5.4578827,-0.1201 -5.7174805,0.18759 -0.088559,0.10497 -0.4762765,1.44136 -0.8614461,2.96932 -1.0789009,4.28 -5.8511057,20.90147 -6.0001505,20.89847 -0.07276,-0.002 -0.5388652,-1.4603 -1.0355957,-3.24115 -0.4967305,-1.78084 -1.6124361,-5.61878 -2.4794353,-8.52919 -0.8669991,-2.91042 -2.0258381,-6.89901 -2.5750366,-8.86354 z m 26.7570234,0.11937 c -0.547352,0.0631 0.120914,1.25017 2.422591,4.84725 4.711601,7.36336 4.714754,7.9802 0.06976,15.22491 -1.638237,2.55514 -3.016475,4.73578 -3.062345,4.84622 -0.147573,0.35533 1.384794,-0.0378 2.068091,-0.53072 1.148935,-0.82877 8.77578,-9.38734 9.158614,-10.27741 0.483644,-1.12443 0.452426,-2.11077 -0.10387,-3.29075 -0.60976,-1.29337 -8.702848,-10.17721 -9.615951,-10.55543 -0.437242,-0.18111 -0.754443,-0.28509 -0.936893,-0.26407 z m -46.412154,3.56723 c 0.431956,-0.0228 0.8688,0.0222 1.302762,0.13901 2.511888,0.67638 4.011733,3.10218 4.218864,6.82387 l 0.12144,2.18281 h -5.706112 c -3.138354,0 -5.755009,-0.0893 -5.815149,-0.19843 -0.22504,-0.40836 0.560567,-3.95121 1.156519,-5.21467 1.068714,-2.26576 2.849864,-3.63357 4.721676,-3.73259 z m 137.107397,0.14314 c 1.52584,-0.0227 3.08828,0.50983 3.98993,1.50689 0.78689,0.87018 1.80069,3.40653 2.21899,5.55211 0.54124,2.77589 0.55389,9.13803 0.0232,11.63185 -0.42805,2.01172 -1.65189,4.7053 -2.4753,5.44876 -0.27588,0.24911 -0.93965,0.63607 -1.47536,0.8599 h -5.2e-4 c -2.61947,1.0945 -5.70981,-0.12056 -7.08018,-2.78381 -1.73651,-3.37481 -2.21156,-12.32455 -0.89814,-16.91731 0.58261,-2.03727 1.81934,-3.86401 3.14089,-4.63848 0.73838,-0.43272 1.64093,-0.64629 2.55644,-0.65991 z" /></g></svg>
