<?xml version="1.0" encoding="UTF-8" standalone="no"?>
<!-- Created with Inkscape (http://www.inkscape.org/) -->

<svg
   width="249.83955mm"
   height="37.846775mm"
   viewBox="0 0 249.83957 37.846776"
   version="1.1"
   id="svg5"
   xml:space="preserve"
   xmlns="http://www.w3.org/2000/svg"
   xmlns:svg="http://www.w3.org/2000/svg"><defs
     id="defs2" /><g
     id="layer1"
     transform="translate(-72.110656,-422.6224)"><path
       id="path52162"
       style="fill:#000000;stroke-width:0.264583"
       d="m 72.110656,422.6224 v 18.78541 18.78542 h 15.213541 15.213543 v -8.33438 c 0,-6.8952 -0.0628,-8.33437 -0.3638,-8.33437 -0.20009,0 -0.44032,0.38244 -0.53382,0.85008 -0.0935,0.46764 -0.64922,1.83961 -1.23455,3.04891 -2.606802,5.38563 -7.504625,8.43616 -12.353769,7.6941 -4.840688,-0.74076 -9.297834,-5.56957 -10.822595,-11.72538 -0.66463,-2.68327 -0.607813,-7.81131 0.116272,-10.48257 1.087193,-4.01082 3.387275,-7.63254 5.972762,-9.40562 l 1.28571,-0.8816 h -6.246647 z m 34.130734,0 0.002,13.16302 c 8.4e-4,7.27887 0.11678,13.87266 0.25941,14.75052 0.79508,4.89341 4.53535,8.64504 9.5281,9.55704 h 5.2e-4 c 0.94596,0.1727 2.64219,0.32561 3.76979,0.33951 l 2.05053,0.0253 v -5.3914 -5.39088 l -1.47227,-0.12248 c -1.14662,-0.0951 -1.62956,-0.27888 -2.18281,-0.83199 l -0.71055,-0.71055 -0.0734,-12.69431 -0.0739,-12.6938 h -5.5485 z m 149.4901,0.25321 -5.09323,0.0718 -5.09323,0.0718 0.001,12.7 c 0.001,13.88706 0.0358,14.26056 1.63763,17.59479 1.41544,2.94631 5.02088,5.76797 8.60206,6.73189 h 5.2e-4 c 0.77042,0.20737 2.14457,0.38429 3.05407,0.39429 l 1.65365,0.0176 v -5.3883 -5.38778 l -1.19269,-0.1633 c -2.23237,-0.30598 -3.162,-1.37445 -3.46904,-3.98684 l -0.17363,-1.47794 h 2.35179 2.35128 l -0.0465,-5.35782 -0.0465,-5.35781 -2.2686,-0.0765 -2.26859,-0.0765 v -5.15473 z m -166.014157,1.15187 c -5.788079,-0.0355 -10.992094,5.98434 -10.992094,14.33762 0,6.62566 3.512399,12.39519 8.466667,13.90768 1.349581,0.41201 4.1728,0.26281 5.677689,-0.30024 2.648647,-0.99099 5.529399,-4.15869 6.64869,-7.31066 0.536255,-1.51012 0.532635,-1.52436 -0.420129,-1.74667 -0.603129,-0.14073 -0.735951,0.004 -1.508436,1.6397 -3.023062,6.40217 -9.297087,7.88795 -13.651363,3.23288 -2.303813,-2.46296 -3.473173,-5.68037 -3.473173,-9.55498 0,-3.91916 1.055671,-6.90084 3.321761,-9.3803 1.813215,-1.98395 3.648819,-2.85687 5.936072,-2.82257 2.066489,0.031 3.559095,0.61767 5.089612,2.00039 1.914366,1.72952 3.464377,4.71015 3.915006,7.52823 l 0.173633,1.08675 H 93.17862 c -3.147293,0 -5.734046,0.0893 -5.748486,0.19844 -0.01443,0.10914 -0.05562,0.52586 -0.09147,0.92604 l -0.06511,0.72761 h 6.706051 6.706055 v -0.93741 c 0,-1.56093 -0.793367,-4.89509 -1.568384,-6.59133 -1.013742,-2.21872 -2.695462,-4.23771 -4.502051,-5.40536 -1.610842,-1.04114 -3.27723,-1.52587 -4.897892,-1.53582 z m -0.12144,4.52479 c -3.243226,-0.0146 -6.403673,2.79075 -7.233667,7.63622 -0.565182,3.29951 0.504528,7.12901 2.59209,9.27851 1.128819,1.16231 2.166603,1.72893 3.646806,1.99212 1.129681,0.20087 2.750651,-0.031 3.675744,-0.52606 1.497591,-0.80148 3.64629,-3.4278 3.64629,-4.45658 0,-0.15132 -0.33172,-0.27492 -0.736906,-0.27492 -0.542875,0 -0.863906,0.21509 -1.220081,0.81804 -0.265839,0.45003 -1.02887,1.16441 -1.69602,1.5875 -2.76457,1.75324 -5.884414,0.47923 -7.50962,-3.067 -0.480675,-1.04884 -0.606164,-1.78883 -0.606164,-3.57187 0,-1.78303 0.125489,-2.52304 0.606164,-3.57188 1.625206,-3.54623 4.74505,-4.82075 7.50962,-3.06751 0.66715,0.4231 1.430181,1.13747 1.69602,1.5875 0.492766,0.83419 0.991995,1.00254 1.681551,0.56638 0.319218,-0.20192 0.213931,-0.49435 -0.609782,-1.69034 -1.520229,-2.20731 -3.496109,-3.23138 -5.442045,-3.24011 z m 119.311067,3.59513 c -6.34016,0 -11.82531,4.19302 -13.6369,10.42468 -0.56295,1.93725 -0.56003,5.56953 0.006,7.69824 0.83443,3.13705 3.27804,6.40415 6.08387,8.1349 1.10024,0.67868 3.74607,1.69273 4.89376,1.87534 h 5.2e-4 c 1.10886,0.17615 4.16335,0.18716 4.60798,0.0165 0.36222,-0.13898 0.41858,-0.86742 0.41858,-5.41052 v -5.24981 l -0.91725,0.38344 c -1.23258,0.515 -2.2126,0.48269 -3.32022,-0.10956 -1.00831,-0.53914 -1.77528,-1.64801 -1.85518,-2.682 -0.13545,-1.7518 0.0202,-2.19944 1.16324,-3.34244 1.04951,-1.0495 1.27459,-1.15524 2.44739,-1.15445 1.69434,10e-4 2.89311,0.7395 3.55017,2.18695 0.46059,1.01461 0.50867,1.79202 0.51367,8.32921 l 0.006,7.20989 h 5.15937 5.15938 v -7.64966 c 0,-8.75422 -0.2434,-10.69294 -1.71876,-13.69115 -2.11917,-4.30655 -6.91926,-6.9696 -12.56202,-6.9696 z m 68.38807,0 c -6.3514,0 -11.61867,3.75216 -13.671,9.73894 -0.7154,2.08687 -0.82752,5.96336 -0.23461,8.12043 1.37559,5.00455 5.02021,8.62282 10.1291,10.05623 1.9139,0.53699 6.77192,0.38457 8.40672,-0.26406 1.43717,-0.57022 4.2534,-2.30952 4.1646,-2.57194 -0.0978,-0.28912 -5.53942,-6.82335 -5.68234,-6.82335 -0.0692,0 -0.49431,0.31052 -0.94516,0.68988 -0.71271,0.59967 -1.003,0.67428 -2.22312,0.57309 -2.52315,-0.20924 -3.87639,-2.16478 -3.89899,-5.6348 -0.0174,-2.6672 0.76131,-4.41992 2.3828,-5.36246 1.92425,-1.11853 4.4116,-0.25812 5.0028,1.73064 0.17481,0.58831 0.1461,0.59531 -2.33888,0.59531 -1.38366,0 -2.58749,0.11633 -2.67529,0.25839 -0.29049,0.47002 -0.47218,2.85224 -0.29093,3.81837 l 0.17828,0.95033 h 7.79332 7.79333 v -2.06138 c 0,-7.89172 -5.95509,-13.81362 -13.89063,-13.81362 z m 30.52579,0.008 c -4.60704,0.0111 -9.17312,2.23155 -11.84269,6.45852 -1.62764,2.57719 -2.21034,4.57051 -2.21434,7.57938 -0.002,1.70816 0.14836,3.00395 0.46147,3.96875 1.64267,5.0615 5.46262,8.75287 10.26139,9.91567 0.76077,0.18434 2.28088,0.34521 3.37809,0.35761 7.10936,0.0802 12.88528,-5.01112 13.90303,-12.2561 l 0.18242,-1.29863 -2.06086,0.17415 c -1.13334,0.0958 -3.40952,0.17415 -5.05809,0.17415 h -2.99723 l -0.54519,1.06866 c -0.76799,1.50538 -1.91302,2.16432 -3.5202,2.02572 -2.24721,-0.19378 -3.68918,-1.83279 -3.68918,-4.19354 0,-2.25137 1.57908,-3.79564 3.8809,-3.79564 1.13356,0 1.58054,0.14455 2.41949,0.78445 l 1.02888,0.78497 4.24212,-0.0703 c 2.33318,-0.0388 4.64102,-0.13998 5.12837,-0.22428 0.82863,-0.1433 0.87546,-0.20676 0.72709,-0.97875 -0.3412,-1.77538 -2.06318,-4.72451 -3.73466,-6.39599 -2.75958,-2.75958 -6.36756,-4.08748 -9.95081,-4.07882 z m -169.16642,0.008 c -1.34096,-1.3e-4 -2.68201,0.12576 -3.65146,0.37827 -6.32514,1.64749 -10.5517,7.09258 -10.5792,13.62914 -0.0183,4.33432 1.16801,7.25016 4.14652,10.19215 2.02206,1.99725 3.88484,3.06251 6.43733,3.68091 v -5.2e-4 c 2.06696,0.50089 5.44019,0.50378 7.36028,0.006 1.51416,-0.39239 5.14904,-2.31408 5.14904,-2.72231 0,-0.19277 -4.32718,-5.50588 -5.29374,-6.49986 -0.47952,-0.49313 -0.50509,-0.48869 -1.35547,0.22686 -0.76373,0.64261 -1.03375,0.71542 -2.27015,0.61288 -2.55777,-0.21211 -3.85897,-2.20598 -3.80597,-5.8322 0.0257,-1.76163 0.15028,-2.33596 0.74363,-3.42615 1.37145,-2.51981 4.08572,-3.05639 5.83013,-1.1529 1.41851,1.54786 1.23856,1.73994 -1.6278,1.73994 h -2.48771 l -0.29042,0.83303 c -0.32629,0.93596 -0.37089,2.13805 -0.12506,3.36723 l 0.16537,0.82683 h 7.77213 7.77214 v -2.2686 c 0,-6.29545 -4.12588,-11.6202 -10.23762,-13.21211 -0.97014,-0.25269 -2.31102,-0.37867 -3.65197,-0.37879 z m 101.71524,0.14418 c -1.08528,-0.012 -2.23958,0.28199 -3.26906,0.86299 -1.12475,0.63477 -1.47742,0.7385 -1.47742,0.4346 0,-0.34174 -0.7223,-0.39894 -5.02709,-0.39894 h -5.02708 v 13.62604 13.62604 h 5.02708 5.02709 v -7.4998 c 0,-8.4352 -0.13756,-7.85959 2.12131,-8.88421 1.40021,-0.63513 3.09278,-0.69922 4.36925,-0.16588 l 0.91777,0.38344 v -5.64307 -5.64307 l -0.82476,-0.34158 c -0.55956,-0.23178 -1.18593,-0.34936 -1.83709,-0.35656 z m -75.07191,0.41289 c -3.29124,0.15075 -6.53848,1.87454 -8.51162,4.98368 -1.57456,2.48107 -1.68153,3.25683 -1.78387,12.98783 -0.0514,4.88779 -0.0174,9.08474 0.0754,9.32657 h 5.2e-4 c 0.14904,0.38839 0.75208,0.43976 5.16764,0.43976 h 4.99867 l 0.001,-7.60677 c 8.7e-4,-4.51893 0.11478,-8.01475 0.2806,-8.61188 0.56361,-2.02961 2.63639,-1.84985 2.98483,0.2589 0.0918,0.55591 0.16802,4.37431 0.17002,8.48527 l 0.003,7.47448 5.09271,-5.1e-4 5.09323,-5.2e-4 0.002,-7.87084 c 0.001,-4.32902 0.0938,-8.2026 0.20567,-8.60774 0.28852,-1.04488 1.29067,-1.45346 2.16266,-0.88212 l 0.67231,0.44029 0.0331,8.0641 c 0.0182,4.43503 0.048,8.21242 0.0661,8.39432 0.0249,0.24923 1.28823,0.34846 5.1263,0.40256 l 5.09323,0.0718 v -9.12089 c 0,-9.93274 -0.11393,-11.02781 -1.3994,-13.46636 -0.98528,-1.8691 -2.40173,-3.15094 -4.67517,-4.23075 -1.47891,-0.70243 -2.01293,-0.81352 -3.96875,-0.82682 -2.76766,-0.0188 -4.19273,0.46468 -6.71431,2.27944 l -1.8092,1.30225 -1.18752,-1.09502 c -2.03331,-1.87424 -4.61955,-2.70831 -7.17941,-2.59106 z" /></g></svg>
