<?xml version="1.0" encoding="UTF-8" standalone="no"?>
<!-- Created with Inkscape (http://www.inkscape.org/) -->

<svg
   width="105.79463mm"
   height="105.77117mm"
   viewBox="0 0 105.79463 105.77117"
   version="1.1"
   id="svg3726"
   xml:space="preserve"
   xmlns="http://www.w3.org/2000/svg"
   xmlns:svg="http://www.w3.org/2000/svg"><defs
     id="defs3723" /><g
     id="layer1"
     transform="translate(-45.693236,-120.2972)"><path
       id="path3744"
       style="fill:#000000;stroke-width:0.264583"
       d="m 98.976805,120.29927 c -7.205637,-0.0625 -14.478265,1.345 -21.3434,4.3155 -16.072508,6.95446 -27.373342,20.89675 -31.032214,38.28655 -0.855185,4.06449 -1.168814,11.51337 -0.66921,15.89308 0.892825,7.82686 3.174586,14.74427 7.016109,21.27157 8.133477,13.81996 22.73575,23.59462 38.111886,25.51111 1.309686,0.16324 2.678907,0.34803 3.042708,0.41083 1.405455,0.24276 10.569586,-0.10627 12.832806,-0.48886 17.23091,-2.9129 31.55692,-13.55884 39.19761,-29.12794 8.29917,-16.91082 6.87214,-37.1094 -3.72845,-52.78127 -2.40164,-3.55057 -2.80683,-4.04191 -6.19498,-7.50601 -9.96471,-10.1881 -23.47665,-15.66525 -37.232865,-15.78456 z m -0.873848,1.42678 c 1.258852,-0.007 2.528353,0.0498 3.959453,0.16433 10.89132,0.87181 20.61476,4.68517 28.81787,11.30164 2.71451,2.18947 7.4826,7.18713 9.3307,9.78028 4.05253,5.68633 6.75917,11.63304 8.40827,18.47381 1.02431,4.24903 1.33826,7.08792 1.33326,12.05508 -0.0133,14.10598 -5.37333,26.64 -15.6714,36.64737 -8.8646,8.61437 -19.96147,13.55717 -32.33549,14.40222 -2.058031,0.14058 -3.920488,0.24008 -4.138769,0.22118 -0.218281,-0.0189 -1.654734,-0.12496 -3.19257,-0.23564 -22.634715,-1.62914 -41.916822,-18.61707 -46.429724,-40.90552 -3.496599,-17.26911 1.642103,-34.40094 14.035319,-46.79094 7.918135,-7.91608 17.934557,-12.93614 28.972392,-14.52004 2.742997,-0.39362 4.812602,-0.58214 6.910689,-0.59377 z m 0.753442,1.28985 c -0.487148,9.6e-4 -0.969631,0.011 -1.446423,0.0305 -10.556733,0.43103 -19.811976,3.57787 -28.506787,9.69243 -2.985001,2.09918 -8.205727,7.2431 -10.565764,10.41022 -4.662479,6.25696 -7.810743,13.59972 -9.263,21.60436 -0.808591,4.45684 -0.797652,12.06357 0.02429,16.77004 1.65543,9.47907 5.508096,17.5846 11.811165,24.84913 8.183133,9.43136 20.942106,15.88712 33.272905,16.83566 4.273593,0.32874 5.913025,0.30926 9.511045,-0.11162 9.56294,-1.11864 17.64556,-4.29026 25.10803,-9.85263 2.1888,-1.63148 6.76144,-6.05646 8.68681,-8.4062 9.08094,-11.08251 12.96427,-26.01562 10.45776,-40.21667 -2.75132,-15.588 -12.56031,-28.92624 -26.51518,-36.0562 -6.88137,-3.51588 -15.26763,-5.56346 -22.574849,-5.54901 z m -3.695381,2.57917 h 1.19941 c 2.50876,0 3.56309,0.95093 3.56309,3.21272 0,0.82041 -0.175312,1.23726 -0.77308,1.83503 -0.685116,0.68509 -0.956927,0.77308 -2.38125,0.77308 h -1.60817 v -2.91042 z m 6.847122,0.11989 c 0.70874,0.029 3.29599,0.39641 3.68712,0.54157 0.8632,0.32034 -0.10321,0.58859 -1.6676,0.46302 l -1.72289,-0.1385 v 0.79996 c 0,0.7665 0.0618,0.80944 1.46709,1.02836 1.91848,0.29887 1.76539,0.78487 -0.2098,0.66611 l -1.52188,-0.0915 v 0.91467 0.91467 l 1.6335,0.23513 c 0.89829,0.12945 1.68231,0.38396 1.74201,0.56586 0.0713,0.2173 -0.14884,0.31877 -0.64131,0.29507 -0.72089,-0.0346 -1.10299,-0.0835 -2.88716,-0.36949 l -0.81494,-0.13074 0.34107,-2.80809 c 0.18757,-1.5443 0.37524,-2.83861 0.41754,-2.87631 0.0127,-0.0113 0.076,-0.014 0.17725,-0.01 z m -6.053372,0.67386 v 2.25206 2.25206 l 1.124479,-0.16279 c 1.410785,-0.20467 2.050521,-0.90772 2.050521,-2.2536 0,-1.37998 -0.717308,-2.08773 -2.116667,-2.08773 z m -4.991427,0.0455 c 0.416473,-0.0329 0.98977,0.78774 1.985925,2.4412 0.780126,1.29489 1.418002,2.45575 1.418002,2.57969 0,0.51755 -0.712958,0.16848 -1.143083,-0.55966 -0.401209,-0.67917 -0.578842,-0.76553 -1.314132,-0.63872 -1.38901,0.23956 -1.479972,0.30369 -1.711006,1.19527 -0.21632,0.8348 -0.858863,1.38836 -0.858863,0.74001 0,-0.1797 0.259842,-1.56474 0.577226,-3.07733 0.369558,-1.76124 0.629458,-2.64759 1.045931,-2.68046 z m 0.124023,0.61599 -0.180867,0.79375 c -0.09939,0.43656 -0.194653,1.06404 -0.211873,1.39423 -0.02737,0.525 0.0598,0.57846 0.696081,0.42581 0.400182,-0.096 0.765824,-0.20571 0.812354,-0.24391 0.04653,-0.0382 -0.18563,-0.58701 -0.515731,-1.21957 z m 20.603396,0.48937 c 0.95944,-0.003 2.13521,0.62234 2.48408,1.38803 0.38687,0.84914 0.38087,0.90072 -0.10232,0.90072 -0.22188,0 -0.51538,-0.29448 -0.65215,-0.65422 -0.2717,-0.71466 -1.23393,-1.08183 -2.10737,-0.8046 -1.27697,0.40529 -1.86691,2.81378 -0.93999,3.838 0.58541,0.64687 1.63986,0.68724 2.30218,0.0879 0.39099,-0.35384 0.55608,-0.37697 0.81494,-0.11368 0.25703,0.26144 0.19456,0.43596 -0.30024,0.84025 -0.94962,0.77594 -2.30357,0.66628 -3.23236,-0.26251 -1.55579,-1.55579 -0.73764,-4.72314 1.3379,-5.17901 0.12519,-0.0275 0.25827,-0.0404 0.39533,-0.0408 z m -25.795327,0.12196 c 1.151291,0.0953 1.928049,1.15566 2.066024,2.81946 0.147537,1.77909 -0.205283,2.29152 -2.001945,2.9037 -0.666056,0.22695 -1.352477,0.41238 -1.524971,0.41238 -0.268822,0 -1.70894,-4.3834 -1.70894,-5.20175 0,-0.34639 2.251983,-1.00979 3.169832,-0.93379 z m -0.472839,0.68574 c -0.267519,-0.003 -0.562581,0.0423 -0.883667,0.1385 -0.560623,0.16796 -1.019576,0.34786 -1.019576,0.39946 0,0.18562 1.118597,3.72608 1.241785,3.93051 0.151854,0.25201 1.04995,0.008 1.867069,-0.50747 0.427681,-0.26971 0.595313,-0.62943 0.595313,-1.27796 0,-1.73536 -0.641677,-2.66911 -1.800924,-2.68304 z m 32.182536,1.48208 c 1.02853,10e-4 2.28337,0.86558 2.69285,1.85416 0.30076,0.72613 0.29742,1.02418 -0.0212,1.92546 -0.20733,0.58651 -0.67438,1.28023 -1.03818,1.54151 -2.26733,1.62836 -5.06322,-0.27659 -4.27364,-2.91197 0.3727,-1.24397 1.65116,-2.41016 2.64015,-2.40916 z m -39.903512,0.69867 c 0.197634,-0.0499 0.695393,0.70331 1.432988,2.17196 0.665545,1.32518 1.209745,2.53099 1.209745,2.67942 0,0.14843 -0.161597,0.26975 -0.359151,0.26975 -0.492524,0 -2.657295,-4.76189 -2.318722,-5.10046 0.01049,-0.0105 0.02197,-0.0173 0.03514,-0.0207 z m 40.226482,0.0858 c -0.78758,-0.0402 -1.60554,0.48564 -2.01951,1.4764 -0.51864,1.24127 -0.47354,1.63176 0.27492,2.38022 1.05765,1.05765 2.44205,0.76717 3.1843,-0.66818 0.5396,-1.04348 0.50292,-1.65448 -0.14883,-2.48305 -0.35676,-0.45355 -0.81833,-0.68127 -1.29088,-0.70539 z m -42.458904,0.93586 c 0.171148,0.0112 0.349437,0.25158 0.711585,0.82579 1.624064,2.57505 2.328671,4.02602 2.041736,4.20336 -0.161909,0.1001 -0.327537,0.13989 -0.367937,0.0889 -0.0404,-0.051 -0.578913,-0.92595 -1.196826,-1.94459 -0.617915,-1.01865 -1.061943,-1.55442 -0.986503,-1.19062 1.02482,4.94182 0.937183,5.11894 -1.508952,3.04374 -1.69951,-1.4418 -2.137488,-1.6057 -1.399397,-0.52297 0.195674,0.28704 0.68342,1.08749 1.083654,1.77871 0.552201,0.95366 0.633617,1.25677 0.337964,1.25677 -0.483927,0 -0.642777,-0.20261 -2.004012,-2.55954 -1.206413,-2.08884 -1.290301,-2.40943 -0.690397,-2.63963 0.253441,-0.0973 0.974081,0.32888 1.918229,1.13482 2.620763,2.23711 2.448962,2.27921 1.848983,-0.45114 -0.475763,-2.16508 -0.489005,-2.45707 -0.127124,-2.81895 0.135706,-0.1357 0.236309,-0.21139 0.338997,-0.20464 z m 6.890019,0.55759 c 0.07286,-0.005 0.130629,0.002 0.167948,0.0227 0.376344,0.21049 0.196513,0.52481 -0.475423,0.83096 -0.827095,0.37682 -1.442806,0.39547 -1.442806,0.0434 0,-0.26516 1.240258,-0.86352 1.750281,-0.8971 z m 40.880705,0.31161 c 0.0145,0.003 0.0271,0.01 0.0377,0.0202 0.18567,0.18567 -0.0751,0.84611 -0.82528,2.08773 -1.21966,2.01861 -1.30913,2.44587 -0.63406,3.02566 1.15735,0.994 1.6895,0.69028 3.49539,-1.99316 0.59665,-0.88659 0.94689,-1.19614 1.1374,-1.00563 0.32047,0.32047 -1.69953,3.60436 -2.47117,4.01733 -1.28345,0.68688 -3.4184,-0.49192 -3.4184,-1.88722 0,-0.84436 2.22978,-4.35545 2.67839,-4.26486 z m -24.603662,2.2779 c 2.773682,-0.002 5.544892,0.21264 7.555092,0.64337 3.61863,0.77537 6.79876,1.91821 10.08414,3.62407 3.84289,1.99533 6.48277,3.98524 9.7839,7.37474 6.86636,7.05018 10.34068,15.02041 11.05514,25.36021 l 0.17828,2.57969 -1.156,0.006 c -3.64673,0.0205 -17.26194,0.55538 -20.07319,0.78858 -7.51706,0.62357 -13.51266,1.62862 -16.801561,2.81688 -2.58705,0.93473 -2.651892,0.93574 -5.109765,0.0734 -5.267744,-1.84821 -14.341782,-3.01253 -25.714193,-3.29954 -3.128695,-0.079 -6.330883,-0.20855 -7.116362,-0.28835 l -1.428336,-0.14521 0.153996,-3.21738 c 0.469961,-9.81909 4.607449,-18.77868 11.870593,-25.70644 5.320061,-5.0744 11.598254,-8.3397 19.147668,-9.95805 2.020837,-0.43306 4.796918,-0.65048 7.570598,-0.65215 z m 30.000232,1.40405 c 0.0216,-0.002 0.0404,-4.2e-4 0.0563,0.006 0.39417,0.15124 0.39274,0.20592 -0.0915,4.30516 l -0.14056,1.19063 1.42679,-1.56631 c 0.9025,-0.99091 1.544,-1.49365 1.74666,-1.3684 0.22126,0.13674 -0.11187,0.69232 -1.07693,1.79524 -0.76852,0.8783 -1.64586,1.90029 -1.94976,2.2717 -0.4066,0.49695 -0.60683,0.58695 -0.75912,0.34055 -0.19859,-0.32133 0.006,-4.08033 0.28215,-5.17695 0.13771,-0.54717 -0.0558,-0.36485 -2.07119,1.95079 -0.49567,0.56953 -0.8685,0.80065 -1.03043,0.63872 -0.35448,-0.35449 2.9389,-4.31697 3.60753,-4.38681 z m -60.630921,0.65112 c 0.4502,0.0568 1.249814,0.48729 2.498556,1.20354 3.058559,1.75432 2.864312,1.60105 2.494421,1.97094 -0.222951,0.22295 -0.475541,0.18424 -0.98702,-0.15089 -0.798075,-0.52292 -1.406363,-0.3941 -2.216919,0.4687 -0.487358,0.51877 -0.536194,0.73212 -0.304891,1.34049 0.151302,0.39796 0.207964,0.83252 0.125574,0.96583 -0.346429,0.56054 -0.602576,0.0965 -1.411283,-2.55746 -0.728859,-2.39198 -0.948771,-3.33578 -0.198438,-3.24115 z m 0.244946,0.84594 c -0.07136,0.0265 -0.02672,0.17833 0.06718,0.47956 0.105342,0.33796 0.29144,0.88233 0.413928,1.20975 0.276034,0.73787 0.543863,0.74937 1.176672,0.0501 0.541777,-0.59866 0.520069,-0.62947 -1.030944,-1.46813 -0.368418,-0.1992 -0.555471,-0.29782 -0.626836,-0.2713 z m -3.748091,1.93425 c 0.267894,-0.02 0.882724,0.49921 1.994193,1.6738 0.995069,1.05158 1.847925,2.07729 1.894975,2.27893 0.196434,0.84186 -0.726673,0.2189 -2.438611,-1.64538 -1.280677,-1.39463 -1.740799,-2.06982 -1.544608,-2.26601 0.02452,-0.0245 0.05578,-0.0385 0.09405,-0.0413 z m 68.338466,0.47336 c 0.64338,0.0639 3.44298,2.92108 3.18895,3.33209 -0.1169,0.18914 -0.45265,0.0319 -0.95033,-0.44493 l -0.76946,-0.73742 -1.81488,1.80144 c -1.22057,1.21122 -1.87935,1.69632 -2.01176,1.48208 -0.12298,-0.19899 0.4629,-0.98358 1.56166,-2.09083 l 1.75907,-1.7725 -0.6718,-0.63149 c -0.47529,-0.44652 -0.58918,-0.71307 -0.38964,-0.91209 0.0222,-0.0221 0.0553,-0.0306 0.0982,-0.0264 z m -70.165745,1.21284 c 0.565659,0.0211 4.262333,3.60201 4.058667,3.93155 -0.119542,0.19342 -0.808522,-0.24351 -1.935282,-1.2268 l -1.749764,-1.52704 1.131714,2.06086 c 1.5458,2.81509 1.393501,3.02667 -1.349272,1.87482 l -2.198315,-0.92294 1.521354,1.54409 c 0.836743,0.84928 1.521354,1.62986 1.521354,1.73478 0,0.47408 -0.642512,0.064 -2.499072,-1.59422 -1.099144,-0.98172 -1.998845,-1.93793 -1.998845,-2.12494 0,-0.63275 0.79875,-0.65118 2.188497,-0.0506 0.761095,0.32889 1.772946,0.76186 2.248958,0.96221 l 0.865581,0.36432 -0.838192,-1.52704 c -0.460945,-0.83997 -1.007921,-1.80487 -1.215946,-2.14405 -0.414073,-0.67513 -0.285896,-1.37496 0.248563,-1.35496 z m 74.045095,2.63292 c 0.45516,0 0.4879,0.51688 0.11214,1.75545 -0.21484,0.70815 -0.39126,1.39186 -0.39326,1.5198 -0.002,0.1279 0.69733,0.15364 1.55287,0.0568 1.2106,-0.13696 1.58695,-0.094 1.69758,0.19431 0.11024,0.28726 -0.28291,0.4103 -1.7508,0.54673 -1.38169,0.12841 -2.14797,0.35224 -2.83652,0.82941 -1.01792,0.70542 -1.1328,0.74461 -1.39837,0.47904 -0.096,-0.096 0.28742,-0.60205 0.85163,-1.12448 0.77878,-0.72114 1.13719,-1.34804 1.48828,-2.60346 0.25435,-0.9095 0.5587,-1.65364 0.67645,-1.65364 z m -35.65261,3.33519 c -4.020141,-0.0168 -7.875997,1.54708 -10.933696,4.59352 l -1.984375,1.97714 3.175,0.28474 3.175,0.28525 1.54926,-0.9958 c 2.454452,-1.57799 4.179481,-2.12308 7.184061,-2.27015 4.25275,-0.20817 7.67954,0.95751 10.42572,3.54707 0.8133,0.76692 1.51596,1.39905 1.56166,1.40405 0.0457,0.005 -0.19067,-0.49619 -0.52555,-1.11466 -0.99071,-1.82961 -4.34272,-4.97183 -6.35,-5.95261 -2.39379,-1.16964 -4.86499,-1.74846 -7.27708,-1.75855 z m -43.018042,5.70457 c 0.721124,0.0198 1.087555,0.822 0.588594,1.42368 -0.410021,0.49429 -1.286209,0.49603 -1.475362,0.003 -0.2847,-0.74191 0.02471,-1.33727 0.73794,-1.42007 0.05108,-0.006 0.100744,-0.008 0.148828,-0.007 z m 81.032782,0.48524 c 0.33981,0 1.05833,0.78515 1.05833,1.15652 0,0.17878 -0.14319,0.46823 -0.31781,0.64285 -0.17463,0.17463 -0.46356,0.31729 -0.64234,0.31729 -0.37136,0 -1.15652,-0.71852 -1.15652,-1.05833 0,-0.29392 0.76442,-1.05833 1.05834,-1.05833 z m -52.832953,1.5875 c -5.036609,0.0228 -9.16421,0.51677 -11.13007,1.47691 -2.752223,1.3442 -1.934133,3.42583 2.061373,5.24464 1.660246,0.75576 5.388538,1.86596 7.132381,2.12339 1.125309,0.16613 1.096279,0.14099 -0.529167,-0.45321 -3.313627,-1.21133 -4.497916,-2.18029 -4.497916,-3.67988 0,-0.66528 0.171699,-0.84862 1.229899,-1.31671 1.259328,-0.55706 5.588578,-1.42753 5.841504,-1.17461 0.07736,0.0774 0.01242,0.65135 -0.144178,1.27538 -0.52262,2.08264 -0.417571,5.70814 0.220659,7.61659 1.089731,3.25853 3.301996,6.14889 6.201172,8.10131 1.737718,1.1703 2.068749,1.13406 0.892968,-0.0977 -2.757191,-2.88838 -3.786529,-5.47141 -3.769279,-9.45885 0.01217,-2.81602 0.383402,-4.30385 1.601453,-6.41615 l 0.648539,-1.12448 2.171444,5.2e-4 c 6.266761,6.3e-4 16.490181,1.61481 22.418791,3.53984 1.52448,0.49501 2.8131,0.86152 2.8639,0.81442 0.12597,-0.11668 -2.28109,-1.32344 -3.98942,-1.99988 -2.0652,-0.81775 -8.86314,-2.4956 -12.63954,-3.11971 -5.602598,-0.92592 -11.547904,-1.37463 -16.584513,-1.35185 z m 26.810253,7.82536 c -1.28622,0.0119 -2.45849,0.12665 -3.33882,0.35192 -4.29148,1.09812 -7.52348,3.60001 -10.115142,7.83001 -0.637304,1.04018 -2.592607,5.4229 -2.592607,5.81153 0,0.10915 0.715936,-0.46404 1.5906,-1.27382 6.316839,-5.84828 14.305369,-8.59684 22.816699,-7.85069 4.58136,0.40162 8.0624,1.20261 11.64373,2.67943 1.02162,0.42129 1.93042,0.76316 2.01952,0.76016 0.28157,-0.01 -3.45326,-2.36392 -5.69371,-3.58893 -3.03759,-1.66086 -6.69609,-3.14277 -9.76685,-3.95532 -1.9584,-0.51821 -4.41973,-0.78409 -6.56342,-0.76429 z m 4.82037,7.88737 c -3.25446,-0.003 -6.39129,0.20597 -8.32559,0.62942 -4.56336,0.999 -8.12494,2.57661 -11.255123,4.98523 l -1.529105,1.17667 -2.193665,-1.18339 c -2.578396,-1.39073 -6.160434,-2.6348 -9.706901,-3.37189 -3.91003,-0.81266 -12.687773,-0.97469 -17.451131,-0.32194 -1.985682,0.27211 -3.193913,0.5218 -2.684591,0.555 0.509323,0.0332 3.604951,0.18148 6.879167,0.3297 10.399727,0.47078 18.104405,1.76505 23.415625,3.93361 1.628574,0.66495 1.801076,0.64533 6.217704,-0.71365 11.16833,-3.43644 22.87351,-4.86709 31.61771,-3.86437 1.90298,0.21822 -2.44448,-0.88241 -5.95261,-1.50688 -2.40451,-0.42799 -5.77702,-0.64409 -9.03149,-0.64751 z m 19.38435,4.32325 -0.17518,1.68982 c -0.49397,4.76326 -1.76179,9.09417 -4.00079,13.66584 -5.30686,10.83569 -14.98087,18.23303 -27.07949,20.70726 -2.67372,0.54676 -8.627362,0.89201 -10.847912,0.6289 -6.397341,-0.75802 -11.303578,-2.349 -16.271875,-5.2772 -10.3509,-6.10057 -17.344782,-17.01048 -18.778182,-29.29175 -0.161902,-1.38716 -0.132578,-1.52135 0.332279,-1.52135 0.560789,0 12.806178,1.30043 27.133228,2.88148 l 9.216491,1.01699 7.849131,-0.88832 c 4.31711,-0.48863 12.85028,-1.42622 18.96215,-2.08359 6.11187,-0.65737 11.68562,-1.27008 12.38633,-1.36168 z m -65.803218,8.30441 c -0.03617,-0.003 -0.07958,0.003 -0.129191,0.0196 -0.190996,0.0637 -0.399351,0.27202 -0.463021,0.46302 -0.06615,0.19841 0.03307,0.29762 0.231511,0.23152 0.190996,-0.0637 0.399351,-0.27204 0.463021,-0.46303 0.04961,-0.1488 0.0062,-0.24183 -0.10232,-0.25114 z m 5.667871,0.0382 c -0.162837,0.0233 -0.346115,0.16605 -0.427881,0.41134 -0.0576,0.17281 0.08378,0.31419 0.314193,0.31419 0.230407,0 0.418579,-0.18816 0.418579,-0.41857 0,-0.23362 -0.142053,-0.33023 -0.304891,-0.30696 z m 40.412517,0.72553 c -0.20288,0 -0.43715,0.40535 -0.53485,0.92605 -0.19122,1.01928 -0.22744,1.04481 -0.94568,0.66042 -1.71788,-0.91939 -3.57168,2.96162 -1.89497,3.9672 0.24329,0.14591 0.68048,0.19871 0.97152,0.11731 0.29104,-0.0814 0.76276,-0.17021 1.04851,-0.19741 0.41969,-0.04 0.60618,-0.43098 0.971,-2.03398 0.76916,-3.37978 0.77609,-3.43959 0.38447,-3.43959 z m -9.27488,0.10284 c -0.0599,-3e-5 -0.14751,0.0573 -0.27337,0.16175 -0.21828,0.18116 -0.39688,0.48069 -0.39688,0.66559 0,0.18489 -0.20469,0.41488 -0.45527,0.51108 -0.35687,0.13695 -0.38001,0.22161 -0.10645,0.39067 0.28236,0.17449 0.2902,0.50051 0.0408,1.70171 -0.1697,0.81725 -0.23383,1.60679 -0.14263,1.75441 0.2148,0.34684 1.19269,0.34977 1.19269,0.004 0,-0.14552 -0.13251,-0.26458 -0.29455,-0.26458 -0.20041,0 -0.23604,-0.39114 -0.11111,-1.22422 0.24102,-1.60721 0.38741,-1.95078 0.83096,-1.95078 0.20271,0 0.36845,-0.11907 0.36845,-0.26459 0,-0.14552 -0.11906,-0.26458 -0.26458,-0.26458 -0.14552,0 -0.26459,-0.31188 -0.26459,-0.6935 0,-0.36672 -0.0236,-0.52653 -0.1235,-0.52658 z m 20.42666,0.21084 c -0.0522,-0.002 -0.14692,0.0662 -0.29249,0.18707 -0.23721,0.19687 -0.43098,0.51629 -0.43098,0.70952 0,0.19323 -0.19401,0.4596 -0.43098,0.59221 -0.25194,0.14097 -0.32082,0.30934 -0.16589,0.40514 0.17338,0.10715 0.14094,0.69126 -0.0935,1.68982 -0.32335,1.37704 -0.31498,1.5589 0.0842,1.85725 0.52859,0.39503 0.78627,0.41671 0.99271,0.0827 0.0844,-0.13658 -0.031,-0.35162 -0.25683,-0.478 -0.35035,-0.19607 -0.36771,-0.43167 -0.11628,-1.60404 0.18671,-0.8706 0.43215,-1.37408 0.66973,-1.37408 0.20623,0 0.37517,-0.11906 0.37517,-0.26458 0,-0.14552 -0.12869,-0.26458 -0.28577,-0.26458 -0.1842,0 -0.21926,-0.30344 -0.0982,-0.85473 0.1056,-0.48083 0.13614,-0.68018 0.0491,-0.68368 z m -61.261379,0.30851 c -0.31006,0.0115 -0.638056,0.20171 -1.106909,0.62063 -0.682425,0.60975 -0.850078,0.96354 -0.850078,1.79317 0,1.2352 0.625726,1.82853 1.706356,1.61748 0.7818,-0.15269 0.987379,0.27301 0.410311,0.85007 -0.385126,0.3851 -1.441052,0.41843 -1.667082,0.0527 -0.249199,-0.40322 -0.661458,-0.31518 -0.661458,0.14108 0,0.22298 0.267892,0.51208 0.595312,0.64234 0.68738,0.27344 1.466886,0.11199 2.088245,-0.43253 0.32685,-0.28643 1.549776,-4.18747 1.549776,-4.94337 0,-0.0626 -0.267891,-0.11314 -0.595312,-0.11214 -0.327422,0.001 -0.849701,-0.0811 -1.160653,-0.18293 -0.103932,-0.0341 -0.205155,-0.0503 -0.308508,-0.0465 z m 11.134204,0.15658 c -0.190936,0.0317 -0.412822,0.57341 -0.606165,1.53634 -0.168008,0.83675 -0.372072,1.8049 -0.453202,2.15129 -0.292593,1.24927 0.557309,0.41625 0.884701,-0.86713 0.369435,-1.44818 1.011573,-2.27635 1.765266,-2.27635 0.468959,0 0.507213,0.12548 0.361219,1.19063 -0.08974,0.65474 -0.241864,1.50382 -0.337964,1.8867 -0.132284,0.52706 -0.08541,0.66621 0.19327,0.57361 0.203351,-0.0676 0.528902,-0.8648 0.727604,-1.7818 0.321001,-1.48142 0.314228,-1.70581 -0.06666,-2.0867 -0.361952,-0.36195 -0.557171,-0.37762 -1.285193,-0.10283 -0.553418,0.20895 -0.889989,0.2296 -0.947229,0.0579 -0.06829,-0.20486 -0.148855,-0.29602 -0.235644,-0.28163 z m -7.629509,0.015 c -0.192826,0 -0.464965,0.59351 -0.634586,1.38442 -0.163303,0.76146 -0.364708,1.65442 -0.447518,1.98437 -0.102777,0.40949 -0.03319,0.59996 0.219625,0.59996 0.247669,0 0.507698,-0.65743 0.784965,-1.98437 0.327748,-1.56855 0.34432,-1.98438 0.07751,-1.98438 z m 1.371493,0 c -0.26341,0 -0.285516,0.39108 -0.100252,1.78594 0.130464,0.98227 0.288553,1.94489 0.350883,2.13889 0.207977,0.64731 0.764129,0.1531 1.898592,-1.68569 1.164613,-1.88764 1.301711,-2.23914 0.870748,-2.23914 -0.139817,0 -0.645833,0.713 -1.12448,1.5844 -0.478647,0.8714 -0.944222,1.5855 -1.034562,1.5875 -0.09034,0.002 -0.245385,-0.71128 -0.344165,-1.5844 -0.114956,-1.01607 -0.300901,-1.5875 -0.516764,-1.5875 z m 4.511869,0 c -0.223448,0 -0.484785,0.57657 -0.689363,1.52136 -0.181181,0.83675 -0.395667,1.8049 -0.476457,2.15129 -0.10737,0.46039 -0.04788,0.59676 0.220142,0.50746 0.201669,-0.0672 0.503814,-0.74113 0.671793,-1.49758 0.167981,-0.75645 0.379519,-1.66935 0.469739,-2.02882 0.114213,-0.45506 0.05467,-0.65371 -0.195854,-0.65371 z m 7.184058,0.14522 c -0.623649,0.0293 -1.285388,0.52628 -1.662431,1.32084 -0.517656,1.09087 -0.513826,1.44209 0.02274,2.20814 0.352575,0.50338 0.596093,0.59027 1.322916,0.47232 0.97751,-0.15863 1.017915,-0.11649 0.6165,0.63355 -0.304972,0.56985 -1.303178,0.68069 -1.785421,0.19844 -0.390037,-0.39003 -0.705223,-0.11359 -0.49506,0.43408 0.2043,0.53238 2.11081,0.55002 2.636532,0.0243 0.211285,-0.21128 0.587589,-1.25308 0.836641,-2.3151 0.249053,-1.06202 0.513305,-2.15098 0.587044,-2.42001 0.108143,-0.39447 0.02846,-0.45585 -0.411344,-0.31626 -0.29991,0.0952 -0.780965,0.0468 -1.069185,-0.10749 -0.187517,-0.10035 -0.391047,-0.14257 -0.59893,-0.1328 z m 15.051794,0.0703 c -0.203339,-0.0591 -0.772963,1.19503 -1.062984,2.49648 -0.516437,2.31748 0.01186,2.46318 0.680579,0.18759 0.258272,-0.87887 0.61546,-1.64167 0.79375,-1.69447 1.208265,-0.35815 1.328715,-0.43862 1.058335,-0.709 -0.19751,-0.19749 -0.44549,-0.19208 -0.838194,0.0181 -0.428759,0.22944 -0.557588,0.22217 -0.557588,-0.032 0,-0.16908 -0.02697,-0.25301 -0.0739,-0.26665 z m -8.17056,0.0672 c -0.19324,0.006 -0.398287,0.0353 -0.613916,0.0894 -1.250131,0.31377 -1.909162,2.66203 -1.02216,3.64216 0.934904,1.03306 2.736553,0.36918 3.254065,-1.19889 0.492461,-1.49218 -0.265312,-2.57526 -1.617989,-2.53267 z m 3.558955,0.01 c -0.02785,0.003 -0.05914,0.0104 -0.09457,0.0222 -0.516316,0.17211 -1.13489,3.35416 -0.743624,3.82561 0.354003,0.42656 1.130575,0.46184 1.837097,0.0837 0.352776,-0.1888 0.511597,-0.1888 0.511597,0 0,0.15064 0.109538,0.27388 0.243396,0.27388 0.278645,0 1.178053,-3.694 0.953947,-3.91811 -0.24126,-0.24126 -0.558815,0.27596 -0.895036,1.45883 -0.369742,1.30079 -0.916762,1.93011 -1.678451,1.93011 -0.576034,0 -0.585034,-0.43783 -0.05891,-2.87941 0.131841,-0.61186 0.11948,-0.81813 -0.07545,-0.79685 z m -27.041243,0.0574 c 0.129375,-0.003 0.269015,0.0525 0.45682,0.15297 0.746042,0.39927 0.77222,1.68448 0.04909,2.4076 -1.415348,1.41535 -2.572298,-0.45583 -1.239717,-2.00504 0.331389,-0.38527 0.51818,-0.55099 0.733805,-0.55553 z m 42.632538,0.17622 c -0.14894,0.0182 -0.37832,0.46932 -0.56482,1.33894 -0.32732,1.52627 -0.3653,2.46605 -0.11007,2.72128 0.28678,0.28678 1.62892,0.20132 1.82521,-0.11627 0.12625,-0.20432 0.24771,-0.18533 0.40153,0.0636 0.35124,0.56833 0.66957,0.001 1.09709,-1.95389 0.3061,-1.39991 0.31884,-1.78594 0.0589,-1.78594 -0.18238,0 -0.47171,0.58565 -0.64337,1.30122 -0.34356,1.4321 -1.0273,2.23767 -1.77147,2.08721 -0.51387,-0.1039 -0.53355,-0.32862 -0.21033,-2.39624 0.13496,-0.8633 0.0663,-1.27809 -0.0827,-1.25987 z m -5.40484,0.0429 c -0.35782,10e-4 -0.69117,0.0761 -0.8878,0.23926 -0.69786,0.57917 -0.45253,1.44041 0.54622,1.91668 0.91082,0.43433 1.19615,1.04574 0.64647,1.38545 -0.44601,0.27566 -1.57199,-0.11382 -1.57199,-0.54364 0,-0.21551 -0.17911,-0.39171 -0.39739,-0.39171 -0.54968,0 -0.49592,0.43013 0.13229,1.05834 0.63435,0.63434 1.52077,0.6791 2.32285,0.1173 0.84747,-0.59359 0.72909,-1.08276 -0.45992,-1.90582 -0.57611,-0.3988 -1.01246,-0.84409 -0.96996,-0.98961 0.13656,-0.4679 0.98359,-0.45674 1.50998,0.0196 0.59811,0.54105 1.0136,0.29137 0.6041,-0.36277 -0.21384,-0.3416 -0.87848,-0.54498 -1.47485,-0.54312 z m -20.551713,0.0439 c 0.132145,0.001 0.277938,0.0629 0.480074,0.17105 0.511622,0.27381 0.584902,0.47351 0.458886,1.25005 -0.08247,0.50822 -0.289022,1.09178 -0.459403,1.29708 -0.379127,0.45685 -1.088015,0.48295 -1.515153,0.0558 -0.498666,-0.49866 -0.373731,-1.43999 0.294556,-2.21692 0.338828,-0.39391 0.520797,-0.55915 0.74104,-0.55707 z m 36.095473,0.16846 c -0.51747,0.0165 -1.0653,0.24795 -1.4795,0.68885 -0.81719,0.86986 -0.88763,2.63013 -0.12764,3.18585 0.71936,0.52601 1.54422,0.46055 2.36885,-0.1881 0.94952,-0.7469 0.64831,-0.97065 -0.48524,-0.36019 -0.75653,0.40742 -0.97663,0.43131 -1.32447,0.14263 -0.78926,-0.65503 -0.4954,-1.07539 0.75189,-1.07539 2.02663,0 2.4868,-0.51809 1.5937,-1.79317 -0.29306,-0.41841 -0.78012,-0.61693 -1.29759,-0.60048 z m 3.36878,0.009 c -0.20195,0.0407 -0.44314,0.661 -0.71158,1.84124 -0.22994,1.01098 -0.41806,1.96349 -0.41806,2.11666 0,0.15317 0.11027,0.27854 0.24546,0.27854 0.1352,0 0.43627,-0.65415 0.66869,-1.45366 0.28072,-0.96563 0.64657,-1.60057 1.09038,-1.89136 1.04603,-0.68539 1.33246,-0.17894 0.92604,1.63711 -0.30788,1.37576 -0.25063,2.02623 0.14366,1.63194 0.0903,-0.0903 0.32207,-0.84399 0.51521,-1.67483 0.50731,-2.182 -0.0553,-2.97649 -1.54409,-2.17971 -0.42411,0.22698 -0.59041,0.22698 -0.66611,0 -0.0743,-0.22294 -0.1578,-0.32442 -0.2496,-0.30593 z m -32.651749,0.0129 c 0.947526,-0.0666 1.504588,1.69729 0.58136,2.62051 -0.758174,0.75817 -1.557841,0.69809 -1.876888,-0.14107 -0.297257,-0.78184 0.102408,-1.85511 0.86868,-2.33113 0.148141,-0.092 0.291487,-0.13879 0.426848,-0.14831 z m 40.435779,0.0186 c -0.26734,-0.0138 -0.53566,0.11631 -0.91778,0.38395 -0.87007,0.60941 -0.73744,1.36964 0.35089,2.01177 1.03876,0.61289 1.1369,1.36101 0.19585,1.49551 -0.36272,0.0519 -0.70764,-0.12157 -0.92088,-0.46302 -0.44735,-0.71668 -1.00167,-0.71287 -0.8139,0.005 0.0793,0.30318 0.39553,0.65255 0.7028,0.7767 v 5.1e-4 c 0.87555,0.35377 1.53415,0.29697 2.05931,-0.17828 0.77284,-0.69941 0.58155,-1.34631 -0.62322,-2.10685 -1.0378,-0.65513 -1.07618,-0.72111 -0.61288,-1.05988 0.42178,-0.30843 0.58754,-0.30025 1.13016,0.0553 0.85333,0.55913 1.15028,0.19652 0.36225,-0.44235 -0.37859,-0.30693 -0.64527,-0.46472 -0.9126,-0.47852 z m -15.67915,0.33021 c 0.0639,0.003 0.12811,0.0154 0.19172,0.0398 0.92551,0.35516 0.7026,2.50156 -0.31626,3.04684 -0.60709,0.32491 -0.61164,0.32474 -0.99477,-0.0584 -0.77487,-0.77486 0.16072,-3.06661 1.11931,-3.02824 z m 4.35994,0.20257 c 0.48296,-0.027 0.96845,0.23004 1.03456,0.69557 0.0706,0.49735 -0.0383,0.59417 -0.66146,0.59117 -0.41031,-0.002 -0.91711,-0.11223 -1.12603,-0.24443 -0.32011,-0.20259 -0.32329,-0.308 -0.0222,-0.67076 0.19671,-0.23701 0.48537,-0.35536 0.77515,-0.37155 z m -33.521985,5.25963 c -0.151995,0 -0.530714,1.10133 -0.841292,2.44739 -0.310581,1.34606 -0.6261,2.65576 -0.70125,2.91042 -0.08299,0.28122 0.0049,0.46302 0.223759,0.46302 0.217236,0 0.513048,-0.60109 0.745174,-1.5136 0.297539,-1.16965 0.551965,-1.60566 1.119312,-1.91823 0.610068,-0.3361 0.772095,-0.34391 0.958081,-0.047 0.197181,0.31476 0.0251,1.62312 -0.396875,3.01584 -0.0869,0.28681 1.95e-4,0.46302 0.228927,0.46302 0.350728,0 0.989087,-2.04133 0.989087,-3.1626 0,-0.81766 -0.722891,-1.21297 -1.607654,-0.87901 l -0.772046,0.29145 0.165364,-1.03559 c 0.103738,-0.64874 0.06261,-1.03508 -0.110587,-1.03508 z m -2.176611,0.27388 c -0.14326,-0.006 -0.353367,0.20044 -0.514698,0.62477 -0.132514,0.34853 -0.397287,0.6967 -0.588594,0.7736 -0.260844,0.10491 -0.270154,0.19542 -0.03721,0.36173 0.236253,0.16867 0.222695,0.59871 -0.05581,1.79679 -0.284599,1.22433 -0.294809,1.62057 -0.04599,1.7787 0.445487,0.28315 0.919841,0.26033 1.113627,-0.0532 0.08994,-0.14552 -0.03486,-0.26459 -0.277502,-0.26459 -0.323472,0 -0.402956,-0.15882 -0.298173,-0.59531 0.0786,-0.32742 0.224088,-1.04179 0.322977,-1.5875 0.105813,-0.5839 0.330507,-0.99219 0.546737,-0.99219 0.202086,0 0.36742,-0.11906 0.36742,-0.26458 0,-0.14552 -0.131708,-0.26458 -0.293006,-0.26458 -0.180701,0 -0.229415,-0.25389 -0.127124,-0.66146 0.107103,-0.42671 0.0306,-0.64583 -0.112654,-0.65216 z m 30.998626,0.2465 c -0.23956,-0.0529 -0.54099,0.44616 -0.67696,1.17099 -0.16236,0.86544 -0.20101,0.89151 -0.91726,0.62115 -0.97442,-0.3678 -1.49771,-0.14365 -2.14612,0.91984 -0.63735,1.04535 -0.66999,1.74344 -0.11937,2.52956 0.43366,0.61915 1.54462,0.79643 1.85415,0.29559 0.12669,-0.20496 0.24643,-0.18752 0.39842,0.0584 0.11942,0.19323 0.29982,0.26863 0.40101,0.16744 0.22537,-0.22537 1.44582,-5.56409 1.30431,-5.7056 -0.031,-0.031 -0.064,-0.0498 -0.0982,-0.0574 z m -4.61057,0.009 c -0.22495,0 -0.55551,0.91687 -0.93121,2.58279 -0.32031,1.42032 -0.58188,2.73001 -0.58188,2.91042 0,0.62726 0.51976,0.32304 0.68368,-0.39998 0.0907,-0.40019 0.31906,-1.38244 0.50695,-2.18281 0.69006,-2.93941 0.68646,-2.91042 0.32246,-2.91042 z m -19.031916,1.23507 c -1.736713,0 -2.753027,2.57068 -1.508435,3.81527 0.641126,0.64113 1.642846,0.52072 2.475818,-0.29714 0.733644,-0.72034 0.312107,-0.95227 -0.52865,-0.29094 -0.541258,0.42575 -0.819297,0.49146 -1.204578,0.28526 -0.27549,-0.14743 -0.501261,-0.31379 -0.501261,-0.36949 0,-0.0557 -0.07187,-0.28968 -0.160197,-0.51986 -0.135642,-0.35352 0.09051,-0.41858 1.455208,-0.41858 1.603666,0 1.615405,-0.006 1.615405,-0.7612 0,-0.94313 -0.569534,-1.44332 -1.64331,-1.44332 z m 5.225521,0.0878 c -0.315578,0 -0.360309,0.32933 -0.242363,1.78594 0.07954,0.98227 0.190557,1.93477 0.246497,2.11667 0.206268,0.6707 0.658694,0.29245 1.424202,-1.19063 0.648514,-1.25642 0.787384,-1.4004 0.797884,-0.82682 0.02238,1.22116 0.3338,2.34817 0.649056,2.34817 0.168182,0 0.748619,-0.8947 1.289839,-1.9885 1.08398,-2.19069 1.10135,-2.24483 0.71676,-2.24483 -0.1471,0 -0.59316,0.66437 -0.99116,1.47588 -0.64495,1.31503 -0.74225,1.40853 -0.896583,0.8599 -0.09524,-0.33856 -0.184971,-1.00294 -0.199471,-1.47588 -0.04053,-1.32158 -0.671712,-1.05157 -1.382861,0.59118 -0.345403,0.79787 -0.717683,1.4532 -0.826823,1.4552 -0.109138,0.002 -0.198438,-0.6507 -0.198438,-1.45107 0,-1.10049 -0.09394,-1.45521 -0.386539,-1.45521 z m 7.570085,0.0636 c -2.06058,-0.0816 -3.3167,3.10332 -1.35806,4.09433 0.83653,0.42325 0.77174,0.4298 1.76733,-0.17725 1.46723,-0.89464 1.47592,-3.48839 0.0129,-3.85558 -0.14381,-0.0361 -0.28482,-0.0561 -0.42219,-0.0615 z m -12.643678,0.20102 c 0.228428,0 0.962216,0.82176 0.962216,1.07746 0,0.13512 -0.531564,0.24546 -1.18184,0.24546 -0.951804,0 -1.152201,-0.0787 -1.027328,-0.40411 0.137837,-0.3592 0.897155,-0.91881 1.246952,-0.91881 z m 15.811438,0 c -0.21055,0 -1.09037,2.99733 -1.09037,3.71451 0,0.75708 0.64188,-0.0325 0.92139,-1.13327 0.36727,-1.44644 0.80741,-2.05207 1.4919,-2.05207 0.27322,0 0.49712,-0.11906 0.49712,-0.26458 0,-0.36848 -0.88573,-0.33126 -1.2702,0.0532 -0.247,0.24694 -0.3173,0.24694 -0.3173,0 0,-0.17463 -0.10471,-0.31781 -0.23254,-0.31781 z m -3.3693,0.31471 c 0.12211,-0.007 0.23904,0.0345 0.37207,0.11783 0.7122,0.44582 0.72734,1.89405 0.0274,2.63911 -0.66745,0.71047 -0.71643,0.72287 -1.36219,0.34675 -0.71748,-0.4179 -0.60136,-1.87297 0.21032,-2.6355 0.33093,-0.31089 0.54888,-0.45677 0.75241,-0.46819 z m 8.8992,0.21446 c 1.03691,0 1.22756,1.65442 0.31264,2.71198 -0.49888,0.57665 -1.26798,0.5997 -1.48105,0.0444 -0.44979,-1.17212 0.22196,-2.75642 1.16841,-2.75642 z m -46.553752,5.42396 1.445906,1.4981 c 1.681651,1.74264 1.885502,2.71629 0.796334,3.80545 -1.000266,1.00027 -1.844319,0.81812 -3.518648,-0.76068 l -0.860929,-0.81183 -1.014926,0.99115 c -0.795532,0.77682 -1.075037,0.91682 -1.292427,0.64802 -0.209389,-0.2589 0.301519,-0.95894 2.08411,-2.85667 z m 0.0925,1.45521 c -0.18099,0 -0.651723,0.38407 -1.046448,0.85318 l -0.717786,0.85266 1.00304,0.86713 c 0.551554,0.47678 1.212242,0.86661 1.468644,0.86661 0.503646,0 1.297595,-0.66835 1.297595,-1.09244 0,-0.42118 -1.645188,-2.34714 -2.005045,-2.34714 z m 64.337672,0.0424 c 0.25995,-0.0165 0.52521,0.005 0.78962,0.0713 0.99416,0.24952 0.62887,0.81235 -0.5271,0.81235 -1.27154,0 -2.44052,1.17127 -1.99678,2.00039 0.34603,0.64657 0.68144,0.64426 1.97146,-0.0134 1.66795,-0.85037 2.64206,-0.93705 3.28714,-0.29197 1.05277,1.05276 0.62595,2.72447 -0.96325,3.77238 -0.89201,0.58817 -2.2676,0.62995 -2.7218,0.0827 -0.47496,-0.5723 -0.14681,-0.77073 1.14308,-0.69143 0.90172,0.0555 1.24055,-0.0585 1.73323,-0.58291 0.74611,-0.79419 0.68734,-1.85858 -0.10904,-1.97249 -0.3001,-0.0429 -1.11393,0.16543 -1.80816,0.46302 -1.72759,0.74053 -2.68586,0.70546 -3.22564,-0.11834 -0.94374,-1.44034 0.60762,-3.41583 2.42724,-3.53157 z m -60.03716,2.86804 c 0.630189,0 0.371386,0.64038 -0.856278,2.11874 -0.663785,0.79933 -1.385744,1.78963 -1.604553,2.2009 -0.357282,0.67153 -0.354476,0.81472 0.02997,1.40146 0.235448,0.35934 0.714907,0.78357 1.065051,0.9431 0.855103,0.38961 1.506374,-0.0585 3.301608,-2.27118 1.098416,-1.35382 1.489534,-1.67528 1.762166,-1.44901 0.425055,0.35276 0.04743,0.93545 -2.077393,3.20756 -1.250479,1.33716 -1.544457,1.52135 -2.430859,1.52135 -0.794149,0 -1.200032,-0.19131 -1.908411,-0.89969 -0.952713,-0.9527 -1.138913,-1.8515 -0.597896,-2.88767 0.557873,-1.06847 2.962453,-3.88556 3.316593,-3.88556 z m 52.91202,2.07998 c 0.34106,-0.0287 1.1618,0.78147 2.26859,2.2748 0.91223,1.23081 1.73081,2.24296 1.81901,2.24896 0.0882,0.006 0.72382,-0.41895 1.41232,-0.94465 0.95297,-0.72768 1.32491,-0.88247 1.55908,-0.64751 0.23392,0.23473 0.14955,0.43059 -0.35347,0.81753 -0.36381,0.27984 -1.1614,0.87135 -1.77198,1.31464 l -1.11001,0.80616 -1.99885,-2.63912 c -1.09928,-1.45157 -1.99833,-2.76407 -1.99833,-2.91662 0,-0.20164 0.06,-0.30462 0.17364,-0.31419 z m -48.156238,1.54874 1.477946,0.94568 c 0.812832,0.51996 1.55885,1.20037 1.65778,1.51205 0.274701,0.8655 -0.07622,1.83716 -0.77928,2.1575 -0.530413,0.24167 -0.609551,0.42722 -0.49196,1.15186 0.105757,0.6517 0.0026,1.00094 -0.419096,1.42266 -0.307421,0.30742 -0.886561,0.5559 -1.286743,0.5519 -0.807346,-0.008 -3.770312,-1.51122 -3.770312,-1.91306 0,-0.303 2.436146,-4.37711 3.129008,-5.23276 z m 46.139308,0.1602 c 3.02428,-0.15277 5.12143,4.42437 2.43292,6.53914 -0.70028,0.55085 -2.36746,0.67661 -3.40651,0.25734 -0.31212,-0.12594 -0.90744,-0.67431 -1.32291,-1.21904 -1.4758,-1.93487 -0.82755,-4.54821 1.33221,-5.37022 0.32843,-0.125 0.65143,-0.19142 0.96429,-0.20722 z m -46.024069,0.95705 -0.408244,0.7891 c -0.534775,1.03414 -0.543321,1.00436 0.451652,1.61747 0.985267,0.60715 1.740573,0.58601 2.145089,-0.0594 0.328683,-0.52444 -0.118044,-1.12754 -1.388546,-1.87585 z m 45.964639,0.0284 c -1.09578,0.0645 -2.06603,0.85994 -2.06603,2.00505 0,1.10567 0.57452,2.29781 1.37977,2.86184 1.22173,0.85573 3.12511,0.15097 3.48712,-1.2914 0.21831,-0.86982 -0.51812,-2.65664 -1.30845,-3.17448 -0.47062,-0.30837 -0.99433,-0.43033 -1.49241,-0.40101 z m -41.306009,1.88516 c 0.08775,-0.001 0.255552,0.0386 0.430982,0.10593 0.363116,0.13934 0.26935,0.47342 -0.641305,2.28462 -1.778459,3.53717 -1.772307,3.28722 -0.09715,4.10879 0.799573,0.39215 1.415086,0.82884 1.367876,0.97048 -0.04721,0.14164 -0.197922,0.2873 -0.334347,0.3235 -0.439332,0.11666 -3.555338,-1.58898 -3.555338,-1.94614 0,-0.26944 2.494448,-5.51976 2.77089,-5.8322 0.0088,-0.01 0.02914,-0.0146 0.05839,-0.015 z m 35.283119,0.4842 c 3.3239,0 4.70689,5.01113 1.84898,6.69934 -1.52485,0.90075 -3.66494,0.23162 -4.55269,-1.42369 -0.59212,-1.10414 -0.62802,-3.09907 -0.0703,-3.89537 0.54873,-0.78341 1.74812,-1.38028 2.77399,-1.38028 z m -41.283786,0.32195 c -0.171534,-0.0114 -0.271005,0.11246 -0.45682,0.36122 -1.038676,1.39052 -1.026084,1.42736 0.850078,2.45153 0.753281,0.4112 1.046989,0.37349 1.567863,-0.20206 0.593515,-0.65584 0.253729,-1.34004 -1.072286,-2.15956 -0.473701,-0.29276 -0.717301,-0.43968 -0.888835,-0.45113 z m 40.974246,0.4718 c -0.78223,0 -2.0836,1.40878 -2.0836,2.25516 0,1.04523 0.76569,2.47422 1.55598,2.9037 1.06657,0.57961 1.85152,0.4703 2.69751,-0.37568 0.91174,-0.91174 0.96375,-1.57671 0.2403,-3.07114 -0.53208,-1.09914 -1.39466,-1.71204 -2.41019,-1.71204 z m -30.129947,0.87024 c 0.501438,0.11075 0.469013,0.25335 -0.841809,3.69383 -0.644616,1.69191 -1.229638,2.84427 -1.443839,2.84427 -0.547013,0 -0.46077,-0.41228 0.761193,-3.64371 0.818208,-2.16372 1.23652,-2.95799 1.524455,-2.89439 z m 25.750887,0.23202 c 0.0288,8.1e-4 0.0494,0.006 0.0589,0.016 0.10349,0.10833 1.6552,5.54823 1.7539,6.14846 0.052,0.31603 -0.0842,0.55435 -0.34779,0.60875 -0.32681,0.0674 -0.51363,-0.24379 -0.75912,-1.2671 -0.17903,-0.7463 -0.47587,-1.4151 -0.65991,-1.4857 -0.18403,-0.0706 -0.99058,0.0624 -1.79266,0.29559 l -1.45882,0.42426 0.37982,1.45263 c 0.20867,0.79911 0.30776,1.56853 0.22066,1.70945 -0.29472,0.47686 -0.61368,0.25938 -0.8878,-0.60409 -0.74419,-2.34416 -1.63052,-5.83209 -1.51206,-5.95055 0.35385,-0.35385 0.90158,0.26807 1.21182,1.37615 0.25255,0.902 0.448,1.18863 0.73639,1.07797 0.21601,-0.0829 0.91533,-0.28259 1.55391,-0.44339 0.63859,-0.16079 1.21731,-0.38281 1.28571,-0.49351 0.0684,-0.1107 -0.0388,-0.7434 -0.23823,-1.40611 -0.31837,-1.05799 -0.31382,-1.22405 0.0408,-1.36013 0.16661,-0.0642 0.32813,-0.10113 0.41445,-0.0987 z m -22.457031,0.82166 c 0.184789,-0.003 0.374204,0.0118 0.567407,0.0481 1.11878,0.20989 2.150657,1.1061 2.375566,2.06344 0.233016,0.99145 -0.523802,0.99334 -0.998906,0.002 -0.761267,-1.5883 -2.814679,-1.63582 -3.730004,-0.0863 -0.660591,1.11829 -0.593453,3.03768 0.129707,3.71141 0.759408,0.70748 2.188023,0.71279 2.789494,0.0103 0.249198,-0.29105 0.598314,-0.52917 0.775663,-0.52917 0.633299,0 0.59922,0.47669 -0.0832,1.15911 -1.007498,1.00748 -2.930031,0.98776 -4.082955,-0.0424 -2.242294,-2.00349 -0.514605,-6.28682 2.257227,-6.33656 z m 14.653891,1.03611 c 0.12189,0.004 0.24624,0.0146 0.37258,0.0315 1.08674,0.14576 2.05311,0.81198 2.05311,1.41542 0,0.50587 -0.47048,0.4404 -1.25109,-0.17363 -0.88394,-0.6953 -1.73202,-0.66897 -2.60346,0.0806 -1.29902,1.11737 -0.84583,4.05021 0.72657,4.70152 1.05905,0.43867 2.06875,0.0692 2.59054,-0.94877 0.22278,-0.43464 0.43663,-0.84228 0.47543,-0.90538 0.0388,-0.0631 0.20277,0.0178 0.36431,0.17932 0.4839,0.4839 0.009,1.63448 -0.90485,2.1916 -0.93492,0.57004 -2.36096,0.65169 -3.32021,0.19017 -0.83285,-0.4007 -1.63349,-2.05534 -1.63349,-3.37499 0,-2.06985 1.30209,-3.44677 3.13056,-3.38739 z m -6.41305,0.21911 c 0.705454,-0.009 1.438753,0.22849 1.979724,0.76946 0.42537,0.42536 0.773079,0.90161 0.773079,1.05833 0,0.52433 -0.843771,0.29219 -1.369942,-0.37672 -0.603241,-0.7669 -1.805496,-0.88736 -2.447396,-0.24546 -0.773524,0.77353 -0.378965,1.23394 1.556494,1.81643 0.689132,0.20739 1.479718,0.58208 1.756999,0.83302 0.706875,0.63971 0.640238,1.85005 -0.145211,2.6355 -1.15431,1.15431 -3.729493,0.75539 -4.537707,-0.7028 -0.477393,-0.86132 -0.454209,-1.0294 0.14211,-1.0294 0.281237,0 0.581266,0.22043 0.666626,0.48938 0.334391,1.05357 2.400419,1.43909 3.167765,0.59118 0.671217,-0.74169 0.170041,-1.46188 -1.30483,-1.87482 -1.661547,-0.4652 -2.511991,-1.18149 -2.511991,-2.11615 0,-1.13026 1.098523,-1.83236 2.27428,-1.84795 z" /></g></svg>
