<?xml version="1.0" encoding="UTF-8" standalone="no"?>
<!-- Created with Inkscape (http://www.inkscape.org/) -->

<svg
   width="319.15253mm"
   height="202.3829mm"
   viewBox="0 0 319.15253 202.3829"
   version="1.1"
   id="svg3814"
   xml:space="preserve"
   inkscape:export-filename="wsp.svg"
   inkscape:export-xdpi="96"
   inkscape:export-ydpi="96"
   xmlns:inkscape="http://www.inkscape.org/namespaces/inkscape"
   xmlns:sodipodi="http://sodipodi.sourceforge.net/DTD/sodipodi-0.dtd"
   xmlns="http://www.w3.org/2000/svg"
   xmlns:svg="http://www.w3.org/2000/svg"><sodipodi:namedview
     id="namedview3816"
     pagecolor="#505050"
     bordercolor="#ffffff"
     borderopacity="1"
     inkscape:showpageshadow="0"
     inkscape:pageopacity="0"
     inkscape:pagecheckerboard="1"
     inkscape:deskcolor="#505050"
     inkscape:document-units="mm"
     showgrid="false" /><defs
     id="defs3811" /><g
     inkscape:label="Layer 1"
     inkscape:groupmode="layer"
     id="layer1"
     transform="translate(145.70787,-109.97425)"><path
       id="path4580"
       style="fill:#000000;stroke-width:0.264583"
       d="m 48.802738,109.97477 c -6.794548,0.008 -13.968428,0.14393 -15.387691,0.40101 -4.477166,0.81098 -8.338873,3.19276 -10.97039,6.76599 -0.755329,1.02562 -36.125444,70.31325 -36.125444,70.76726 0,0.0917 6.3400906,0.12671 14.08906283,0.0775 12.48636717,-0.0793 14.26964417,-0.14276 15.67656217,-0.55449 3.862876,-1.13045 7.568154,-3.62659 9.673312,-6.51743 0.856459,-1.1761 35.398823,-68.5981 36.156449,-70.57243 0.09806,-0.25554 -6.317313,-0.37539 -13.111861,-0.36742 z m -40.1639568,0.0517 c -2.5536387,-0.001 -6.0758059,0.0122 -9.950297,0.0403 -15.7353842,0.11403 -15.1124512,0.0464 -19.2484372,2.07636 -1.819689,0.89311 -2.693157,1.5512 -4.576465,3.44682 l -2.327507,2.34301 -9.741007,19.64634 c -5.357545,10.80564 -15.47645,31.11467 -22.486483,45.1311 l -12.745475,25.48475 14.362947,-0.10542 c 15.657265,-0.115 15.33442,-0.0854 18.799886,-1.72341 2.434008,-1.15047 4.796004,-3.01767 6.183602,-4.88807 0.79771,-1.07528 9.036345,-17.33572 23.5474003,-46.47417 C 2.733253,130.35303 12.777547,110.1348 12.777547,110.0745 c 0,-0.0304 -1.585127,-0.0466 -4.1387658,-0.0481 z m 101.7483088,0.19947 -14.2105,0.10129 c -15.783224,0.11249 -15.493558,0.0832 -19.369877,1.96525 -1.482466,0.71976 -2.527971,1.50493 -4.134114,3.10472 l -2.14974,2.14148 -11.977047,23.94479 c -6.587327,13.16962 -16.77621,33.62497 -22.642028,45.45665 l -10.665499,21.51239 14.07666,-0.0935 c 12.402666,-0.0824 14.262798,-0.14832 15.644523,-0.55294 3.663877,-1.07293 7.251869,-3.37186 9.331213,-5.97896 1.208285,-1.51495 12.527557,-23.904 35.165296,-69.55648 z m -1.4335,118.97982 c -2.06141,0 -2.60429,0.10241 -4.04317,0.7612 -2.13174,0.97601 -4.2855,3.23585 -5.062219,5.31182 -0.752353,2.01071 -0.754328,5.1273 -0.0041,7.13238 1.004959,2.68601 3.903439,5.22773 6.793379,5.95777 1.71998,0.4345 4.62035,0.12973 6.41098,-0.67386 2.0755,-0.93142 4.23776,-3.20726 5.01106,-5.27409 0.75406,-2.01542 0.75406,-5.12679 0,-7.1422 -0.77671,-2.07597 -2.93045,-4.33581 -5.06222,-5.31182 -1.43887,-0.65879 -1.98226,-0.7612 -4.04368,-0.7612 z m -90.355727,10.70271 v 8.06979 8.06979 H 13.173905 7.7499466 v 6.74688 6.74687 h 5.4239584 5.423958 l 0.0052,14.48594 c 0.0036,11.42107 0.08352,14.85708 0.376721,16.24035 1.040319,4.90808 4.444385,8.67521 9.48676,10.49859 1.886698,0.68224 3.179933,0.95965 6.932393,1.48569 h 5.17e-4 c 1.28348,0.17971 8.316842,-0.0879 10.185941,-0.38757 0.945884,-0.15166 2.404402,-0.4656 3.241146,-0.69712 l 1.521354,-0.42064 v -6.97684 c 0,-3.83711 -0.04107,-6.97632 -0.09147,-6.97632 -0.0504,0 -0.459598,0.18329 -0.909505,0.40773 -1.898701,0.9472 -6.906875,1.20958 -9.333797,0.48886 -1.915911,-0.56896 -3.464778,-2.10905 -4.096908,-4.07365 -0.40837,-1.26915 -0.482451,-2.88543 -0.58446,-12.76408 L 35.214966,269.5418 h 7.566463 7.566463 v -6.74687 -6.74688 h -7.540625 -7.540625 v -8.06979 -8.06979 H 26.932238 Z M 153.15916,254.7773 c -0.49655,0.008 -0.98895,0.0291 -1.47536,0.0636 -13.00667,0.92103 -22.91884,8.00968 -26.74307,19.12493 -1.83081,5.32135 -1.83081,13.87592 0,19.19728 3.61132,10.49643 12.86803,17.577 24.78763,18.96008 7.46783,0.86652 15.3975,-0.83523 20.6592,-4.43332 0.84532,-0.57805 1.87898,-1.41262 2.29702,-1.85467 l 0.76016,-0.80357 -5.487,-5.70662 c -3.01786,-3.13848 -5.54326,-5.70612 -5.61206,-5.70612 -0.0688,0 -0.7398,0.54001 -1.49087,1.19993 -2.10708,1.8513 -3.82212,2.5825 -6.36395,2.71353 -2.80175,0.14444 -4.88937,-0.25916 -7.19233,-1.3901 -5.30046,-2.60294 -8.04046,-9.30279 -6.59494,-16.12614 1.4509,-6.8487 6.66586,-10.78627 13.79916,-10.41849 2.55571,0.13176 4.90433,1.13624 6.67659,2.85616 0.59878,0.5811 1.13431,1.05678 1.19011,1.05678 0.0558,0 2.57043,-2.56814 5.58829,-5.70663 l 5.487,-5.70611 -0.76016,-0.80357 c -3.67714,-3.88844 -12.07713,-6.64201 -19.52542,-6.51691 z m -174.309775,0.007 c -2.308477,0.009 -4.716367,0.26065 -7.196977,0.76222 -11.561778,2.33779 -20.065409,10.50432 -22.421887,21.53254 -0.710619,3.32569 -0.710619,9.64561 0,12.9713 2.577348,12.06191 12.415569,20.54227 25.608256,22.07307 9.542271,1.10722 18.4069043,-1.73996 24.82380792,-7.97316 l 2.64169918,-2.56625 -3.16363115,-2.3337 C -2.5994253,297.96652 -5.2736515,295.99615 -6.80162,294.87149 l -2.778125,-2.04484 -1.170988,1.34876 c -1.584398,1.82432 -4.254262,3.80198 -6.06733,4.49482 -1.889638,0.7221 -5.978329,0.97981 -8.009847,0.50487 -4.306136,-1.00671 -7.785901,-4.14916 -9.22476,-8.33127 -0.29168,-0.84778 -0.5302,-1.58194 -0.5302,-1.63194 0,-0.05 8.88873,-0.0909 19.752799,-0.0909 h 19.7528 L 4.7599482,284.16 C 4.5370484,277.3853 3.884346,273.82938 2.0769078,269.54177 c -1.31315865,-3.1151 -3.3781652,-6.0953 -5.8353027,-8.42119 -4.4338906,-4.19702 -10.4667901,-6.36243 -17.3922201,-6.33656 z m -57.866752,0.0853 c -2.339951,0.001 -4.685333,0.20322 -6.180501,0.60668 -4.262016,1.15009 -8.094929,3.95829 -10.106877,7.4042 -0.43656,0.74771 -0.867048,1.36178 -0.957048,1.36478 -0.08996,0.003 -0.623654,-0.78153 -1.185974,-1.74305 -1.956668,-3.34577 -5.483093,-5.86089 -9.859343,-7.03161 -2.72406,-0.72873 -8.3828,-0.79768 -10.88409,-0.13281 -4.15997,1.10576 -8.17834,3.7299 -10.19266,6.65644 l -1.05214,1.52859 -0.0734,-3.73724 -0.0734,-3.73724 h -8.06255 -8.06256 v 27.51667 27.51615 h 8.31112 8.31164 l 0.12816,-15.80886 c 0.0734,-9.05152 0.24251,-16.37432 0.39584,-17.13177 0.77623,-3.83453 2.72525,-6.64566 5.42189,-7.82174 1.66802,-0.72747 5.04667,-0.98492 6.8001,-0.5178 1.80418,0.48065 3.75647,2.60603 4.53926,4.94182 0.60389,1.80187 0.6069,1.89065 0.6935,19.07429 l 0.0868,17.26406 h 8.45272 8.45271 l 0.0041,-16.07344 c 0.0042,-17.33452 0.04527,-17.92877 1.425753,-20.653 0.788399,-1.55584 2.702574,-3.35833 4.332552,-4.07934 1.727868,-0.76432 5.356404,-0.94992 7.119462,-0.36432 2.325308,0.77234 3.966493,3.00751 4.578532,6.23476 0.16149,0.85155 0.26665,8.01547 0.26665,18.17047 v 16.76487 h 8.486821 8.48682 l -0.12454,-18.71927 c -0.08051,-12.07275 -0.230647,-19.32991 -0.422196,-20.43907 -1.621169,-9.38699 -5.601577,-14.46037 -12.90774,-16.45222 -1.474853,-0.40196 -3.809544,-0.60212 -6.149495,-0.601 z m 168.793831,0.004 c -1.977556,0.0338 -3.989847,0.15945 -4.767667,0.35501 -4.315345,1.085 -7.929245,3.95727 -10.436056,8.29407 -0.399552,0.69122 -0.834138,1.25677 -0.965832,1.25677 -0.133194,0 -0.239779,-1.93719 -0.239779,-4.36562 V 256.0482 H 65.032755 56.69838 v 27.51667 27.51666 h 8.334375 8.334375 l 0.0041,-11.44322 c 0.0056,-16.40241 0.365887,-20.55059 2.07946,-23.9448 0.895849,-1.77446 3.085394,-3.94453 4.826062,-4.78265 3.399249,-1.63672 9.409073,-1.81541 14.190865,-0.4222 l 0.595312,0.17312 v -7.69876 -7.69875 l -0.727604,-0.19534 c -0.638508,-0.17137 -2.581338,-0.22912 -4.558895,-0.19533 z m 10.842746,1.1746 v 27.51667 27.51666 h 8.33438 8.33437 V 283.56487 256.0482 h -8.33437 z m -123.662733,10.89339 c 0.386385,-0.0105 0.777686,-0.005 1.173055,0.0176 3.482207,0.19803 6.079754,1.61971 7.964372,4.35891 0.939229,1.36512 1.812809,3.89966 1.812809,5.25859 v 0.90279 h -11.268046 -11.268046 l 0.187586,-1.12448 c 0.907096,-5.44752 5.602501,-9.25517 11.39827,-9.41338 z" /></g></svg>
