<?xml version="1.0" encoding="UTF-8" standalone="no"?>
<!-- Created with Inkscape (http://www.inkscape.org/) -->

<svg
   width="262.96918mm"
   height="114.23827mm"
   viewBox="0 0 262.96918 114.23827"
   version="1.1"
   id="svg5"
   xml:space="preserve"
   xmlns="http://www.w3.org/2000/svg"
   xmlns:svg="http://www.w3.org/2000/svg"><defs
     id="defs2" /><g
     id="layer1"
     transform="translate(36.240168,-140.33359)"><path
       id="path314"
       style="fill:#000000;stroke-width:0.264583"
       d="m -17.715717,140.33359 -0.141594,0.6351 c -0.07786,0.34935 -1.158285,6.52871 -2.400887,13.73198 -1.242602,7.20327 -2.967907,17.14501 -3.833874,22.09271 -0.865967,4.94771 -2.886115,16.55631 -4.489132,25.79688 -1.603018,9.24056 -3.84646,22.15886 -4.985225,28.70729 l -2.070158,11.90625 17.851106,0.0682 c 9.8181065,0.0374 17.89853725,0.0203 17.95652719,-0.0377 0.25759575,-0.25759 5.13643121,-42.92655 5.75158691,-50.30133 0.7795516,-9.34563 0.7822714,-9.36576 1.045931,-7.9375 1.6953266,9.18365 2.1622143,10.93642 9.7203369,36.52439 l 6.443018,21.81469 10.56783,-0.0656 10.56783,-0.0651 6.036841,-19.05 c 8.248332,-26.03014 9.536265,-30.56352 10.81226,-38.04833 0.168806,-0.9902 0.346211,-1.76065 0.394291,-1.71255 0.04808,0.0481 0.274758,2.52516 0.503329,5.50457 0.502388,6.54861 0.578563,7.33571 2.406054,24.8636 0.796547,7.63984 1.74399,16.74813 2.105815,20.24062 0.361826,3.4925 0.725236,6.85601 0.807186,7.47448 l 0.148828,1.12448 H 78.710955 89.93921 l 0.0016,-20.30677 c 6.62e-4,-11.16872 0.07827,-21.64622 0.172599,-23.28333 0.102329,-1.77591 0.0725,-2.97656 -0.0739,-2.97656 -0.134956,0 -1.79014,0.91254 -3.678329,2.02778 -7.022082,4.14754 -9.242913,5.3841 -9.509497,5.2958 -0.386837,-0.12821 -0.488299,-5.49917 -0.129708,-6.8647 0.247145,-0.94113 0.887039,-1.68975 4.007507,-4.68653 2.042473,-1.96152 5.009666,-4.9659 6.593913,-6.67608 l 2.880445,-3.10937 V 161.84809 140.6747 l -20.298503,0.0677 -20.298503,0.0677 -4.172355,13.49375 c -7.027144,22.72805 -8.616189,28.83489 -10.327018,39.6875 -0.183522,1.16417 -0.452892,2.11666 -0.598413,2.11666 -0.316359,0 -0.447715,-0.60687 -1.297595,-5.98464 -0.766704,-4.85147 -2.144062,-11.10836 -3.715019,-16.87753 -0.99906,-3.66894 -9.177691,-32.34878 -9.266101,-32.4931 -0.01937,-0.0316 -8.565102,-0.13883 -18.9905722,-0.23823 z m 110.829927,0.60875 v 19.37091 19.37039 l 4.828646,-4.80384 c 2.655754,-2.64228 5.087544,-5.01928 5.403804,-5.28185 0.56347,-0.46782 0.58057,-0.68732 0.84956,-10.92853 0.28802,-10.96623 0.49134,-12.85272 1.62781,-15.11897 0.31788,-0.63389 0.88485,-1.48033 1.25987,-1.88051 l 0.68161,-0.7276 h -7.32565 z m 21.06796,0 0.68162,0.7276 c 0.37502,0.40018 0.94141,1.24489 1.25832,1.87689 1.18297,2.3591 1.37765,4.29597 1.52084,15.11432 l 0.13487,10.17819 5.46168,5.4684 c 3.00385,3.00759 5.49091,5.48188 5.52731,5.49838 0.0364,0.0165 0.0662,-8.72114 0.0662,-19.41691 v -19.44687 h -7.32513 z m 17.82579,0 -0.001,7.87135 c -6.7e-4,4.32924 -0.0791,13.84332 -0.17415,21.14238 l -0.17312,13.27103 1.55753,1.67793 c 0.85652,0.92286 3.76261,3.90863 6.458,6.63525 2.95463,2.98886 5.02635,5.30035 5.21674,5.82084 0.32456,0.88729 0.47551,6.86305 0.18087,7.1577 -0.23154,0.23153 -2.3339,-0.87282 -6.18567,-3.24941 -3.51499,-2.1688 -6.99162,-4.21589 -7.04092,-4.14549 -0.0164,0.0234 -0.101,10.48851 -0.1881,23.25595 l -0.15865,23.21357 8.52248,0.0791 v -5.1e-4 c 4.68736,0.0435 9.2322,0.0748 10.09964,0.0698 l 1.57717,-0.009 1.50843,-6.08541 c 0.82974,-3.34698 1.57598,-6.41284 1.65778,-6.81302 l 0.14831,-0.72761 h 13.9976 13.99759 l 1.70119,6.81302 1.70119,6.81302 19.88923,0.0677 19.88974,0.0677 -0.25425,-0.59687 c -0.13992,-0.32834 -5.68083,-16.2536 -12.31294,-35.38957 -6.63211,-19.13597 -14.57002,-42.02576 -17.63975,-50.86614 l -5.58157,-16.07344 h -29.19667 z m 37.23442,30.67099 c 0.17561,0.0818 0.33475,0.81151 0.45165,2.20349 0.52788,6.28544 1.51219,10.94701 5.32629,25.2243 0.93634,3.50499 1.70222,6.45184 1.70222,6.54844 0,0.0966 -3.45281,0.1757 -7.67291,0.1757 -4.5411,0 -7.67292,-0.10018 -7.67292,-0.24547 0,-0.13502 0.84368,-3.25776 1.8743,-6.93911 3.23414,-11.55217 4.55484,-17.57323 5.28754,-24.1024 0.22495,-2.00453 0.47804,-2.97015 0.70383,-2.86495 z m -70.138871,22.37073 c -1.334003,0.01 -2.857175,0.32881 -4.545976,0.96067 l -1.384928,0.51831 -0.12299,5.87871 c -0.06748,3.23334 -0.127859,13.61778 -0.134359,23.07663 -0.01154,16.85722 -0.0033,17.14505 0.424263,14.53193 l 0.43615,-2.66547 6.023921,-5.40432 6.02341,-5.40381 -0.0832,-12.5677 c -0.0901,-13.6421 -0.12542,-13.99683 -1.65262,-16.41606 -1.06239,-1.68294 -2.76033,-2.52529 -4.983671,-2.50889 z m 23.340691,0.0465 c -2.30292,-0.0216 -3.90839,0.90463 -5.03225,2.90318 -1.38419,2.4615 -1.54357,4.21726 -1.54357,17.03514 v 11.59619 l 5.93142,5.37435 5.9309,5.37435 0.34365,2.65152 c 0.18891,1.45817 0.37008,2.4724 0.40308,2.25412 0.033,-0.21828 0.10788,-10.55364 0.16588,-22.96759 l 0.10542,-22.57071 -0.68885,-0.35605 c -1.33984,-0.69285 -3.87909,-1.2783 -5.61568,-1.2945 z M -35.553905,246.2961 c -0.560983,0.0798 -0.583194,0.20356 -0.654224,3.70107 -0.07289,3.58939 -0.06861,3.61937 0.529167,3.70417 0.583218,0.0828 0.606813,0.005 0.734839,-2.42776 l 0.132292,-2.51354 1.553393,2.05052 c 0.854375,1.12779 1.655309,2.05052 1.779736,2.05052 0.124427,0 0.913692,-0.91426 1.753899,-2.0314 l 1.527555,-2.03089 0.07596,2.56005 0.07545,2.56057 h 0.784448 0.783932 v -3.70416 -3.70417 h -0.743624 c -0.621421,0 -1.002503,0.34642 -2.315104,2.10478 -0.864181,1.15765 -1.642501,2.10967 -1.729611,2.11667 -0.08711,0.007 -0.957104,-1.00764 -1.933215,-2.25361 -1.394298,-1.77978 -1.898901,-2.24772 -2.354895,-2.18282 z m 55.643115,0.18139 -0.859896,0.0827 -0.859895,0.0832 -0.07338,3.63802 -0.07338,3.63802 h 0.933276 0.933276 v -3.72122 z m -32.881197,0.006 -0.922941,0.0796 c -0.883597,0.0765 -1.006002,0.22514 -2.873726,3.47731 -1.07302,1.86839 -1.951302,3.5055 -1.951302,3.63802 0,0.13252 0.327422,0.24006 0.727604,0.23926 0.530399,-10e-4 0.850183,-0.21635 1.178739,-0.79375 0.448141,-0.78707 0.464276,-0.7922 2.829285,-0.7922 2.362298,0 2.381704,0.005 2.847371,0.79375 0.369583,0.62565 0.652937,0.79375 1.3379031,0.79375 0.4779445,0 0.8686808,-0.0555 0.8686808,-0.1235 0,-0.068 -0.9090668,-1.74123 -2.0205489,-3.71812 z m 58.281197,0.005 v 3.70675 3.70727 l 3.108854,0.0889 c 4.646347,0.13316 4.419487,0.16667 4.515487,-0.66766 l 0.08372,-0.7276 h -3.076815 -3.076815 l 0.08268,-0.8599 c 0.0829,-0.85986 0.08276,-0.85964 1.736328,-0.93844 1.504207,-0.0717 1.654175,-0.13143 1.653646,-0.66146 -4.31e-4,-0.53567 -0.133987,-0.58462 -1.653646,-0.60772 -1.642726,-0.0249 -1.653646,-0.0299 -1.653646,-0.79375 v -0.76894 l 2.844271,-0.0749 c 2.793888,-0.0738 2.844271,-0.086 2.844271,-0.70125 v -0.62684 l -3.704167,-0.0372 z m -68.2625,0.0222 v 3.70417 3.70416 h 0.79375 0.79375 v -3.70416 -3.70417 h -0.79375 z m 16.6687503,0 v 3.70417 3.70416 h 0.6521565 c 0.6418634,0 0.6530443,-0.039 0.7276042,-2.52077 l 0.075448,-2.52026 1.5678629,2.16886 1.567863,2.16937 0.75809326,-0.90537 c 0.41699058,-0.49794 1.14007651,-1.46795 1.60713705,-2.15542 0.46705759,-0.68747 0.90857549,-1.25329 0.98133549,-1.25729 0.07276,-0.004 0.094429,1.12405 0.048059,2.50682 l -0.084232,2.51406 h 0.8118367 c 0.7785778,0 0.812067,-0.0462 0.813387,-1.12448 7.541e-4,-0.61847 0.078127,-2.28534 0.1720826,-3.70416 l 0.171049,-2.57969 H 2.969325 c -0.6868105,0 -1.0325498,0.30774 -2.52077637,2.24534 l -1.72444253,2.24534 -1.6867188,-2.23397 c -1.3859916,-1.83598 -1.8163915,-2.23634 -2.4143229,-2.24534 z m 13.2291666,0 v 3.70417 3.70416 h 0.9260417 0.9260417 v -3.70416 -3.70417 H 8.0506686 Z m 17.2831831,0 c -0.613651,0 -0.614433,0.005 -0.614433,3.70417 v 3.70416 h 0.79375 0.79375 v -2.38125 c 0,-1.30969 0.06452,-2.38125 0.143144,-2.38125 0.07863,0 1.396481,1.07156 2.928503,2.38125 1.850777,1.58218 3.001221,2.38125 3.428731,2.38125 h 0.643372 v -3.70416 -3.70417 h -0.825273 -0.825272 l 0.11007,2.51354 c 0.06047,1.38244 0.07114,2.51354 0.02377,2.51354 -0.04737,0 -1.41367,-1.1311 -3.035991,-2.51354 -1.885448,-1.60668 -3.171369,-2.51354 -3.564123,-2.51354 z m 10.365775,0.13229 v 0.66146 c 0,0.6266 0.08715,0.6654 1.653646,0.74 l 1.653646,0.0791 v 2.8975 2.89801 h 0.926042 0.926041 v -2.89801 -2.8975 l 1.647445,-0.0791 c 1.559947,-0.0746 1.647205,-0.11359 1.646411,-0.74 l -10e-4,-0.66146 h -4.226099 z m 91.678125,0.0971 -0.7276,0.0837 c -0.72362,0.0833 -0.72834,0.0967 -0.8599,2.51044 l -0.13229,2.42724 -2.91042,-2.48305 c -1.75407,-1.49642 -3.14694,-2.48687 -3.50573,-2.49287 -0.58932,-0.0102 -0.59531,0.0258 -0.59531,3.69383 v 3.70417 h 0.78393 0.78393 l 0.076,-2.37402 0.076,-2.37402 2.83342,2.37402 c 1.93721,1.62324 3.04588,2.37402 3.50573,2.37402 h 0.67231 v -3.72174 z m -70.114583,0.0351 v 3.70417 3.70417 h 0.79375 c 0.785749,0 0.79375,-0.0147 0.79375,-1.45521 0,-1.45221 0.0017,-1.45521 0.824756,-1.45521 0.632522,0 1.190465,0.33888 2.396236,1.45521 1.447073,1.33973 1.670625,1.45442 2.813782,1.44642 1.208051,-0.009 1.226995,-0.0211 0.699182,-0.46302 -0.298382,-0.24981 -1.072289,-0.89841 -1.719792,-1.44126 l -1.177706,-0.98702 0.939478,-0.005 c 0.516598,-0.003 1.082146,-0.14784 1.256771,-0.32246 0.414432,-0.41443 0.414432,-3.44839 0,-3.86282 -0.216268,-0.21627 -1.481669,-0.31781 -3.96875,-0.31781 z m 11.641667,0 v 3.72174 3.72174 l 0.727604,-0.0837 0.727604,-0.0837 -0.0036,-2.44739 c -0.0033,-2.14313 0.150826,-2.92017 0.444934,-2.24483 0.227586,0.52261 5.591116,4.82452 6.015136,4.82452 0.575739,0 0.813922,-1.48285 0.817522,-5.09323 l 0.0021,-2.31511 h -0.783932 -0.783931 l -0.07596,2.47944 -0.07596,2.47892 -2.888713,-2.47892 c -1.858061,-1.59464 -3.108851,-2.47944 -3.505729,-2.47944 z m 20.902083,0 v 0.66146 c 0,0.63776 0.06174,0.66146 1.719792,0.66146 h 1.719791 v 3.04271 3.04271 h 0.926042 0.926042 v -3.04271 -3.04271 h 1.5875 c 1.516938,0 1.5875,-0.0294 1.5875,-0.66146 v -0.66146 H 93.11421 Z m 10.583333,0 v 3.70417 3.70417 h 0.92604 0.92604 v -3.70417 -3.70417 h -0.92604 z m -15.436267,0.002 c -0.756715,0.002 -0.928923,0.17015 -1.824695,1.78594 -0.544014,0.9813 -1.475789,2.64708 -2.070674,3.7021 l -1.081588,1.91823 h 0.798918 c 0.607191,0 0.91182,-0.19056 1.268139,-0.79375 0.466148,-0.78875 0.482575,-0.79375 2.868042,-0.79375 2.385468,0 2.40241,0.005 2.868559,0.79375 0.379917,0.64314 0.645758,0.79375 1.401465,0.79375 h 0.932759 l -0.51573,-0.8599 c -0.283544,-0.47294 -1.256788,-2.13982 -2.162659,-3.70417 -1.545893,-2.6696 -1.698277,-2.8442 -2.482536,-2.8422 z m 26.748237,0.009 c -0.47078,0.005 -1.00982,0.0191 -1.62729,0.0341 -2.47853,0.0603 -3.67908,0.19212 -3.91707,0.43046 -0.4937,0.49437 -0.4774,5.89435 0.0196,6.49418 0.30785,0.37153 0.95451,0.43822 4.24677,0.43822 2.66768,0 3.98268,-0.0992 4.20078,-0.3173 0.2094,-0.2094 0.31729,-1.33322 0.31729,-3.30109 0,-3.42994 0.0553,-3.81609 -3.24011,-3.77858 z m 22.93142,0.0326 c -0.53942,0.0313 -0.8628,0.54089 -2.56212,3.51038 -1.12623,1.96804 -2.04794,3.64015 -2.04794,3.71605 0,0.0758 0.35422,0.13798 0.78704,0.13798 0.6068,0 0.88085,-0.18173 1.19734,-0.79375 0.40728,-0.78775 0.42824,-0.79375 2.66185,-0.79375 h 2.25103 l 0.54983,0.93224 c 0.47453,0.80426 0.67333,0.9244 1.44643,0.8723 0.49291,-0.0332 0.89015,-0.12524 0.88315,-0.20464 -0.007,-0.0794 -0.94495,-1.75203 -2.0836,-3.71657 -1.83738,-3.17008 -2.15629,-3.58051 -2.83393,-3.64991 -0.0905,-0.009 -0.17202,-0.0148 -0.24908,-0.0103 z m 7.82536,0.0481 v 3.79046 3.79047 h 3.58945 3.58944 l -0.0837,-0.72761 -0.0837,-0.7276 -2.71198,-0.0754 -2.71198,-0.0755 v -2.87114 -2.87062 l -0.79375,-0.11679 z m 18.06815,0.14521 -2.02262,3.5574 c -1.11243,1.95663 -2.02261,3.62992 -2.02261,3.71812 0,0.0882 0.33171,0.1602 0.7369,0.1602 0.53797,0 0.86321,-0.21411 1.20561,-0.79375 0.46764,-0.79175 0.47528,-0.79375 2.93523,-0.79375 h 2.46651 l 0.32866,0.79375 c 0.27357,0.66045 0.47938,0.79375 1.22318,0.79375 0.49167,0 0.89187,-0.0893 0.88987,-0.19844 -0.002,-0.10914 -0.87855,-1.74625 -1.9482,-3.63802 -1.86789,-3.30354 -1.98144,-3.44247 -2.86856,-3.51917 z m 8.39018,0.0274 v 3.70416 3.70417 h 0.79375 0.79375 v -3.70417 -3.70416 h -0.79375 z m 5.55625,0 v 3.70416 3.70417 h 0.79375 c 0.78575,0 0.79375,-0.0147 0.79375,-1.45521 v -1.45521 h 0.85266 c 0.67957,0 1.15341,0.29866 2.33991,1.47278 1.40738,1.39307 1.55115,1.46786 2.65359,1.38906 l 1.1653,-0.0837 -1.50637,-1.19063 c -0.82862,-0.65485 -1.51335,-1.27991 -1.52135,-1.38906 -0.008,-0.10913 0.37814,-0.19844 0.85835,-0.19844 1.24298,0 1.50791,-0.40286 1.50791,-2.29236 0,-1.368 -0.0892,-1.70562 -0.51159,-1.93167 -0.28148,-0.15064 -2.06742,-0.27388 -3.96875,-0.27388 z m 11.64167,0 v 3.70416 3.70417 h 0.79375 c 0.78575,0 0.79375,-0.0147 0.79375,-1.45521 v -1.45521 h 2.85771 c 1.86972,0 2.96725,-0.10954 3.175,-0.31729 0.17462,-0.17463 0.31729,-0.99985 0.31729,-1.83348 0,-2.27243 -0.13939,-2.34714 -4.38423,-2.34714 z m 15.1722,0 c -1.77716,0 -3.53656,0.11646 -3.90984,0.25838 -0.67568,0.2569 -0.67903,0.27143 -0.67903,3.38635 0,2.0806 0.10667,3.23517 0.31781,3.44631 0.21795,0.21799 1.52839,0.31729 4.18011,0.31729 2.65171,0 3.96268,-0.0993 4.18062,-0.31729 0.2093,-0.20929 0.3173,-1.33136 0.3173,-3.29231 0,-3.84494 0.0541,-3.79873 -4.40697,-3.79873 z m 8.11113,0 v 3.70416 3.70417 h 0.79375 c 0.77605,0 0.79375,-0.0294 0.79375,-1.32292 v -1.32291 h 0.98392 c 0.82733,0 1.19989,0.2136 2.34095,1.34048 1.26036,1.24468 1.43759,1.33417 2.49235,1.25677 l 1.13585,-0.0837 -1.49759,-1.19063 -1.4981,-1.19062 0.87489,-0.14728 c 1.40145,-0.23634 1.51773,-0.40814 1.51773,-2.23449 0,-2.38452 -0.23289,-2.51302 -4.55682,-2.51302 z m 12.41527,0.0326 c -0.77928,-0.0168 -1.4086,-0.015 -1.69964,0.01 -0.92847,0.0791 -1.05833,0.17109 -1.05833,0.75138 0,0.62659 0.0871,0.66592 1.65364,0.74052 l 1.65365,0.0785 v 2.85357 c 0,1.56954 0.0542,2.90766 0.11989,2.97346 0.0658,0.0658 0.45269,0.10493 0.85989,0.0873 l 0.74001,-0.0315 0.0749,-2.95434 0.0749,-2.95382 h 1.71101 c 1.62963,0 1.711,-0.03 1.711,-0.63459 0,-0.62553 -0.0474,-0.63782 -3.24114,-0.81804 -0.89132,-0.0504 -1.82056,-0.0855 -2.59984,-0.10232 z m -159.601631,0.78652 c 1.17472,0.0449 1.400948,0.33637 1.400948,1.1529 0,0.66973 -0.136085,0.94611 -0.5271,1.07022 -0.861945,0.27357 -4.021951,0.0433 -4.154785,-0.30283 -0.06607,-0.17215 -0.08134,-0.65051 -0.03411,-1.06298 0.08333,-0.72768 0.137032,-0.75254 1.797823,-0.83044 0.629102,-0.0295 1.125647,-0.0418 1.51722,-0.0269 z m 50.878031,0.22065 v 2.39056 2.39055 h -2.78846 -2.78794 l 0.076,-2.31511 0.0765,-2.3151 2.71198,-0.0755 z m -125.955102,0.0222 c 0.14588,0.004 1.600936,2.5255 1.600936,2.7745 0,0.0727 -0.723953,0.1323 -1.609205,0.1323 -0.885251,0 -1.567022,-0.0893 -1.515153,-0.19844 0.63834,-1.34311 1.407705,-2.71136 1.523422,-2.70836 z m 200.567602,0.24029 2.3151,0.0765 c 2.18953,0.0723 2.32013,0.10948 2.40192,0.68627 0.0476,0.33543 -0.0565,0.78191 -0.23099,0.99218 -0.22753,0.27415 -0.90678,0.38241 -2.4014,0.38241 h -2.08463 v -1.06867 z m -11.64167,0.0207 h 2.39727 2.39727 l -0.0822,0.99219 -0.0822,0.99219 -2.3151,0.0765 -2.31511,0.0765 v -1.06867 z m 22.35781,0.13229 h 2.77813 2.77812 l 0.076,2.31511 0.077,2.3151 h -2.93108 -2.93109 l 0.0765,-2.3151 z m 12.69949,0 h 2.24895 2.24896 v 0.92605 0.92604 l -2.33164,0.077 -2.33164,0.0765 0.0827,-1.00253 z m -126.191269,0.0465 c 0.05578,0.002 0.105365,0.0402 0.152963,0.11111 0.374789,0.55812 1.28726,2.31468 1.28726,2.47788 0,0.0785 -0.654845,0.14263 -1.455209,0.14263 -0.800364,0 -1.455208,-0.0635 -1.455208,-0.14108 0,-0.0776 0.309108,-0.75074 0.68678,-1.49603 0.39283,-0.7752 0.616073,-1.10005 0.783414,-1.09451 z m 49.810909,0.0858 c 0.22208,0 1.37098,2.22339 1.37098,2.65306 0,0.14163 -0.65485,0.25735 -1.45521,0.25735 -0.80037,0 -1.45521,-0.0635 -1.45521,-0.14107 0,-0.3375 1.35185,-2.76934 1.53944,-2.76934 z m 26.65161,0.12298 c 0.16345,0.007 0.3391,0.32792 0.74982,1.13844 0.38094,0.75175 0.69247,1.43032 0.69247,1.50792 0,0.0776 -0.71659,0.14107 -1.59267,0.14107 h -1.59267 l 0.51367,-0.99219 c 0.28261,-0.5457 0.68766,-1.22426 0.9002,-1.50791 0.13749,-0.1835 0.2311,-0.2917 0.32918,-0.28733 z" /></g></svg>
