<?xml version="1.0" encoding="UTF-8" standalone="no"?>
<!-- Created with Inkscape (http://www.inkscape.org/) -->

<svg
   version="1.1"
   id="svg223"
   width="697"
   height="328"
   viewBox="0 0 697 328"
   xmlns="http://www.w3.org/2000/svg"
   xmlns:svg="http://www.w3.org/2000/svg">
  <defs
     id="defs227" />
  <g
     id="g229">
    <path
       id="path233"
       style="fill:#000000"
       d="M 478.36914,0.53125 C 461.4858,0.5739728 441.13469,0.68916318 416.35938,0.8671875 l -99.25782,0.7128906 0.25782,58.0917969 0.25976,58.093745 115,0.5 c 105.47132,0.45857 115.35302,0.64062 119.26367,2.20899 2.34515,0.94081 4.51655,1.67436 4.82617,1.63086 1.45478,-0.20458 10.51603,6.5649 14.00586,10.46289 5.46683,6.10616 7.48414,8.69531 6.77149,8.69531 -0.33696,0 -0.15548,0.5625 0.40429,1.25 0.55978,0.6875 2.00376,4.40001 3.20899,8.25 3.06978,9.80619 3.09437,24.46127 0.0547,33.5 -5.91054,17.57534 -17.96814,28.22754 -35.03516,30.94922 -4.20076,0.66989 -45.8525,1.03797 -117.75,1.04297 l -111.25,0.01 v 55.48829 55.48632 l 38.75,0.27539 c 116.72699,0.82487 204.81232,0.6819 211.55664,-0.34374 11.47902,-1.74568 28.40514,-6.40076 38.79492,-10.66993 10.12128,-4.15884 26.40425,-13.3528 31.30274,-17.67383 1.59805,-1.40965 3.22103,-2.5625 3.60547,-2.5625 1.56524,0 19.12183,-18.20022 24.26171,-25.15039 6.65455,-8.99829 15.86435,-24.81952 15.13477,-26 -0.28905,-0.46769 -0.0212,-0.84961 0.59375,-0.84961 0.61489,0 0.86361,-0.41299 0.55274,-0.91601 -0.31089,-0.50302 -0.18776,-1.06552 0.27539,-1.25 0.87842,-0.34989 6.40922,-14.2194 6.71289,-16.83399 0.0958,-0.82499 0.64161,-2.64528 1.21289,-4.04492 1.47022,-3.60207 5.24609,-22.24013 5.24609,-25.89843 0,-1.68173 0.45,-3.05665 1,-3.05665 0.63415,0 1,-7.50001 1,-20.5 0,-11.27498 -0.38923,-20.5 -0.86328,-20.5 -0.47404,0 -1.16858,-2.99034 -1.54297,-6.64453 -0.65112,-6.35531 -3.94232,-22.20402 -5.26562,-25.35547 -0.34642,-0.82499 -0.79942,-2.4 -1.00782,-3.5 -0.51249,-2.70514 -7.02786,-20.033639 -8.87695,-23.60937 -0.81656,-1.579064 -1.50796,-3.212597 -1.53516,-3.630859 -0.0272,-0.418263 -1.33503,-3.009769 -2.9082,-5.759766 -1.57318,-2.749997 -3.45562,-6.128679 -4.18164,-7.505859 -2.61128,-4.953339 -8.17369,-12.994141 -8.98828,-12.994141 -0.45738,0 -0.83008,-0.580452 -0.83008,-1.289063 0,-2.029895 -14.86472,-18.555008 -23.0625,-25.638671 -13.34041,-11.527378 -32.57558,-22.741992 -43.9375,-25.6152348 -0.275,-0.069543 -1.75156,-0.6437503 -3.2793,-1.2773437 C 585.3005,6.1479968 572.40123,3.3721906 562.61914,2.3730469 548.4716,0.92801598 529.01917,0.40308163 478.36914,0.53125 Z M 56.314453,133.17773 48.966797,141.9043 c -4.041396,4.79959 -8.85923,10.43819 -10.705078,12.53125 l -3.355469,3.80664 -7.978516,-9.73828 C 13.230248,131.78323 14.991345,133.13352 7.3203125,133.4707 l -6.70117188,0.29492 -0.265625,31.99024 c -0.14540985,17.59522 -0.0468897,32.55774 0.21875,33.25 0.32900968,0.85737 2.88344698,1.25976 8.01367188,1.25976 h 7.5332035 v -20.5 c 0,-11.27498 0.3375,-20.47611 0.75,-20.44531 0.412499,0.0308 4.350004,4.50683 8.75,9.94531 4.399995,5.43849 8.53601,9.91256 9.193359,9.94336 0.657359,0.0308 5.157365,-4.54638 10,-10.17187 l 8.806641,-10.22852 0.269531,20.76953 0.269531,20.76954 7.730469,-0.29102 7.730469,-0.29102 v -33 -33 l -6.652344,-0.29492 z m 458.804687,0.0508 v 33.51757 33.51953 h 23.5 23.5 v -6 -6 h -15.5 -15.5 v -8.5 -8.5 h 14.5 14.5 v -6 -6 h -14.5 -14.5 v -7 -7 h 15.25 15.25 l -0.13672,-5.75 -0.13672,-5.75 -23.11328,-0.26953 z m -429.999999,0.0371 v 33.5 33.5 h 7.5 7.499999 v -33.5 -33.5 h -7.499999 z m 104.999999,0 v 33.5 33.5 h 7.97852 7.98046 l 0.26954,-20.65039 0.27148,-20.65039 8.37695,10.15039 c 4.60773,5.58234 8.92768,10.15039 9.59961,10.15039 0.67194,0 5.00077,-4.52817 9.6211,-10.0625 l 8.40234,-10.0625 0.5,20.3125 0.5,20.3125 7.75,0.29102 7.75,0.29297 v -33.54297 -33.54102 h -6.79102 -6.79101 l -10.33984,12.5 c -5.68677,6.875 -10.42624,12.5 -10.53321,12.5 -0.10696,0 -4.83469,-5.625 -10.50586,-12.5 l -10.3125,-12.5 h -6.86328 z m 84,0 v 33.5 33.5 h 8 8 v -33.5 -33.5 h -8 z m 55.5,0.20118 -13,0.29882 -0.26562,31.99024 c -0.1454,17.59522 -0.0469,32.55774 0.21875,33.25 0.35603,0.92781 4.1048,1.25795 14.26367,1.25195 17.20292,-0.009 25.07176,-1.21855 32.99609,-5.0664 11.47537,-5.57214 16.70179,-15.277 16.11524,-29.92579 -0.3984,-9.94973 -2.72769,-15.66323 -8.90625,-21.84179 -7.97671,-7.9767 -18.40647,-10.48447 -41.42188,-9.95703 z m 130,0 -13,0.29882 -0.26562,31.99024 c -0.1454,17.59522 -0.0469,32.55774 0.21875,33.25 0.60388,1.57368 24.83465,1.74093 34.54687,0.23828 19.60892,-3.03384 30.05087,-15.80183 28.72656,-35.12305 -0.62442,-9.11018 -3.20715,-15.04075 -9.08789,-20.86328 -7.96465,-7.88582 -18.18271,-10.31709 -41.13867,-9.79101 z m -324.70312,0.29882 -8.89649,22.5 c -4.89253,12.37499 -10.69669,27.06067 -12.89844,32.63672 -2.20174,5.57605 -4.00195,10.43233 -4.00195,10.79102 0,0.35872 3.68013,0.52108 8.17969,0.36133 l 8.18164,-0.28907 2.64062,-6.5 2.64063,-6.5 h 14.39648 14.39649 l 2.70898,6.5 2.70899,6.5 7.22851,0.29688 c 3.97612,0.16333 7.78581,0.0828 8.46485,-0.17773 0.84085,-0.32267 -3.27523,-10.94201 -12.90625,-33.29688 l -14.14063,-32.82227 h -9.35156 z m 263.81836,0 -6.13282,15.5 c -13.64061,34.47475 -19.48242,49.55726 -19.48242,50.29883 0,0.42922 3.71124,0.64999 8.24805,0.49024 l 8.24804,-0.28907 2.0293,-5.72851 c 1.11539,-3.1497 2.50115,-6.20037 3.08008,-6.7793 0.66414,-0.66414 6.18606,-0.94968 14.96289,-0.77343 l 13.91016,0.28124 2.59179,6.5 2.59375,6.5 8.16797,0.28907 c 6.16637,0.21928 8.15887,-0.0257 8.13477,-1 -0.0176,-0.70974 -6.22387,-15.68908 -13.79102,-33.28907 l -13.75781,-32 h -9.40039 z m -66.11524,11.99805 8.5,0.0918 c 13.67135,0.14469 19.87419,4.54523 22.22852,15.76953 2.42519,11.56221 -2.7123,21.5713 -12.84375,25.02344 -2.60845,0.88879 -7.82102,1.61523 -11.58399,1.61523 h -6.8418 l 0.26954,-21.25 z m 130,0.002 8.70117,0.14844 c 7.09161,0.12155 9.49719,0.58592 12.98828,2.51172 6.31316,3.48254 9.30808,9.38491 9.3086,18.33984 5.4e-4,9.26607 -3.26826,15.23992 -10.16407,18.57813 -5.85205,2.83293 -19.97172,4.03182 -20.83984,1.76953 -0.29673,-0.77312 -0.41711,-10.39248 -0.26758,-21.37695 z m -318.51758,5.18165 c 0.41429,-0.44984 2.35204,3.15016 4.30664,8 1.95461,4.84982 4.26911,10.50586 5.14453,12.56835 l 1.5918,3.75 h -10.01367 c -5.50738,1e-5 -10.01172,-0.19158 -10.01172,-0.42382 0,-1.05439 8.31273,-23.16739 8.98242,-23.89453 z m 263.92383,0.0215 c 0.70496,-0.71496 10.09375,20.98206 10.09375,23.32617 0,0.55795 -4.03266,0.9707 -9.5,0.9707 -5.22499,1e-5 -9.49623,-0.3375 -9.49023,-0.75 0.0202,-1.36107 8.0956,-22.73465 8.89648,-23.54687 z M 295.11914,165.2657 v 5.83204 c 0,3.20833 0.31906,6.15304 0.70898,6.54296 0.38993,0.38996 3.42744,0.57678 6.75,0.41602 l 6.04102,-0.29102 0.29688,-6.25 0.29687,-6.25 h -7.04687 z m -294.99999938,50 v 56 56 H 148.61914 h 148.5 v -56 -56 h -148.5 z M 79.46875,239.61719 c 12.016921,0.40807 21.59869,13.58821 22.42969,32.31836 0.71666,16.15303 -5.011217,29.30824 -14.990237,34.42578 -7.520402,3.85668 -17.475842,1.63133 -23.216797,-5.19141 -15.447504,-18.35831 -9.018113,-55.66866 10.498047,-60.92383 1.797697,-0.48407 3.562594,-0.6872 5.279297,-0.6289 z m -45.904297,0.25195 c 3.660763,-0.12457 7.341042,0.67882 10.636719,2.49414 l 4.417969,2.4336 0.291015,7.73437 c 0.16063,4.25374 0.03845,7.73437 -0.271484,7.73437 -0.30993,0 -2.433202,-1.2375 -4.71875,-2.75 -5.708634,-3.77779 -13.42167,-3.88914 -17.316406,-0.25 -4.619706,4.31656 -5.882447,7.8292 -5.935547,16.5 -0.04114,6.72316 0.350194,8.71823 2.451172,12.5 4.720535,8.49696 12.325094,9.94133 21.134765,4.01563 l 4.365235,-2.93555 0.294921,7.05078 c 0.33652,8.02646 -0.108843,8.85418 -6.335937,11.78125 -5.118705,2.40608 -13.276599,2.66224 -18.052734,0.56641 -3.634717,-1.59496 -8.613644,-7.00255 -11.306641,-12.28125 -6.6555734,-13.046 -4.6388545,-36.02539 4.091797,-46.61719 4.107333,-4.9829 10.152634,-7.76894 16.253906,-7.97656 z m 85.554687,0.29102 V 262 c 0,20.67535 0.12002,22.07538 2.25,26.25195 2.85445,5.59717 6.57622,7.09889 11.29688,4.55664 5.46051,-2.94067 5.85147,-4.80932 6.25195,-29.84375 l 0.36523,-22.79882 5.16797,0.29882 5.16797,0.30078 -0.0254,23.5 c -0.021,20.01119 -0.29523,24.31239 -1.8457,28.97852 -2.38775,7.18592 -4.94052,10.62821 -9.67383,13.04297 -8.34218,4.25587 -19.61942,1.57203 -24.35352,-5.79688 -4.68603,-7.29409 -5.10156,-10.20704 -5.10156,-35.72461 v -24 l 5.25,-0.30273 z m 39,0.10546 h 4.37695 c 2.40765,0 4.81608,0.56251 5.35352,1.25 1.02898,1.31628 3.98383,6.7229 14.20508,26 3.42659,6.4625 6.44255,11.75 6.70312,11.75 0.26053,0 0.38792,-8.66251 0.28125,-19.25 l -0.19531,-19.25 h 5.38672 5.38867 l 0.26172,33.25 0.26367,33.25 h -4.92578 -4.92773 l -10.33594,-19.75 -10.33594,-19.75 -0.5,19.5 -0.5,19.5 -5.25,0.30079 -5.25,0.30273 v -33.55273 z m 95.05469,0 h 5.72265 l 4.33594,10.15235 4.33594,10.1543 3.26367,-7.4043 c 5.78623,-13.12728 5.06236,-12.36553 12.07031,-12.70117 3.41897,-0.16374 6.2168,-0.0698 6.2168,0.20898 0,0.27874 -3.6,8.39109 -8,18.02734 l -8,17.52149 v 15.51953 15.52148 h -5.5 -5.5 v -15.36328 -15.36132 l -7.88672,-17.58594 c -4.33757,-9.67155 -7.63822,-17.83248 -7.33398,-18.13672 0.30424,-0.30424 3.12777,-0.55274 6.27539,-0.55274 z m -28.12891,0.22657 c 13.98194,-0.19592 19.62949,0.0549 20.14844,0.89453 0.39657,0.64168 0.74996,3.57594 0.78516,6.52148 l 0.0644,5.35742 h -7.46289 -7.46094 v 27 27 h -5.5 -5.5 v -27.06835 -27.06641 l -7.25,0.23437 -7.25,0.23633 v -6.41797 -6.41797 z M 78.386719,254.16602 c -1.982958,0.0707 -4.059264,0.89399 -6.121094,2.6289 -8.800571,7.40519 -7.577009,31.26691 1.857422,36.22656 6.261154,3.29148 13.691786,-1.52187 15.902344,-10.30078 3.785815,-15.03486 -3.045855,-28.86091 -11.638672,-28.55468 z" />
  </g>
</svg>
