<?xml version="1.0" encoding="UTF-8" standalone="no"?>
<!-- Created with Inkscape (http://www.inkscape.org/) -->

<svg
   width="195.79706mm"
   height="25.400002mm"
   viewBox="0 0 195.79706 25.400001"
   version="1.1"
   id="svg3814"
   xml:space="preserve"
   inkscape:export-filename="miamibeach.svg"
   inkscape:export-xdpi="96"
   inkscape:export-ydpi="96"
   xmlns:inkscape="http://www.inkscape.org/namespaces/inkscape"
   xmlns:sodipodi="http://sodipodi.sourceforge.net/DTD/sodipodi-0.dtd"
   xmlns="http://www.w3.org/2000/svg"
   xmlns:svg="http://www.w3.org/2000/svg"><sodipodi:namedview
     id="namedview3816"
     pagecolor="#505050"
     bordercolor="#ffffff"
     borderopacity="1"
     inkscape:showpageshadow="0"
     inkscape:pageopacity="0"
     inkscape:pagecheckerboard="1"
     inkscape:deskcolor="#505050"
     inkscape:document-units="mm"
     showgrid="false" /><defs
     id="defs3811" /><g
     inkscape:label="Layer 1"
     inkscape:groupmode="layer"
     id="layer1"
     transform="translate(0.29006221,-164.09384)"><path
       id="path3868"
       style="fill:#000000;stroke-width:0.264583"
       d="m 141.27649,164.09384 c -0.16664,0 -10.55339,23.45389 -10.79366,24.37267 -0.12683,0.48501 -0.0253,0.5215 1.24127,0.447 l 1.37925,-0.0811 1.41335,-3.30729 1.41283,-3.30729 h 5.22552 5.225 l 1.3839,3.30729 1.38389,3.30729 1.34876,0.0801 c 0.86985,0.0516 1.34875,-0.0257 1.34875,-0.21756 0,-0.43659 -10.3813,-24.60108 -10.56886,-24.60108 z m 24.52615,0.39636 c -1.43316,-0.009 -2.83088,0.19474 -3.96565,0.63614 -3.54941,1.38062 -6.39436,4.13257 -7.61969,7.37009 -0.82036,2.16755 -0.98853,5.42094 -0.39377,7.61814 1.11083,4.10374 4.88931,7.79319 9.05474,8.84132 0.5532,0.13917 2.15519,0.2169 3.55999,0.1726 2.29719,-0.0725 2.75642,-0.17663 4.56406,-1.03508 l 2.0097,-0.95498 v -1.63194 -1.63195 l -0.92966,0.70952 c -0.51143,0.39009 -1.61276,1.02943 -2.44739,1.42059 -1.30347,0.61092 -1.85361,0.70921 -3.89899,0.70021 -2.0412,-0.009 -2.59498,-0.11461 -3.87883,-0.73587 -6.19677,-2.99864 -7.7091,-10.99265 -3.02669,-15.99851 3.50922,-3.75165 9.36416,-4.06242 13.35009,-0.70848 l 0.83147,0.6997 v -1.59319 c 0,-1.47047 -0.0616,-1.63675 -0.79943,-2.16214 -1.534,-1.0923 -4.02135,-1.70061 -6.40995,-1.71617 z m -68.461452,0.3359 v 12.10158 12.10159 l 4.034892,-0.13281 c 5.052,-0.16613 6.45315,-0.55664 8.17211,-2.27635 1.33003,-1.33061 1.8198,-2.5618 1.803,-4.5346 -0.0199,-2.33082 -1.24701,-4.50536 -3.06493,-5.43171 -0.5628,-0.28678 -1.0647,-0.54329 -1.1157,-0.56999 -0.051,-0.0267 0.26702,-0.50299 0.70694,-1.05834 1.6041,-2.02501 1.73858,-5.06733 0.32246,-7.30033 -0.55698,-0.87827 -1.15141,-1.38068 -2.2934,-1.93941 -1.4099,-0.68979 -1.8409,-0.7629 -5.05344,-0.8568 z m 17.991662,0.0615 v 12.03854 12.03854 h 6.21771 6.21771 v -1.18442 -1.18494 l -4.82864,-0.0718 -4.82865,-0.0724 -0.0724,-4.69015 -0.0718,-4.69015 4.70204,-0.0724 4.70256,-0.0724 0.0806,-1.25677 0.0806,-1.25677 h -4.77697 -4.77697 v -3.57187 -3.57188 h 4.89479 4.89479 v -1.19062 -1.19063 h -6.21771 z m 62.44167,0 v 12.03854 12.03854 h 1.32292 1.32291 v -5.95312 -5.95313 h 6.21771 6.21771 v 5.9676 5.96759 l 1.25677,-0.0806 1.25677,-0.0806 0.0687,-11.97239 0.0687,-11.9724 h -1.3255 -1.3255 v 4.89479 4.89479 h -6.21771 -6.21771 v -4.89479 -4.89479 h -1.32291 z m -156.194083,0.35088 c -0.03908,-0.0391 -1.884132,4.42027 -4.100008,9.90948 -2.215875,5.4892 -4.137438,10.15496 -4.270023,10.36836 -0.284198,0.4574 0.06816,1.25603 -4.9185631,-11.14403 -2.027965,-5.04277 -3.7171381,-9.1406 -3.753776,-9.1059 -0.1100586,0.10421 -4.82812911,22.8765 -4.82812911,23.30349 0,0.41745 0.92961275,0.55252 1.16633708,0.16949 0.076542,-0.12385 0.99885383,-4.4101 2.04948733,-9.525 1.0506337,-5.11489 1.9811409,-9.29969 2.0680908,-9.29969 0.08695,0 0.34618,0.50601 0.5761922,1.12448 0.2300121,0.61846 1.9964577,5.02378 3.9253418,9.78959 1.928884,4.7658 3.528652,8.6651 3.554822,8.6651 0.02617,0 1.827813,-4.40456 4.003373,-9.78803 2.17556,-5.38349 4.014846,-9.78886 4.087606,-9.78959 0.07276,-7.3e-4 0.528298,1.93327 1.012341,4.29793 3.180863,15.53916 2.985052,14.75052 3.659725,14.75052 0.340701,0 0.6196,-0.14158 0.6196,-0.31471 0,-0.3833 -4.752196,-23.31127 -4.852417,-23.41149 z m 24.680665,0.17829 c -0.161502,0 -9.15855,21.96954 -9.443868,23.0606 v 5.2e-4 c -0.0986,0.37705 0.02172,0.48679 0.5333,0.48679 0.603173,0 0.796814,-0.3352 2.213302,-3.84162 l 1.551843,-3.84215 5.149557,0.0718 5.149556,0.0713 1.512053,3.70417 c 1.350657,3.30905 1.584337,3.71308 2.193147,3.78788 0.374828,0.0461 0.681612,-0.009 0.681612,-0.12196 0,-0.41451 -9.371342,-23.37738 -9.540502,-23.37738 z m 16.687353,0.002 c -0.07438,7.4e-4 -1.19698,5.1502 -2.494421,11.44323 -1.297439,6.29302 -2.41492,11.60008 -2.48357,11.79359 -0.08886,0.25048 0.08925,0.32668 0.619084,0.26458 l 0.744141,-0.0873 1.638659,-7.9375 c 0.901125,-4.36562 1.784331,-8.63498 1.962671,-9.48727 0.178339,-0.85231 0.415116,-1.44762 0.526066,-1.32292 0.110948,0.1247 1.912337,4.48335 4.003373,9.68571 2.091037,5.20237 3.875066,9.45886 3.964616,9.45886 0.08955,0 1.930829,-4.36462 4.09174,-9.69915 2.940322,-7.25865 3.982123,-9.57213 4.139282,-9.19427 0.115498,0.27769 0.985546,4.31488 1.933733,8.97154 0.948183,4.65666 1.785745,8.73456 1.861385,9.06198 0.09713,0.42044 0.330677,0.59531 0.794266,0.59531 0.361029,0 0.656291,-0.0476 0.656291,-0.10593 0,-0.19174 -4.765715,-23.03868 -4.862235,-23.30969 -0.128101,-0.35967 -0.80454,1.21107 -4.928899,11.44323 -1.950315,4.83856 -3.61131,8.79689 -3.69073,8.79636 -0.07942,-6.6e-4 -1.988172,-4.58457 -4.242119,-10.18646 -2.253945,-5.60189 -4.158953,-10.18461 -4.233333,-10.18387 z m -32.017684,0.26303 v 11.64167 11.64166 h 0.661458 0.661459 V 177.32347 165.6818 h -0.661459 z m 58.472917,0 v 11.64167 11.64166 h 0.661458 0.661458 V 177.32347 165.6818 h -0.661458 z m 10.583333,1.51205 2.155939,0.1478 c 1.52511,0.10454 2.35736,0.295 2.84427,0.65164 2.20499,1.61504 2.09112,5.45939 -0.20102,6.78305 -0.57363,0.33125 -1.58363,0.55833 -2.84427,0.63923 l -1.954919,0.12558 v -4.17391 z m -53.653572,1.98748 c 0.06152,-0.017 0.109918,0.0224 0.152962,0.10283 0.211151,0.39454 2.274548,5.46448 4.213696,10.35441 0.101851,0.25683 -0.884368,0.33073 -4.413167,0.33073 -4.487999,0 -4.541968,-0.007 -4.368726,-0.55242 0.09647,-0.30396 1.102429,-2.8237 2.235006,-5.59914 1.400159,-3.43119 1.913622,-4.56275 2.180229,-4.63641 z m 94.906871,1.00304 c 0.22879,0.007 3.93833,9.0902 3.807,9.32191 -0.0619,0.10914 -1.83164,0.19844 -3.93309,0.19844 -2.88017,0 -3.82079,-0.0814 -3.82096,-0.33073 -3.2e-4,-0.45303 3.75464,-9.19562 3.94705,-9.18962 z m -41.253299,7.33133 2.579689,0.18035 c 4.40188,0.30821 6.15156,1.57614 6.15156,4.4571 0,1.54504 -0.84406,2.80583 -2.38177,3.55792 -0.8465,0.41401 -1.9351,0.63454 -3.76979,0.76378 l -2.579689,0.18138 v -4.57026 z" /></g></svg>
