<?xml version="1.0" encoding="UTF-8" standalone="no"?>
<!-- Created with Inkscape (http://www.inkscape.org/) -->

<svg
   width="99.463623mm"
   height="19.927599mm"
   viewBox="0 0 99.463624 19.927599"
   version="1.1"
   id="svg3814"
   xml:space="preserve"
   inkscape:export-filename="parsons.svg"
   inkscape:export-xdpi="96"
   inkscape:export-ydpi="96"
   xmlns:inkscape="http://www.inkscape.org/namespaces/inkscape"
   xmlns:sodipodi="http://sodipodi.sourceforge.net/DTD/sodipodi-0.dtd"
   xmlns="http://www.w3.org/2000/svg"
   xmlns:svg="http://www.w3.org/2000/svg"><sodipodi:namedview
     id="namedview3816"
     pagecolor="#505050"
     bordercolor="#ffffff"
     borderopacity="1"
     inkscape:showpageshadow="0"
     inkscape:pageopacity="0"
     inkscape:pagecheckerboard="1"
     inkscape:deskcolor="#505050"
     inkscape:document-units="mm"
     showgrid="false" /><defs
     id="defs3811" /><g
     inkscape:label="Layer 1"
     inkscape:groupmode="layer"
     id="layer1"
     transform="translate(115.26189,-154.13169)"><path
       id="path4395"
       style="fill:#000000;stroke-width:0.264583"
       d="m -110.52109,154.13221 c -2.36788,0.005 -3.94705,0.0675 -3.94705,0.16898 0,0.13031 1.08633,1.14965 2.41381,2.26549 l 2.41329,2.02882 h 2.56056 c 1.63878,0 2.67517,0.11409 2.87838,0.31729 0.41124,0.41124 0.41124,2.39375 0,2.805 -0.20439,0.20439 -1.25545,0.31729 -2.94969,0.31729 h -2.63188 l -2.40812,2.03089 c -1.32464,1.11702 -2.52777,2.13527 -2.67323,2.26239 -0.15144,0.13236 2.61871,0.19681 6.4823,0.15141 7.80499,-0.0917 8.23401,-0.19492 9.454717,-2.27789 0.580558,-0.99066 0.725171,-1.6128 0.815971,-3.51193 0.09732,-2.0356 0.03243,-2.47758 -0.548287,-3.74603 -0.464256,-1.01407 -0.96093,-1.62596 -1.684651,-2.07584 -1.00157,-0.62264 -1.18463,-0.63999 -7.57473,-0.72089 -0.93534,-0.0118 -1.8121,-0.0166 -2.60139,-0.015 z m 20.394617,4.46329 v 3.92483 c 0,2.15855 0.07921,4.00404 0.176216,4.10104 0.09701,0.097 0.751857,0.17621 1.455209,0.17621 h 1.278991 v -1.05833 -1.05833 h 2.657719 c 2.449113,0 2.707454,-0.0497 3.289722,-0.63201 0.803498,-0.8035 1.089554,-2.29542 0.693498,-3.61735 -0.508786,-1.69816 -0.922655,-1.83606 -5.509225,-1.83606 z m 13.02091,0 -2.145088,3.81837 c -1.179644,2.10009 -2.144572,3.88605 -2.144572,3.96875 0,0.0827 0.651999,0.15038 1.449007,0.15038 1.253751,0 1.507595,-0.0892 1.882572,-0.66146 0.404088,-0.61676 0.580301,-0.66146 2.607076,-0.66146 2.04795,0 2.194507,0.0383 2.528011,0.66146 0.316468,0.59136 0.520054,0.66146 1.921847,0.66146 h 1.56838 l -0.780315,-1.38906 c -0.429129,-0.76399 -1.414158,-2.54993 -2.189013,-3.96875 l -1.4087,-2.57969 h -1.644861 z m 7.881173,0 v 3.96875 3.96875 h 1.322917 1.322916 v -1.0697 -1.06919 l 2.050521,0.077 2.050521,0.0775 0.08217,0.99218 0.08217,0.99219 h 1.306897 1.306897 v -1.1715 c 0,-0.67889 -0.163968,-1.336 -0.38964,-1.56167 -0.342943,-0.34295 -0.342943,-0.42799 0,-0.71261 0.255319,-0.21189 0.38964,-0.81748 0.38964,-1.75804 0,-1.17063 -0.119724,-1.55426 -0.649573,-2.08411 -0.633816,-0.63383 -0.74832,-0.64957 -4.7625,-0.64957 z m 15.297257,0 c -2.99633,0 -4.211371,0.32112 -4.549593,1.20251 -0.334948,0.87286 -0.159823,2.44873 0.341065,3.06751 0.459995,0.56826 0.762858,0.63671 3.352767,0.75706 1.943802,0.0903 2.881312,0.2372 2.955892,0.46302 0.08366,0.25333 -0.701081,0.33073 -3.35225,0.33073 -3.069976,0 -3.461805,0.0505 -3.461805,0.44597 0,0.24528 0.258751,0.72153 0.575159,1.05833 0.54273,0.57767 0.765343,0.61237 3.933093,0.61237 2.996342,0 3.432953,-0.0589 4.05505,-0.54829 0.590732,-0.46467 0.697115,-0.75485 0.697115,-1.90117 0,-1.02481 -0.139353,-1.50137 -0.575159,-1.96526 -0.529303,-0.56347 -0.79366,-0.61236 -3.307291,-0.61236 -2.252058,0 -2.732133,-0.0697 -2.732133,-0.39688 0,-0.33078 0.529169,-0.39687 3.175,-0.39687 2.958756,0 3.175,-0.0348 3.175,-0.51005 0,-0.28048 -0.31369,-0.75673 -0.697115,-1.05833 -0.608563,-0.47867 -1.063842,-0.54829 -3.584795,-0.54829 z m 6.886919,0 -0.77308,0.7736 c -0.744937,0.74494 -0.773596,0.8647 -0.773596,3.25665 0,2.55378 0.160134,3.0382 1.190625,3.60184 0.31105,0.17013 2.088076,0.29214 4.311365,0.29714 3.629786,0.008 3.807807,-0.0168 4.408516,-0.61753 1.220364,-1.22024 1.221478,-5.46391 0.0021,-6.68331 -0.603974,-0.60394 -0.777459,-0.62839 -4.496883,-0.62839 z m 10.359574,0 v 3.96875 3.96875 h 1.313098 1.313098 l 0.07596,-2.43603 0.07596,-2.43654 1.941484,2.43654 1.942,2.43603 h 1.960604 1.96112 v -3.96875 -3.96875 h -1.313098 -1.313615 l -0.07545,2.51561 -0.07597,2.51561 -1.983858,-2.51561 -1.983858,-2.51561 h -1.918746 z m 16.187126,0 c -2.741413,0 -3.237773,0.0682 -3.817855,0.52452 -1.270484,0.99936 -1.132525,3.58309 0.224276,4.20129 0.363404,0.16558 1.785965,0.30127 3.161564,0.30127 2.046804,0 2.501139,0.0721 2.501139,0.39688 0,0.33157 -0.543869,0.39687 -3.307292,0.39687 h -3.307291 v 0.64648 c 0,0.36809 0.253247,0.82381 0.588077,1.05833 0.457999,0.32078 1.338166,0.41186 3.980636,0.41186 3.292359,0 3.413126,-0.0201 4.07417,-0.6811 0.600697,-0.60069 0.665473,-0.84131 0.550871,-2.03398 -0.194444,-2.02362 -0.68504,-2.312 -3.931543,-2.312 -2.149407,0 -2.616378,-0.0709 -2.616378,-0.39688 0,-0.33078 0.52917,-0.39687 3.175,-0.39687 3.504649,0 3.813281,-0.17925 2.525427,-1.4671 -0.616817,-0.61683 -0.807708,-0.64957 -3.800801,-0.64957 z m -66.722543,2.09341 1.918229,0.078 c 1.794462,0.0727 1.9241,0.11822 2.00763,0.709 0.04911,0.34735 -0.06995,0.7324 -0.264583,0.85577 -0.194633,0.12337 -1.098126,0.22641 -2.00763,0.22841 l -1.653646,0.004 v -0.93741 z m 20.6375,0.001 2.050521,0.077 2.050521,0.0775 v 0.79375 0.79375 l -2.050521,0.077 -2.050521,0.0775 v -0.94826 z m 23.500891,0.0325 c 0.609036,7.6e-4 1.186105,0.0541 1.580266,0.15968 0.560886,0.15024 0.601136,0.2858 0.529166,1.78232 l -0.07803,1.62006 -2.129069,0.076 c -1.170889,0.0418 -2.212686,-0.008 -2.315104,-0.11007 -0.102419,-0.10242 -0.186035,-0.86586 -0.186035,-1.69654 0,-1.47989 0.01666,-1.51383 0.826823,-1.67586 0.521801,-0.1046 1.162948,-0.1563 1.771984,-0.15555 z m -32.611446,0.57103 c 0.07075,-0.1043 1.173055,1.6783 1.173055,1.89704 0,0.092 -0.531904,0.16743 -1.18184,0.16743 h -1.181323 l 0.567924,-0.99219 c 0.312425,-0.5457 0.592314,-1.02828 0.622184,-1.07228 z m -39.242048,5.50819 c -0.24913,-0.003 -0.33073,0.91402 -0.33073,3.71553 0,2.9041 0.0725,3.67702 0.33073,3.52382 0.1819,-0.10793 1.37253,-1.07555 2.64583,-2.15026 2.1831,-1.84258 2.31511,-2.01318 2.31511,-2.98948 0,-0.85666 -0.10275,-1.05906 -0.59532,-1.17254 -3.17399,-0.7312 -4.08161,-0.92407 -4.36562,-0.92707 z" /></g></svg>
