<?xml version="1.0" encoding="UTF-8" standalone="no"?>
<!-- Created with Inkscape (http://www.inkscape.org/) -->

<svg
   width="63.957912mm"
   height="18.829304mm"
   viewBox="0 0 63.957914 18.829304"
   version="1.1"
   id="svg5"
   xml:space="preserve"
   xmlns="http://www.w3.org/2000/svg"
   xmlns:svg="http://www.w3.org/2000/svg"><defs
     id="defs2" /><g
     id="layer1"
     transform="translate(-170.17237,-267.41199)"><path
       id="path1274"
       style="fill:#000000;stroke-width:0.264583"
       d="m 196.30746,267.41232 c -2.30176,-0.006 -2.67456,0.0656 -4.09123,0.79014 -2.21068,1.13058 -3.11778,2.48733 -3.252,4.86275 -0.16936,2.99711 0.86618,4.22364 4.71496,5.58467 1.18726,0.41985 2.32825,0.9036 2.53525,1.07539 0.5274,0.43771 0.468,1.14082 -0.14263,1.69343 -0.76327,0.69075 -3.42279,0.4631 -5.21932,-0.447 l -1.37201,-0.69556 -1.35702,1.75751 c -1.27478,1.6513 -1.32759,1.78033 -0.87643,2.12752 0.71621,0.55116 2.47254,1.30887 4.08088,1.76062 0.92847,0.26076 2.17276,0.36576 3.56464,0.30076 4.54441,-0.21224 7.07353,-2.40376 7.08433,-6.13813 0.008,-2.73891 -1.03481,-3.89055 -4.72478,-5.2188 -1.01865,-0.36668 -2.05616,-0.74788 -2.30529,-0.84698 -0.69188,-0.2751 -0.85479,-1.15027 -0.32349,-1.73736 0.63885,-0.70588 3.07452,-0.69192 4.90203,0.0284 0.75191,0.29638 1.38988,0.50472 1.41748,0.46302 0.0277,-0.0417 0.55166,-0.88201 1.16427,-1.86759 l 1.11363,-1.79213 -1.13223,-0.48266 c -2.38567,-1.01762 -3.30518,-1.21102 -5.78104,-1.21802 z m -18.55805,0.13178 c -2.18186,-0.0147 -4.17968,0.0471 -4.2726,0.1974 -0.0693,0.11211 -0.79857,4.01142 -1.62109,8.66511 -0.82252,4.65368 -1.55975,8.72939 -1.63815,9.05681 -0.14031,0.58532 -0.10222,0.59531 2.38384,0.59531 1.38963,0 2.58767,-0.0988 2.66237,-0.21962 0.0746,-0.1208 0.46639,-2.14486 0.87075,-4.49792 0.40435,-2.35306 0.80573,-4.27829 0.89193,-4.27829 0.0862,0 0.97614,2.02407 1.97714,4.49791 l 1.82005,4.49792 h 2.45308 c 2.43786,0 2.45142,-0.004 2.21536,-0.59531 -0.13065,-0.32742 -0.72335,-1.77604 -1.31671,-3.21893 -0.59336,-1.44289 -1.07849,-2.70889 -1.07849,-2.81326 0,-0.10438 0.65213,-0.50904 1.44953,-0.89917 3.22881,-1.57971 4.43154,-4.96221 2.85098,-8.01967 -0.64117,-1.24031 -2.39523,-2.35175 -4.27054,-2.70577 -0.8294,-0.15658 -3.19558,-0.24778 -5.37745,-0.26252 z m 55.36717,0.0155 c -0.36425,0.001 -0.85237,0.0152 -1.50224,0.0341 l -2.60914,0.0765 -0.28784,1.61127 c -0.15827,0.88635 -0.3623,1.8053 -0.4532,2.04225 -0.12719,0.33146 -2.8724,1.89924 -5.77846,3.30006 -0.0915,0.0441 0.11613,-1.5021 0.46147,-3.43648 0.34534,-1.93439 0.62863,-3.55146 0.62942,-3.59306 7.9e-4,-0.0417 -1.15931,-0.0417 -2.57814,0 l -2.57968,0.076 -0.89762,5.06222 -0.89762,5.06274 -1.5503,0.74104 -1.5508,0.74104 -0.82579,-0.77669 c -2.90266,-2.72879 -4.20458,-5.14181 -2.774,-5.14181 0.34767,0 0.90819,0.22303 1.24541,0.4961 0.61049,0.49433 0.61901,0.49219 2.04638,-0.5855 l 1.43351,-1.08262 -0.89245,-0.74621 c -0.87944,-0.73482 -2.97969,-1.52332 -4.04989,-1.52032 -1.17418,0.003 -2.6777,0.62097 -3.49074,1.43402 -1.08623,1.08622 -1.34824,2.38415 -0.80408,3.98116 l 0.40876,1.20044 -0.74621,0.38654 c -2.71652,1.40477 -3.36823,5.08619 -1.23197,6.96185 2.06306,1.81139 5.31398,1.68198 9.30279,-0.37052 1.23928,-0.63769 2.35482,-1.15911 2.47892,-1.15911 0.12412,0 0.13268,0.44648 0.0191,0.99219 -0.11355,0.5457 -0.27613,1.37915 -0.36173,1.85209 l -0.15607,0.85989 h 2.59933 2.59932 l 0.58705,-3.37344 c 0.32287,-1.85538 0.66861,-3.44962 0.76791,-3.54242 0.0993,-0.0928 1.46575,-0.85035 3.03702,-1.68361 2.65315,-1.40702 2.84674,-1.47072 2.71457,-0.88987 -0.0783,0.34399 -0.44212,2.35221 -0.80874,4.46226 -0.36663,2.11005 -0.7274,4.10435 -0.8015,4.43177 -0.13269,0.58632 -0.0949,0.59531 2.46703,0.59531 h 2.60243 l 1.52704,-8.6651 c 0.83996,-4.76581 1.59039,-8.93785 1.66759,-9.27075 0.10488,-0.45223 0.12587,-0.56643 -0.96686,-0.56328 z m -55.25709,3.94705 h 1.70997 c 1.65419,0 2.65635,0.29422 3.06028,0.89917 0.41964,0.62845 0.18013,1.76299 -0.54312,2.57245 -0.68634,0.76815 -0.90746,0.84526 -2.77813,0.96532 -2.34522,0.1505 -2.26922,0.27123 -1.74098,-2.76211 z m 29.79146,7.50238 c 0.24012,-0.0124 0.52459,0.25951 1.24902,0.97049 0.65014,0.63806 1.09348,1.24529 0.98495,1.34978 -0.10854,0.10449 -0.61412,0.26422 -1.12344,0.35502 -1.7571,0.31312 -2.8077,-1.2689 -1.58027,-2.3797 0.19733,-0.17858 0.32566,-0.28812 0.46974,-0.29559 z" /></g></svg>
