<?xml version="1.0" encoding="UTF-8" standalone="no"?>
<!-- Created with Inkscape (http://www.inkscape.org/) -->

<svg
   width="245.20671mm"
   height="95.90184mm"
   viewBox="0 0 245.20672 95.901838"
   version="1.1"
   id="svg3814"
   xml:space="preserve"
   xmlns="http://www.w3.org/2000/svg"
   xmlns:svg="http://www.w3.org/2000/svg"><defs
     id="defs3811" /><g
     id="layer1"
     transform="translate(127.60006,-114.17711)"><path
       id="path3997"
       style="fill:#000000;stroke-width:0.264583"
       d="m -84.484345,114.17969 c -0.09565,-0.009 -0.217253,0.009 -0.375688,0.0393 l -0.671794,0.12816 0.17415,2.93935 c 0.0957,1.61644 0.24581,3.62344 0.33383,4.46019 0.157487,1.49708 0.378903,1.75029 1.119828,1.28106 0.294818,-0.18671 0.332365,-0.82052 0.190686,-3.23701 -0.0969,-1.6527 -0.243808,-3.61157 -0.326078,-4.35271 -0.105885,-0.95391 -0.157993,-1.23055 -0.444934,-1.25832 z m 10.399882,0.0853 c -0.27466,0.031 -0.570739,0.24058 -0.65164,0.60255 -0.209984,0.93949 -1.199927,7.31321 -1.199927,7.72562 0,0.20445 0.208359,0.41779 0.463021,0.47439 0.254661,0.0566 0.509364,0.0681 0.566373,0.0258 0.117265,-0.0871 1.332594,-7.64439 1.344104,-8.35814 0.0057,-0.35349 -0.247272,-0.50121 -0.521931,-0.47026 z m -19.996713,2.0376 c -0.07173,-0.004 -0.151169,0.002 -0.241329,0.008 -0.400494,0.0298 -0.778805,0.10491 -0.840775,0.16691 -0.08875,0.0887 1.659232,6.7826 2.175061,8.32973 0.112807,0.33835 1.053083,0.22226 1.499133,-0.185 0.104412,-0.0953 -0.326449,-2.01648 -0.957564,-4.26951 -0.99455,-3.55047 -1.132388,-4.02359 -1.634526,-4.0504 z m 29.724801,0.11059 c -0.0298,-5.2e-4 -0.05179,0.005 -0.06356,0.0176 -0.354888,0.37489 -3.063875,8.00621 -2.948657,8.30647 0.08082,0.2106 0.240515,0.38292 0.355017,0.38292 0.114501,0 0.937893,-1.87524 1.829345,-4.16719 1.343362,-3.45382 1.55496,-4.20534 1.235584,-4.38991 -0.158953,-0.0917 -0.318336,-0.1483 -0.407727,-0.14986 z m -39.551595,4.28087 c -0.38467,5.9e-4 -1.39681,0.54559 -1.39681,0.80461 0,0.14434 0.92273,1.91086 2.05052,3.92534 1.12778,2.01447 2.16959,3.66066 2.3151,3.65766 0.14552,-0.003 0.52052,-0.21056 0.83355,-0.46199 l 0.568953,-0.45682 -2.061373,-3.65301 c -1.13378,-2.00917 -2.1186,-3.71023 -2.1885,-3.78013 -0.0246,-0.0246 -0.0665,-0.0357 -0.12144,-0.0357 z m 49.486389,0.46768 c -0.198177,0.0492 -0.552826,0.4273 -1.034562,1.11414 -2.914244,4.15501 -4.097442,6.03436 -3.94963,6.27352 0.09341,0.15114 0.212937,0.27492 0.265617,0.27492 0.184541,0 4.899959,-7.11343 4.899959,-7.3918 0,-0.21166 -0.06248,-0.30032 -0.181384,-0.27078 z m -57.317429,4.99814 -0.74363,0.71262 c -0.8753,0.83859 -1.09601,0.43149 2.54765,4.69222 2.17174,2.5395 2.42665,2.75479 2.89595,2.44688 1.2404,-0.81382 1.16427,-1.00071 -1.83451,-4.50412 z m 65.527264,1.38235 c -0.01392,-0.005 -0.036,-0.003 -0.06666,0.006 -0.572076,0.17376 -6.594613,5.87808 -6.454903,6.11384 0.06767,0.11419 1.155314,-0.73881 2.416907,-1.8955 2.666871,-2.44512 4.313506,-4.14451 4.104659,-4.22454 z m -72.913384,7.16752 c -0.12647,0.0422 -0.45855,0.43775 -0.73793,0.87901 l -0.50798,0.80202 3.63078,2.55695 c 1.99672,1.40624 3.65021,2.56177 3.67471,2.56677 0.2273,0.0501 1.15727,-1.93172 0.98134,-2.09135 -0.79419,-0.72067 -6.85242,-4.7762 -7.04092,-4.7134 z m 144.66456,7.54424 c -0.91662,-0.0283 -1.878496,0.22504 -2.469617,0.72244 -0.875715,0.73686 -1.202757,1.84406 -0.781348,2.64583 0.360066,0.68506 0.643219,0.86878 1.861902,1.20613 0.583303,0.16147 0.928971,0.39255 0.82889,0.55449 -0.171844,0.27804 -1.181111,0.20189 -2.000911,-0.1509 -0.336664,-0.14488 -0.50912,0.0322 -0.753959,0.77411 -0.174601,0.52905 -0.275673,1.00275 -0.224793,1.05265 0.05088,0.0499 0.50922,0.21007 1.018543,0.35554 1.319497,0.37688 2.009704,0.36376 3.016353,-0.0568 1.054414,-0.44056 1.746147,-1.34554 1.746147,-2.28513 0,-0.96565 -0.504802,-1.54228 -1.714108,-1.95802 -1.171536,-0.40275 -1.676511,-1.10647 -0.63562,-0.88573 0.346414,0.0735 0.794158,0.17986 0.995288,0.23616 0.214489,0.06 0.514731,-0.25015 0.725537,-0.74983 0.321109,-0.76112 0.310157,-0.87817 -0.101285,-1.09761 -0.427303,-0.2279 -0.961047,-0.34628 -1.511019,-0.36328 z m -85.071293,0.0641 v 6.25801 6.25802 l 3.836458,-0.15503 3.836458,-0.15555 v 13.07931 13.07982 h 6.879167 6.879167 V 167.5847 154.48679 l 3.836458,0.17467 3.836458,0.17415 v -6.25905 -6.25853 H -44.97978 Z m 74.083333,0 c -0.524267,0 -0.529167,0.17641 -0.529167,19.05 0,18.8736 0.0049,19.05 0.529167,19.05 0.524265,0 0.529167,-0.1764 0.529167,-19.05 0,-18.87359 -0.0049,-19.05 -0.529167,-19.05 z m 17.727083,0 c -2.601653,0 -4.138161,1.58435 -3.903637,4.02508 0.142123,1.4791 1.101487,2.70446 2.43861,3.11505 0.442029,0.13574 1.236161,0.20521 1.764751,0.15451 2.893123,-0.27739 4.437526,-2.81675 3.243729,-5.33249 -0.60446,-1.2738 -1.847657,-1.96215 -3.543453,-1.96215 z m 4.7625,0 v 2.38952 c 0,3.31827 0.402092,4.13918 2.38125,4.86016 0.941535,0.34299 2.777039,-0.11518 3.547071,-0.88521 0.733953,-0.73395 0.777222,-0.90711 0.895552,-3.56774 l 0.12454,-2.79673 h -1.35754 -1.357539 v 1.68672 c 0,2.37558 -0.230516,3.34036 -0.798401,3.34036 -0.649644,0 -0.789099,-0.51788 -0.789099,-2.93212 v -2.09496 H 38.36397 Z m 7.408334,0 v 1.19062 c 0,1.09362 0.0539,1.19063 0.661458,1.19063 0.656557,0 0.661458,0.0176 0.661458,2.38125 v 2.38125 h 1.322917 1.322917 v -2.38125 -2.38125 h 0.79375 c 0.764349,0 0.79375,-0.0441 0.79375,-1.19063 v -1.19062 h -2.778125 z m 6.085416,0 v 3.57187 3.57188 h 1.322917 1.322917 v -1.19063 c 0,-1.14653 0.0294,-1.19062 0.79375,-1.19062 0.764349,0 0.79375,0.0441 0.79375,1.19062 v 1.19063 h 1.322916 1.322917 v -3.57188 -3.57187 h -1.322917 -1.322916 v 1.19062 c 0,1.14652 -0.0294,1.19063 -0.79375,1.19063 -0.76435,0 -0.79375,-0.0441 -0.79375,-1.19063 v -1.19062 H 51.85772 Z m 11.90625,0 v 3.57187 3.57188 h 1.322917 1.322917 v -1.19063 c 0,-1.18463 0.0049,-1.19062 0.926041,-1.19062 0.881941,0 0.926042,-0.0441 0.926042,-0.92604 0,-0.88194 -0.0441,-0.92605 -0.926042,-0.92605 -0.646757,0 -0.926041,-0.11969 -0.926041,-0.39687 0,-0.28663 0.293982,-0.39688 1.058333,-0.39688 h 1.058333 v -1.05833 -1.05833 h -2.38125 z m 5.820834,0 v 3.57187 3.57188 h 2.38125 2.38125 v -1.19063 -1.19062 H 71.966053 70.90772 v -2.38125 -2.38125 h -1.322917 z m 14.022916,0 v 3.57187 3.57188 h 1.322917 1.322917 l 0.01137,-0.99219 0.01189,-0.99219 0.523999,0.99219 c 0.507842,0.96198 0.567732,0.99219 1.972489,0.99219 0.79689,0 1.449008,-0.068 1.449008,-0.1509 0,-0.0829 -0.369846,-0.68793 -0.821656,-1.34462 l -0.821655,-1.19424 0.557072,-0.38964 c 0.42115,-0.29498 0.557072,-0.67125 0.557072,-1.54254 0,-0.96169 -0.134911,-1.26533 -0.814421,-1.8371 -0.73477,-0.61828 -1.031083,-0.68471 -3.042708,-0.68471 z m 7.14375,0 v 3.57187 3.57188 h 1.322917 1.322917 v -3.57188 -3.57187 H 90.75147 Z m 3.96875,0 v 3.57187 3.57188 h 2.27428 c 1.630358,0 2.481375,-0.12283 3.006535,-0.43305 2.368122,-1.39889 2.029522,-5.48425 -0.527616,-6.36499 -0.50428,-0.17369 -1.779951,-0.32273 -2.83497,-0.33073 z m 12.636437,0 -1.48983,5.1e-4 h -1.48932 l -1.20457,3.57188 -1.20458,3.57136 h 1.37459 c 0.97787,0 1.4187,-0.11457 1.52704,-0.39688 0.0943,-0.24586 0.49705,-0.39687 1.05833,-0.39687 0.56129,0 0.96404,0.15101 1.05834,0.39687 0.10745,0.28001 0.5444,0.39688 1.48363,0.39688 0.73217,0 1.33118,-0.0742 1.33118,-0.16485 0,-0.0907 -0.55039,-1.69804 -1.22266,-3.57187 z m -28.955854,0.002 c -0.697962,0.029 -1.36476,0.19164 -1.856217,0.50022 -1.180882,0.74147 -1.756532,1.73313 -1.754932,3.02411 0.0019,1.56349 0.660078,2.65907 1.99471,3.31969 1.359478,0.67293 2.222147,0.70522 3.646289,0.13539 2.543115,-1.01755 3.079984,-4.1205 1.049549,-6.06578 -0.666786,-0.63882 -1.91613,-0.96189 -3.079399,-0.91363 z m -171.137874,0.13022 -0.06821,19.1208 -0.0677,19.12028 6.814571,-0.0708 6.815088,-0.0703 0.132291,-6.02961 0.132292,-6.03012 3.038057,6.09627 3.038058,6.09575 h 7.904427 c 6.881337,0 7.884773,-0.0507 7.753532,-0.39274 -0.422299,-1.1005 -8.756032,-13.15588 -9.493478,-13.73301 -0.943228,-0.73819 -0.865879,-0.93243 0.591696,-1.48828 1.570705,-0.599 3.602029,-2.06967 4.350122,-3.14916 1.07984,-1.55821 1.488765,-3.27087 1.490865,-6.24252 0.0038,-5.61043 -2.217605,-9.29319 -6.939112,-11.50265 -3.281054,-1.53539 -4.59665,-1.67914 -15.570625,-1.70274 z m 73.025,0 -6.536036,18.78542 c -3.594737,10.33197 -6.541537,18.93424 -6.548437,19.11614 -0.0098,0.25883 2.112813,0.33073 9.765812,0.33073 h 9.778215 l 0.524515,-1.78594 c 0.288258,-0.98226 0.668126,-2.55984 0.844393,-3.50573 0.43958,-2.35883 0.429834,-7.67828 -0.01809,-9.92187 l -0.369487,-1.85208 -0.295072,1.02371 c -0.162279,0.56315 -0.520131,1.18823 -0.794784,1.38906 -0.274656,0.20083 -0.357302,0.36535 -0.183968,0.36535 0.337291,0 0.417825,0.74732 0.154513,1.43351 -0.08833,0.23018 -0.341192,0.41857 -0.561723,0.41857 -0.321409,0 -0.337433,0.0766 -0.08061,0.38603 0.427304,0.51487 0.09987,1.99522 -0.441317,1.99522 -0.323158,0 -0.343061,0.0786 -0.0956,0.37673 0.23439,0.28242 0.239967,0.64656 0.02222,1.4552 -0.159729,0.59319 -0.351244,1.07849 -0.425814,1.07849 -0.381576,0 -0.965664,-2.17871 -0.957564,-3.57187 0.01062,-1.82429 0.559029,-3.5391 1.546159,-4.8333 l 0.687297,-0.90072 -0.80977,0.41858 c -0.507675,0.26253 -0.86986,0.32035 -0.972034,0.15503 -0.278043,-0.44989 -0.704986,-0.28915 -0.54777,0.20619 0.215672,0.67952 -1.509077,1.60626 -2.090828,1.12344 -0.340399,-0.2825 -0.403593,-0.24636 -0.403593,0.23048 0,0.67928 -1.561528,1.74784 -1.964738,1.34462 -0.407509,-0.4075 -0.681096,-0.303 -0.681096,0.25993 0,0.33131 -0.413667,0.76044 -1.147733,1.19063 -0.631249,0.36994 -1.219377,0.67282 -1.306897,0.67282 -0.08752,0 0.0331,-0.56471 0.2682,-1.2547 0.921552,-2.7046 4.499272,-5.23045 7.917347,-5.58932 1.351966,-0.14195 1.65922,-0.24153 1.214396,-0.39481 -0.327422,-0.11283 -0.595313,-0.39021 -0.595313,-0.6165 0,-0.31959 -0.08156,-0.34414 -0.364835,-0.10904 -0.474239,0.39359 -1.751831,-0.0642 -1.751831,-0.62787 0,-0.45309 -0.435768,-0.55202 -0.576193,-0.13074 -0.144975,0.43493 -1.805057,-0.25374 -1.805057,-0.74879 0,-0.3092 -0.07893,-0.34481 -0.291972,-0.13177 -0.213043,0.21304 -0.616875,0.18187 -1.491899,-0.11628 -1.185638,-0.40399 -1.192363,-0.41301 -0.567924,-0.75912 0.819254,-0.45409 3.78891,-0.44661 5.07721,0.0129 1.537117,0.54827 3.049533,1.70837 3.742924,2.87114 l 0.625801,1.04955 0.414962,-0.80202 c 0.60812,-1.17598 2.431882,-2.62659 3.9258586,-3.12281 1.498106,-0.49762 4.1758177,-0.53766 5.0394856,-0.0754 0.5685706,0.30428 0.5537858,0.32838 -0.469222,0.76791 -0.6171215,0.26511 -1.161071,0.35667 -1.3079305,0.22066 -0.3721837,-0.34471 -0.6743774,-0.28245 -0.6743774,0.13849 0,0.51504 -1.437348,0.9961 -1.8231446,0.6103 -0.2150978,-0.2151 -0.2935221,-0.18033 -0.2935221,0.13022 0,0.50883 -1.4904306,1.11194 -1.7420126,0.70487 -0.09868,-0.15967 -0.373488,-0.0462 -0.677478,0.28008 -0.28135,0.302 -0.655757,0.56635 -0.831991,0.58705 -0.17623,0.0207 0.453514,0.11792 1.399398,0.21652 2.5408578,0.26496 4.7549173,1.36582 6.4662723,3.21428 1.2690224,1.37071 2.2705892,3.2283 1.9259806,3.57291 -0.2709037,0.27091 -2.5714193,-1.36385 -2.5714193,-1.82728 0,-0.36703 -0.101835,-0.42102 -0.4376994,-0.23306 -0.6811824,0.38121 -2.195714,-0.60719 -2.0112467,-1.31259 0.1263781,-0.48326 0.084343,-0.50853 -0.3741374,-0.2222 -0.6979358,0.43587 -2.2039998,-0.30573 -2.2039998,-1.08521 0,-0.41665 -0.095427,-0.48176 -0.4299483,-0.29455 -0.302653,0.16936 -0.78656,0.0409 -1.634525,-0.43305 -1.013164,-0.56627 -1.176373,-0.59916 -1.025777,-0.20671 0.512322,1.33509 1.258894,4.86681 1.515669,7.16959 0.275439,2.47015 0.102457,5.85845 -0.435632,8.5354 l -0.172599,0.85989 h 9.8071531 c 5.3938666,0 9.8542965,-0.0893 9.9120565,-0.19844 0.057763,-0.10914 -2.941653,-8.71141 -6.6652263,-19.11614 L -5.6891531,142.45032 H -13.36207 Z m -103.022132,1.93011 c -0.41128,-0.0881 -1.32095,2.22008 -0.93276,2.36678 0.13097,0.0495 1.84557,0.72726 3.8101,1.50637 1.96453,0.77912 3.76142,1.42948 3.99304,1.44488 0.34893,0.0232 1.03404,-1.41143 1.03404,-2.16525 0,-0.14052 -7.14344,-2.98977 -7.90442,-3.15278 z m 209.34019,0.0543 c 0.497646,0 0.693147,0.25459 0.527099,0.6873 -0.215959,0.56278 -0.879532,0.44349 -0.879532,-0.15813 0,-0.29104 0.158406,-0.52917 0.352433,-0.52917 z m -7.86722,0.2527 c 0.377112,0.0211 0.768921,0.23402 1.056783,0.67335 0.40148,0.61274 0.40148,0.71017 0,1.32291 -0.767632,1.17155 -2.273246,0.73345 -2.273246,-0.66146 0,-0.87181 0.587943,-1.36987 1.216463,-1.3348 z m 19.103227,0.0119 c 1.116508,0 1.582925,1.8456 0.599446,2.37195 -0.903339,0.48345 -1.075386,0.31533 -1.075386,-1.04904 0,-1.09752 0.08083,-1.32291 0.47594,-1.32291 z m -64.457048,0.005 c 0.513661,-0.0375 1.071544,0.14391 1.265556,0.50642 0.384166,0.71782 0.341238,1.2349 -0.14211,1.71825 -0.228674,0.22868 -0.636669,0.41599 -0.906922,0.41599 -1.071366,0 -1.753882,-1.58028 -1.005623,-2.32854 0.188661,-0.18866 0.480902,-0.28964 0.789099,-0.31212 z m 72.623991,0.35656 c 0.0414,-0.0219 0.0659,0.0339 0.0734,0.16743 0.0122,0.21828 0.0937,0.66477 0.18138,0.99219 0.11728,0.43765 0.0463,0.59531 -0.2682,0.59531 -0.46156,0 -0.52883,-0.60335 -0.16278,-1.4552 0.0765,-0.17804 0.13481,-0.27778 0.17622,-0.29973 z m -82.461633,7.52306 v 3.59823 3.59823 h 1.322916 1.322917 l 0.01137,-0.99219 0.01188,-0.99219 0.523999,0.99219 c 0.509844,0.96578 0.563054,0.99219 2.002979,0.99219 h 1.479496 l -0.427364,-0.66146 c -1.373422,-2.12603 -1.308551,-1.89694 -0.710551,-2.49494 0.808502,-0.80851 0.742163,-2.3894 -0.134875,-3.21376 -0.596569,-0.56074 -0.979376,-0.653 -3.042709,-0.7338 z m 7.14375,0.0527 v 3.57187 3.57188 h 2.513541 2.513542 v -0.92604 c 0,-0.92104 -0.0063,-0.92605 -1.190625,-0.92605 -0.881943,0 -1.190625,-0.10289 -1.190625,-0.39687 0,-0.28663 0.293982,-0.39688 1.058333,-0.39688 1.033142,0 1.058334,-0.0221 1.058334,-0.92604 0,-0.90404 -0.0252,-0.92604 -1.058334,-0.92604 -0.582082,0 -1.058333,-0.11905 -1.058333,-0.26458 0,-0.14552 0.476251,-0.26459 1.058333,-0.26459 h 1.058334 v -1.05833 -1.05833 h -2.38125 z m 14.552083,0 v 3.57187 3.57188 h 1.322917 1.322916 v -3.57188 -3.57187 h -1.322916 z m 12.435417,0 v 3.57187 3.57188 h 1.190625 1.190625 l 0.0052,-1.78594 0.0052,-1.78594 1.116211,1.78594 1.116211,1.78594 h 1.259871 1.259872 v -3.57188 -3.57187 h -1.190625 -1.190625 l -0.0052,1.91823 -0.0047,1.91823 -1.119828,-1.9141 -1.119312,-1.91461 -1.256771,-0.004 z m 10.159069,0 -1.232999,3.57187 -1.233517,3.57188 h 1.44539 c 1.108325,0 1.44539,-0.0925 1.44539,-0.39688 0,-0.28663 0.293982,-0.39687 1.058333,-0.39687 0.764352,0 1.058334,0.11024 1.058334,0.39687 0,0.30557 0.341341,0.39688 1.48363,0.39688 1.152432,0 1.45188,-0.0813 1.34307,-0.36484 -0.07704,-0.20076 -0.653765,-1.8081 -1.282092,-3.57187 l -1.142566,-3.20704 h -1.471228 z m 5.980514,0 v 3.57187 3.57188 h 2.38125 2.38125 v -1.19063 -1.19062 h -1.058333 -1.058334 v -2.38125 -2.38125 h -1.322916 z m -21.034375,0.002 c -2.372435,0 -3.938844,1.45842 -3.937744,3.66695 7.51e-4,1.55393 0.673451,2.60536 2.074292,3.24167 1.325772,0.60219 2.208713,0.61994 3.581177,0.0708 1.454016,-0.58178 2.220536,-1.71822 2.220536,-3.2923 0,-2.22985 -1.556638,-3.68711 -3.938261,-3.68711 z m -12.449369,0.0176 c -0.847396,0.007 -1.676857,0.19161 -2.25826,0.58342 -1.125113,0.75821 -1.555629,1.59878 -1.560629,3.04788 -0.0055,1.6006 0.617685,2.64641 1.932182,3.24321 0.608811,0.27641 1.464098,0.5023 1.900659,0.5023 1.206271,0 2.955961,-0.90524 3.396692,-1.75752 0.214064,-0.41396 0.430341,-1.16734 0.480591,-1.67432 l 0.09147,-0.9219 -2.050521,-0.0775 -2.05052,-0.077 v 0.9369 c 0,0.76974 0.09722,0.93741 0.544669,0.93741 0.299629,0 0.471312,0.11906 0.381372,0.26458 -0.505692,0.81823 -1.984375,-0.11669 -1.984375,-1.2547 0,-1.24541 1.293902,-2.10795 2.041219,-1.36064 0.217003,0.21701 0.613501,0.17306 1.49965,-0.16537 1.010436,-0.38589 1.165387,-0.53455 0.958081,-0.92191 -0.447476,-0.83611 -1.909951,-1.31683 -3.322277,-1.30482 z m -119.445423,0.17259 1.751315,0.14056 c 1.146237,0.092 1.992067,0.31895 2.447395,0.65681 1.416729,1.05123 1.396983,3.86322 -0.03462,4.9258 -0.504761,0.37464 -1.260952,0.57604 -2.447396,0.65164 l -1.716691,0.10904 v -3.24218 z m -46.092793,0.9617 c -0.2348,-0.0182 -0.37539,-0.0179 -0.39739,0.004 -0.12683,0.12683 -0.59125,2.51346 -0.49765,2.55746 0.0133,0.006 1.81023,0.34886 3.99304,0.7612 5.18463,0.97941 4.79592,0.99309 4.98936,-0.17725 0.31529,-1.90749 0.54069,-1.76574 -4.07727,-2.56574 -1.75198,-0.30351 -3.30569,-0.52508 -4.01009,-0.57981 z m 151.793835,0.96273 c 0.220485,0 0.396875,0.23519 0.396875,0.52917 0,0.29398 -0.17639,0.52917 -0.396875,0.52917 -0.220486,0 -0.396875,-0.23519 -0.396875,-0.52917 0,-0.29398 0.176389,-0.52917 0.396875,-0.52917 z m 26.19375,0.26459 c 0.748783,0 1.190625,0.49094 1.190625,1.32291 0,0.37836 -0.143185,0.83048 -0.31781,1.00511 -0.174625,0.17462 -0.567222,0.31781 -0.872815,0.31781 -0.748783,0 -1.190625,-0.49094 -1.190625,-1.32292 0,-0.83197 0.441842,-1.32291 1.190625,-1.32291 z m 16.536458,0.52916 c 0.112488,0 0.256841,0.3572 0.320911,0.79375 0.08937,0.60891 0.01472,0.79375 -0.320911,0.79375 -0.335621,0 -0.41028,-0.18484 -0.32091,-0.79375 0.06408,-0.43655 0.208422,-0.79375 0.32091,-0.79375 z m -10.31875,7.35563 v 3.73052 3.73052 h 1.175122 1.175639 l 0.08113,-1.12448 0.08165,-1.12448 1.190625,-0.0837 c 1.633461,-0.1149 2.38125,-0.84642 2.38125,-2.32906 0,-0.81266 -0.179521,-1.33824 -0.638721,-1.87224 -0.598174,-0.69561 -0.78977,-0.74787 -3.042708,-0.83457 z m 57.439387,0.0248 -0.0786,1.79989 -0.0785,1.79989 -1.01492,-1.78593 -1.01493,-1.78594 h -1.30017 -1.30018 v 3.52795 c 0,1.93959 0.0848,3.61112 0.18862,3.71605 0.10386,0.10424 0.66941,0.15379 1.25677,0.11059 l 1.06815,-0.0786 v -1.78594 c 0,-0.98228 0.0164,-1.78596 0.0362,-1.78594 0.0198,3e-5 0.53448,0.83935 1.14412,1.86552 l 1.10846,1.86604 1.23713,-0.0801 1.23662,-0.0796 v -3.57188 -3.57187 l -1.24437,-0.0801 z m -75.238817,0.004 -1.47898,0.078 -1.479496,0.0786 -1.11466,3.175 c -0.613058,1.74625 -1.153668,3.27071 -1.201478,3.38791 -0.04781,0.1172 -0.468031,-0.32728 -0.933793,-0.98806 l -0.846976,-1.20147 0.653707,-0.65319 c 0.750805,-0.75081 0.819996,-1.43963 0.254764,-2.53267 -0.50658,-0.97961 -1.809731,-1.38383 -4.099491,-1.27175 l -1.719792,0.0842 -0.07493,3.29231 c -0.04109,1.81093 -0.01502,3.44805 0.05788,3.63802 0.08171,0.21293 0.586479,0.34571 1.316199,0.34571 h 1.183907 l 0.08113,-1.12448 0.08165,-1.12448 0.60048,1.12448 0.600997,1.12448 h 2.630847 c 2.360355,0 2.660496,-0.0545 2.914551,-0.52917 0.197889,-0.36975 0.553724,-0.52916 1.18184,-0.52916 0.666529,0 0.942584,0.1368 1.067118,0.52916 0.138046,0.43497 0.400063,0.52917 1.472778,0.52917 0.717796,0 1.305347,-0.10925 1.305347,-0.24236 0,-0.1331 -0.552109,-1.8052 -1.226799,-3.71605 z m 49.997465,5.2e-4 -1.446423,0.078 -1.445907,0.078 -1.159102,3.2737 c -0.637519,1.80064 -1.159103,3.43775 -1.159103,3.63802 0,0.25472 0.354895,0.36432 1.181324,0.36432 0.910525,0 1.246226,-0.1213 1.46451,-0.52917 0.197888,-0.36975 0.55372,-0.52916 1.18184,-0.52916 0.666529,0 0.942588,0.1368 1.067118,0.52916 0.13805,0.43497 0.400059,0.52917 1.472778,0.52917 0.867159,0 1.30585,-0.11098 1.30638,-0.33073 5.2e-4,-0.1819 -0.55378,-1.85406 -1.231449,-3.71605 z m -68.181368,0.0238 v 1.19062 c 0,1.09363 0.0539,1.19063 0.661458,1.19063 0.655658,0 0.661459,0.0207 0.661459,2.33732 0,1.28543 0.07921,2.41654 0.176216,2.51354 0.09701,0.097 0.692326,0.17622 1.322917,0.17622 h 1.1467 v -2.51354 -2.51354 h 0.79375 c 0.764349,0 0.79375,-0.0441 0.79375,-1.19063 v -1.19062 h -2.778125 z m 21.166667,0 v 3.52795 c 0,1.94028 0.08476,3.61271 0.188619,3.71657 0.103861,0.10424 0.669409,0.15327 1.25677,0.11007 l 1.068152,-0.0786 v -1.78645 c 0,-0.98253 0.02438,-1.7862 0.05426,-1.78594 0.02988,2.6e-4 0.552804,0.83975 1.162202,1.86552 l 1.107943,1.865 1.219047,-0.0791 1.219047,-0.0791 0.07338,-3.63802 0.0739,-3.63802 H 48.9256 47.56651 l 0.0987,1.96112 0.09922,1.96112 -1.155485,-1.96112 -1.156002,-1.96112 h -1.295528 z m 30.427083,0 v 3.70416 3.70417 h 1.175122 1.175639 l 0.08113,-1.12448 0.08165,-1.12448 0.60048,1.12448 c 0.594573,1.11298 0.615454,1.12448 2.050521,1.12448 0.797408,0 1.45004,-0.0751 1.45004,-0.16691 0,-0.0918 -0.407285,-0.73369 -0.904854,-1.42627 l -0.904854,-1.25884 0.640271,-0.55656 c 0.695462,-0.6047 0.850315,-1.79019 0.3545,-2.71663 -0.435147,-0.81308 -1.878433,-1.28312 -3.939294,-1.28312 z m 6.35,0 v 1.19062 c 0,1.14653 0.0294,1.19063 0.79375,1.19063 h 0.79375 v 2.52801 2.52801 l 1.256771,-0.0806 1.256771,-0.0806 0.07596,-2.4474 c 0.07471,-2.40358 0.08773,-2.44739 0.727604,-2.44739 0.595799,0 0.65164,-0.10186 0.65164,-1.19063 v -1.19062 h -2.778125 z m 12.170833,0 v 1.19062 c 0,1.09363 0.05389,1.19063 0.661459,1.19063 0.655449,0 0.661458,0.0207 0.661458,2.33732 0,1.28543 0.07922,2.41654 0.176217,2.51354 0.09702,0.097 0.692327,0.17622 1.322916,0.17622 h 1.1467 v -2.51354 -2.51354 h 0.79375 c 0.76435,0 0.79375,-0.0441 0.79375,-1.19063 v -1.19062 h -2.778125 z m 6.085417,0 v 3.52795 c 0,1.94028 0.07922,3.60716 0.176217,3.70416 0.09702,0.097 0.692327,0.17622 1.322916,0.17622 h 1.146697 v -3.70417 -3.70416 h -1.322913 z m -29.673641,0.001 c -3.008804,0.003 -4.917035,3.20339 -3.327962,5.58209 0.330323,0.49447 1.014934,1.10723 1.521354,1.36167 2.619989,1.31633 5.816732,-0.43994 5.814632,-3.19463 -0.0018,-2.28645 -1.567864,-3.75113 -4.008024,-3.74913 z m 37.490731,0 c -0.71371,-0.0364 -1.46353,0.098 -2.18591,0.4408 -2.62344,1.24491 -2.58794,5.24997 0.0574,6.46782 2.74729,1.2648 5.57839,-0.17273 5.86424,-2.97708 0.22172,-2.17522 -1.59455,-3.82228 -3.73569,-3.93154 z m -51.274903,0.047 c -0.188953,3.4e-4 -0.376892,0.008 -0.552937,0.0243 -1.63637,0.15202 -2.661853,1.08024 -2.661853,2.40916 0,1.16128 0.440727,1.67915 1.723925,2.02468 0.565132,0.15217 1.027845,0.39133 1.027845,0.53124 0,0.33749 -1.510443,0.32839 -1.719792,-0.0103 -0.293982,-0.47567 -0.604535,-0.27973 -0.900204,0.56844 -0.411227,1.17964 -0.388529,1.24009 0.569475,1.51671 1.966234,0.56772 3.676524,0.16008 4.548043,-1.08418 0.891033,-1.27213 0.0623,-2.88725 -1.703772,-3.32072 -0.509323,-0.12502 -0.891384,-0.33916 -0.849044,-0.47543 0.08755,-0.28179 0.722918,-0.29213 1.531173,-0.0253 0.461331,0.15229 0.596219,0.0296 0.839225,-0.76223 0.274328,-0.89384 0.252287,-0.95843 -0.417546,-1.21749 -0.29173,-0.11293 -0.867679,-0.17982 -1.434538,-0.1788 z m -175.145377,0.52503 c -0.59403,0.0166 -1.37193,0.0496 -2.39004,0.0946 -2.36472,0.10449 -4.35897,0.22348 -4.43177,0.26458 -0.0728,0.0411 -0.092,0.73085 -0.0429,1.53272 l 0.0889,1.4578 3.08612,-0.11989 c 1.69713,-0.0659 3.72469,-0.18499 4.50567,-0.26459 l 1.41955,-0.14469 -0.1602,-0.96893 c -0.0882,-0.53311 -0.1613,-1.18951 -0.1633,-1.45831 -0.002,-0.34719 -0.12994,-0.44304 -1.91202,-0.39326 z m 196.907357,1.54357 c 0.352776,0 0.529166,0.17639 0.529166,0.52917 0,0.35278 -0.17639,0.52917 -0.529166,0.52917 -0.352777,0 -0.529167,-0.17639 -0.529167,-0.52917 0,-0.35278 0.17639,-0.52917 0.529167,-0.52917 z m -15.830559,0.0341 c 0.07729,-0.008 0.171744,-0.003 0.286288,0.0134 0.32742,0.0465 0.595312,0.26334 0.595312,0.48162 0,0.21828 -0.267892,0.43461 -0.595312,0.48111 -0.458177,0.0651 -0.595313,-0.0455 -0.595313,-0.48111 0,-0.32671 0.07716,-0.47091 0.309025,-0.49506 z m -29.688627,0.009 c 0.05864,-0.0108 0.128073,-0.008 0.20929,0.007 0.254661,0.049 0.463021,0.26474 0.463021,0.47904 0,0.2143 -0.20836,0.42953 -0.463021,0.47853 -0.324869,0.0626 -0.463021,-0.08 -0.463021,-0.47853 0,-0.29887 0.07782,-0.45381 0.253731,-0.48627 z m 74.789749,0.22169 c 1.21703,0 1.84395,1.391 1.00511,2.22984 -0.49347,0.49349 -1.46733,0.54341 -1.91255,0.0982 -0.17463,-0.17463 -0.31729,-0.62675 -0.31729,-1.00511 0,-0.84365 0.44374,-1.32291 1.22473,-1.32291 z m -36.882502,0.008 c 0.253356,0.0245 0.49248,0.12195 0.679545,0.30902 0.174625,0.17462 0.31781,0.62728 0.31781,1.00562 0,0.37836 -0.143185,0.83048 -0.31781,1.00511 -0.748259,0.74826 -2.328023,0.0663 -2.328023,-1.00511 0,-0.80355 0.888411,-1.38821 1.648478,-1.31464 z m -30.025041,0.27491 c 0.03173,0.006 0.03855,0.14503 0.04754,0.42272 0.01023,0.31552 0.09099,0.762 0.179317,0.99219 0.105387,0.27463 0.01442,0.41857 -0.264583,0.41857 -0.458938,0 -0.525871,-0.60543 -0.160714,-1.4552 0.110067,-0.25614 0.166707,-0.38401 0.198437,-0.37828 z m 49.98403,0.0786 c 0.04141,-0.0219 0.06593,0.0339 0.07338,0.16743 0.01222,0.21828 0.09368,0.66477 0.181384,0.99219 0.11729,0.43765 0.04626,0.59531 -0.2682,0.59531 -0.46155,0 -0.528831,-0.60335 -0.162781,-1.4552 0.0765,-0.17804 0.134804,-0.27778 0.176217,-0.29973 z m -205.980197,6.73241 c -0.13057,-0.13627 -8.10464,2.02208 -8.43669,2.28358 -0.0333,0.0262 0.13195,0.72517 0.36742,1.55288 0.23546,0.82771 0.55437,1.50481 0.70848,1.50481 0.15411,0 1.23851,-0.28819 2.41019,-0.64027 1.17167,-0.35208 2.98618,-0.89054 4.03231,-1.19682 l 1.90221,-0.55707 -0.40462,-1.38235 c -0.2226,-0.76047 -0.4834,-1.46463 -0.5793,-1.56476 z m 149.976897,0.81442 -1.256771,0.0806 -1.256771,0.0806 -0.07752,2.04742 c -0.103566,2.74588 0.270927,4.05375 1.347722,4.71031 1.028784,0.62729 2.818679,0.67481 3.922758,0.10387 1.146538,-0.5929 1.55391,-1.79929 1.55391,-4.60437 v -2.38952 h -1.313098 -1.313098 l -0.07597,2.44739 c -0.07036,2.26353 -0.118481,2.4535 -0.63717,2.5275 -0.710315,0.10135 -0.885585,-0.50429 -0.890385,-3.07113 z m 13.49375,0 -1.256771,0.0806 -1.256771,0.0806 -0.07493,3.29231 c -0.04109,1.81093 -0.01502,3.44805 0.05788,3.63802 0.08206,0.21384 0.589463,0.34571 1.331701,0.34571 h 1.198894 v -1.32292 c 0,-1.2935 0.01764,-1.32291 0.79375,-1.32291 0.777259,0 0.79375,0.0278 0.79375,1.33738 v 1.33739 l 1.25677,-0.0806 1.256771,-0.0806 0.07338,-3.63802 0.0739,-3.63802 h -1.330668 -1.330151 v 1.19062 c 0,1.14653 -0.0294,1.19063 -0.79375,1.19063 -0.76577,0 -0.79375,-0.0425 -0.79375,-1.2051 z m -8.73125,0.0289 v 1.19062 c 0,1.14653 0.0294,1.19063 0.79375,1.19063 h 0.79375 v 2.52801 2.52801 l 1.25677,-0.0806 1.256771,-0.0806 0.07597,-2.4474 c 0.07471,-2.40358 0.08772,-2.44739 0.727604,-2.44739 0.595797,0 0.65164,-0.10186 0.65164,-1.19063 v -1.19062 h -2.778125 z m 22.754166,0 v 3.70416 3.70417 h 1.175122 1.175639 l 0.08113,-1.12448 0.08165,-1.12448 0.60048,1.12448 c 0.594574,1.11298 0.615454,1.12448 2.050521,1.12448 0.797409,0 1.450041,-0.0751 1.450041,-0.16691 0,-0.0918 -0.401011,-0.72474 -0.890902,-1.40664 l -0.890902,-1.23971 0.626319,-0.55759 c 0.681849,-0.60734 0.833564,-1.83315 0.340547,-2.75436 -0.435146,-0.81308 -1.878433,-1.28312 -3.939294,-1.28312 z m 7.14375,0 v 3.70416 3.70417 h 1.322917 1.322917 v -3.70417 -3.70416 H 68.52647 Z m 3.439584,0 v 1.19062 c 0,1.09363 0.0539,1.19063 0.661458,1.19063 0.659057,0 0.661458,0.009 0.661458,2.51354 v 2.51354 h 1.322917 1.322917 v -2.51354 -2.51354 h 0.77773 c 0.698296,0 0.786176,-0.0956 0.859896,-0.93431 l 0.08217,-0.93431 1.124479,1.87534 c 0.989559,1.65011 1.12448,2.06507 1.12448,3.4618 v 1.5875 l 1.25677,-0.0806 1.256771,-0.0806 0.132292,-1.71979 c 0.107116,-1.39253 0.329158,-2.04706 1.166854,-3.43959 0.569014,-0.94587 1.081942,-1.80908 1.139982,-1.91822 0.05804,-0.10913 -0.56235,-0.19844 -1.378727,-0.19844 -1.464557,0 -1.489919,0.0133 -1.898076,0.99012 l -0.413411,0.99012 -0.395325,-0.99012 -0.394808,-0.99012 h -4.204911 z m -15.488977,0.007 c -1.429895,-0.0311 -2.795493,0.65081 -3.562574,1.90892 -1.069794,1.7546 -0.339794,4.05746 1.594218,5.02915 1.145976,0.5758 2.317687,0.58835 3.688664,0.0398 2.749637,-1.10018 2.885155,-5.11196 0.219108,-6.48074 -0.626489,-0.32164 -1.289464,-0.483 -1.939416,-0.49712 z m -28.603939,0.0181 c -0.269401,-0.003 -0.641319,0.006 -1.050065,0.0279 l -1.486215,0.0796 -1.154968,3.30729 c -0.635385,1.81901 -1.157219,3.45612 -1.159619,3.63802 -0.0028,0.22045 0.430758,0.33073 1.300696,0.33073 1.072715,0 1.335248,-0.0942 1.473295,-0.52917 0.124118,-0.39106 0.400323,-0.52916 1.058333,-0.52916 0.658011,0 0.934216,0.1381 1.058334,0.52916 0.138046,0.43496 0.400063,0.52917 1.472778,0.52917 0.899246,0 1.305347,-0.10804 1.305347,-0.34675 0,-0.19054 -0.535782,-1.82027 -1.190625,-3.622 -0.654843,-1.80172 -1.190625,-3.31855 -1.190625,-3.37085 0,-0.0262 -0.167266,-0.0411 -0.436666,-0.0439 z m 36.419999,2.09186 c 0.352777,0 0.529167,0.17639 0.529167,0.52917 0,0.35278 -0.17639,0.52917 -0.529167,0.52917 -0.352777,0 -0.529167,-0.17639 -0.529167,-0.52917 0,-0.35278 0.17639,-0.52917 0.529167,-0.52917 z m -7.873938,0.31471 c 0.148013,0.005 0.304009,0.0305 0.465088,0.0816 0.623944,0.19804 0.984193,1.35868 0.608231,1.95957 -0.427243,0.68284 -1.838009,0.69312 -2.200382,0.016 -0.565087,-1.05587 0.09097,-2.08932 1.127063,-2.05724 z m -29.533598,0.29663 c 0.04792,0.0299 0.09535,0.24748 0.183451,0.67851 0.100383,0.49113 0.182418,0.99714 0.182418,1.12448 0,0.12733 -0.178594,0.23151 -0.396875,0.23151 -0.41866,0 -0.467075,-0.49312 -0.156063,-1.5875 0.09074,-0.31928 0.139153,-0.47694 0.187069,-0.447 z m -140.185754,4.34133 c -0.45646,0.0755 -1.36814,0.56036 -3.60392,1.78026 -2.06075,1.12439 -3.74654,2.16523 -3.74654,2.31303 0,0.14781 0.32742,0.85172 0.7276,1.56425 0.40018,0.71252 0.74627,1.29538 0.76947,1.29553 0.0475,3.1e-4 7.58382,-4.02375 7.71529,-4.11965 0.10946,-0.0798 -0.85749,-1.94882 -1.34411,-2.59777 -0.13424,-0.17902 -0.24392,-0.28093 -0.51779,-0.23565 z m 5.10873,6.95358 c -0.10522,0 -1.0217,0.74414 -2.03657,1.65365 -1.01488,0.9095 -2.48508,2.22488 -3.26698,2.92334 l -1.42162,1.2702 1.28829,1.30742 1.28778,1.30741 0.67334,-0.6134 c 0.62481,-0.56907 5.57747,-4.92558 5.80068,-5.10253 0.13986,-0.11088 -2.0912,-2.74609 -2.32492,-2.74609 z m 57.436802,2.41071 -2.018998,1.72289 -2.019515,1.72289 0.73949,0.84233 c 0.406642,0.46317 1.68588,1.94318 2.84272,3.28921 1.156839,1.34602 2.176552,2.44739 2.266012,2.44739 0.08947,0 1.025667,-0.72647 2.080493,-1.61437 1.706412,-1.43638 1.87717,-1.66246 1.549259,-2.05052 -0.202697,-0.23988 -1.509243,-1.76921 -2.903698,-3.39824 z m -51.731722,3.14554 c -0.27967,0 -5.23493,6.64128 -5.14853,6.90036 0.0493,0.14802 0.68297,0.73334 1.40819,1.30069 0.72522,0.56735 1.37827,1.03305 1.45107,1.03405 0.17014,0.003 5.13697,-6.63524 5.22707,-6.98614 0.0594,-0.23141 -2.57614,-2.24896 -2.9378,-2.24896 z m 44.618461,2.57297 c -0.296562,-0.002 -0.815888,0.26264 -2.038635,0.92501 -1.14951,0.62269 -2.083209,1.22756 -2.074809,1.34411 0.0084,0.11656 0.867282,1.87272 1.908411,3.9026 1.041132,2.02987 2.003798,3.69073 2.138887,3.69073 0.444121,0 4.222998,-1.96298 4.222998,-2.19366 0,-0.2838 -3.292622,-6.76949 -3.75946,-7.40524 -0.121333,-0.16523 -0.219454,-0.26232 -0.397392,-0.26355 z m -37.066988,2.12184 c -0.03677,0.002 -0.06244,0.0108 -0.07545,0.0253 -0.190473,0.21294 -3.095202,7.1732 -3.204972,7.67963 -0.0484,0.22335 0.578128,0.64826 1.64176,1.11415 0.945884,0.41431 1.779324,0.75561 1.852084,0.75861 0.186134,0.008 3.483265,-7.73224 3.431315,-8.05481 -0.0511,-0.31727 -3.09321,-1.56048 -3.644739,-1.5229 z m 29.524813,1.50998 c -0.119319,-0.11932 -4.035854,0.83967 -4.470012,1.09451 -0.08896,0.0522 0.240342,1.55643 0.731739,3.34295 0.491399,1.78651 1.014875,3.69486 1.163753,4.24057 0.148876,0.5457 0.402154,0.99218 0.562756,0.99218 0.305813,0 3.933992,-1.04352 4.216797,-1.21284 0.163946,-0.0982 -1.948676,-8.20101 -2.205033,-8.45737 z m -21.408513,1.08056 c -0.11597,-0.006 -0.188878,-0.002 -0.205155,0.0139 -0.135879,0.1307 -1.609371,7.76427 -1.611271,8.34729 -10e-4,0.32081 0.393128,0.50037 1.52032,0.6935 2.882544,0.49387 2.547076,0.87533 3.474207,-3.95066 0.452135,-2.35351 0.765448,-4.33497 0.696598,-4.40387 -0.154787,-0.15478 -3.062905,-0.66028 -3.874699,-0.70021 z m 11.962061,0.75292 c -0.424955,0.005 -0.991272,0.0313 -1.596802,0.078 l -2.201933,0.17001 0.168982,2.3797 c 0.09291,1.30892 0.168982,3.3201 0.168982,4.46949 v 2.0898 l 2.315104,-0.18087 c 1.273306,-0.0997 2.324542,-0.19539 2.336292,-0.21239 0.09677,-0.14038 -0.333443,-8.6332 -0.442867,-8.74262 -0.03923,-0.0393 -0.322803,-0.0561 -0.747758,-0.0512 z" /></g></svg>
