<?xml version="1.0" encoding="UTF-8" standalone="no"?>
<!-- Created with Inkscape (http://www.inkscape.org/) -->

<svg
   width="470.63892mm"
   height="53.425304mm"
   viewBox="0 0 470.63892 53.425303"
   version="1.1"
   id="svg5"
   xml:space="preserve"
   xmlns="http://www.w3.org/2000/svg"
   xmlns:svg="http://www.w3.org/2000/svg"><defs
     id="defs2" /><g
     id="layer1"
     transform="translate(175.8518,-156.91331)"><path
       id="path366"
       style="fill:#000000;stroke-width:0.264583"
       d="m 290.81687,156.91397 c -0.44563,0.002 -0.87638,0.1287 -1.4056,0.37983 -1.29931,0.61656 -1.75633,1.69347 -2.37453,5.595 -0.31025,1.95808 -0.68337,3.55834 -0.82889,3.55534 -0.14552,-0.003 -0.51669,-1.59663 -0.82527,-3.54138 -0.60553,-3.81591 -0.74383,-4.21185 -1.81746,-5.21622 -0.8854,-0.82827 -2.81377,-0.91577 -3.9393,-0.17829 -1.06297,0.69648 -1.39297,1.74271 -1.72547,5.46995 -0.16227,1.81901 -0.36504,3.99191 -0.45114,4.82865 l -0.15658,1.52135 h 1.58388 c 1.58075,0 1.58427,-0.002 1.73013,-0.85989 0.0804,-0.47294 0.21994,-2.28865 0.30954,-4.0349 0.18338,-3.57238 0.3448,-4.6939 0.64854,-4.50618 0.11449,0.0708 0.29054,0.75243 0.39171,1.51515 0.69382,5.23023 1.44452,7.2587 2.9285,7.91218 0.8862,0.39024 2.75154,0.0906 3.43494,-0.55139 0.8364,-0.78577 1.08531,-1.51488 1.58026,-4.63434 0.81445,-5.13299 1.04395,-5.37808 1.30276,-1.38906 0.0968,1.49158 0.2494,3.57517 0.339,4.6302 l 0.1633,1.91823 h 1.55081 c 1.84026,0 1.73092,0.52355 1.16789,-5.59552 -0.44469,-4.83294 -0.79483,-5.90227 -2.11254,-6.45284 -0.58831,-0.24581 -1.04885,-0.36799 -1.49448,-0.36587 z m -21.56251,0.005 c -2.66625,0.0854 -4.79337,1.19852 -5.57537,3.0701 -0.47597,1.13962 -0.47181,5.38509 0.007,6.50348 0.51083,1.19386 1.74948,2.27762 3.10886,2.71973 0.72952,0.23725 1.95419,0.34627 3.31452,0.29507 4.28054,-0.16123 6.00876,-1.91202 6.01876,-6.09523 0.003,-1.18443 -0.14593,-2.59238 -0.33022,-3.12849 -0.4891,-1.4227 -2.07941,-2.74406 -3.72742,-3.09749 -0.97865,-0.20988 -1.9271,-0.29565 -2.81585,-0.26717 z m -197.024146,0.008 c -0.377654,-0.002 -0.768256,0.0162 -1.170472,0.0538 -2.54296,0.23746 -4.434086,1.41295 -5.099947,3.17035 -0.409605,1.08105 -0.354646,5.32032 0.08217,6.34121 0.510816,1.19386 1.749473,2.27762 3.108854,2.71973 1.815143,0.59034 5.168559,0.36923 6.75411,-0.44493 1.984532,-1.01904 2.605274,-2.33481 2.605009,-5.52421 -2.54e-4,-2.139 -0.09143,-2.67203 -0.609782,-3.57653 -1.011743,-1.76545 -3.026363,-2.72772 -5.669938,-2.73937 z m 165.827606,0.0408 c -0.55072,0.0269 -1.09777,0.0871 -1.51464,0.17363 -3.2054,0.66544 -4.44642,2.36894 -4.43642,6.0911 0.009,3.52004 1.21047,5.41901 3.84731,6.07973 0.57271,0.14348 1.99967,0.22055 3.17087,0.17105 4.2288,-0.17864 5.9402,-1.97476 5.9402,-6.23424 0,-4.02095 -1.60138,-5.85254 -5.47098,-6.25699 -0.4313,-0.0451 -0.98562,-0.0512 -1.53634,-0.0243 z m -131.53306,0.0145 c -1.18599,-0.0247 -2.43784,0.56141 -3.05459,1.6309 -0.25191,0.43683 -0.70324,2.39175 -1.00253,4.34444 -0.759,4.95222 -0.82883,4.96052 -1.59421,0.18965 -0.61696,-3.84579 -1.009359,-4.97459 -1.940453,-5.58467 -1.634939,-1.07125 -4.03191,-0.59181 -4.838465,0.9679 -0.238707,0.46162 -0.552492,2.44525 -0.778764,4.92528 -0.208358,2.2838 -0.41596,4.53968 -0.46147,5.01262 l -0.08268,0.85989 h 1.62419 1.62419 l 0.322978,-4.55838 c 0.434921,-6.13308 0.526051,-6.19008 1.467094,-0.92139 0.726756,4.0689 0.901844,4.50849 2.082043,5.22811 1.521827,0.92792 3.775817,0.42031 4.519617,-1.01803 0.22246,-0.4302 0.6549,-2.31515 0.96118,-4.18837 0.30628,-1.87322 0.6267,-3.58407 0.7121,-3.80235 0.24061,-0.61553 0.5247,1.35809 0.72347,5.02708 0.0985,1.81901 0.23913,3.51564 0.31213,3.77031 0.10737,0.37472 0.4348,0.46302 1.71824,0.46302 h 1.58595 l -0.14314,-1.12448 c -0.0787,-0.61847 -0.27336,-2.67229 -0.43253,-4.56406 -0.351,-4.17155 -0.58369,-5.14781 -1.41232,-5.92625 -0.51288,-0.48183 -1.20043,-0.71639 -1.91203,-0.73122 z m 36.08359,0.0196 c -0.67971,0.06 -1.34617,0.34907 -1.86035,0.88625 -0.57529,0.60104 -4.94419,10.52835 -4.95319,11.2541 -0.001,0.1161 0.74156,0.17559 1.65106,0.13229 l 1.65365,-0.0786 0.3917,-1.13275 0.39171,-1.13274 2.8913,0.0744 2.89181,0.0744 0.4098,1.12448 0.40927,1.12448 h 1.66502 c 0.91581,0 1.66501,-0.10255 1.66501,-0.22737 0,-0.29805 -3.75196,-9.43791 -4.34134,-10.57559 -0.56301,-1.0868 -1.73261,-1.62336 -2.86545,-1.52342 z m 36.57554,0.10336 -3.50573,0.092 c -3.15523,0.0829 -3.62288,0.15864 -4.67775,0.75396 -1.76633,0.99686 -2.40065,2.39371 -2.39365,5.26686 0.009,3.39199 0.88602,4.93048 3.30109,5.78673 0.43656,0.15478 2.25227,0.29081 4.0349,0.30231 l 3.24114,0.0212 v -1.32291 -1.32292 h -2.47375 c -4.07894,0 -4.67,-0.43612 -4.67,-3.44475 0,-1.69919 0.36214,-2.77487 1.02836,-3.05718 0.23498,-0.0996 1.70677,-0.24046 3.27112,-0.31316 l 2.84427,-0.13229 v -1.31465 z m 27.51667,0.006 v 6.10867 6.10815 h 1.5875 1.5875 v -1.94975 -1.94975 l 2.74298,-0.12196 c 2.08798,-0.0929 2.95652,-0.2467 3.63802,-0.64337 2.09533,-1.21962 2.0754,-5.59825 -0.031,-6.83162 -0.80936,-0.47391 -1.46781,-0.55327 -5.22552,-0.63097 z m -26.19375,0.004 v 6.10661 6.1066 h 1.71979 1.71979 v -4.7625 -4.7625 h 2.50889 c 2.49409,0 2.50931,0.004 2.68459,0.70229 0.28821,1.14831 -0.1685,1.53177 -2.00142,1.68 -1.22177,0.0988 -1.74538,0.26556 -2.02314,0.64543 -0.78423,1.0725 -0.31892,2.15032 2.2071,5.10822 l 1.18649,1.38906 h 1.96939 1.96939 l -2.00298,-2.44739 -2.00349,-2.4474 1.04438,-0.1819 c 2.05216,-0.35763 2.92747,-1.4111 2.92747,-3.52227 0,-1.52504 -0.44462,-2.45089 -1.44022,-2.99671 -0.65291,-0.35794 -1.73743,-0.4598 -5.63739,-0.5302 z m -25.92917,0.0419 v 1.30948 1.30897 l 1.38906,0.0801 1.38907,0.0801 0.0744,3.37344 0.0739,3.37344 h -1.46296 -1.46348 v 1.32292 l -0.001,-5.2e-4 v 1.32292 h 4.51238 4.51239 l -0.0806,-1.25677 -0.0806,-1.25678 -1.25677,-0.0806 -1.25677,-0.0806 v -3.62355 c -8.7e-4,-3.15476 -0.0692,-3.73525 -0.52917,-4.48965 -0.67831,-1.11255 -1.43043,-1.38286 -3.85248,-1.38286 z m -151.7395731,5.2e-4 -26.4572999,26.45833 -26.4573,26.45782 h 16.428972 16.428971 l 26.5653035,-26.44438 26.5653035,-26.4449 -16.536975,-0.0134 z m 51.4624921,0 v 6.08542 6.08541 h 1.719791 1.719792 v -2.24896 -2.24895 h 3.175 3.175 v -1.45521 -1.45521 h -3.175 -3.175 v -1.05833 -1.05834 h 3.175 3.175 v -1.32291 -1.32292 H 59.19535 Z m 25.929166,0 v 6.08542 6.08541 h 1.5875 1.5875 v -4.7625 -4.7625 h 2.508891 c 2.494071,0 2.509312,0.004 2.684591,0.70229 0.288211,1.14831 -0.168487,1.53177 -2.001428,1.68 -1.221758,0.0988 -1.745363,0.26556 -2.023133,0.64543 -0.772762,1.05682 -0.496343,1.76116 1.79989,4.57905 l 1.563213,1.91823 h 1.977657 1.977657 l -1.976107,-2.44739 -1.97559,-2.4474 1.02371,-0.1819 c 2.042423,-0.36302 2.907316,-1.41884 2.907316,-3.5481 0,-2.98353 -1.155306,-3.54604 -7.281209,-3.54604 z m 31.750005,0 v 4.65605 c 0,5.83957 0.25507,6.57251 2.5771,7.40109 1.22516,0.43719 5.22558,0.48526 6.4456,0.0775 2.38956,-0.79863 2.88355,-2.20049 2.88355,-8.17935 v -3.95531 h -1.7198 -1.71979 v 4.48293 c 0,5.25616 -0.0258,5.30665 -2.70474,5.30665 -2.50516,0 -2.58692,-0.17142 -2.58692,-5.42396 v -4.36562 h -1.5875 z m 13.75833,0 v 6.08542 6.08541 h 4.7625 4.7625 v -1.32291 -1.32292 h -3.175 -3.175 v -4.7625 -4.7625 h -1.5875 z m 69.00664,0 c -0.9912,0 -1.80247,0.0688 -1.80247,0.15296 0,0.0842 1.01202,1.84396 2.24895,3.91036 l 2.24896,3.75687 v 2.17506 2.17558 h 1.71979 1.7198 v -2.1301 -2.1301 l 2.24895,-3.78737 c 1.23693,-2.08285 2.24896,-3.86271 2.24896,-3.95531 0,-0.0926 -0.74519,-0.16795 -1.65623,-0.16795 h -1.65674 l -1.26194,2.10581 c -0.69416,1.15836 -1.37063,2.17316 -1.50327,2.25516 -0.13266,0.082 -0.8064,-0.86547 -1.49707,-2.10581 l -1.25573,-2.25516 z m 23.86211,0 v 1.32292 1.32291 h 2.24896 2.24896 v 4.7625 4.7625 h 1.71979 1.71979 v -4.7625 -4.7625 h 2.24896 2.24896 v -1.32291 -1.32292 h -6.21771 z m 40.3965,0 c -4.79817,0 -6.66506,1.01271 -7.29723,3.96048 -0.81397,3.79535 0.37669,6.8791 3.01635,7.81244 v 5.2e-4 c 0.6826,0.24137 2.20901,0.37851 4.29948,0.38551 l 3.24115,0.0119 v -1.29449 -1.2945 l -3.06803,-0.0972 c -3.87353,-0.12296 -4.07572,-0.29139 -4.07572,-3.39927 0,-3.06142 0.19815,-3.23269 3.92792,-3.38636 l 2.95125,-0.12144 v -1.28881 -1.28881 z m -340.610218,0.0331 c -23.347562,0.0341 -27.003332,0.26804 -31.536572,1.03818 -8.55031,1.4526 -14.74426,4.74526 -22.3945,11.90573 -1.60073,1.49825 -11.32612,11.09786 -21.61212,21.33204 l -18.7017,18.60765 14.99753,-5.2e-4 14.99754,-10e-4 12.83229,-12.45092 c 7.05775,-6.84814 13.78479,-13.22604 14.94896,-14.17278 5.33379,-4.33764 9.20497,-5.65525 18.13119,-6.17224 2.708907,-0.15689 19.921083,-0.26981 41.570589,-0.27181 l 36.947099,-0.004 10.086206,-9.85573 10.0862062,-9.85573 -49.6796552,-0.0791 c -12.920319,-0.0205 -22.890544,-0.0315 -30.673063,-0.0202 z m 291.482468,2.34818 h 1.57045 c 2.29716,0 2.92747,0.30708 2.92747,1.42679 0,0.50103 -0.0719,1.09945 -0.1602,1.32963 -0.12766,0.33271 -0.58872,0.41858 -2.24896,0.41858 h -2.08876 v -1.5875 z M 72.144948,159.8032 c 1.735154,0 2.018355,0.0695 2.38125,0.58756 0.577079,0.8239 0.577079,4.87963 0,5.70353 -0.362895,0.51813 -0.646096,0.58808 -2.38125,0.58808 -2.771448,0 -3.027723,-0.29112 -3.027723,-3.43958 0,-3.14847 0.256275,-3.43959 3.027723,-3.43959 z m 197.526442,0 c 2.62819,0 2.91042,0.3278 2.91042,3.38067 0,1.67371 -0.11502,2.48662 -0.41186,2.91042 -0.36642,0.52313 -0.64219,0.58808 -2.49856,0.58808 -2.70902,0 -2.91041,-0.24214 -2.91041,-3.4985 0,-3.05287 0.28222,-3.38067 2.91041,-3.38067 z m -31.06322,0.004 c 2.60893,-0.006 2.8851,0.32387 2.8851,3.43597 0,1.91572 -0.0887,2.42374 -0.50385,2.88251 -0.42301,0.46739 -0.80573,0.55594 -2.38125,0.55294 -1.03245,-0.002 -2.00821,-0.0915 -2.16834,-0.19844 -0.61888,-0.41324 -0.89969,-1.42302 -0.89969,-3.23701 0,-1.814 0.28081,-2.82429 0.89969,-3.23753 0.16013,-0.10694 1.13589,-0.19644 2.16834,-0.19844 z m -95.87683,0.11265 c 0.12748,-0.12749 1.79214,3.8114 1.79214,4.24057 0,0.0774 -0.77392,0.14108 -1.7198,0.14108 -0.94589,0 -1.71875,-0.0893 -1.71875,-0.19844 10e-4,-0.2842 1.46422,-4.00103 1.64641,-4.18321 z m 103.9213,5.96915 v 1.71979 1.71979 h 1.71979 1.7198 v -1.71979 -1.71979 h -1.7198 z m -140.30099,11.3767 c -1.34795,0 -2.46756,0.61418 -3.00189,1.64745 -0.2404,0.46485 -0.68905,2.43222 -0.99684,4.37182 -0.30776,1.93962 -0.67385,3.52616 -0.8139,3.52537 -0.14002,-8.3e-4 -0.51226,-1.58976 -0.82682,-3.53105 -0.31459,-1.9413 -0.767584,-3.90794 -1.006661,-4.37028 -1.252087,-2.42124 -5.116062,-2.04694 -5.968628,0.57826 -0.206772,0.63667 -1.071769,8.6696 -1.071769,9.9534 0,0.14313 0.700914,0.26045 1.557528,0.26045 h 1.557527 l 0.153996,-1.12448 c 0.08456,-0.61847 0.233566,-2.55323 0.331246,-4.29948 0.180208,-3.22161 0.442905,-4.61675 0.722437,-3.83646 0.07821,0.21828 0.397573,1.8797 0.709517,3.69228 0.731916,4.25302 1.138339,5.05434 2.822567,5.56607 1.36572,0.41449 2.96557,-0.10129 3.67626,-1.18597 0.32327,-0.49335 1.69757,-7.07679 1.69757,-8.13232 0,-0.11256 0.10276,-0.20464 0.22841,-0.20464 0.12568,0 0.30785,1.27993 0.40515,2.84427 0.0973,1.56435 0.24934,3.70747 0.33744,4.7625 l 0.1602,1.91823 h 1.55081 1.55133 v -0.8599 c -0.002,-2.26055 -0.847,-9.32487 -1.19528,-9.99835 -0.54557,-1.05504 -1.39991,-1.57717 -2.5802,-1.57717 z m 47.92213,0 c -1.83009,0 -2.53857,0.9913 -4.96972,6.95617 -1.17396,2.88025 -2.13475,5.29131 -2.13475,5.35781 0,0.0666 0.7213,0.12144 1.60248,0.12144 h 1.60197 l 0.55346,-1.3317 0.55345,-1.3317 2.79828,0.0749 2.79828,0.0749 0.43822,1.19062 0.43821,1.19063 1.75287,0.078 1.75235,0.078 -0.55191,-1.40095 c -1.53816,-3.9072 -3.27943,-8.12159 -3.71192,-8.98291 -0.68432,-1.36284 -1.68747,-2.07533 -2.92127,-2.07533 z m -95.851509,0.005 c -1.452588,-0.0794 -2.838285,0.75631 -3.306258,2.18643 -0.221382,0.67654 -1.074404,8.51372 -1.079004,9.91361 -7.38e-4,0.22724 0.486343,0.33073 1.556494,0.33073 h 1.557528 l 0.150378,-1.12448 c 0.08261,-0.61847 0.22413,-2.55323 0.31471,-4.29948 0.09058,-1.74625 0.223499,-3.38537 0.295589,-3.64215 0.22179,-0.78994 0.543404,-0.27448 0.736389,1.18029 0.101176,0.76271 0.4099,2.50861 0.685746,3.87986 0.546444,2.71642 1.08326,3.57609 2.492871,3.99046 1.440219,0.42338 3.020121,-0.0718 3.741374,-1.17254 0.323252,-0.49335 1.697054,-7.07679 1.697054,-8.13232 0,-0.11256 0.101737,-0.20464 0.225826,-0.20464 0.124087,0 0.304203,1.27993 0.400492,2.84427 0.09629,1.56435 0.249291,3.70747 0.340031,4.7625 l 0.165365,1.91823 h 1.55081 c 1.840363,0 1.724123,0.57671 1.14825,-5.7087 -0.414769,-4.52701 -0.706997,-5.56823 -1.771468,-6.31382 -0.739678,-0.51811 -2.383182,-0.53297 -3.355868,-0.03 -1.26182,0.65251 -1.64768,1.59497 -2.247408,5.49011 -0.310853,2.01895 -0.678636,3.69632 -0.817521,3.72742 -0.138882,0.0311 -0.507937,-1.55522 -0.820105,-3.52537 -0.627744,-3.96182 -1.063758,-5.07721 -2.217952,-5.67407 -0.467467,-0.24174 -0.959127,-0.36988 -1.443323,-0.39636 z m 26.451615,0.0222 c -0.892716,-0.0126 -1.781622,0.33314 -2.311486,1.04283 -0.484621,0.6491 -4.713925,10.64699 -4.713925,11.14351 0,0.13599 0.729341,0.21177 1.620573,0.16847 l 1.620573,-0.0786 0.463538,-1.19063 0.464054,-1.19062 2.771924,-0.0749 2.771407,-0.0749 0.553455,1.3317 0.553454,1.3317 h 1.60197 c 0.881194,0 1.601969,-0.10558 1.601969,-0.23461 0,-0.59431 -4.094141,-10.31256 -4.661731,-11.06548 -0.546444,-0.72487 -1.443058,-1.09587 -2.335775,-1.10846 z m 80.985754,0.0165 c -0.54752,0.008 -1.09509,0.1198 -1.56683,0.34365 -1.58962,0.75432 -1.77767,1.5099 -1.77767,7.14013 v 4.93355 l 1.65365,-0.0791 1.65364,-0.0786 0.1323,-4.7625 c 0.0893,-3.21603 0.21191,-4.59068 0.37723,-4.23334 0.13462,0.29104 0.87776,2.06835 1.65158,3.94963 1.46868,3.5705 2.07176,4.4732 3.39514,5.08186 0.92361,0.42479 2.52522,0.27429 3.43597,-0.32246 1.19129,-0.78056 1.45883,-2.08836 1.45883,-7.12721 v -4.62452 h -1.7198 -1.71979 v 4.81521 c 0,2.96945 -0.0939,4.71906 -0.24546,4.56406 -0.1352,-0.13824 -0.80447,-1.62037 -1.48673,-3.29386 -1.58491,-3.88759 -2.03181,-4.75228 -2.85564,-5.52111 -0.56126,-0.52379 -1.47388,-0.79867 -2.38642,-0.78548 z m -92.509081,0.22118 v 6.08541 6.08542 h 1.5875 1.5875 v -6.08542 -6.08541 h -1.5875 z m 38.629171,0 v 6.08541 6.08542 h 1.5875 1.5875 v -6.08542 -6.08541 h -1.5875 z m 17.16277,0 c -2.3708,0 -4.44105,0.13058 -5.07462,0.32039 -2.38901,0.71577 -3.54851,3.02043 -3.29593,6.5505 0.22579,3.15574 1.68469,4.87018 4.51807,5.30976 1.9502,0.30256 5.16634,0.0226 6.28282,-0.54674 1.28627,-0.6559 1.57355,-1.45332 1.57355,-4.37027 v -2.50114 h -3.04271 -3.0427 v 1.32291 1.32292 h 1.5875 c 1.56239,0 1.5875,0.0114 1.5875,0.74052 0,1.15636 -0.43031,1.37615 -2.69855,1.37615 -2.86711,0 -3.12415,-0.27736 -3.11815,-3.37344 0.002,-1.2733 0.0915,-2.44644 0.19843,-2.60656 0.4781,-0.71602 1.48591,-0.89917 4.93975,-0.89917 h 3.58893 v -1.32292 -1.32291 z m 5.85598,0 v 6.09781 6.09782 l 1.65364,-0.0791 1.65365,-0.0786 0.0723,-4.82864 0.0718,-4.82865 1.91255,0.004 c 2.82207,0.005 3.10265,0.12447 3.10265,1.32137 0,1.14305 -0.26648,1.32085 -1.98437,1.32085 -1.49857,0 -1.9734,0.20161 -2.2624,0.9617 -0.34131,0.89779 0.0576,1.73894 1.94355,4.09742 l 1.64176,2.05362 1.91823,0.0155 c 1.05502,0.008 1.91823,-0.0544 1.91823,-0.13953 0,-0.0851 -0.84456,-1.18518 -1.87689,-2.4443 l -1.87688,-2.28926 0.97823,-0.20309 c 2.16228,-0.44925 3.25873,-2.05546 2.92437,-4.28501 -0.18354,-1.22395 -0.87091,-2.05232 -2.08411,-2.51199 -0.42084,-0.15945 -2.69377,-0.28215 -5.22552,-0.28215 z m 43.12708,0 v 6.11228 6.11281 l 4.29948,-0.093 c 4.12646,-0.0896 4.34912,-0.12278 5.53093,-0.81752 1.74037,-1.0231 2.34042,-2.35343 2.34042,-5.18883 0,-3.20408 -0.73294,-4.68892 -2.77812,-5.62808 -0.88249,-0.40519 -1.7507,-0.48696 -5.22552,-0.49196 z m 17.72708,0 v 6.08541 6.08542 h 1.5875 1.5875 v -1.94458 -1.94459 l 2.64945,-0.16123 c 4.1149,-0.25069 5.00392,-0.88943 5.20744,-3.74086 0.14145,-1.98176 -0.43102,-3.24692 -1.77147,-3.91655 -0.76386,-0.38162 -1.65595,-0.46267 -5.09323,-0.46302 z m 12.43542,0 v 5.90868 c 0,3.24996 0.0797,5.98842 0.17673,6.08542 0.097,0.097 0.87091,0.17673 1.71979,0.17673 h 1.54306 v -4.89479 -4.89479 h 2.09496 c 2.73093,0 2.93213,0.0907 2.93213,1.32291 0,1.15433 -0.26114,1.32292 -2.05104,1.32292 -1.47238,0 -2.1823,0.55163 -2.1823,1.69705 0,0.62219 0.45191,1.38343 1.86087,3.13418 l 1.86087,2.31252 h 1.8433 c 1.01383,0 1.83899,-0.0893 1.83399,-0.19844 -0.005,-0.10914 -0.82547,-1.20815 -1.82314,-2.44223 l -1.81384,-2.24379 1.18752,-0.30179 c 1.67445,-0.42516 2.5025,-1.33988 2.65565,-2.93367 0.0796,-0.82863 -0.0242,-1.6429 -0.29145,-2.28255 -0.65256,-1.5618 -1.46108,-1.76836 -6.90811,-1.76836 z m 13.22917,0 v 6.09781 6.09834 l 1.65364,-0.0791 1.65365,-0.0786 0.0713,-6.01927 0.0713,-6.01927 h -1.72496 z m 6.61251,0 c -1.01748,0 -1.85001,0.0675 -1.85001,0.14986 0,0.11858 2.95772,4.22874 4.00492,5.56555 0.14435,0.18426 -0.55034,1.37886 -1.88826,3.24786 -1.16409,1.62613 -2.11666,3.01827 -2.11666,3.09387 0,0.0756 0.80287,0.10243 1.78387,0.0594 l 1.78335,-0.078 1.26814,-1.85209 c 0.69737,-1.01864 1.41764,-1.88623 1.60094,-1.92753 0.18329,-0.0412 0.95955,0.82196 1.72495,1.91823 l 1.39217,1.99368 h 1.87017 c 1.45929,0 1.81298,-0.0727 1.6092,-0.33073 -0.14367,-0.18191 -1.17235,-1.5629 -2.28616,-3.06855 l -2.0252,-2.7373 1.25005,-1.76061 c 0.68744,-0.9682 1.65299,-2.32564 2.14612,-3.01687 l 0.89659,-1.25677 h -1.87482 -1.87482 l -1.23145,1.85208 c -0.67736,1.01865 -1.37523,1.85208 -1.55081,1.85208 -0.17557,0 -0.87345,-0.83343 -1.55081,-1.85208 l -1.23145,-1.85208 z m -29.1021,2.38125 h 1.93167 c 2.20685,0 2.56625,0.22243 2.56625,1.5875 0,0.52388 -0.14267,1.09507 -0.31729,1.26969 -0.18897,0.18895 -1.09951,0.31781 -2.24896,0.31781 h -1.93167 v -1.5875 z m -223.440623,0.25114 -39.158333,0.0827 c -43.229094,0.091 -41.383624,0.0203 -46.167724,1.7663 -3.93494,1.43606 -5.04286,2.38024 -18.39061,15.67139 l -12.43542,12.38271 13.89476,0.004 13.89476,0.004 3.30316,-3.32641 c 4.19314,-4.22258 6.71421,-6.26566 8.60258,-6.97219 0.931614,-0.34856 2.651549,-0.65473 4.578527,-0.81442 1.698828,-0.14078 14.388734,-0.25793 28.2236,-0.25993 l 25.136967,-0.004 9.258867,-9.26713 z m 205.978123,0.0134 h 2.09807 c 2.95809,0 3.34544,0.4884 3.14864,3.97133 -0.0734,1.29995 -0.24162,1.98466 -0.56689,2.30994 -0.34216,0.34217 -1.00993,0.48721 -2.5709,0.55811 l -2.10892,0.0956 v -3.46749 z m -27.33786,0.15244 c 0.0397,-0.0118 0.0759,-0.004 0.10593,0.0258 0.1986,0.19861 1.56735,3.62934 1.56735,3.92845 0,0.0695 -0.77189,0.1266 -1.71566,0.1266 h -1.71617 l 0.555,-1.38906 c 0.3052,-0.76398 0.6754,-1.72562 0.82269,-2.13682 0.11049,-0.30841 0.2616,-0.51956 0.38086,-0.55501 z m -69.377682,0.0279 c 0.157064,-0.0362 1.730127,3.5845 1.730127,3.98219 0,0.0388 -0.781668,0.0708 -1.737361,0.0708 -1.97017,0 -1.909265,0.19128 -0.803569,-2.52646 0.330758,-0.81299 0.695641,-1.49992 0.810803,-1.52652 z m 10.626742,17.28215 c -0.784833,0 -1.719978,0.60555 -1.99316,1.29088 -0.234738,0.58884 -2.137321,10.33471 -2.139921,10.9616 -4.77e-4,0.11789 0.442091,0.17749 0.983402,0.13229 l 0.98392,-0.0816 0.722436,-4.36562 c 0.998642,-6.0344 1.009439,-6.08542 1.264523,-6.08542 0.124856,0 0.6632,1.87523 1.196309,4.16719 1.161494,4.99328 1.341164,5.57792 1.904276,6.20014 0.257016,0.28401 0.801161,0.48059 1.331702,0.48059 1.594643,0 1.951003,-0.66618 3.219963,-6.01927 0.62954,-2.65575 1.23812,-4.82865 1.35237,-4.82865 0.29009,0 0.36637,0.36245 1.21801,5.77949 l 0.75551,4.80385 h 0.99994 c 0.62428,0 0.99891,-0.12428 0.99891,-0.33073 -0.004,-1.12197 -1.92262,-10.71985 -2.24018,-11.20449 -0.53766,-0.82058 -1.83371,-1.06497 -2.68614,-0.50643 -0.8998,0.58957 -1.18821,1.37066 -2.3704,6.41925 -0.55372,2.36471 -1.081029,4.29948 -1.172019,4.29948 -0.09099,0 -0.681404,-2.17065 -1.312064,-4.82348 -0.970781,-4.08345 -1.259515,-4.93575 -1.879989,-5.55625 -0.403118,-0.40311 -0.914778,-0.73277 -1.137398,-0.73277 z m -11.715564,0.0109 c -0.972748,-0.0539 -1.942564,1.19823 -3.079399,3.74758 -0.667987,1.49795 -1.811094,4.06332 -2.539896,5.70042 l -1.324984,2.97657 h 1.052649 c 1.033911,0 1.06539,-0.0285 1.741496,-1.5875 l 0.68833,-1.5875 h 3.361552 3.362068 l 0.684713,1.5875 c 0.6748,1.56389 0.70101,1.5875 1.750281,1.5875 h 1.065051 l -1.266589,-2.84427 c -0.696562,-1.56435 -1.776758,-4.03491 -2.40037,-5.49011 -1.146743,-2.67594 -2.122154,-4.03626 -3.094902,-4.09019 z m -25.743648,0.0816 c -0.661592,-0.0667 -1.337685,0.19348 -1.741496,0.80977 -0.227049,0.34652 -0.861174,3.05337 -1.409733,6.01514 l -0.997872,5.3852 0.904338,0.0837 c 0.497328,0.0464 0.945188,0.0429 0.995288,-0.007 0.0501,-0.0501 0.484828,-2.38573 0.965832,-5.19038 0.481002,-2.80467 0.993428,-5.10102 1.138949,-5.10202 0.14552,-0.001 0.697111,1.83598 1.225765,4.08296 1.187242,5.04624 1.474486,5.92807 2.035534,6.25543 v -5.2e-4 c 0.783817,0.45733 2.106349,0.31361 2.669088,-0.29042 0.353994,-0.37996 0.90302,-2.1375 1.674317,-5.35781 0.6313,-2.6358 1.262328,-4.79247 1.401981,-4.79247 0.185359,0 1.809146,8.50689 1.956987,10.2526 0.0092,0.10913 0.495182,0.19844 1.080037,0.19844 0.966635,0 1.051139,-0.0541 0.927592,-0.59531 -0.07475,-0.32742 -0.49981,-2.65752 -0.944645,-5.17798 -0.444837,-2.52046 -0.916463,-4.86561 -1.047998,-5.21157 -0.588701,-1.5484 -2.738216,-1.83133 -3.625619,-0.47697 -0.239018,0.36478 -0.938042,2.74463 -1.553393,5.28805 -0.615355,2.5434 -1.187047,4.69222 -1.270207,4.77541 -0.202613,0.20261 -0.244512,0.0566 -1.376143,-4.81934 -0.540364,-2.32834 -1.149111,-4.56587 -1.352889,-4.97231 -0.346939,-0.69195 -0.994121,-1.0857 -1.655713,-1.15238 z m 17.185514,0.14004 -0.992187,0.0822 -0.992188,0.0822 -0.0708,6.01928 -0.07131,6.01927 h 1.063501 1.062984 v -6.10144 z m 35.454168,0.032 v 6.08542 6.08542 h 0.92604 0.92604 v -6.08542 -6.08542 h -0.92604 z M 5.4069023,198.49335 c -3.0688023,-0.19993 -6.17522325,2.10308 -6.20944009,5.73556 -0.023556,2.50075 1.37769214,4.69065 3.56308999,5.56762 0.968425,0.38862 3.5791954,0.31419 4.6477783,-0.13229 3.5848015,-1.49783 4.5363885,-6.20473 1.8675863,-9.23664 -1.087262,-1.2352 -2.4741043,-1.84338 -3.8690145,-1.93425 z m -0.4335653,0.9927 c 2.4043015,0.0129 4.6886027,1.96576 4.6886027,4.8674 0,1.9279 -0.8884829,3.44654 -2.5099243,4.29018 -0.3929566,0.20446 -1.4167971,0.37207 -2.2753133,0.37207 -1.3005137,0 -1.7367516,-0.12756 -2.6143107,-0.76326 -1.31665273,-0.95378 -1.93683267,-2.22966 -1.93683267,-3.98632 0,-1.5316 0.39780982,-2.46107 1.49809977,-3.50211 0.9393384,-0.88876 2.0568143,-1.28384 3.1496785,-1.27796 z m 78.740413,0.25425 c 0.03524,0.009 0.06903,0.032 0.101803,0.0667 0.332851,0.35247 2.235006,4.62662 2.235006,5.02192 0,0.1199 -1.122509,0.21807 -2.494422,0.21807 h -2.494421 l 1.213879,-2.79259 c 0.854125,-1.96522 1.191494,-2.57765 1.438155,-2.51406 z m -81.2715246,1.3379 v 3.13056 c 0,1.722 0.084433,3.21551 0.1875854,3.31866 0.1031529,0.10325 0.4305745,0.15257 0.7276042,0.11007 0.4310876,-0.0617 0.5567276,-0.30389 0.6216675,-1.20147 0.1152049,-1.59231 0.903708,-1.56149 1.6944702,0.0661 0.4365246,0.8985 0.7276281,1.19063 1.1870077,1.19063 0.7255022,0 0.7503691,-0.35489 0.1080037,-1.56063 -0.4634345,-0.86989 -0.4633125,-0.9149 0.010852,-1.38906 0.4971515,-0.49715 0.6727576,-2.18848 0.287321,-2.76573 C 6.8612925,201.37016 5.8582924,201.0782 4.179587,201.0782 Z m 2.1962484,1.05834 c 0.4802185,0 1.0160001,0.14267 1.190625,0.31729 0.4536115,0.45361 0.3919577,1.44938 -0.1012858,1.63866 -0.2301828,0.0883 -0.7659645,0.16071 -1.190625,0.16071 -0.7244093,0 -0.7720459,-0.0654 -0.7720459,-1.05833 0,-1.02093 0.031077,-1.05833 0.8733317,-1.05833 z" /></g></svg>
