<?xml version="1.0" encoding="UTF-8" standalone="no"?>
<!-- Created with Inkscape (http://www.inkscape.org/) -->

<svg
   width="610.41711mm"
   height="162.28835mm"
   viewBox="0 0 610.41713 162.28835"
   version="1.1"
   id="svg5"
   xml:space="preserve"
   xmlns="http://www.w3.org/2000/svg"
   xmlns:svg="http://www.w3.org/2000/svg"><defs
     id="defs2" /><g
     id="layer1"
     transform="translate(171.5648,-175.27032)"><path
       id="path1200"
       style="fill:#000000;stroke-width:0.264583"
       d="m -90.527805,175.27033 c -9.969835,0.004 -19.989415,1.83057 -29.519125,5.54643 -6.6516,2.59361 -15.43453,7.67633 -21.17132,12.25248 -2.89774,2.31147 -10.22874,9.64304 -12.54084,12.54135 -6.13078,7.68516 -11.50495,17.85913 -14.2813,27.03608 -4.39572,14.5297 -4.68518,29.92102 -0.83715,44.54818 7.65443,29.09613 31.34954,51.88631 60.73221,58.41246 3.59242,0.7979 7.87938,1.44564 11.68042,1.76475 6.231378,0.52311 15.531176,-0.0825 22.331453,-1.45418 27.117735,-5.46975 49.937415,-24.9833 59.715735,-51.06458 9.2437579,-24.65544 5.8711493,-52.46278 -9.001001,-74.21562 -2.888025,-4.22419 -5.526615,-7.36019 -9.696566,-11.52488 -4.221253,-4.21593 -6.400167,-6.08265 -10.474812,-8.97258 -13.843026,-9.81811 -30.321318,-14.87605 -46.937704,-14.86989 z m -8.760189,11.07219 c 0.28186,0.076 -0.04359,0.37037 -0.741036,0.94671 -2.90584,2.40124 -5.44924,6.60615 -6.55464,10.83758 -0.77326,2.96003 -0.94031,7.50772 -0.39171,10.64845 1.17914,6.75049 3.94578,12.25641 11.76569,23.41511 10.54189,15.04285 13.688285,20.24057 16.450159,27.17301 4.409584,11.06828 4.126042,22.39594 -0.817004,32.63367 -5.974633,12.37429 -17.570484,20.4717 -31.621845,22.08134 -4.76093,0.54542 -10.81646,0.11947 -15.40784,-1.08314 -9.68482,-2.53669 -16.96443,-8.27216 -23.48177,-18.50171 -12.56173,-19.71676 -14.41282,-45.62796 -4.79661,-67.14422 9.38882,-21.00747 29.7475,-36.71081 52.69239,-40.64352 1.73286,-0.29701 2.622357,-0.43932 2.904216,-0.36328 z m 28.237037,3.78995 c 1.703136,0.0174 3.56318,0.2704 5.356779,0.75654 11.93966,3.2362 25.454695,13.76156 33.877001,26.38237 5.954713,8.92312 9.624126,18.50868 11.286133,29.48192 1.02599,6.77398 0.778852,16.48611 -0.60203,23.66161 -0.292119,1.51795 -0.680901,3.12531 -0.86403,3.57187 -0.311743,0.76023 -0.344373,0.65217 -0.514697,-1.70119 -0.552326,-7.6315 -3.94452,-17.30851 -8.843905,-25.22895 -4.463435,-7.21567 -11.169582,-14.29069 -18.581295,-19.60397 -1.382446,-0.99104 -6.978391,-4.78018 -12.435416,-8.42016 -12.093925,-8.06695 -14.81091,-10.23196 -17.009815,-13.55473 -1.800752,-2.72112 -2.295191,-6.65966 -1.203027,-9.57874 0.782015,-2.09012 2.962462,-4.26733 5.118034,-5.10976 1.166558,-0.45592 2.713131,-0.6742 4.416268,-0.65681 z m 130.08715,27.97969 c -1.27153,0.0431 -2.267001,0.13707 -3.272152,0.29197 -9.594522,1.47854 -16.744642,6.03576 -19.987927,12.73875 -1.375541,2.84287 -1.831264,4.9502 -1.836064,8.49044 -0.0072,5.41346 1.624645,9.52999 5.337142,13.46585 3.644367,3.86362 6.932202,5.82981 19.264974,11.51919 5.420725,2.50068 7.963411,4.02426 9.926009,5.94744 2.308778,2.26237 2.906283,3.62318 2.906283,6.61458 0,2.1453 -0.07748,2.52138 -0.784965,3.79874 -1.375119,2.48269 -3.746292,4.09929 -7.508586,5.11907 -1.581994,0.42881 -2.835779,0.55169 -5.729366,0.56069 -6.078849,0.0194 -9.622978,-0.97845 -15.501379,-4.36408 -1.806071,-1.04021 -3.850608,-2.11069 -4.543392,-2.37866 -5.296504,-2.04857 -10.124333,2.97072 -7.780921,8.08942 2.333967,5.09804 10.124363,9.12249 20.54965,10.61641 3.920221,0.56176 12.84697,0.35501 16.483749,-0.38189 9.6482,-1.95498 16.655966,-6.6672 19.906795,-13.38678 1.554368,-3.21294 2.086546,-5.94612 1.904276,-9.77615 -0.326869,-6.86717 -3.496721,-11.98298 -10.116695,-16.3282 -3.065167,-2.01195 -4.516808,-2.77709 -13.489616,-7.10809 -7.638275,-3.68685 -9.880269,-5.01236 -11.615828,-6.8678 -1.749449,-1.87033 -2.266146,-3.13591 -2.270146,-5.56038 -0.004,-2.48759 0.710256,-4.14932 2.484603,-5.77846 3.367534,-3.09194 8.746994,-3.86252 16.827914,-2.41019 2.987777,0.53697 7.324292,1.74814 9.31726,2.60242 l 1.226799,0.52607 1.86862,-5.60638 c 1.027719,-3.08332 1.868103,-5.74213 1.868103,-5.90868 0,-0.36157 -3.832787,-1.92813 -6.614584,-2.70371 -4.158166,-1.15933 -8.103323,-1.67275 -13.890625,-1.80764 -2.110804,-0.0492 -3.658401,-0.0571 -4.929931,-0.014 z m 57.714307,5.8415 -7.9375,2.11667 -7.9375,2.11718 v 6.30039 6.30091 l -5.09323,0.0718 -5.093229,0.0718 -0.07131,5.62239 -0.07131,5.6224 h 5.15214 5.151629 l 0.0941,16.86719 c 0.0849,15.20529 0.14059,17.0221 0.56327,18.43815 1.77749,5.95499 5.95346,9.72581 12.33258,11.13575 l 5.2e-4,-5.1e-4 c 1.24796,0.27587 2.99011,0.35402 6.35,0.28422 5.36466,-0.11155 7.52978,-0.55823 11.01897,-2.27273 4.37403,-2.14929 6.57306,-6.01097 5.23999,-9.20151 -0.83491,-1.99821 -2.37873,-3.04736 -4.485,-3.04736 -1.44018,0 -2.32048,0.36761 -4.63641,1.93528 -4.19531,2.83985 -8.44708,2.3346 -10.07742,-1.19786 -0.45744,-0.99104 -0.48803,-2.06321 -0.49403,-16.86357 l -0.006,-15.80523 8.4956,-0.0698 8.49561,-0.0698 1.82314,-5.27978 c 1.00271,-2.90393 1.82315,-5.37448 1.82315,-5.4901 0,-0.11563 -4.64345,-0.21033 -10.31875,-0.21033 H 116.7505 v -8.68784 z m 180.57812,0.01 -3.175,0.85266 c -1.74624,0.46911 -5.28836,1.41641 -7.87135,2.1053 l -4.69635,1.25263 v 6.30711 6.30763 l -5.09323,0.0718 -5.09323,0.0718 -0.0713,5.62239 -0.0713,5.6224 h 5.16454 5.16455 v 15.98404 c 0,17.61985 0.069,18.5563 1.59886,21.82554 2.13529,4.563 5.83769,7.39425 11.24738,8.60051 1.39057,0.31019 2.96578,0.38659 6.46834,0.31419 5.36468,-0.11091 7.52961,-0.55737 11.01948,-2.27221 4.36203,-2.14339 6.56942,-6.01973 5.23999,-9.20151 -1.42317,-3.40611 -4.87794,-4.03818 -8.64185,-1.5813 -3.45788,2.25708 -6.07915,2.83083 -8.27908,1.8123 -1.23182,-0.57031 -2.36097,-1.69751 -2.76107,-2.75643 -0.32284,-0.85451 -0.37898,-14.08625 -0.10697,-25.27029 l 0.17518,-7.18302 8.45323,-0.0698 8.45323,-0.0698 1.8216,-5.29167 c 1.00192,-2.9104 1.82314,-5.38096 1.82314,-5.4901 6.9e-4,-0.10914 -4.64075,-0.19844 -10.3141,-0.19844 h -10.31513 l -0.0698,-8.68319 z m -53.71455,15.54479 c -6.45973,0.0464 -12.9469,2.44781 -18.47794,6.95874 -0.85186,0.69475 -1.63942,1.16234 -1.75028,1.03922 -0.11086,-0.12313 -0.34333,-1.17626 -0.51676,-2.34043 -0.17344,-1.16417 -0.38139,-2.50362 -0.46199,-2.97656 l -0.14676,-0.8599 h -6.72362 -6.72362 l 0.0723,26.12761 0.0724,26.1276 0.74466,1.51619 c 0.83286,1.69606 2.14674,2.91966 3.74344,3.48661 1.44037,0.51134 4.78367,0.52063 6.26163,0.017 1.69691,-0.57819 2.99529,-1.75911 3.85196,-3.50366 l 0.74414,-1.51619 0.0749,-17.75189 0.0749,-17.75188 1.81384,-1.35289 c 3.7485,-2.79619 7.02186,-4.20399 10.38851,-4.46743 5.01963,-0.39279 9.1612,1.72189 11.18175,5.70921 1.54395,3.04686 1.54361,3.04459 1.71152,20.26905 0.17169,17.61332 0.0625,16.58099 1.97042,18.61023 1.5552,1.65413 2.60882,2.02727 5.72472,2.02727 2.36201,0 2.9423,-0.0876 3.87418,-0.58601 2.11556,-1.13143 3.79874,-3.88266 3.79874,-6.20893 0,-0.41016 0.12902,-0.74569 0.28628,-0.74569 0.2031,0 0.25377,-5.03945 0.17467,-17.39635 -0.10766,-16.81536 -0.13057,-17.47058 -0.68678,-19.61276 -1.84883,-7.12041 -7.18274,-12.23848 -14.66319,-14.07046 -2.11081,-0.51694 -4.26083,-0.76321 -6.41408,-0.74775 z m 104.32749,0.36121 c -4.50877,0.0749 -9.00307,1.0507 -12.77752,2.91559 -7.25466,3.58439 -12.09931,10.19556 -14.05702,19.18177 -0.617,2.83223 -0.7005,11.64336 -0.13384,14.15521 1.87665,8.31894 5.61919,14.08245 11.78532,18.15031 3.30777,2.18215 7.5573,3.73567 12.19512,4.45761 h 5.2e-4 c 2.72719,0.42455 11.29996,0.13311 13.90716,-0.47284 7.82345,-1.81831 12.93847,-5.66961 12.94547,-9.74824 0.003,-1.71976 -0.33593,-2.63006 -1.3839,-3.71657 -0.99687,-1.03349 -2.21441,-1.46967 -4.10311,-1.46967 -1.46852,0 -1.47468,0.003 -7.60729,3.19153 -1.16416,0.60536 -2.8265,1.28299 -3.69383,1.50585 -2.00494,0.51505 -5.67398,0.52071 -7.62951,0.0114 -4.97218,-1.29509 -9.12572,-5.37995 -10.61175,-10.43605 -0.78822,-2.68192 -3.13767,-2.38694 19.61999,-2.46394 l 20.04219,-0.0677 0.0848,-1.85209 c 0.10573,-2.30808 -0.38401,-8.085 -0.89556,-10.56783 -1.95518,-9.48968 -7.3759,-16.90886 -14.8208,-20.28455 -3.8342,-1.7385 -8.35762,-2.56465 -12.86639,-2.48977 z m -181.15432,0.004 c -6.8458,0.12754 -14.11002,1.63116 -20.1228,4.40645 -1.22815,0.56687 -2.27034,1.06783 -2.31614,1.11363 -0.15582,0.15581 4.42837,9.42991 4.66121,9.42991 0.12747,0 1.31829,-0.41954 2.64584,-0.93224 1.32751,-0.51269 3.80985,-1.30581 5.51645,-1.76217 2.76524,-0.73945 3.52023,-0.83229 6.93912,-0.85369 5.14011,-0.0322 7.85868,0.69208 10.85463,2.8913 2.16726,1.59089 3.96203,5.01316 3.96203,7.55406 v 0.70073 l -5.4901,0.18242 c -14.34327,0.47623 -21.84688,2.58776 -26.81128,7.54527 -5.58183,5.57408 -5.99134,15.21939 -0.93018,21.90151 2.8366,3.74511 8.12665,6.50003 13.88391,7.23056 2.29271,0.29093 6.44759,0.0923 8.98859,-0.42994 3.63249,-0.74652 7.50401,-2.68433 10.33064,-5.17075 0.63894,-0.56206 1.23422,-1.02112 1.32292,-1.02112 0.0887,5.5e-4 0.3813,0.53681 0.6506,1.19166 0.65608,1.59534 2.6104,3.72064 4.12895,4.49016 3.5588,1.80337 8.40351,1.31114 9.81077,-0.99684 0.65344,-1.07167 0.68591,-3.62489 0.0987,-7.72821 -0.31242,-2.18316 -0.46755,-6.54668 -0.62011,-17.4625 -0.19238,-13.76422 -0.23361,-14.65525 -0.76843,-16.45584 -1.99121,-6.70374 -5.8927,-11.00761 -12.30674,-13.57592 -4.03249,-1.61468 -9.10407,-2.34764 -14.42858,-2.24844 z m 250.96297,0.0589 c -2.45332,-0.0223 -4.8963,0.0772 -6.38617,0.30799 -11.13519,1.72463 -19.28232,7.32604 -23.53861,16.183 -2.50401,5.21064 -3.39084,11.99635 -2.38125,18.22162 2.05245,12.65567 11.79302,21.82707 25.43617,23.94944 h 5.2e-4 c 3.17631,0.49403 9.44169,0.50533 12.38994,0.0222 5.57003,-0.91268 10.07655,-2.7873 12.83126,-5.33766 2.05183,-1.89966 2.75022,-3.19952 2.75022,-5.11804 0,-2.51006 -1.26115,-4.24917 -3.64216,-5.02191 -1.69127,-0.54888 -3.04588,-0.16757 -7.37526,2.07532 -4.92524,2.55159 -6.93869,3.08954 -10.77092,2.87838 -7.53225,-0.41505 -13.17616,-5.33381 -15.25281,-13.29325 -0.66224,-2.5379 -0.6605,-8.24399 0.003,-10.84791 0.85921,-3.37143 2.37604,-6.11273 4.62659,-8.36177 3.61721,-3.61477 7.28513,-4.87843 13.52217,-4.65863 4.24891,0.14973 6.97921,0.85443 10.64483,2.74764 1.28855,0.66551 2.37674,1.16534 2.41794,1.11104 0.16899,-0.22285 3.3414,-9.65277 3.3414,-9.93221 0,-0.47448 -4.64189,-2.64158 -7.27243,-3.39514 -1.30797,-0.37468 -3.51062,-0.87212 -4.89479,-1.10536 -1.53225,-0.25818 -3.99641,-0.40251 -6.44974,-0.42478 z m -68.7219,10.97298 c 2.46947,0.10174 3.05685,0.22122 4.54029,0.92139 3.96277,1.87042 6.57723,6.49363 6.59443,11.66182 h 5.2e-4 l 0.004,1.38906 h -12.18944 -12.18995 l 0.17776,-1.52135 c 0.58375,-4.99602 2.14526,-8.14986 5.15421,-10.41074 2.11635,-1.59018 4.41691,-2.18405 7.90856,-2.04018 z m -170.62989,20.56257 v 6.30039 6.29987 l -1.25677,0.8201 c -2.09227,1.36522 -3.98205,2.22221 -6.08697,2.76056 -2.56892,0.65702 -5.26351,0.63707 -7.45071,-0.0553 -3.20662,-1.0151 -5.57847,-4.1755 -5.57847,-7.43366 0,-2.08121 0.54878,-3.43027 1.97456,-4.85603 2.27506,-2.27508 5.38962,-3.11876 12.57752,-3.40703 2.25557,-0.0904 4.48799,-0.22382 4.96094,-0.29662 z M -65.365,281.33879 c 0.348304,-0.0846 1.392839,2.50255 2.059306,5.25497 1.765716,7.29221 1.364021,14.32513 -1.165303,20.40083 -4.242616,10.19121 -13.617681,17.05179 -25.766386,18.85569 -2.493637,0.37028 -8.207133,0.49258 -10.764197,0.23048 -1.66439,-0.1706 -6.41089,-0.91867 -6.81664,-1.07435 -0.21795,-0.0836 0.8991,-0.41491 2.48253,-0.73588 20.676697,-4.1912 36.862854,-21.53703 39.867338,-42.72452 0.01821,-0.12845 0.0536,-0.19514 0.103352,-0.20722 z" /></g></svg>
