<?xml version="1.0" encoding="UTF-8" standalone="no"?>
<!-- Created with Inkscape (http://www.inkscape.org/) -->

<svg
   width="80.682106mm"
   height="21.007738mm"
   viewBox="0 0 80.682111 21.007739"
   version="1.1"
   id="svg5"
   xml:space="preserve"
   xmlns="http://www.w3.org/2000/svg"
   xmlns:svg="http://www.w3.org/2000/svg"><defs
     id="defs2" /><g
     id="layer1"
     transform="translate(37.612564,-588.85479)"><path
       id="path52573"
       style="fill:#000000;stroke-width:0.264583"
       d="m 20.996464,588.85796 c -0.443307,0.0221 -0.896969,0.1608 -1.318783,0.43718 -1.32637,0.86908 -1.144419,3.24055 0.309542,4.03076 1.050744,0.57107 1.78863,0.47282 2.724382,-0.36328 0.664127,-0.59339 0.850594,-0.97241 0.850594,-1.72703 0,-1.46121 -1.235815,-2.44402 -2.565735,-2.37763 z m -55.465865,1.16065 c -2.275268,0 -2.645741,0.0622 -2.762106,0.46302 -0.07392,0.25467 -0.214395,1.95131 -0.312125,3.77032 -0.113311,2.10903 -0.08608,3.21142 0.07545,3.0427 0.594216,-0.62071 5.627047,-6.99852 5.627047,-7.13083 0,-0.08 -1.182863,-0.14521 -2.628263,-0.14521 z m 5.53868,0 v 8.73745 8.73694 l -1.09244,1.18494 -1.091923,1.18442 h 4.00234 c 2.201343,0 4.002856,-0.0749 4.002856,-0.1664 0,-0.0915 -0.416719,-0.62738 -0.926042,-1.19114 l -0.926041,-1.02526 v -7.67136 -7.67137 l 0.95653,-1.05885 0.957048,-1.05937 h -2.941423 z m 29.03647022,0 1.09192298,1.18494 1.0924398,1.18443 v 7.54579 7.54579 l -0.9260417,1.02526 c -0.5093223,0.56376 -0.92604162,1.10405 -0.92604162,1.20045 0,0.0962 1.27992352,0.14103 2.84427082,0.0997 l 2.8442708,-0.0749 0.1322917,-8.91522 0.1322917,-8.91522 0.9115722,-0.94051 0.9120891,-0.94051 H 4.1602821 Z m -16.77003622,0.0253 c -0.499308,0 -1.177919,0.0107 -1.915645,0.0315 l -2.682524,0.0754 2.935222,3.65921 c 1.614544,2.01264 2.979073,3.61588 3.032373,3.56258 0.103944,-0.10395 -0.409484,-7.17046 -0.5302,-7.29723 -0.01985,-0.0208 -0.339917,-0.0315 -0.839226,-0.0315 z m 11.665955,0.007 c -0.398015,0.007 -0.6867093,0.027 -0.7699788,0.0589 -0.1665366,0.0639 -1.9934312,2.49785 -4.0597006,5.40897 l -3.7568766,5.29322 v 3.19309 c 0,3.10493 -0.02048,3.21663 -0.734322,4.06176 -0.403754,0.47801 -0.894741,1.07756 -1.09089,1.33222 -0.336057,0.43632 -0.124042,0.46302 3.667477,0.46302 h 4.0235268 l -1.0810709,-1.35754 -1.0805542,-1.35754 v -2.62723 -2.62774 l 4.1005249,-5.87045 4.1005249,-5.87096 -1.8929077,-0.0785 c -0.5206149,-0.0216 -1.0277378,-0.028 -1.4257528,-0.0212 z m 28.190527,5.31699 -2.447395,0.91725 c -1.346067,0.50444 -2.537803,1.00419 -2.647901,1.11053 -0.110101,0.10634 0.15779,0.53633 0.595313,0.9555 l 0.795817,0.76222 v 4.34134 c 0,3.78079 -0.06271,4.43201 -0.485759,5.04362 -0.267181,0.38627 -0.572269,0.85111 -0.677478,1.03301 -0.148595,0.25693 0.524707,0.33073 3.01532,0.33073 3.434685,0 3.32529,0.0638 2.337842,-1.36374 -0.437593,-0.63264 -0.485759,-1.31869 -0.485759,-6.91637 z m 14.355196,0.0227 c -1.37334,-0.0199 -2.839375,0.5744 -4.072102,1.80713 l -1.022677,1.02268 v -1.32292 c 0,-0.85234 -0.113306,-1.32292 -0.31781,-1.32292 -0.513183,0 -4.709273,1.64062 -4.709273,1.84123 0,0.10084 0.297656,0.46283 0.661458,0.80461 0.655613,0.61591 0.661091,0.66115 0.659391,5.13922 -0.0016,4.06349 -0.0543,4.59791 -0.527099,5.31182 -0.289123,0.43656 -0.526517,0.88304 -0.527617,0.99218 -9.57e-4,0.10913 1.367671,0.19844 3.041158,0.19844 1.673489,0 3.042709,-0.0621 3.042709,-0.13797 0,-0.0759 -0.301079,-0.59224 -0.668693,-1.14774 -0.653772,-0.98792 -0.666793,-1.10212 -0.595313,-5.21983 l 0.07338,-4.21008 1.274341,-0.63201 c 1.138138,-0.56431 1.385818,-0.59809 2.316137,-0.31936 1.715676,0.51403 1.951908,1.14574 2.056722,5.50509 0.08318,3.45974 0.04341,3.86592 -0.463021,4.72426 -0.304712,0.51645 -0.553971,1.05085 -0.553971,1.18805 0,0.14119 1.270097,0.24959 2.926953,0.24959 h 2.92747 l -0.535368,-0.99219 c -0.467983,-0.86707 -0.545864,-1.57603 -0.619083,-5.62239 -0.06741,-3.7254 -0.171491,-4.79207 -0.530717,-5.45858 -0.843286,-1.56462 -2.280523,-2.37577 -3.836976,-2.39831 z m -21.839493,6.89881 c -0.09593,-0.0959 -5.7709009,6.91174 -5.9655277,7.36647 -0.048509,0.11336 1.1718837,0.20619 2.7119787,0.20619 2.726681,0 2.80023,-0.0156 2.80293,-0.59531 0.0015,-0.32742 0.126549,-2.00799 0.278019,-3.73466 0.151474,-1.72667 0.22931,-3.18599 0.1726,-3.24269 z" /></g></svg>
