<?xml version="1.0" encoding="UTF-8" standalone="no"?>
<!-- Created with Inkscape (http://www.inkscape.org/) -->

<svg
   width="264.58334mm"
   height="82.230759mm"
   viewBox="0 0 264.58336 82.230761"
   version="1.1"
   id="svg5"
   xml:space="preserve"
   xmlns="http://www.w3.org/2000/svg"
   xmlns:svg="http://www.w3.org/2000/svg"><defs
     id="defs2" /><g
     id="layer1"
     transform="translate(50.382125,-530.06488)"><path
       id="path52306"
       style="fill:#000000;stroke-width:0.264583"
       d="m 56.584989,530.06488 c -3.800357,0 -4.868883,0.0739 -4.779553,0.33072 0.06327,0.1819 1.594172,4.40821 3.401859,9.39168 l 3.286621,9.06094 3.96875,-0.16226 c 2.18281,-0.0892 4.334996,-0.2376 4.782654,-0.3297 l 0.813904,-0.16743 -2.203483,-6.08541 c -1.211981,-3.34698 -2.692627,-7.42487 -3.290239,-9.06198 l -1.086238,-2.97656 z m 44.955391,0 -0.26251,0.7276 c -4.639043,12.84138 -6.132754,17.1632 -6.027024,17.43873 0.09137,0.23808 1.006231,0.36198 3.117639,0.42168 1.643525,0.0465 3.541875,0.10997 4.218865,0.14107 1.12539,0.0517 1.25348,-0.006 1.4919,-0.67127 0.14342,-0.40018 1.64331,-4.56859 3.33313,-9.26352 1.68983,-4.69493 3.07216,-8.5942 3.07216,-8.6651 0,-0.0709 -2.01247,-0.12919 -4.47208,-0.12919 z m -20.0427,0.80356 c -0.457399,-0.008 -1.184726,1.3528 -4.564062,8.54057 -2.210968,4.70269 -4.01991,8.60727 -4.01991,8.67647 v 5.2e-4 c 0,0.18148 17.197084,0.17258 17.203084,-0.009 0.0028,-0.0838 -1.812888,-3.98777 -4.034896,-8.67544 -3.353756,-7.07528 -4.132536,-8.52482 -4.584216,-8.53282 z m -2.060856,20.4184 c -5.772656,-0.003 -11.101979,0.0548 -14.460616,0.18241 -21.114994,0.80236 -42.441509,2.91304 -57.8114584,5.72213 -4.4937045,0.82129 -4.6302084,0.86052 -4.6302084,1.32499 0,0.77373 0.994243,0.97047 3.3930746,0.67076 12.4181972,-1.55151 46.9526232,-3.75663 53.4721882,-3.41426 l 1.699638,0.0889 3.312459,9.0749 c 3.213465,8.80395 3.331766,9.07233 3.977535,8.99583 0.59434,-0.0704 1.139803,-1.05623 5.093229,-9.20667 l 4.427637,-9.12813 h 3.506246 3.506246 l 4.261239,9.12813 c 3.830096,8.2044 4.328761,9.13567 4.926831,9.20667 0.646479,0.0767 0.758352,-0.18119 3.944979,-9.06198 L 101.33626,555.73 h 2.78795 c 9.66631,10e-4 36.00264,1.68904 49.49982,3.17241 4.93466,0.54234 5.80843,0.49989 5.80843,-0.28267 0,-0.63701 -0.54221,-0.77141 -8.33438,-2.06344 -13.61094,-2.25685 -28.25388,-3.78146 -46.16979,-4.80694 -5.017241,-0.28718 -15.870372,-0.458 -25.491466,-0.4625 z M -35.32258,590.05605 c -0.10283,0.11088 -1.547873,2.84892 -3.211173,6.08438 l -3.024105,5.88284 -2.133203,-5.35367 -2.132686,-5.35368 -2.279448,-0.076 c -1.536372,-0.0515 -2.27893,0.019 -2.27893,0.21653 0,0.24659 4.76779,12.20816 7.457942,18.711 0.436452,1.05503 0.83335,1.91823 0.8816,1.91823 0.04825,0 1.549007,-2.85751 3.335197,-6.35 1.786189,-3.4925 3.312945,-6.34888 3.393075,-6.34793 0.08013,9.4e-4 1.544745,2.87808 3.254581,6.39392 1.709837,3.51585 3.158109,6.343 3.218409,6.2823 0.197817,-0.19902 8.886279,-20.38622 8.886279,-20.6468 0,-0.14893 -0.955593,-0.22205 -2.30787,-0.17725 l -2.307869,0.076 -2.246375,5.35781 c -1.235577,2.9468 -2.313602,5.35781 -2.395202,5.35781 -0.0816,0 -1.447812,-2.7398 -3.035991,-6.08852 -1.588178,-3.34872 -2.9714,-5.99786 -3.074231,-5.88697 z m 70.178146,0.86403 c -2.428538,-0.0706 -5.083838,0.46934 -6.784599,1.46606 -1.600394,0.93788 -3.487582,3.04479 -4.322217,4.82554 -0.634408,1.35355 -0.709,1.81913 -0.709,4.42299 0,2.58354 0.07731,3.07384 0.687296,4.36562 1.520047,3.219 4.768726,5.6579 8.106482,6.08542 v -5.2e-4 c 2.200138,0.28218 2.39546,0.28199 4.406966,-0.009 3.260939,-0.47136 5.744091,-2.00286 7.438823,-4.58835 1.916161,-2.92333 2.271782,-7.19678 0.856278,-10.28568 -1.328996,-2.90013 -4.257456,-5.28491 -7.371126,-6.00274 -0.715456,-0.16494 -1.49939,-0.25603 -2.308903,-0.27956 z m -34.0454673,0.0289 c -0.45390503,-0.007 -0.91950444,0.006 -1.39681396,0.0398 -4.69630434,0.33109 -8.15196264,2.84479 -9.74049074,7.08536 -0.679187,1.8131 -0.608077,5.53639 0.142627,7.47241 1.2531384,3.23178 4.8688667,6.07024 8.3183553,6.52984 2.01817097,0.26889 4.9533406,0.0667 6.4988281,-0.44752 7.3200746,-2.4357 9.5092446,-12.03829 4.0002726,-17.54725 -2.0408961,-2.0409 -4.6454431,-3.08406 -7.8227783,-3.13263 z m 59.4036093,0.23462 v 10.45104 10.45104 h 8.069792 8.069791 v -2.11667 -2.11666 h -5.953125 -5.953125 v -8.33438 -8.33437 h -2.116666 z m 30.427083,0 v 10.45104 10.45104 h 2.116667 2.116667 v -2.21485 -2.21537 l 4.459159,-0.11576 c 4.202446,-0.10934 4.543786,-0.15756 5.940206,-0.84077 5.08987,-2.49025 6.26927,-9.19078 2.31355,-13.14649 -2.14684,-2.14686 -3.14019,-2.36884 -10.606067,-2.36884 z m 34.395829,0 v 10.45104 10.45104 h 8.59896 8.59896 v -2.11667 -2.11666 h -6.61458 -6.61459 v -1.7198 -1.71979 h 5.82084 5.82083 v -2.11666 -2.11667 h -5.82083 -5.82084 v -2.38125 -2.38125 h 6.4823 6.48229 v -2.11667 -2.11666 h -8.46667 z m 34.13125,0 v 10.45104 10.45104 h 2.11667 2.11667 v -2.24121 -2.24172 l 3.63802,-0.0734 3.63802,-0.0739 1.19062,2.24896 1.19063,2.24896 2.3151,0.0765 c 1.53402,0.0507 2.31511,-0.0202 2.31511,-0.21033 0,-0.15779 -0.64118,-1.48443 -1.42524,-2.94814 l -1.42575,-2.66133 1.04903,-0.94775 c 4.35305,-3.93271 2.94678,-11.46487 -2.52284,-13.51132 -1.39454,-0.52177 -2.02235,-0.5674 -7.85585,-0.5674 z m 32.27917,0 v 2.11666 2.11667 h 4.63021 4.63021 v 8.33437 8.33438 h 2.11666 2.11667 v -8.33438 -8.33437 h 4.63021 4.63021 v -2.11667 -2.11666 H 202.82412 Z M 0.41787458,595.12602 c 1.19022832,0 2.38060062,0.21603 3.30935872,0.64854 2.5451835,1.18523 4.0336384,3.72269 3.7568766,6.40426 -0.2756507,2.67079 -2.0243835,4.79407 -4.582666,5.564 -4.6420233,1.39705 -9.0988744,-1.19992 -9.5492879,-5.564 -0.2767617,-2.68157 1.2111764,-5.21903 3.7563599,-6.40426 0.928758,-0.43251 2.11913037,-0.64854 3.30935868,-0.64854 z m 33.62120342,0.0382 c 2.222866,-0.0148 3.910163,0.56582 5.153174,1.77302 3.250922,3.15726 2.465499,8.36643 -1.575098,10.44536 -1.176423,0.60529 -4.507866,0.89843 -5.715413,0.50281 -2.28309,-0.74798 -4.002222,-2.46888 -4.632792,-4.63796 -0.501729,-1.72589 -0.345298,-2.93835 0.608231,-4.72271 1.204178,-2.2534 3.197954,-3.34072 6.161898,-3.36052 z m 60.835047,0.2527 4.034895,10e-4 c 3.55941,8.8e-4 4.13668,0.0633 4.89738,0.5271 2.63504,1.60661 2.52236,5.36605 -0.20413,6.80785 -1.03111,0.5453 -1.49528,0.60152 -4.933028,0.60152 h -3.795117 v -3.96875 z m 68.527085,0 4.03489,10e-4 c 3.55943,8.8e-4 4.13668,0.0633 4.89738,0.5271 2.68893,1.63946 2.5111,5.62574 -0.30799,6.90604 v -5.2e-4 c -0.8916,0.40492 -1.75168,0.49316 -4.85397,0.49816 l -3.77031,0.006 v -3.96875 z" /></g></svg>
