<?xml version="1.0" encoding="UTF-8" standalone="no"?>
<!-- Created with Inkscape (http://www.inkscape.org/) -->

<svg
   width="470.54807mm"
   height="223.83751mm"
   viewBox="0 0 470.54807 223.83751"
   version="1.1"
   id="svg3814"
   xml:space="preserve"
   inkscape:export-filename="bentley.svg"
   inkscape:export-xdpi="96"
   inkscape:export-ydpi="96"
   xmlns:inkscape="http://www.inkscape.org/namespaces/inkscape"
   xmlns:sodipodi="http://sodipodi.sourceforge.net/DTD/sodipodi-0.dtd"
   xmlns="http://www.w3.org/2000/svg"
   xmlns:svg="http://www.w3.org/2000/svg"><sodipodi:namedview
     id="namedview3816"
     pagecolor="#505050"
     bordercolor="#ffffff"
     borderopacity="1"
     inkscape:showpageshadow="0"
     inkscape:pageopacity="0"
     inkscape:pagecheckerboard="1"
     inkscape:deskcolor="#505050"
     inkscape:document-units="mm"
     showgrid="false" /><defs
     id="defs3811" /><g
     inkscape:label="Layer 1"
     inkscape:groupmode="layer"
     id="layer1"
     transform="translate(247.27527,-130.82333)"><path
       id="path4540"
       style="fill:#000000;stroke-width:0.264583"
       d="m -53.289178,130.82333 -0.798918,2.09186 c -2.193602,5.74446 -3.314739,12.65997 -3.328479,20.53001 -0.01075,6.16251 0.362309,9.21723 1.714624,14.03326 1.867169,6.64958 4.549259,11.24357 9.626286,16.48943 7.349517,7.59392 14.864096,12.2608 32.030603,19.89078 15.2919232,6.79678 22.7871142,11.25433 28.076323,16.69768 4.588847,4.72259 6.700355,9.4648 6.711735,15.0735 0.0089,4.43536 -1.249598,9.37666 -3.55999,13.97693 l -1.203027,2.39572 h 14.550016 14.550533 l 0.695048,-1.37201 c 1.032376,-2.0373 2.642052,-7.14333 3.24218,-10.28413 0.888179,-4.64847 1.180912,-8.6838 1.024227,-14.12524 -0.207857,-7.21878 -1.092646,-11.62274 -3.460771,-17.2222 -3.94033,-9.31698 -12.259128,-18.21153 -23.05544,-24.65224 -4.547258,-2.71274 -14.0383178,-7.29493 -21.563542,-10.41074 -11.8752425,-4.91693 -17.271722,-8.02626 -21.971269,-12.65814 -4.984917,-4.91314 -7.48981,-10.1672 -7.843449,-16.45171 -0.24499,-4.35372 0.703839,-9.25978 2.465483,-12.74599 l 0.635103,-1.25677 h -14.268896 z m 143.357658,0 v 111.91875 111.91875 h 15.61042 15.61041 V 242.74208 130.82333 H 105.6789 Z m 79.60548,0 1.56321,1.91823 c 11.68145,14.33333 18.68829,33.56185 19.60087,53.79155 0.71985,15.95726 -2.0567,30.95123 -8.31164,44.88666 -3.02852,6.74729 -7.66146,14.21379 -11.8277,19.06137 l -1.30741,1.52136 17.68677,-0.0119 17.68729,-0.0124 1.22939,-1.64124 c 6.85505,-9.15513 12.33127,-22.24383 15.14894,-36.20555 1.79816,-8.91002 2.12907,-12.46047 2.12907,-22.8508 0,-8.16357 -0.0718,-9.79317 -0.60565,-13.75833 -1.73643,-12.89662 -4.87456,-23.77702 -9.69139,-33.60208 -2.32328,-4.73889 -4.26464,-8.00292 -6.64973,-11.17865 l -1.44074,-1.91823 H 187.2796 Z m -313.45942,0.001 c -12.87308,-8.2e-4 -16.20988,0.0674 -16.11788,0.3297 0.0638,0.1819 10.1077,27.44662 22.31957,60.58803 l 22.20329,60.25627 8.60671,0.002 8.607228,0.002 3.768762,-10.25261 c 2.072791,-5.63893 3.766728,-10.37167 3.764628,-10.51719 -0.0021,-0.14551 -8.309467,-22.79672 -18.460888,-50.33594 l -18.45727,-50.07136 z m -87.30165,0.063 c -8.90355,-0.0375 -16.18816,0.0331 -16.18816,0.1571 0,0.16509 41.25257,112.26291 44.10067,119.83712 l 0.42374,1.1281 8.61705,-0.0698 8.61704,-0.0698 3.80339,-10.30376 3.80339,-10.30376 -18.49448,-50.15353 -18.49396,-50.15353 z" /></g></svg>
